<svg width="1126" height="29" viewBox="0 0 1126 29" fill="none" xmlns="http://www.w3.org/2000/svg">
  <g opacity="0.6">
    <g clip-path="url(#clip0_707_1871)">
      <path
        d="M595.927 11.2038C599.016 10.0276 598.416 8.56104 597.259 6.99155C593.119 1.37854 584.695 1.4663 580.58 7.16538C580.317 7.52822 580.135 7.9805 579.803 8.25727C579.348 8.63698 578.783 9.21583 578.162 8.69773C577.65 8.27077 578.115 7.71892 578.314 7.23626C580.015 3.15729 584.331 0.51617 589.18 0.595488C594.183 0.676494 598.473 3.46275 600.075 7.66998C601.317 10.9305 604.862 11.8165 607.594 9.54661C615.462 3.01384 626.964 4.20192 632.506 12.1202C632.713 12.4156 632.966 12.6923 633.102 13.018C633.56 14.1217 634.841 15.5225 633.462 16.373C631.735 17.4379 631.528 15.2963 631.006 14.3934C627.181 7.79486 619.39 5.6094 611.948 9.20233C610.691 9.80987 609.336 10.3398 608.159 11.619C611.341 13.1412 614.396 14.4643 616.627 17.0481C617.64 18.221 618.556 19.4276 619.087 20.8874C619.337 21.5759 619.552 22.3759 618.711 22.7843C617.786 23.2332 617.446 22.4265 617.121 21.7903C614.232 16.1216 609.242 13.7133 603.262 12.6231C601.606 12.321 601.1 12.6383 600.786 14.223C599.803 19.1559 596.756 22.3843 592.016 23.947C586.456 25.7815 580.065 23.034 577.88 17.9864C577.54 17.1999 576.841 16.1637 577.854 15.6659C578.704 15.2491 579.12 16.4287 579.563 17.0565C583.071 22.0147 587.231 23.4408 592.38 21.4983C595.389 20.3625 597.326 18.2412 598.265 15.2406C598.818 13.4686 599.95 11.2781 595.926 11.2072L595.927 11.2038Z"
        fill="#F45B21" />
      <path
        d="M553.901 15.5275C554.069 19.5863 551.205 22.9092 546.655 24.0804C539.973 25.8001 533.119 21.9017 531.434 14.9892C530.762 12.2367 529.734 12.181 527.45 12.8611C522.11 14.4525 517.23 16.5401 514.751 22.0215C514.471 22.6442 514.117 23.1674 513.327 22.8248C512.562 22.4923 512.669 21.7987 512.835 21.1962C513.674 18.1298 515.927 16.1773 518.402 14.4812C519.931 13.4315 521.621 12.6164 523.301 11.6595C515.555 4.81962 505.075 6.57811 500.072 15.3757C499.72 15.995 499.507 16.8574 498.561 16.5418C497.553 16.206 497.605 15.3183 497.873 14.5048C499.258 10.2993 502.435 7.80163 506.385 6.42285C512.862 4.15976 518.86 5.50985 524.192 9.70358C526.77 11.7304 530.568 10.9423 531.691 7.9569C533.374 3.48471 536.799 1.31781 541.363 0.872282C546.206 0.398061 550.314 1.81566 552.934 6.21021C553.392 6.97977 554.521 8.05646 553.443 8.77876C552.364 9.50106 551.824 8.10709 551.259 7.34767C547.818 2.73541 541.394 1.54058 536.847 4.66942C535.553 5.56048 534.712 6.81269 533.863 8.10709C532.476 10.22 535.429 9.82846 535.414 10.9339C535.395 12.2704 532.604 10.9254 533.073 13.3573C533.851 17.4042 537.068 21.0595 541.341 22.0569C545.668 23.0678 549.248 21.5557 551.799 17.7282C552.315 16.9553 552.462 15.8043 553.906 15.5259L553.901 15.5275Z"
        fill="#F45B21" />
      <path
        d="M587.075 11.4456C576.956 12.2034 565.876 16.8376 567.304 24.5871C568.549 24.6428 569.171 22.7273 570.656 23.5003C571.056 23.7078 571.575 23.7787 571.612 24.3103C571.649 24.8588 571.206 25.0191 570.738 25.1018C568.892 25.4292 567.735 26.6949 566.808 28.1547C566.12 29.2382 565.607 29.2753 564.804 28.2914C563.728 26.9751 562.674 25.5862 560.85 25.1929C560.383 25.0934 559.923 24.8419 559.964 24.3356C560.016 23.6893 560.6 23.5914 561.155 23.4834C562.698 23.183 563.662 24.1871 564.883 25.2284C564.758 21.8093 563.714 19.0382 561.236 17.008C557.041 13.5703 552.03 12.2152 546.732 11.7224C546.107 11.6633 545.504 11.5384 545.876 12.6523C546.423 14.2842 545.347 14.9981 543.918 15.1601C542.436 15.3288 541.132 14.8428 540.829 13.2345C540.539 11.6937 541.039 10.3301 542.727 9.83394C544.486 9.31753 546.315 9.5268 548.109 9.59768C555.397 9.88626 562.232 13.6935 565.673 19.4331C570.65 11.9097 578.294 10.0111 586.561 9.44748C587.938 9.35297 589.269 9.47617 590.309 10.5748C591.419 11.7494 591.473 13.0117 590.462 14.1964C589.457 15.3727 588.119 15.5415 586.794 14.7533C585.387 13.9146 585.458 12.8041 587.073 11.4439L587.075 11.4456Z"
        fill="#F45B21" />
      <path
        d="M566.078 2.14318e-05C569.457 0.00845951 571.837 2.41162 571.863 5.83917C571.885 8.88701 568.752 12.0952 565.827 12.0192C562.975 11.945 560.15 8.81107 560.198 5.77504C560.25 2.47575 562.779 -0.00841665 566.078 2.14318e-05Z"
        fill="#F45B21" />
      <path
        d="M658 15.3101C657.873 16.9387 656.917 17.8787 655.398 17.8753C654.075 17.8719 652.859 17.1395 652.768 15.6611C652.671 14.1001 653.632 13.0993 655.202 12.9896C656.79 12.8783 657.697 13.7896 658 15.3101Z"
        fill="#F45B21" />
      <path
        d="M472 15.6829C472.167 14.0004 472.996 13.0722 474.603 13.0941C476.173 13.1161 477.168 13.9498 477.126 15.5716C477.088 17.033 476.1 17.9494 474.722 17.9494C473.297 17.9494 472.173 17.195 472 15.6846V15.6829Z"
        fill="#F45B21" />
      <path
        d="M485.922 15.4449C485.663 16.8237 484.826 17.6185 483.484 17.4683C482.234 17.3283 481.255 16.633 481.459 15.1276C481.63 13.8737 482.364 13.1953 483.672 13.2965C485.001 13.3995 485.866 14.0239 485.922 15.4449Z"
        fill="#F45B21" />
      <path
        d="M648.869 15.2156C648.754 16.5387 648.037 17.4213 646.697 17.4095C645.584 17.3977 644.552 16.856 644.547 15.5278C644.542 14.0849 645.347 13.1466 646.829 13.1618C648.047 13.1736 648.744 13.9651 648.867 15.2156H648.869Z"
        fill="#F45B21" />
      <path
        d="M525.197 20.1147C526.297 20.2514 527.065 20.6328 527.083 21.7399C527.099 22.577 526.574 23.0816 525.769 23.1187C524.806 23.1626 523.947 22.8234 523.886 21.7095C523.837 20.805 524.412 20.2683 525.197 20.1147Z"
        fill="#F45B21" />
      <path
        d="M607.9 21.7245C607.686 22.5666 607.244 23.2096 606.28 23.11C605.503 23.029 604.977 22.5734 605.037 21.7059C605.102 20.7339 605.676 20.3187 606.622 20.3693C607.476 20.4149 607.873 20.8976 607.9 21.7245Z"
        fill="#F45B21" />
    </g>
    <path d="M663 16L1125 16" stroke="#F45B21" stroke-width="2" stroke-linecap="round" />
    <path d="M1 16L463 16" stroke="#F45B21" stroke-width="2" stroke-linecap="round" />
  </g>
  <defs>
    <clipPath id="clip0_707_1871">
      <rect width="186" height="29" fill="white" transform="translate(472)" />
    </clipPath>
  </defs>
</svg>
