<svg width="21" height="20" viewBox="0 0 21 20" fill="none" xmlns="http://www.w3.org/2000/svg">
<path d="M11.528 0C12.653 0.003 13.224 0.009 13.717 0.023L13.911 0.03C14.135 0.038 14.356 0.0479999 14.623 0.0599999C15.687 0.11 16.413 0.278 17.05 0.525C17.71 0.779 18.266 1.123 18.822 1.678C19.3305 2.1779 19.724 2.78259 19.975 3.45C20.222 4.087 20.39 4.813 20.44 5.878C20.452 6.144 20.462 6.365 20.47 6.59L20.476 6.784C20.491 7.276 20.497 7.847 20.499 8.972L20.5 9.718V11.028C20.5025 11.7574 20.4948 12.4868 20.477 13.216L20.471 13.41C20.463 13.635 20.453 13.856 20.441 14.122C20.391 15.187 20.221 15.912 19.975 16.55C19.7247 17.2178 19.3312 17.8226 18.822 18.322C18.322 18.8303 17.7173 19.2238 17.05 19.475C16.413 19.722 15.687 19.89 14.623 19.94C14.3857 19.9512 14.1484 19.9612 13.911 19.97L13.717 19.976C13.224 19.99 12.653 19.997 11.528 19.999L10.782 20H9.47303C8.74329 20.0025 8.01355 19.9949 7.28403 19.977L7.09003 19.971C6.85264 19.962 6.6153 19.9517 6.37803 19.94C5.31403 19.89 4.58803 19.722 3.95003 19.475C3.2827 19.2244 2.67824 18.8308 2.17903 18.322C1.67007 17.8223 1.27625 17.2176 1.02503 16.55C0.778028 15.913 0.610028 15.187 0.560028 14.122C0.548886 13.8847 0.538886 13.6474 0.530028 13.41L0.525028 13.216C0.5066 12.4868 0.498266 11.7574 0.500028 11.028V8.972C0.497237 8.2426 0.504571 7.5132 0.522028 6.784L0.529028 6.59C0.537028 6.365 0.547028 6.144 0.559028 5.878C0.609028 4.813 0.777028 4.088 1.02403 3.45C1.27514 2.7819 1.66975 2.17702 2.18003 1.678C2.67912 1.16947 3.28317 0.775987 3.95003 0.525C4.58803 0.278 5.31303 0.11 6.37803 0.0599999C6.64403 0.0479999 6.86603 0.038 7.09003 0.03L7.28403 0.0239999C8.01322 0.00623271 8.74262 -0.0014347 9.47203 0.000999928L11.528 0ZM10.5 5C9.17395 5 7.90218 5.52678 6.96449 6.46447C6.02681 7.40215 5.50003 8.67392 5.50003 10C5.50003 11.3261 6.02681 12.5979 6.96449 13.5355C7.90218 14.4732 9.17395 15 10.5 15C11.8261 15 13.0979 14.4732 14.0356 13.5355C14.9732 12.5979 15.5 11.3261 15.5 10C15.5 8.67392 14.9732 7.40215 14.0356 6.46447C13.0979 5.52678 11.8261 5 10.5 5ZM10.5 7C10.894 6.99993 11.2841 7.07747 11.6481 7.22817C12.0121 7.37887 12.3429 7.5998 12.6215 7.87833C12.9001 8.15686 13.1212 8.48754 13.272 8.85149C13.4228 9.21544 13.5005 9.60553 13.5005 9.9995C13.5006 10.3935 13.4231 10.7836 13.2724 11.1476C13.1217 11.5116 12.9007 11.8423 12.6222 12.121C12.3437 12.3996 12.013 12.6206 11.649 12.7714C11.2851 12.9223 10.895 12.9999 10.501 13C9.70538 13 8.94232 12.6839 8.37971 12.1213C7.8171 11.5587 7.50103 10.7956 7.50103 10C7.50103 9.20435 7.8171 8.44129 8.37971 7.87868C8.94232 7.31607 9.70538 7 10.501 7M15.751 3.5C15.4195 3.5 15.1016 3.6317 14.8671 3.86612C14.6327 4.10054 14.501 4.41848 14.501 4.75C14.501 5.08152 14.6327 5.39946 14.8671 5.63388C15.1016 5.8683 15.4195 6 15.751 6C16.0825 6 16.4005 5.8683 16.6349 5.63388C16.8693 5.39946 17.001 5.08152 17.001 4.75C17.001 4.41848 16.8693 4.10054 16.6349 3.86612C16.4005 3.6317 16.0825 3.5 15.751 3.5Z" fill="#F45B21"/>
</svg>
