<svg height='100px' width='100px'  fill="#000000" xmlns="http://www.w3.org/2000/svg" xmlns:xlink="http://www.w3.org/1999/xlink" version="1.1" x="0px" y="0px" viewBox="0 0 64 64" enable-background="new 0 0 64 64" xml:space="preserve"><g><path d="M14.217,14.164v0.583h4.661v-2.197h-2.89C15.014,12.549,14.217,13.273,14.217,14.164z"></path><path d="M24.304,38.193c-0.58-0.057-1.17-0.123-1.75-0.198c-1.108-0.131-2.248-0.3-3.376-0.506   c-0.518-0.095-1.015-0.198-1.512-0.302c-0.477-0.094-0.953-0.196-1.43-0.31c-0.093-0.019-0.196-0.037-0.29-0.065   c-0.497-0.122-0.974-0.244-1.439-0.366c-0.498-0.122-0.994-0.272-1.492-0.432l-0.176-0.057c-0.166-0.047-0.331-0.104-0.487-0.15   c-0.01,0-0.01,0-0.021,0c-0.021-0.01-0.041-0.02-0.062-0.02c-0.487-0.168-0.922-0.318-1.336-0.469l-0.29-0.113   c-0.134-0.047-0.27-0.103-0.394-0.15c-0.208-0.084-0.414-0.168-0.631-0.252l-0.55-0.235c-0.238-0.095-0.486-0.206-0.735-0.329   c-0.352-0.168-0.745-0.357-1.119-0.554c-0.362-0.197-0.735-0.404-1.077-0.61c-0.155-0.094-0.331-0.197-0.507-0.319   c-0.021-0.01-0.031-0.019-0.042-0.019v22.038c0,0.591,0.259,1.146,0.714,1.577C6.77,56.766,7.392,57,8.033,57h20.228V40.842h-1.667   c-0.57,0-1.036-0.424-1.036-0.94v-1.586C25.133,38.277,24.719,38.24,24.304,38.193z"></path><path d="M33.181,28.005c-0.321-0.291-0.735-0.441-1.181-0.441c-0.922,0-1.667,0.676-1.667,1.511v4.987h3.335v-4.987   C33.667,28.663,33.491,28.287,33.181,28.005z"></path><rect x="30.333" y="40.842" width="3.335" height="16.158"></rect><rect x="27.629" y="35.939" width="8.741" height="3.022"></rect><path d="M43.051,14.747V8.587c0-0.874-0.787-1.587-1.75-1.587H22.699c-0.963,0-1.75,0.713-1.75,1.587v6.159h2.423V9.582   c0-0.516,0.456-0.939,1.036-0.939h15.185c0.58,0,1.036,0.423,1.036,0.939v5.165H43.051z"></path><path d="M45.123,12.549v2.197h4.661v-0.583c0-0.891-0.797-1.615-1.771-1.615H45.123z"></path><path d="M58.411,54.775V32.737c-0.217,0.141-0.393,0.244-0.58,0.348c-0.311,0.196-0.684,0.403-1.046,0.601   c-0.374,0.196-0.767,0.386-1.16,0.573c-0.208,0.104-0.456,0.215-0.715,0.318l-0.508,0.217c-0.238,0.094-0.445,0.178-0.673,0.272   c-0.104,0.037-0.239,0.093-0.373,0.14l-0.259,0.104c-0.342,0.131-0.684,0.243-1.036,0.365l-0.28,0.095   c-0.031,0.009-0.073,0.027-0.114,0.037c-0.01,0-0.01,0-0.021,0c-0.156,0.047-0.321,0.104-0.487,0.15l-0.176,0.057   c-0.498,0.159-0.994,0.31-1.523,0.432c-0.435,0.122-0.911,0.244-1.408,0.366c-0.093,0.028-0.197,0.047-0.29,0.065   c-0.478,0.113-0.954,0.216-1.44,0.31c-0.487,0.104-0.984,0.207-1.501,0.302c-1.129,0.206-2.268,0.375-3.387,0.506   c-0.569,0.075-1.16,0.142-1.75,0.198c-0.404,0.047-0.818,0.084-1.243,0.122v1.586c0,0.517-0.466,0.94-1.036,0.94h-1.667V57h20.228   C57.313,57,58.411,55.996,58.411,54.775z"></path><path d="M60.285,17.264c-0.466-0.414-1.077-0.639-1.729-0.639H5.444C4.098,16.625,3,17.621,3,18.84v7.211   c0,1.38,0.767,2.732,2.268,4.019c0.363,0.31,0.746,0.601,1.139,0.873c0.146,0.094,0.27,0.188,0.394,0.272   c0.186,0.122,0.321,0.197,0.466,0.281c0.332,0.207,0.663,0.395,1.004,0.573c0.332,0.179,0.684,0.348,1.056,0.517   c0.229,0.113,0.415,0.197,0.612,0.282l0.548,0.225c0.176,0.075,0.384,0.159,0.59,0.244c0.125,0.048,0.238,0.095,0.353,0.132   l0.301,0.113c0.362,0.131,0.766,0.271,1.18,0.422c0.021,0,0.042,0.01,0.062,0.02v-0.01c0.187,0.057,0.363,0.113,0.55,0.178   l0.176,0.047c0.455,0.15,0.911,0.282,1.377,0.396c0.497,0.141,0.973,0.253,1.471,0.375c0,0,0.01,0.009,0.021,0.009   c0.041,0,0.093,0.01,0.134,0.02c0.466,0.121,0.932,0.225,1.429,0.319c0.487,0.104,0.963,0.196,1.461,0.29   c1.077,0.198,2.165,0.358,3.242,0.489c0.569,0.075,1.139,0.131,1.709,0.188c0.332,0.037,0.673,0.065,1.015,0.094V35   c0-0.517,0.466-0.938,1.036-0.938h1.667v-4.987c0-1.868,1.677-3.389,3.739-3.389c0.994,0,1.937,0.348,2.641,0.986   c0.704,0.629,1.098,1.483,1.098,2.403v4.987h1.667c0.57,0,1.036,0.422,1.036,0.938v1.418c0.332-0.028,0.683-0.057,1.004-0.085   c0.58-0.065,1.15-0.121,1.708-0.196c1.088-0.131,2.175-0.291,3.252-0.489c0.498-0.094,0.974-0.187,1.45-0.29   c0.507-0.095,0.974-0.198,1.439-0.319c0.042-0.01,0.093-0.02,0.134-0.02c0.011,0,0.021-0.009,0.021-0.009   c0.498-0.122,0.974-0.234,1.44-0.366c0.497-0.122,0.953-0.254,1.408-0.404l0.176-0.047c0.187-0.064,0.363-0.121,0.55-0.178v0.01   c0.021-0.01,0.042-0.02,0.062-0.028l0.248-0.076c0.322-0.113,0.632-0.225,0.943-0.337l0.29-0.113   c0.114-0.037,0.228-0.084,0.332-0.122c0.228-0.095,0.435-0.179,0.632-0.254l0.507-0.225c0.218-0.085,0.404-0.169,0.591-0.262   c0.414-0.188,0.766-0.357,1.098-0.536c0.342-0.178,0.673-0.366,0.974-0.554c0.176-0.104,0.311-0.179,0.445-0.272   c0.176-0.113,0.3-0.207,0.425-0.292c0.414-0.282,0.797-0.572,1.16-0.882C60.233,28.784,61,27.432,61,26.052V18.84   c-0.01-0.046-0.01-0.075-0.01-0.122C60.958,18.174,60.71,17.658,60.285,17.264z"></path></g></svg>