<svg height='100px' width='100px'  fill="#000000" xmlns="http://www.w3.org/2000/svg" data-name="Layer 1" viewBox="0 0 128 128" x="0px" y="0px"><title>miscellaneous 111 final</title><path d="M15.91974,21.93817a2.00168,2.00168,0,0,0,1.26385-.0918l.00586-.00244a2.00132,2.00132,0,0,0,.91815-.77344c.36523-.57373.74518-1.14893,1.12708-1.72754a32.644,32.644,0,0,0,4.20184-7.84961,9.66959,9.66959,0,0,0,.0498-6.3291A8.03677,8.03677,0,0,0,16.05945.0036,7.81048,7.81048,0,0,0,9.42853,3.11346,8.00051,8.00051,0,0,0,2.2312,5.46454,7.68529,7.68529,0,0,0,.70557,14.0788a10.08934,10.08934,0,0,0,4.53094,4.49951,35.04589,35.04589,0,0,0,8.62335,2.85938C14.55334,21.60223,15.24292,21.76581,15.91974,21.93817ZM4.334,12.39374a3.68186,3.68186,0,0,1,.77649-4.15186,3.94714,3.94714,0,0,1,4.4743-.93311A2.00879,2.00879,0,0,0,12.20435,6.258,3.85435,3.85435,0,0,1,15.95,4.00214a4.03039,4.03039,0,0,1,3.78381,2.5498,5.87514,5.87514,0,0,1-.10651,3.72021,29.72605,29.72605,0,0,1-3.732,6.86768q-.19189.29-.3819.57959c-.24219-.05811-.48639-.11572-.72961-.17383a32.10455,32.10455,0,0,1-7.65637-2.49219A6.32014,6.32014,0,0,1,4.334,12.39374Z"></path><path d="M125.769,5.46454a7.99788,7.99788,0,0,0-7.19733-2.35107A7.83354,7.83354,0,0,0,111.94086.0036,8.03719,8.03719,0,0,0,104.514,5.16327a9.67319,9.67319,0,0,0,.0498,6.33057,32.64768,32.64768,0,0,0,4.20178,7.84912c.3819.57861.76184,1.15381,1.12714,1.72754a2.00612,2.00612,0,0,0,2.18781.86768c.67688-.17236,1.36639-.33594,2.05988-.50049a35.065,35.065,0,0,0,8.62335-2.85889,10.08675,10.08675,0,0,0,4.53-4.49951A7.684,7.684,0,0,0,125.769,5.46454Zm-2.10382,6.92969a6.318,6.318,0,0,1-2.79242,2.65967,32.12578,32.12578,0,0,1-7.65637,2.4917c-.24323.05811-.48737.11572-.72961.17383q-.19043-.28931-.3819-.57959a29.73532,29.73532,0,0,1-3.732-6.86719,5.87955,5.87955,0,0,1-.10645-3.72168,4.0308,4.0308,0,0,1,3.78375-2.54883c.03125-.001.06738-.00146.10645-.00146A3.83576,3.83576,0,0,1,115.7959,6.258a2.0088,2.0088,0,0,0,2.61951,1.05078,3.97616,3.97616,0,0,1,4.4743.93311A3.68068,3.68068,0,0,1,123.66522,12.39423Z"></path><path d="M111.57556,75.87762a24.536,24.536,0,0,0-.61047-4.48193c-1.20136-4.86865-4.82294-9.124-10.19678-11.98145-7.16223-3.80859-15.17413-4.56152-22.12146-4.96826-8.16138-.47705-16.439-.59131-24.60425-.33838-7.56653.23438-16.3042.7627-24.24286,4.08984C23.16693,61.00067,18.679,65.51337,17.16406,70.905a16.4244,16.4244,0,0,0-.78723,4.98877,12.86927,12.86927,0,0,0-6.98346,5.563C2.56622,92.301,8.08752,113.58661,8.32587,114.48749a2.00064,2.00064,0,0,0,1.9339,1.48828h2.73279v6.02441a6.007,6.007,0,0,0,6.00092,6h8.00116a6.007,6.007,0,0,0,6.00092-6v-6.02441H95.00476v6.02441a6.007,6.007,0,0,0,6.00085,6h8.00122a6.007,6.007,0,0,0,6.00085-6v-6.02441h2.73285a2.00075,2.00075,0,0,0,1.9339-1.48828c.23828-.90088,5.75964-22.18652-1.06757-33.03076A12.869,12.869,0,0,0,111.57556,75.87762ZM21.01624,71.986c1.51093-5.37793,6.457-8.46289,10.33551-10.10156,7.30383-3.061,15.60583-3.55566,22.8139-3.77881,8.04614-.24854,16.20557-.13721,24.24677.3335,6.52539.38184,14.02747,1.07666,20.47668,4.50635,2.5238,1.3418,6.94342,4.34863,8.18091,9.35693.0976.491.34979,2.31848.45581,3.54718A16.90546,16.90546,0,0,0,103.881,77.6109c-.10535-.83112-.23084-1.43677-.23535-1.45349-1.051-3.73975-4.16766-6.98584-8.77576-9.14014-6.02136-2.81543-12.7431-3.37109-18.57111-3.67139-6.83112-.35156-13.76276-.436-20.60168-.24854-6.34174.17236-13.66608.562-20.33307,3.01807-4.00549,1.48828-9.13519,4.37158-10.82489,9.65869a11.84811,11.84811,0,0,0-.42633,1.81842,17.005,17.005,0,0,0-3.7323-1.7771A12.52372,12.52372,0,0,1,21.01624,71.986ZM10.04266,99.05341c-.2655-5.53979.22852-11.48309,2.736-15.46582A8.91138,8.91138,0,0,1,18.554,79.447c.01587.0036.02979.01093.04584.01416.11469.02277,11.1319,2.441,11.78436,19.59229Zm18.95227,22.94678a2.00243,2.00243,0,0,1-2.00031,2H18.99347a2.00243,2.00243,0,0,1-2.00031-2v-6.02441H28.99493Zm82.01215,0a2.00242,2.00242,0,0,1-2.00024,2h-8.00122a2.00243,2.00243,0,0,1-2.00031-2v-6.02441h12.00177Zm5.15314-10.02441H11.84a83.22266,83.22266,0,0,1-1.48022-8.92236h39.914a35.65059,35.65059,0,0,1-3.79675-3.96777l-.02441-.03223H34.38586c-.308-9.105-3.209-14.74115-6.38287-18.20245a14.79867,14.79867,0,0,1,.34729-3.86053c1.26294-3.95117,5.80951-6.16064,8.40167-7.12354,6.09271-2.24463,13.03027-2.60742,19.05457-2.77148,6.73151-.18262,13.55865-.10107,20.28723.24561,5.45.28027,11.71362.79,17.0816,3.29932,2.03253.9502,5.57507,3.05469,6.59375,6.5127.06006.395.15759,2.37329.20728,3.76843-3.13367,3.467-5.98462,9.0874-6.28912,18.132h-12.14l-.024.03174a35.67505,35.67505,0,0,1-3.79651,3.96826h39.90967A83.57426,83.57426,0,0,1,116.16022,111.97577Zm1.79272-12.92236H97.68842c.63373-16.9632,11.22919-19.48676,11.72571-19.59521.012-.0025.02234-.00806.03418-.01074a8.90792,8.90792,0,0,1,5.77136,4.13721C117.7254,87.56238,118.21838,93.50934,117.95294,99.05341Z"></path><path d="M81.993,87.904a11.40688,11.40688,0,0,0-6.99518-10.94141,10.96784,10.96784,0,0,0-10.99774,1.13184,10.96577,10.96577,0,0,0-10.99774-1.13184A11.40677,11.40677,0,0,0,46.0072,87.9035a14.84219,14.84219,0,0,0,3.5777,8.66309c2.95746,3.64648,6.8067,6.41162,10.52893,9.08594.90637.65088,1.80688,1.29785,2.68591,1.95215a2.00163,2.00163,0,0,0,1.19452.39551H64.006a2.00163,2.00163,0,0,0,1.19452-.39551c.879-.6543,1.77954-1.30127,2.686-1.95215,3.72223-2.67432,7.57141-5.43945,10.52887-9.08594A14.84133,14.84133,0,0,0,81.993,87.904ZM75.3075,94.04706c-2.61957,3.23047-6.24707,5.83643-9.75537,8.35693q-.78085.5603-1.552,1.11914-.7706-.55957-1.552-1.11914c-3.5083-2.52051-7.1358-5.12646-9.75531-8.35693a11.12092,11.12092,0,0,1-2.6889-6.30029,7.36721,7.36721,0,0,1,4.58563-7.1123,7.5808,7.5808,0,0,1,3.01221-.64648,6.89132,6.89132,0,0,1,4.96558,2.14063,2.07476,2.07476,0,0,0,2.86566,0,6.95564,6.95564,0,0,1,7.97772-1.49414,7.36725,7.36725,0,0,1,4.58563,7.11279A11.12122,11.12122,0,0,1,75.3075,94.04706Z"></path><path d="M100.99982,35.00409a2.0335,2.0335,0,0,1,1.49432.67236,1.95351,1.95351,0,0,1,.501,1.5249l-.347,3.35809a16.13918,16.13918,0,0,1,3.68317,3.27509l.643-6.22156a5.98125,5.98125,0,0,0-1.509-4.61523,6.07069,6.07069,0,0,0-4.50262-1.99756H100.442A14.9272,14.9272,0,0,1,101,35Z"></path><path d="M21.026,37.61249l.68854,6.663a16.12939,16.12939,0,0,1,3.68573-3.25061l-.3952-3.824a1.95307,1.95307,0,0,1,.5011-1.52441,2.03376,2.03376,0,0,1,1.494-.6723L27,35a14.92719,14.92719,0,0,1,.558-3.99982H27.0376A6.07069,6.07069,0,0,0,22.535,32.99774,5.98072,5.98072,0,0,0,21.026,37.61249Z"></path><path d="M22,54v4.57208a30.05762,30.05762,0,0,1,4-2.48541V54a8.00917,8.00917,0,0,1,8-8H50a8.00192,8.00192,0,0,1,7.17218,4.47827c1.426-.02747,2.85144-.0498,4.2829-.0553a12.01786,12.01786,0,0,0-10.99371-8.404,11.00018,11.00018,0,1,0-16.91888.00421A12.00481,12.00481,0,0,0,22,54ZM42,28a7,7,0,1,1-7,7A7.00818,7.00818,0,0,1,42,28Z"></path><path d="M66.53918,50.44006c1.41962.0202,2.83807.06342,4.25647.105A8.01663,8.01663,0,0,1,76.57684,46.142l-1.53937,4.56238c1.23657.05511,2.47559.10211,3.70667.17358.14777.00861.29877.01855.44745.02747L83.4248,38.36084A1.99831,1.99831,0,0,1,85.31934,37h1.36133a1.99851,1.99851,0,0,1,1.89453,1.36035l4.89618,14.50952a43.274,43.274,0,0,1,4.73035,1.50806L95.4198,46.13367A8.00795,8.00795,0,0,1,102,54v2.08c.1.0517.201.09772.30078.15051A28.82357,28.82357,0,0,1,106,58.55927V54A12.0049,12.0049,0,0,0,94.43982,42.02228a11.00021,11.00021,0,1,0-16.88269-.004A12.0178,12.0178,0,0,0,66.53918,50.44006ZM86,28a7.00818,7.00818,0,0,1,7,7,6.913,6.913,0,0,1-.48138,2.53613l-.15338-.45459A5.995,5.995,0,0,0,86.68066,33H85.31934a5.997,5.997,0,0,0-5.68555,4.082L79.481,37.535A6.91336,6.91336,0,0,1,79,35,7.00818,7.00818,0,0,1,86,28Z"></path><path d="M57,35.00018H71V35a14.92719,14.92719,0,0,1,.558-3.99982H56.442A14.92719,14.92719,0,0,1,57,35Z"></path></svg>