<svg height='100px' width='100px'  fill="#000000" xmlns="http://www.w3.org/2000/svg" viewBox="0 0 100 100" x="0px" y="0px"><title>pin-change</title><g data-name="Layer 10"><path d="M78,38H70a20,20,0,0,0-40,0H22a28,28,0,0,1,56,0Z"></path><path d="M82,42H18a8,8,0,0,0-8,8V82a8,8,0,0,0,8,8H82a8,8,0,0,0,8-8V50A8,8,0,0,0,82,42ZM44.58,76.82a3,3,0,0,1,1.6,3.48A3,3,0,0,1,42,82.22,18,18,0,0,1,32,66.11,17.79,17.79,0,0,1,35.83,55l-3.27-3.27L47,47.9,43.13,62.34l-3-3a12,12,0,0,0,4.47,17.5Zm22.93,3.57L53.08,84.32l3.8-14.47,3,3A11.88,11.88,0,0,0,62,66.11a12.05,12.05,0,0,0-6.43-10.63A3,3,0,0,1,54,52a3,3,0,0,1,4.25-1.86,18.08,18.08,0,0,1,9.74,16,17.89,17.89,0,0,1-3.78,11Z"></path></g></svg>