<svg height='100px' width='100px'  fill="#000000" xmlns="http://www.w3.org/2000/svg" xmlns:xlink="http://www.w3.org/1999/xlink" version="1.1" x="0px" y="0px" viewBox="0 0 60 60" style="enable-background:new 0 0 60 60;" xml:space="preserve"><path d="M13.1156006,17.0762329h5.4927979c0.4762573,0,0.8616333-0.3858032,0.8616333-0.8615723  c0-0.4758301-0.385376-0.8616333-0.8616333-0.8616333h-5.4927979c-0.4762573,0-0.8616333,0.3858032-0.8616333,0.8616333  C12.2539673,16.6904297,12.6393433,17.0762329,13.1156006,17.0762329z"></path><path d="M13.1156006,23.9691772h5.4927979c0.4762573,0,0.8616333-0.3857422,0.8616333-0.8615723  s-0.385376-0.8616333-0.8616333-0.8616333h-5.4927979c-0.4762573,0-0.8616333,0.3858032-0.8616333,0.8616333  S12.6393433,23.9691772,13.1156006,23.9691772z"></path><path d="M13.1156006,30.8621216h5.4927979c0.4762573,0,0.8616333-0.3857422,0.8616333-0.8615723  s-0.385376-0.8616333-0.8616333-0.8616333h-5.4927979c-0.4762573,0-0.8616333,0.3858032-0.8616333,0.8616333  S12.6393433,30.8621216,13.1156006,30.8621216z"></path><path d="M13.1156006,37.7550659h5.4927979c0.4762573,0,0.8616333-0.3857422,0.8616333-0.8615723  s-0.385376-0.8616333-0.8616333-0.8616333h-5.4927979c-0.4762573,0-0.8616333,0.3858032-0.8616333,0.8616333  S12.6393433,37.7550659,13.1156006,37.7550659z"></path><path d="M13.1156006,44.6480103h5.4927979c0.4762573,0,0.8616333-0.3857422,0.8616333-0.8615723  s-0.385376-0.8616333-0.8616333-0.8616333h-5.4927979c-0.4762573,0-0.8616333,0.3858032-0.8616333,0.8616333  S12.6393433,44.6480103,13.1156006,44.6480103z"></path><path d="M33.0944214,31.4973755c-2.8061523,0-5.1377563,2.0670166-5.5542603,4.7583008h11.1084595  C38.2321167,33.5643921,35.9005737,31.4973755,33.0944214,31.4973755z"></path><path d="M33.0944214,29.7741699c1.6618042,0,3.0139771-1.3521729,3.0139771-3.0139771  c0-1.6622314-1.3521729-3.0144043-3.0139771-3.0144043c-1.6626587,0-3.0148315,1.3521729-3.0148315,3.0144043  C30.0795898,28.4219971,31.4317627,29.7741699,33.0944214,29.7741699z"></path><path d="M19.7434082,51.5404663h23.2637329c2.6107178,0,4.7388916-2.1281738,4.7388916-4.7389526V13.1984253  c0-2.6106567-2.1281738-4.7388916-4.7388916-4.7388916H17.692749c-1.4819336,0-2.6882324,1.2062988-2.6882324,2.6968384v2.4728394  h3.6015625c1.4302979,0,2.5848389,1.163208,2.5848389,2.5848999s-1.154541,2.5848389-2.5848389,2.5848389h-3.6015625v1.7232056  h3.6015625c1.4302979,0,2.5848389,1.163208,2.5848389,2.5848999s-1.154541,2.5848389-2.5848389,2.5848389h-3.6015625v1.7232056  h3.6015625c1.4302979,0,2.5848389,1.163208,2.5848389,2.5848999s-1.154541,2.5848389-2.5848389,2.5848389h-3.6015625v1.7232666  h3.6015625c1.4302979,0,2.5848389,1.163147,2.5848389,2.5848389s-1.154541,2.5848389-2.5848389,2.5848389h-3.6015625v1.7232666  h3.6015625c1.4302979,0,2.5848389,1.163147,2.5848389,2.5848389s-1.154541,2.5848389-2.5848389,2.5848389h-3.6015625v0.4307861  C15.0045166,49.4122925,17.1241455,51.5404663,19.7434082,51.5404663z M30.0914307,30.4221802  c-1.0597534-0.8702393-1.7318115-2.1884766-1.7318115-3.6618652c0-2.6107178,2.1195679-4.7389526,4.7388916-4.7389526  c2.6107178,0,4.7302856,2.1282349,4.7302856,4.7389526c0,1.4733887-0.6720581,2.791626-1.7318726,3.6618652  c2.550415,1.1546021,4.3425903,3.713562,4.3425903,6.6947632c0,0.473877-0.3877563,0.8616333-0.8616333,0.8616333H26.6104736  c-0.473877,0-0.8615723-0.3877563-0.8615723-0.8616333C25.7489014,34.1357422,27.5410767,31.5767822,30.0914307,30.4221802z"></path></svg>