<svg height='100px' width='100px'  fill="#000000" xmlns="http://www.w3.org/2000/svg" viewBox="0 0 24 24" x="0px" y="0px"><title>edit</title><path d="M2.75,24h14.5A2.75,2.75,0,0,0,20,21.25v-8.5a.75.75,0,0,0-1.5,0v8.5a1.25,1.25,0,0,1-1.25,1.25H2.75A1.25,1.25,0,0,1,1.5,21.25V6.75A1.25,1.25,0,0,1,2.75,5.5h8.5a.75.75,0,0,0,0-1.5H2.75A2.75,2.75,0,0,0,0,6.75v14.5A2.75,2.75,0,0,0,2.75,24Z"></path><path d="M19.31.81,8.95,11.16a.75.75,0,0,0-.21.38L8,15.08a.75.75,0,0,0,.74.9h.15l3.54-.71a.75.75,0,0,0,.38-.21l8.94-8.94h0l1.41-1.41A2.75,2.75,0,0,0,19.31.81Zm-7.37,13-2.21.44.44-2.21,8.25-8.25,1.77,1.77Zm10.2-10.2-.88.88L19.48,2.75l.88-.88a1.25,1.25,0,1,1,1.77,1.77Z"></path></svg>