<svg height='100px' width='100px'  fill="#000000" xmlns:x="http://ns.adobe.com/Extensibility/1.0/" xmlns:i="http://ns.adobe.com/AdobeIllustrator/10.0/" xmlns:graph="http://ns.adobe.com/Graphs/1.0/" xmlns="http://www.w3.org/2000/svg" xmlns:xlink="http://www.w3.org/1999/xlink" version="1.1" x="0px" y="0px" viewBox="0 0 100 100" style="enable-background:new 0 0 100 100;" xml:space="preserve"><g><g i:extraneous="self"><path d="M96,41.7c0.9-0.4,1.5-1.3,1.5-2.3s-0.6-1.9-1.5-2.3L50.9,19.4c-0.6-0.2-1.2-0.2-1.8,0L4,37.2c-0.9,0.4-1.5,1.3-1.5,2.3    s0.6,1.9,1.5,2.3l19.3,7.6C22,52,21.2,55,21.2,58.2V68c0,1,0.6,1.9,1.5,2.3l26.3,10.4c0.3,0.1,0.6,0.2,0.9,0.2s0.6-0.1,0.9-0.2    l26.3-10.4c0.9-0.4,1.5-1.3,1.5-2.3v-9.7c0-3.2-0.8-6.2-2.1-8.9l12.5-4.9v9.5l-2.8,5.8c-0.6,1.3,0.3,2.7,1.7,2.7h6.4    c1.4,0,2.3-1.5,1.7-2.7l-2.8-5.8V42.7L96,41.7z M50,24.3l32.9,13H50c-1.2,0-2.2,1-2.2,2.2s1,2.2,2.2,2.2h32.9L50,54.6L11.5,39.4    L50,24.3z M73.9,58.2v8.1L50,75.7l-23.9-9.4v-8.1c0-2.6,0.7-5,1.8-7.1l21.2,8.4c0.3,0.1,0.6,0.2,0.9,0.2s0.6-0.1,0.9-0.2l21.2-8.4    C73.3,53.2,73.9,55.6,73.9,58.2z"></path></g></g></svg>