<svg height='100px' width='100px'  fill="#000000" xmlns="http://www.w3.org/2000/svg" xmlns:xlink="http://www.w3.org/1999/xlink" version="1.1" x="0px" y="0px" viewBox="0 0 100 100" enable-background="new 0 0 100 100" xml:space="preserve"><g><g><path d="M62.46,29.5v5.34c0,10.21-8.3,18.5-18.5,18.5s-18.5-8.29-18.5-18.5V29.5c0-10.2,8.3-18.5,18.5-18.5S62.46,19.3,62.46,29.5    z"></path></g><path d="M82.36,77.956c-0.218,0.809-0.529,1.556-0.933,2.271l1.281,3.123c0.129,0.313,0.056,0.673-0.183,0.913l-1.231,1.231   c-0.24,0.24-0.599,0.312-0.913,0.183l-3.123-1.281c-0.716,0.404-1.462,0.716-2.271,0.933l-1.338,3.159   C73.517,88.798,73.212,89,72.875,89h-1.747c-0.339,0-0.644-0.203-0.775-0.516l-1.309-3.124c-0.809-0.218-1.556-0.529-2.271-0.933   l-3.123,1.281c-0.313,0.129-0.673,0.056-0.913-0.183l-1.231-1.231c-0.24-0.24-0.312-0.599-0.183-0.913l1.281-3.123   c-0.404-0.716-0.716-1.462-0.933-2.271l-3.159-1.338C58.202,76.517,58,76.212,58,75.875v-1.747c0-0.339,0.203-0.644,0.516-0.775   l3.124-1.309c0.218-0.809,0.529-1.556,0.933-2.271l-1.281-3.123c-0.129-0.313-0.056-0.673,0.183-0.913l1.231-1.231   c0.24-0.24,0.599-0.312,0.913-0.183l3.123,1.281c0.716-0.404,1.462-0.716,2.271-0.933l1.338-3.159   C70.483,61.202,70.788,61,71.125,61h1.747c0.339,0,0.644,0.203,0.775,0.516l1.309,3.124c0.809,0.218,1.556,0.529,2.271,0.933   l3.123-1.281c0.313-0.129,0.673-0.056,0.913,0.183l1.231,1.231c0.24,0.24,0.312,0.599,0.183,0.913l-1.281,3.123   c0.404,0.716,0.716,1.462,0.933,2.271l3.159,1.338C85.798,73.483,86,73.788,86,74.125v1.747c0,0.339-0.203,0.644-0.516,0.775   L82.36,77.956z M77.51,75.949c0.634-3.814-2.645-7.094-6.459-6.459c-2.312,0.385-4.176,2.249-4.561,4.561   c-0.634,3.814,2.645,7.094,6.459,6.459C75.261,80.125,77.125,78.261,77.51,75.949z"></path><g><polygon points="66.232,89 66.222,88.976 66.164,89   "></polygon><path d="M73,86.066v-5.569c-0.017,0.003-0.033,0.01-0.051,0.013c-0.321,0.053-0.638,0.079-0.949,0.079    c-3.389,0-6.091-3.045-5.51-6.538c0.385-2.312,2.249-4.176,4.561-4.561c0.192-0.032,0.379-0.035,0.568-0.047    c-0.639-1.766-1.489-3.432-2.519-4.975l-0.086,0.204c-0.809,0.218-1.556,0.529-2.271,0.933l-3.123-1.281    c-0.103-0.042-0.211-0.063-0.319-0.063c-0.219,0-0.434,0.085-0.594,0.246l-1.231,1.231c-0.24,0.24-0.312,0.599-0.183,0.913    l1.281,3.123c-0.404,0.716-0.716,1.462-0.933,2.271l-3.125,1.309C58.203,73.484,58,73.789,58,74.128v1.747    c0,0.337,0.202,0.642,0.512,0.773l3.159,1.338c0.218,0.809,0.529,1.556,0.933,2.271l-1.281,3.123    c-0.129,0.313-0.056,0.673,0.183,0.913l1.231,1.231c0.161,0.161,0.375,0.246,0.594,0.246c0.107,0,0.215-0.021,0.319-0.063    l3.123-1.281c0.716,0.404,1.462,0.716,2.271,0.933l1.309,3.125c0.078,0.185,0.221,0.325,0.392,0.414    C72.041,88.574,73,87.437,73,86.066z"></path><path d="M59.878,61.678c0.914-0.914,2.13-1.418,3.423-1.418c0.611,0,1.207,0.119,1.775,0.343c0.063-0.171,0.171-0.33,0.286-0.48    C62.869,57.847,59.89,56.076,56.58,55c-3.65,2.288-7.98,3.608-12.62,3.608c-4.63,0-8.95-1.31-12.59-3.589    C21.86,58.129,15,66.92,15,77.266v8.801C15,87.69,16.34,89,18,89h42.723c-0.289-0.186-0.564-0.398-0.813-0.647l-1.231-1.231    c-1.384-1.384-1.798-3.448-1.055-5.259l0.436-1.062l-1.107-0.469C55.159,79.571,54,77.822,54,75.875v-1.747    c0-1.956,1.166-3.709,2.97-4.464l1.053-0.441l-0.432-1.053c-0.743-1.811-0.329-3.875,1.055-5.26L59.878,61.678z"></path></g></g></svg>