<svg height='100px' width='100px'  fill="#000000" xmlns="http://www.w3.org/2000/svg" xmlns:xlink="http://www.w3.org/1999/xlink" version="1.1" x="0px" y="0px" viewBox="0 0 512 512" style="enable-background:new 0 0 512 512;" xml:space="preserve"><g><path d="M131.975,37c-5.523,0-10,4.477-10,10v23.8h-28.55c-27.57,0-50,22.43-50,50V425c0,27.57,22.43,50,50,50h325.15   c27.57,0,50-22.43,50-50V120.8c0-27.57-22.43-50-50-50h-28.55V47c0-5.523-4.477-10-10-10s-10,4.477-10,10v23.8h-228.05V47   C141.975,41.477,137.498,37,131.975,37z M418.575,455H93.425c-16.542,0-30-13.458-30-30V192.2h385.15V425   C448.575,441.542,435.117,455,418.575,455z M370.025,90.8v33.8c0,5.523,4.477,10,10,10s10-4.477,10-10V90.8h28.55   c16.542,0,30,13.458,30,30v51.4H63.425v-51.4c0-16.542,13.458-30,30-30h28.55v33.8c0,5.523,4.477,10,10,10s10-4.477,10-10V90.8   H370.025z"></path><path d="M330.18,292.469l-45.061-6.548l-20.152-40.832c-1.685-3.413-5.161-5.574-8.967-5.574s-7.283,2.161-8.967,5.574   l-20.152,40.832l-45.061,6.548c-3.767,0.547-6.896,3.186-8.073,6.806s-0.195,7.594,2.531,10.251l32.606,31.784l-7.697,44.878   c-0.644,3.751,0.898,7.543,3.978,9.781c3.079,2.237,7.162,2.533,10.531,0.761L256,375.541l40.304,21.188   c1.463,0.77,3.061,1.149,4.652,1.149c2.073,0,4.137-0.644,5.879-1.91c3.08-2.237,4.622-6.029,3.978-9.781l-7.697-44.878   l32.606-31.784c2.726-2.657,3.707-6.631,2.531-10.251S333.947,293.016,330.18,292.469z M285.391,330.657   c-2.357,2.297-3.433,5.607-2.876,8.851l5.161,30.089l-27.022-14.206c-1.457-0.766-3.055-1.149-4.653-1.149   s-3.197,0.383-4.653,1.149l-27.022,14.206l5.161-30.089c0.557-3.244-0.519-6.554-2.876-8.851l-21.861-21.31l30.212-4.39   c3.257-0.473,6.073-2.519,7.529-5.47L256,272.11l13.511,27.376c1.457,2.951,4.272,4.997,7.529,5.47l30.212,4.39L285.391,330.657z"></path></g></svg>