<svg height='100px' width='100px'  fill="#000000" xmlns="http://www.w3.org/2000/svg" viewBox="0 0 64 64" x="0px" y="0px"><title>address, location, maps</title><g><path d="M52.075,25.881a1,1,0,0,0-.985-.83H38.5a16.261,16.261,0,0,0,1.5-6.8,8.992,8.992,0,0,0-17.984,0,16.261,16.261,0,0,0,1.5,6.8H12.91a1,1,0,0,0-.985.83L8.372,46.5l0,.027L7.155,53.571a1,1,0,0,0,.985,1.17H55.86a1,1,0,0,0,.985-1.17Zm1.077,18.03H44.684l-2.907-16.86h8.471ZM31,11.259a7,7,0,0,1,6.992,6.991c0,7.069-5.274,11.6-6.992,12.884-1.718-1.287-6.992-5.815-6.992-12.884A7,7,0,0,1,31,11.259ZM30.468,33.2a1,1,0,0,0,1.064,0,20.532,20.532,0,0,0,5.908-6.153h2.307l1.764,10.227L30.535,40.129,18.865,27.051h5.7A20.532,20.532,0,0,0,30.468,33.2ZM13.752,27.051h2.432L28.359,40.694,10.608,45.305ZM10.236,47.468l31.616-8.213,2.325,13.486H9.327Zm35.97,5.273-1.177-6.83H53.5l1.177,6.83ZM34.664,18.11A3.664,3.664,0,1,0,31,21.774,3.668,3.668,0,0,0,34.664,18.11Zm-5.328,0A1.664,1.664,0,1,1,31,19.774,1.667,1.667,0,0,1,29.336,18.11Z"></path></g></svg>