<svg height='100px' width='100px'  fill="#000000" xmlns="http://www.w3.org/2000/svg" data-name="Layer 1" viewBox="0 0 128 128" x="0px" y="0px"><title>modern education 03 final</title><path d="M120,0H46a8.00178,8.00178,0,0,0-7.15143,4.43524,7.4165,7.4165,0,0,0-3.16095-1.603L33.02222,2.2049A7.66173,7.66173,0,0,0,31.26953,2a6.11567,6.11567,0,0,0-6.19427,4.47894L.11438,108.37036a4.00068,4.00068,0,0,0-.11206,1.10193l.54987,14.63635a4,4,0,0,0,3.08051,3.74341l.17633.0415A3.99788,3.99788,0,0,0,8.20349,125.976l7.2702-12.7959a4.002,4.002,0,0,0,.40729-1.02429L38,21.86475V120a8.009,8.009,0,0,0,8,8h74a8.009,8.009,0,0,0,8-8V8A8.009,8.009,0,0,0,120,0ZM4.72565,124l-.17627-.0415L4.08881,111.699l.15924.10956a1.99307,1.99307,0,0,0,1.41406.33252l1.9541-.27637,1.63086,1.12061a2.00008,2.00008,0,0,0,1.41211.33252l.14752-.02075Zm7.80658-14.98541-1.66113.23395-1.63086-1.12109a2.00167,2.00167,0,0,0-1.41309-.33252l-1.9541.27637-1.341-.92316L22.96478,31.905l.01764.0061,7.97821,1.87762ZM31.91193,29.9054l-.0174-.006-7.97845-1.87769,1.44873-5.91382.017.00586,7.97882,1.87805ZM36.95667,9.31262,34.312,20.1084l-.017-.00586-7.97876-1.878L28.96039,7.43066A2.21993,2.21993,0,0,1,31.26953,6a3.65544,3.65544,0,0,1,.8363.09851l2.66541.62732C36.24335,7.07233,37.22174,8.23047,36.95667,9.31262ZM104,4h12V30l-6-6.24L104,30Zm20,70H98a4,4,0,0,1-4-4V58a4,4,0,0,1,4-4h26Zm0-24H98a8.009,8.009,0,0,0-8,8V70a8.00909,8.00909,0,0,0,8,8h26v42a4,4,0,0,1-4,4H46a4,4,0,0,1-4-4v-4h7a2,2,0,0,0,0-4H42v-6h7a2,2,0,0,0,0-4H42V96h7a2,2,0,0,0,0-4H42V86h7a2,2,0,0,0,0-4H42V76h7a2,2,0,0,0,0-4H42V66h7a2,2,0,0,0,0-4H42V56h7a2,2,0,0,0,0-4H42V46h7a2,2,0,0,0,0-4H42V36h7a2,2,0,0,0,0-4H42V26h7a2,2,0,0,0,0-4H42V16h7a2,2,0,0,0,0-4H42V8a4,4,0,0,1,4-4h54V30a3.99991,3.99991,0,0,0,6.88336,2.7724L110,29.53107l3.11664,3.24133A4,4,0,0,0,120,30V4a4,4,0,0,1,4,4Z"></path><path d="M109,71a7,7,0,1,0-7-7A7.00794,7.00794,0,0,0,109,71Zm0-10a3,3,0,1,1-3,3A3,3,0,0,1,109,61Z"></path></svg>