<svg height='100px' width='100px'  fill="#000000" xmlns="http://www.w3.org/2000/svg" data-name="Layer 1" viewBox="0 0 32 32" x="0px" y="0px"><title>Family, Toilet, Day, Father</title><path d="M13,6a4,4,0,1,0-4,4A4,4,0,0,0,13,6ZM7,6A2,2,0,1,1,9,8,2,2,0,0,1,7,6Z"></path><path d="M4,13v9a1,1,0,0,0,1,1H6v7a1,1,0,0,0,1,1h4a1,1,0,0,0,1-1V23h1a1,1,0,0,0,1-1V13a1,1,0,0,0-1-1H5A1,1,0,0,0,4,13Zm6,16H8V23h2ZM6,14h6v7H6Z"></path><path d="M22,10a4,4,0,1,0-4-4A4,4,0,0,0,22,10Zm0-6a2,2,0,1,1-2,2A2,2,0,0,1,22,4Z"></path><path d="M16.22,22.63A1,1,0,0,0,17,23h2v7a1,1,0,0,0,1,1h4a1,1,0,0,0,1-1V23h2a1,1,0,0,0,1-1.22l-2-9A1,1,0,0,0,25,12H19a1,1,0,0,0-1,.78l-2,9A1,1,0,0,0,16.22,22.63ZM23,29H21V23h2ZM19.8,14h4.4l1.56,7H18.25Z"></path></svg>