<svg height='100px' width='100px'  fill="#000000" xmlns="http://www.w3.org/2000/svg" xmlns:xlink="http://www.w3.org/1999/xlink" version="1.1" x="0px" y="0px" viewBox="0 0 24 24" style="enable-background:new 0 0 24 24;" xml:space="preserve"><path d="M12.354,1.646c-0.195-0.195-0.512-0.195-0.707,0l-10,10c-0.143,0.143-0.186,0.358-0.108,0.545S1.798,12.5,2,12.5h2.5V22  c0,0.276,0.224,0.5,0.5,0.5h4h6h4c0.276,0,0.5-0.224,0.5-0.5v-9.5H22c0.202,0,0.385-0.122,0.462-0.309s0.034-0.402-0.108-0.545  L12.354,1.646z M9.5,21.5v-7h5v7H9.5z M19,11.5c-0.276,0-0.5,0.224-0.5,0.5v9.5h-3V14c0-0.276-0.224-0.5-0.5-0.5H9  c-0.276,0-0.5,0.224-0.5,0.5v7.5h-3V12c0-0.276-0.224-0.5-0.5-0.5H3.207L12,2.707l8.793,8.793H19z"></path></svg>