<svg height='100px' width='100px'  fill="#000000" xmlns:x="http://ns.adobe.com/Extensibility/1.0/" xmlns:i="http://ns.adobe.com/AdobeIllustrator/10.0/" xmlns:graph="http://ns.adobe.com/Graphs/1.0/" xmlns="http://www.w3.org/2000/svg" xmlns:xlink="http://www.w3.org/1999/xlink" version="1.1" x="0px" y="0px" viewBox="0 0 100 100" style="enable-background:new 0 0 100 100;" xml:space="preserve"><g><g i:extraneous="self"><path d="M81.5,22.5h-14V18c0-6.8-5.6-12.4-12.4-12.4H44.8C38,5.6,32.4,11.2,32.4,18v4.4h-14c-8.8,0-16,7.2-16,16v40    c0,8.8,7.2,16,16,16h63.1c8.8,0,16-7.2,16-16v-40C97.5,29.6,90.3,22.5,81.5,22.5z M39.5,18c0-2.9,2.4-5.3,5.3-5.3h10.4    c2.9,0,5.3,2.4,5.3,5.3v4.4h-21V18z M18.5,29.6h63.1c4.9,0,8.9,4,8.9,8.9v11.2c-3.4,0.9-7.8,1.7-13.3,2.5    c-1.2-4.5-5.3-7.7-10.1-7.7c-5.4,0-9.8,4-10.4,9.2c-2.1,0.1-4.2,0.1-6.5,0.1c-2.3,0-4.4,0-6.5-0.1c-0.6-5.2-5.1-9.2-10.4-9.2    c-4.8,0-8.9,3.3-10.1,7.7c-5.5-0.7-9.9-1.6-13.3-2.5V38.4C9.6,33.5,13.6,29.6,18.5,29.6z M70.4,54.8v4.7c0,1.9-1.5,3.4-3.4,3.4    s-3.4-1.5-3.4-3.4v-4.7c0-1.9,1.5-3.4,3.4-3.4S70.4,52.9,70.4,54.8z M36.5,54.8v4.7c0,1.9-1.5,3.4-3.4,3.4c-1.9,0-3.4-1.5-3.4-3.4    v-4.7c0-1.9,1.5-3.4,3.4-3.4C34.9,51.4,36.5,52.9,36.5,54.8z M81.5,87.3H18.5c-4.9,0-8.9-4-8.9-8.9V56.9c3.9,0.9,8.3,1.7,13,2.2    v0.4c0,5.8,4.7,10.5,10.5,10.5c5.4,0,9.9-4.1,10.4-9.4c2.1,0.1,4.3,0.1,6.5,0.1c2.2,0,4.4,0,6.5-0.1c0.5,5.3,5,9.4,10.4,9.4    c5.8,0,10.5-4.7,10.5-10.5v-0.4c4.7-0.6,9-1.3,13-2.2v21.5C90.4,83.3,86.4,87.3,81.5,87.3z"></path></g></g></svg>