<svg height='100px' width='100px'  fill="#000000" xmlns="http://www.w3.org/2000/svg" xmlns:xlink="http://www.w3.org/1999/xlink" version="1.1" x="0px" y="0px" viewBox="0 0 100 100" style="enable-background:new 0 0 100 100;" xml:space="preserve"><g><path d="M75.3,51.7c0-0.6,0.3-1.3,0.8-1.7c1-1,2.5-1,3.4-0.1l1.1,1.1c0.1,0.1,0.1,0.2,0,0.3l-3.2,3.2c-0.1,0.1-0.2,0.1-0.3,0   L76,53.3C75.6,52.9,75.3,52.3,75.3,51.7 M74.1,51.7c0,1,0.3,1.9,1,2.6l1.1,1.1c0.3,0.3,0.7,0.4,1.1,0.4c0.4,0,0.8-0.2,1.1-0.4   l3.2-3.2c0.6-0.6,0.6-1.6,0-2.1l-1.1-1.1c-1.4-1.4-3.7-1.4-5.2,0.1v0C74.5,49.8,74.1,50.7,74.1,51.7 M66.4,59.7L66.4,59.7   c0.5-0.5,1.1-0.7,1.7-0.8c0.6,0,1.2,0.2,1.7,0.6l1.1,1.1c0.1,0.1,0.1,0.1,0.1,0.2c0,0,0,0.1-0.1,0.2l-3.2,3.2   c-0.1,0.1-0.2,0.1-0.3,0l-1.1-1.1C65.3,62.2,65.4,60.7,66.4,59.7 M64.3,61.4c0,1,0.3,1.9,1,2.6l1.1,1.1c0.3,0.3,0.7,0.4,1.1,0.4   s0.8-0.1,1.1-0.4l3.2-3.2c0.3-0.3,0.4-0.7,0.4-1.1c0-0.4-0.2-0.8-0.4-1.1l-1.1-1.1c-0.7-0.7-1.6-1-2.6-1c-1,0-1.9,0.4-2.6,1.1h0   C64.7,59.5,64.3,60.4,64.3,61.4 M55.9,71.2c0-0.6,0.3-1.3,0.8-1.7c1-1,2.5-1,3.4-0.1l1.1,1.1c0.1,0.1,0.1,0.1,0.1,0.2   c0,0,0,0.1-0.1,0.2l-3.2,3.2c-0.1,0.1-0.2,0.1-0.3,0l-1.1-1.1C56.1,72.4,55.8,71.8,55.9,71.2 M54.6,71.1c0,1,0.3,1.9,1,2.6l1.1,1.1   c0.3,0.3,0.7,0.4,1.1,0.4c0.4,0,0.8-0.1,1.1-0.4l3.2-3.2c0.3-0.3,0.4-0.7,0.4-1.1c0-0.4-0.2-0.8-0.4-1.1l-1.1-1.1   c-1.4-1.4-3.7-1.4-5.2,0.1C55,69.2,54.6,70.2,54.6,71.1 M46.1,80.9c0-0.6,0.3-1.3,0.8-1.7c0.5-0.5,1.2-0.8,1.8-0.8   c0.6,0,1.2,0.2,1.6,0.6l1.1,1.1c0.1,0.1,0.1,0.1,0.1,0.2c0,0,0,0.1-0.1,0.2l-3.2,3.2c-0.1,0.1-0.2,0.1-0.3,0l-1.1-1.1   C46.3,82.1,46.1,81.6,46.1,80.9 M46,78.3c-0.7,0.7-1.1,1.6-1.1,2.6c0,1,0.3,1.9,1,2.6l1.1,1.1c0.3,0.3,0.7,0.4,1.1,0.4   s0.8-0.1,1.1-0.4l3.2-3.2c0.3-0.3,0.4-0.7,0.4-1.1c0-0.4-0.2-0.8-0.4-1.1l-1.1-1.1c-0.7-0.7-1.6-1-2.6-1   C47.6,77.2,46.7,77.6,46,78.3 M88.8,50.2l-4.8-4.8c-3.5-3.5-9.1-3.5-12.5,0c-2,2-2.8,4.7-2.5,7.2c-2.6-0.3-5.3,0.5-7.2,2.5   c-2,2-2.8,4.7-2.5,7.2c-2.6-0.3-5.3,0.5-7.2,2.5c-2,2-2.8,4.7-2.5,7.2c-2.6-0.3-5.3,0.5-7.2,2.5c-1.5,1.5-2.3,3.3-2.5,5.3l-3.4,3.4   c-1.9,1.9-5.1,2-7,0c-1.9-1.9-1.9-5.1,0-7l0.5-0.6l7.4-7.4l0,0l0,0c0.7-0.8,0.7-2,0-2.7c-0.8-0.8-2-0.8-2.7,0l0,0l-8,8   c-1.9,1.9-5.1,2-7,0c-1.9-1.9-1.9-5.1,0-7l1-1.1l6.9-6.9l0,0c0.7-0.8,0.7-2,0-2.7c-0.8-0.8-2-0.8-2.7,0l0,0l0,0l-7.9,7.9   c-1.9,1.9-5.1,2-7,0c-1.9-1.9-1.9-5.1,0-7l8-8l20.7-20.7l9.5,9.5c3.9,3.9,10.3,4,14.2,0.1c3.9-3.9,3.9-10.2-0.1-14.2L61.6,23v0   l-0.1-0.1l-8.8-8.7l0,0l0,0l0.1,0c10.1-8.7,25.4-8.3,34.9,1.2C97.2,24.9,97.6,40.1,88.8,50.2 M59.6,26.5c2.2,2.4,2.2,6.2-0.1,8.5   c-2.4,2.4-6.2,2.3-8.7-0.1L40,24.1c0,0,0,0,0,0l0,0L39.9,24l0,0c-0.8-0.7-1.9-0.7-2.7,0.1L11,50.2c-8.6-10.1-8.2-25.3,1.3-34.8   c9.6-9.6,24.9-9.9,35-1.1L59.6,26.5z M45.1,77.4c1.9-1.9,5.1-1.9,7,0l8.7,8.7c1.9,1.9,2,5.1,0,7c-1.9,1.9-5.1,1.9-7,0l-8.7-8.7   C43.2,82.5,43.1,79.3,45.1,77.4 M63.6,83.4l-8.7-8.7c-1.9-1.9-2-5.1,0-7c1.9-1.9,5.1-1.9,7,0.1l8.7,8.7c1.9,1.9,2,5.1,0,7   S65.5,85.3,63.6,83.4 M73.3,73.6l-8.7-8.7c-1.9-1.9-2-5.1,0-7c1.9-1.9,5.1-1.9,7,0l8.7,8.7c1.9,1.9,2,5.1,0,7   C78.4,75.6,75.3,75.6,73.3,73.6 M83.1,63.9l-8.7-8.7c-1.9-1.9-2-5.1,0-7c1.9-1.9,5.1-1.9,7,0l8.7,8.7c1.9,1.9,2,5.1,0,7   C88.2,65.9,85,65.8,83.1,63.9 M90.4,12.6C79.3,1.5,61.5,1.1,49.9,11.4l0,0l0,0C38.3,1.3,20.6,1.7,9.6,12.7   c-11,11-11.4,28.7-1.3,40.3l-1.1,1.1c-3.5,3.5-3.5,9.1,0,12.5c2,2,4.7,2.8,7.2,2.5c-0.3,2.6,0.5,5.3,2.5,7.2c2,2,4.7,2.8,7.2,2.5   c-0.3,2.6,0.5,5.3,2.5,7.2c3.4,3.4,9.1,3.4,12.5,0l1.5-1.5c0.4,0.9,1,1.8,1.8,2.5l8.7,8.7c3.5,3.5,9.1,3.5,12.5,0   c2-2,2.8-4.7,2.5-7.2c2.6,0.3,5.3-0.5,7.2-2.5c2-2,2.8-4.7,2.5-7.2c2.6,0.3,5.3-0.5,7.2-2.5c2-2,2.8-4.7,2.5-7.2   c2.6,0.3,5.3-0.5,7.2-2.5c3.4-3.4,3.4-9.1,0-12.5L91.6,53C101.8,41.4,101.5,23.6,90.4,12.6"></path></g></svg>