<svg height='100px' width='100px'  fill="#000000" xmlns="http://www.w3.org/2000/svg" xmlns:xlink="http://www.w3.org/1999/xlink" version="1.1" x="0px" y="0px" viewBox="0 0 96 96" enable-background="new 0 0 96 96" xml:space="preserve"><path d="M83.508,40.259c-4.016,0-7.325,3.074-7.703,6.991h-4.05c-0.187-5.989-2.597-11.424-6.434-15.51l2.871-2.87  c1.382,1.141,3.101,1.763,4.917,1.763c2.068,0,4.012-0.805,5.473-2.268c1.462-1.461,2.268-3.405,2.268-5.474  c0-2.068-0.806-4.012-2.268-5.474c-1.461-1.462-3.405-2.268-5.473-2.268c-2.068,0-4.012,0.805-5.474,2.268  c-1.462,1.462-2.268,3.406-2.268,5.474c0,1.816,0.622,3.536,1.764,4.918l-2.871,2.87c-4.085-3.837-9.521-6.248-15.51-6.435v-4.051  c3.917-0.378,6.991-3.688,6.991-7.703c0-4.269-3.473-7.741-7.741-7.741s-7.741,3.473-7.741,7.741c0,4.016,3.074,7.325,6.991,7.703  v4.051c-5.989,0.187-11.425,2.597-15.51,6.435l-2.871-2.87c1.142-1.382,1.764-3.102,1.764-4.918c0-2.068-0.806-4.012-2.268-5.473  c-1.462-1.462-3.406-2.268-5.474-2.268s-4.011,0.806-5.473,2.268c-1.462,1.461-2.268,3.405-2.268,5.473  c0,2.067,0.806,4.012,2.268,5.474c1.461,1.462,3.405,2.267,5.474,2.267c1.816,0,3.535-0.622,4.917-1.763l2.871,2.87  c-3.837,4.085-6.247,9.521-6.434,15.51h-4.05c-0.378-3.917-3.688-6.991-7.703-6.991c-4.269,0-7.742,3.473-7.742,7.741  s3.473,7.741,7.742,7.741c4.016,0,7.325-3.074,7.703-6.991h4.05c0.187,5.989,2.597,11.425,6.434,15.51l-2.87,2.87  c-1.382-1.141-3.102-1.763-4.917-1.763c-2.068,0-4.012,0.805-5.474,2.268c-1.462,1.461-2.268,3.405-2.268,5.474  c0,2.068,0.806,4.012,2.268,5.474c1.461,1.462,3.405,2.268,5.474,2.268c2.068,0,4.012-0.805,5.473-2.268  c1.462-1.462,2.268-3.406,2.268-5.474c0-1.816-0.622-3.536-1.763-4.918l2.87-2.87c4.085,3.838,9.521,6.248,15.51,6.435v4.05  c-3.917,0.378-6.991,3.688-6.991,7.703c0,4.269,3.473,7.741,7.741,7.741s7.741-3.473,7.741-7.741c0-4.016-3.074-7.325-6.991-7.703  v-4.05c5.989-0.187,11.425-2.597,15.51-6.435l2.87,2.87c-1.142,1.382-1.763,3.102-1.763,4.918c0,2.068,0.806,4.012,2.268,5.473  c1.462,1.462,3.406,2.268,5.474,2.268c2.067,0,4.011-0.806,5.473-2.268c1.462-1.461,2.268-3.405,2.268-5.473  c0-2.067-0.806-4.012-2.268-5.474c-1.461-1.462-3.406-2.267-5.474-2.267c-1.816,0-3.535,0.622-4.917,1.763l-2.87-2.87  c3.837-4.085,6.247-9.521,6.434-15.51h4.05c0.378,3.917,3.688,6.991,7.703,6.991c4.269,0,7.742-3.473,7.742-7.741  S87.776,40.259,83.508,40.259z M48.75,25.745c5.576,0.186,10.637,2.428,14.45,5.995l-2.989,2.989  c-3.046-2.805-7.047-4.571-11.46-4.753V25.745z M37.573,46.089c1.054,0,1.911,0.857,1.911,1.911s-0.857,1.911-1.911,1.911  S35.662,49.054,35.662,48S36.519,46.089,37.573,46.089z M29.976,47.25h-4.23c0.186-5.576,2.428-10.637,5.994-14.449l2.989,2.989  C31.924,38.836,30.159,42.837,29.976,47.25z M47.25,70.255c-5.576-0.186-10.637-2.428-14.45-5.995l2.989-2.989  c3.046,2.805,7.047,4.57,11.46,4.753V70.255z M48,49.911c-1.054,0-1.911-0.857-1.911-1.911s0.857-1.911,1.911-1.911  s1.911,0.857,1.911,1.911S49.054,49.911,48,49.911z M58.427,49.911c-1.054,0-1.911-0.857-1.911-1.911s0.857-1.911,1.911-1.911  s1.911,0.857,1.911,1.911S59.481,49.911,58.427,49.911z M64.26,63.2l-2.989-2.989c2.805-3.046,4.57-7.047,4.753-11.46h4.23  C70.068,54.326,67.826,59.387,64.26,63.2z"></path></svg>