<svg height='100px' width='100px'  fill="#000000" xmlns:dc="http://purl.org/dc/elements/1.1/" xmlns:cc="http://creativecommons.org/ns#" xmlns:rdf="http://www.w3.org/1999/02/22-rdf-syntax-ns#" xmlns:svg="http://www.w3.org/2000/svg" xmlns="http://www.w3.org/2000/svg" xmlns:sodipodi="http://sodipodi.sourceforge.net/DTD/sodipodi-0.dtd" xmlns:inkscape="http://www.inkscape.org/namespaces/inkscape" version="1.1" x="0px" y="0px" viewBox="0 0 100 100"><g transform="translate(0,-952.36218)"><path style="font-size:medium;font-style:normal;font-variant:normal;font-weight:normal;font-stretch:normal;text-indent:0;text-align:start;text-decoration:none;line-height:normal;letter-spacing:normal;word-spacing:normal;text-transform:none;direction:ltr;block-progression:tb;writing-mode:lr-tb;text-anchor:start;baseline-shift:baseline;opacity:1;color:#000000;fill:#000000;fill-opacity:1;stroke:none;stroke-width:4;marker:none;visibility:visible;display:inline;overflow:visible;enable-background:accumulate;font-family:Sans;-inkscape-font-specification:Sans" d="M 24.4375 15 A 2.0002 2.0002 0 0 0 22.625 17 L 22.625 32.6875 L 19.6875 32.6875 C 14.328565 32.6875 10 37.13099 10 42.53125 L 10 75.125 C 10 80.5253 14.328637 85 19.6875 85 L 73.59375 85 C 82.700689 85 90 77.29125 90 67.90625 L 90 17 A 2.0002 2.0002 0 0 0 88 15 L 24.625 15 A 2.0002 2.0002 0 0 0 24.4375 15 z M 26.625 19 L 86 19 L 86 67.90625 C 86 75.24135 80.452423 81 73.59375 81 L 19.6875 81 C 16.516787 81 14 78.4193 14 75.125 L 14 42.53125 C 14 39.23709 16.516859 36.6875 19.6875 36.6875 L 22.625 36.6875 L 22.625 67.90625 A 2.0002 2.0002 0 1 0 26.625 67.90625 L 26.625 19 z M 37.34375 30.5 A 2.0029885 2.0029885 0 1 0 37.5625 34.5 L 43.4375 34.5 A 2.0002 2.0002 0 1 0 43.4375 30.5 L 37.5625 30.5 A 2.0002 2.0002 0 0 0 37.34375 30.5 z M 50.09375 30.5 A 2.0021961 2.0021961 0 1 0 50.28125 34.5 L 75.0625 34.5 A 2.0002 2.0002 0 1 0 75.0625 30.5 L 50.28125 30.5 A 2.0002 2.0002 0 0 0 50.09375 30.5 z M 37.5625 38.9375 A 2.0002 2.0002 0 1 0 37.5625 42.9375 L 62.34375 42.9375 A 2.0002 2.0002 0 1 0 62.34375 38.9375 L 37.5625 38.9375 z M 69.1875 38.9375 A 2.0002 2.0002 0 1 0 69.1875 42.9375 L 75.0625 42.9375 A 2.0002 2.0002 0 1 0 75.0625 38.9375 L 69.1875 38.9375 z M 37.34375 47.40625 A 2.0029635 2.0029635 0 0 0 37.5625 51.40625 L 59.875 51.40625 A 2.0002 2.0002 0 1 0 59.875 47.40625 L 37.5625 47.40625 A 2.0002 2.0002 0 0 0 37.34375 47.40625 z M 66.71875 47.40625 A 2.0002 2.0002 0 0 0 64.9375 49.40625 L 64.9375 57.875 A 2.0002 2.0002 0 0 0 66.9375 59.875 L 75.0625 59.875 A 2.0002 2.0002 0 0 0 77.0625 57.875 L 77.0625 49.40625 A 2.0002 2.0002 0 0 0 75.0625 47.40625 L 66.9375 47.40625 A 2.0002 2.0002 0 0 0 66.71875 47.40625 z M 68.9375 51.40625 L 73.0625 51.40625 L 73.0625 55.875 L 68.9375 55.875 L 68.9375 51.40625 z M 37.5625 55.84375 A 2.0002 2.0002 0 1 0 37.5625 59.84375 L 48.4375 59.84375 A 2.0002 2.0002 0 1 0 48.4375 55.84375 L 37.5625 55.84375 z M 55.65625 55.84375 A 2.0002 2.0002 0 1 0 55.65625 59.84375 L 59.875 59.84375 A 2.0002 2.0002 0 1 0 59.875 55.84375 L 55.65625 55.84375 z M 37.34375 64.3125 A 2.0029885 2.0029885 0 1 0 37.5625 68.3125 L 43.4375 68.3125 A 2.0002 2.0002 0 1 0 43.4375 64.3125 L 37.5625 64.3125 A 2.0002 2.0002 0 0 0 37.34375 64.3125 z M 50.09375 64.3125 A 2.0021961 2.0021961 0 1 0 50.28125 68.3125 L 75.0625 68.3125 A 2.0002 2.0002 0 1 0 75.0625 64.3125 L 50.28125 64.3125 A 2.0002 2.0002 0 0 0 50.09375 64.3125 z " transform="translate(0,952.36218)"></path></g></svg>