<svg height='100px' width='100px'  fill="#000000" xmlns="http://www.w3.org/2000/svg" xmlns:xlink="http://www.w3.org/1999/xlink" version="1.1" x="0px" y="0px" viewBox="0 0 100 100" style="enable-background:new 0 0 100 100;" xml:space="preserve"><path d="M68.5,1.7v17.8h17.8L68.5,1.7z M61.8,55.1l-9.9,12.6c-0.6,0.8-1.5,1.3-2.5,1.4c-0.1,0-0.2,0-0.4,0c-0.9,0-1.7-0.3-2.3-0.9  l-6.3-5.4c-1.5-1.3-1.7-3.6-0.4-5.1c1.3-1.5,3.6-1.7,5.1-0.4l3.5,3l7.6-9.7c1.2-1.6,3.5-1.8,5.1-0.6C62.8,51.2,63.1,53.5,61.8,55.1z   M65.6,25.4c-1.6,0-2.9-1.3-2.9-2.9V0h-40c-5.9,0-10.7,4.8-10.7,10.7v78.5c0,5.9,4.8,10.7,10.7,10.7h54.7c5.9,0,10.7-4.8,10.7-10.7  V25.4H65.6z M71.6,58.5c0,17.7-19.8,26.3-20.6,26.7c-0.3,0.1-0.7,0.2-1.1,0.2s-0.7-0.1-1.1-0.2c-0.8-0.4-20.6-9-20.6-26.7V43.9  c0-1.2,0.7-2.2,1.8-2.6l19-6.5c0.6-0.2,1.2-0.2,1.7,0l19,6.5h0c1.1,0.4,1.8,1.4,1.8,2.6V58.5z"></path></svg>