<svg height='100px' width='100px'  fill="#000000" xmlns="http://www.w3.org/2000/svg" xmlns:xlink="http://www.w3.org/1999/xlink" xmlns:serif="http://www.serif.com/" viewBox="0 0 32 32" version="1.1" xml:space="preserve" style="" x="0px" y="0px" fill-rule="evenodd" clip-rule="evenodd" stroke-linejoin="round" stroke-miterlimit="2"><g transform="matrix(1,0,0,1,-128,-80)"><g><path d="M135,90.9L135,97.071C131.609,97.557 129,100.476 129,104C129,107.863 132.137,111 136,111C139.524,111 142.443,108.391 142.929,105L149.1,105C149.564,107.281 151.583,109 154,109C156.76,109 159,106.76 159,104C159,101.24 156.76,99 154,99C151.583,99 149.564,100.719 149.1,103L142.929,103C142.759,101.815 142.292,100.725 141.605,99.809L149.243,92.171C150.034,92.695 150.981,93 152,93C154.76,93 157,90.76 157,88C157,85.24 154.76,83 152,83C149.24,83 147,85.24 147,88C147,89.019 147.305,89.966 147.829,90.757L140.191,98.395C139.275,97.708 138.185,97.241 137,97.071L137,90.9C139.281,90.436 141,88.417 141,86C141,83.24 138.76,81 136,81C133.24,81 131,83.24 131,86C131,88.417 132.719,90.436 135,90.9ZM136,99C138.76,99 141,101.24 141,104C141,106.76 138.76,109 136,109C133.24,109 131,106.76 131,104C131,101.24 133.24,99 136,99ZM154,101C155.656,101 157,102.344 157,104C157,105.656 155.656,107 154,107C152.344,107 151,105.656 151,104C151,102.344 152.344,101 154,101ZM152,85C153.656,85 155,86.344 155,88C155,89.656 153.656,91 152,91C150.344,91 149,89.656 149,88C149,86.344 150.344,85 152,85ZM136,83C137.656,83 139,84.344 139,86C139,87.656 137.656,89 136,89C134.344,89 133,87.656 133,86C133,84.344 134.344,83 136,83Z"></path></g></g></svg>