<svg height='100px' width='100px'  fill="#000000" xmlns="http://www.w3.org/2000/svg" viewBox="0 0 100 100" x="0px" y="0px"><title>Service</title><g data-name="Layer 38"><rect x="68.47" y="48.82" width="17.65" height="34.47"></rect><path d="M47,16.6a13.31,13.31,0,0,0-6.13-11,.49.49,0,0,0-.52,0A.48.48,0,0,0,40.1,6v9.17a2.65,2.65,0,0,1-1.43,2.35l-5.28,2.77a2.69,2.69,0,0,1-2.47,0l-5.29-2.77a2.65,2.65,0,0,1-1.43-2.35V6a.48.48,0,0,0-.26-.44.48.48,0,0,0-.51,0,13.31,13.31,0,0,0-6.13,11,13.47,13.47,0,0,0,8.13,12.12l.3.14-.6,18h14l-.6-18,.3-.14A13.45,13.45,0,0,0,47,16.6Z"></path><path d="M23.94,85.29c0,.37,0,.74.09,1.09.89,5.61,4.72,8.12,8.12,8.12s7.23-2.51,8.12-8.12c.06-.35.07-.72.1-1.09H23.94Z"></path><path d="M49.07,40.33H41.49L42,48.82H18.23a3.56,3.56,0,0,0,0,7.12v2a3.56,3.56,0,0,0,0,7.12v2a3.56,3.56,0,1,0,0,7.12v2a3.56,3.56,0,1,0,0,7.12H40.38l.52,0,.5,0,1.9.12c3.92.26,9.27.62,13.24-.78L66.47,79V52.72L61.6,46.44C55.74,41.18,53.44,40.33,49.07,40.33Z"></path></g></svg>