<svg height='100px' width='100px'  fill="#000000" xmlns:x="http://ns.adobe.com/Extensibility/1.0/" xmlns:i="http://ns.adobe.com/AdobeIllustrator/10.0/" xmlns:graph="http://ns.adobe.com/Graphs/1.0/" xmlns="http://www.w3.org/2000/svg" xmlns:xlink="http://www.w3.org/1999/xlink" version="1.0" x="0px" y="0px" viewBox="0 0 90 90" style="enable-background:new 0 0 90 90;" xml:space="preserve"><g><g i:extraneous="self"><g><path d="M76.9,50.6c0-0.1,0.1-0.4,0.4-0.7c0.1-0.1,0.2-0.2,0.5-0.5c0.2-0.2,0.3-0.3,0.5-0.4l0.2-0.1h4v-0.5h-0.8     v-0.8h-1.2V47h-1.1v-2.9l-0.2,0c0,0-0.1,0-0.1,0c-0.3,0.1-0.5,0.3-0.6,0.3c-0.2,0.2-0.3,0.4-0.4,0.7c-0.1,0.2-0.1,0.5-0.2,0.8     c-0.1,0.3-0.3,0-0.3,0l-1.9-0.9l0-0.3c0-1.6,0-3.8-0.2-6.4c-0.3-2.8-0.7-4.8-1.1-6.9c-0.6-3-0.9-4.5-1.7-6.5     c-0.8-2.3-1.6-3.9-3.3-7.1c-1.4-2.6-2.5-4.5-3.1-5.6c-0.5-0.9-1-1.6-1.3-2.1l-0.1,0H61V9.5l0.1,0c0.6,0,1.1,0,1.5-0.1     c1-0.1,1.4-0.2,1.6-0.4c0.3-0.2,0.7-0.4,0.8-0.7c0-0.3-0.2-0.6-0.3-0.7c-0.1-0.1-0.3-0.3-1-0.5C63.2,7,62.9,7,62.2,6.9     c-0.4,0-0.7-0.1-1.1-0.2H61V6.6v-1c0.4-0.3,0.6-0.5,0.8-0.6c0.4-0.3,0.5-0.4,0.6-0.6c0-0.3-0.3-0.6-0.4-0.7     c-0.3-0.3-0.7-0.4-1-0.5l-0.1-0.1l-0.5-1.7l-0.5,1.7l-0.1,0.1c-0.3,0.1-0.7,0.2-1,0.5c-0.2,0.2-0.5,0.4-0.4,0.7     c0,0.2,0.2,0.3,0.6,0.6c0.2,0.1,0.4,0.3,0.8,0.6v1v0.2h-0.1c-0.4,0.1-0.8,0.1-1.1,0.2c-0.7,0.1-1,0.1-1.5,0.2     c-0.7,0.2-0.9,0.4-1,0.5c-0.1,0.1-0.3,0.4-0.3,0.7c0.1,0.4,0.5,0.6,0.8,0.7c0.2,0.1,0.6,0.3,1.6,0.4c0.4,0,0.9,0.1,1.5,0.1l0.1,0     v0.8h-3.9l-0.1,0c-0.3,0.5-0.8,1.2-1.3,2.1c-0.7,1.1-1.7,2.9-3.1,5.6l-0.1,0.1c-0.7,1.4-1.5,3.2-2.3,5.3     c-0.2,0.5-0.8,2.4-1.5,4.9c-0.3,1-0.9,3.8-1.4,7.5c-0.2,1.3-0.3,2.7-0.5,5.3c-0.1,1.8-0.2,3.3-0.3,4.3c0,0-0.8,0-1-0.5v0v-1.5     l-1.1,0.8h-0.4l-0.1-0.3c0-0.4-0.1-1-0.3-1.7c-0.1-0.3-0.3-1-0.9-1.9c-0.3-0.5-0.6-0.9-1.2-1.5c-0.8-0.9-1.5-1.6-2.5-2.4     c-0.5-0.3-1.1-0.8-1.9-1.2v-1.8h-0.5c-0.3,0.7-0.7,0.8-0.7,0.8h-0.2V21.4l0-0.1c0.1-0.1,0.2-0.2,0.4-0.3c0.5-0.2,0.9-0.1,1.1-0.1     c0.1,0,0.5,0.1,1.4,0.6c0.9,0.6,1.4,0.8,1.6,1.3c0.2,0.4,0.1,0.8,0.1,1c-0.1,0.7-0.4,0.9-0.7,1.5c-0.3,0.6-0.2,1.2-0.1,2.1     c0.1,0.7,0.2,1.3,0.6,2c0.2,0.4,0.6,1.1,1.5,1.5c0.7,0.3,1.4,0.3,1.7,0.2c-0.8-0.4-1.1-1.3-1.1-1.3v-0.6v-0.2h2.2V29     c-0.8-0.1-1.4-0.4-1.7-0.6c-0.6-0.3-0.8-0.6-0.8-0.7c-0.2-0.3-0.2-0.6-0.3-0.8c0-0.3,0-0.4,0-1.1c0.1-0.7,0.1-1,0.1-1.3     c0-0.1,0-0.6-0.1-1.2c-0.1-0.5-0.1-0.8-0.3-1.1c-0.2-0.4-0.5-0.7-0.9-1.2c-0.1-0.1-0.4-0.4-0.9-0.8c-0.3-0.2-0.4-0.3-0.5-0.4     c0,0-0.1-0.1-0.1-0.1c-0.3-0.3-0.7-0.9-0.7-0.9c-0.2-0.3-0.3-0.4-0.4-0.6c-0.1-0.2-0.3-0.5-0.4-1c-0.1-0.5,0-0.5-0.1-1.1     c-0.1-0.3-0.1-0.6-0.3-0.9c-0.2-0.4-0.5-0.7-0.5-0.7c-0.2-0.2-0.3-0.2-0.4-0.4c-0.1-0.2,0-0.3-0.1-0.4c0-0.1-0.2-0.4-0.4-0.4     c-0.2,0-0.4,0.3-0.3,0.4c0.1,0.1,0.3,0.1,0.4,0.2c0.1,0.1,0.1,0.2,0.1,0.3c0,0.1,0,0.3-0.1,0.3c0,0.1,0,0.1,0,0.2     c0,0.2,0,0.4,0.1,0.5c0.1,0.1,0.2,0.3,0.2,0.3c0.2,0.2,0.2,0.3,0.3,0.4c0,0.1,0,0.2,0.1,0.4c0,0.2,0,0.2,0,0.3     c0,0.1,0.1,0.3,0.4,0.5c0.1,0.2,0.3,0.4,0.4,0.6c-0.1,0-0.3,0-0.4,0c-0.1,0-0.2-0.1-0.7-0.5C34.3,17,34.4,17,34,16.6     c0,0-0.2-0.2-0.3-0.3c-0.1-0.2-0.2-0.3-0.2-0.4c0-0.1,0-0.1,0-0.2c0-0.2,0-0.3,0-0.6c0-0.3,0-0.4-0.1-0.5c0,0-0.1-0.1-0.2-0.2     c-0.1-0.1-0.3-0.1-0.5,0c-0.1,0.1-0.1,0.1-0.1,0.2c-0.1,0.4,0,0.8,0,0.8c0.1,0.3,0.2,0.5,0.2,0.6c0.1,0.2,0.2,0.3,0.4,0.6     c0.2,0.2,0.3,0.4,0.4,0.5c0.2,0.2,0.3,0.3,0.5,0.4c0.2,0.1,0.4,0.3,0.6,0.5c-0.1,0-0.3,0.1-0.5,0.1c-0.1,0-0.4,0-0.7-0.1     c-0.4-0.1-0.7-0.3-0.9-0.5c-0.3-0.2-0.4-0.3-0.5-0.5c-0.1-0.2-0.2-0.4-0.2-0.4c-0.1,0-0.1,0.4-0.1,0.5c0,0.6,0.1,1,0.2,1.2     c0.2,0.7,0.6,1.2,0.7,1.3c0.3,0.4,0.6,0.7,0.9,0.9v14h-0.8v-1.9h-0.8h0v-0.8h-0.8v-1.5h-0.7v-0.8h-0.2c0,0,0.1-0.4-0.1-0.9     c-0.3,0.5-0.1,0.9-0.1,0.9h-0.2v0.8h-0.7v1.5h-0.8v0.8h0h-0.8v1.9h-1.7c0,0-0.4-0.1-0.7-0.8h-0.5v1.8c-0.8,0.4-1.4,0.9-1.9,1.2     c-0.8,0.6-1.7,1.3-2.5,2.4c-0.3,0.4-0.8,1-1.1,1.9c-0.3,0.7-0.3,1.3-0.4,1.8c-0.1,0.7-0.1,1.3-0.1,1.7L16.6,43l-1.7,1.6l-2.6-1.1     v1.9l-4.4,2.4h1.5V49c0.2,0,0.4,0.1,0.7,0.3c0.2,0.1,0.6,0.3,1,0.8c0.3,0.3,0.4,0.7,0.5,0.9c0.2,0.6,0.1,0.7,0.3,1.1     c0.2,0.4,0.6,0.7,1,0.8c0.4,0.1,0.8,0,0.8,0.1c0,0.1-0.3,0.2-0.5,0.6c-0.2,0.4-0.1,0.8,0,1c0.1,0.2,0.2,0.4,0.4,0.8     c0.1,0.2,0.2,0.4,0.3,0.5h0.8v3.1h-0.3v0.7l0,0c-0.1,0.1-0.2,0.3-0.3,0.4c-0.3,0.2-0.5,0.3-0.7,0.3c0.1,0,0.4,0.1,0.7,0.3     c0.2,0.2,0.3,0.3,0.3,0.4c0.1,0.2,0.3,0.6,0.3,0.6v4.5c0,0.9-1.1,1.3-1.1,1.3s1.1,0.4,1.1,1.3v1.8h-0.5v0.4h-0.4v0.3h-0.5v0.2     v0.2h0.5v0.3h0.4v0.4h0.5v2h-2.8v0.3h0.8v0.4h0.2v0.4h0.1v8.9H9.8V87H7.6v1.6h74.2V87h-1.6v-2.6h-2.4V79h-1.6v-1.5h-1.2V73h1.2     v-0.8h-1.2v-8.6h1.1v-1.4H75c-0.1-0.1-0.2-0.1-0.2-0.1c0-0.1-0.1-0.4,0-0.7c0.1-0.2,0.2-0.4,0.4-0.6c0.1-0.2,0.4-0.4,0.7-0.6     c0,0,0.3-0.2,0.9-0.2v-0.3H75c0,0-0.2,0,0-0.3c0.1-0.2,0.3-0.4,0.4-0.6c0.1-0.2,0.2-0.3,0.3-0.5l0.1-0.1     c-0.1-0.1-0.1-0.4-0.2-0.6c-0.1-0.3-0.2-0.7-0.1-1.1c0-0.4,0.2-0.7,0.2-0.9c0.1-0.3,0.3-0.6,0.4-0.8c0.1-0.2,0.3-0.5,0.6-0.8     c0.4-0.4,0.7-0.6,1-0.7v-0.6h-0.8l-0.1,0c0-0.2-0.1-0.4-0.1-0.6c0-0.2,0-0.3,0-0.5C76.8,51.1,76.8,50.9,76.9,50.6z M42.1,55.1     c-0.4,0.7-1.2,0.9-1.1,1.4c0,0,0.1,0.1,0.2,0.3c0.3,0.4,0.4,0.5,0.5,0.6c0.1,0.1,0.2,0.4,0.3,0.7V62L40.9,63l1.1,1v1.3     c-0.1,0-0.5,0.1-0.8,0.4c-0.1,0.1-0.3,0.3-0.3,0.6c0,0.4,0.4,0.8,1.1,1v1.4H31.3H20.5v-1.4c0.7-0.1,1.1-0.6,1.1-1     c0-0.3-0.2-0.5-0.3-0.6c-0.3-0.3-0.7-0.4-0.8-0.4V64l1.1-1L20.5,62v-3.9c0.1-0.3,0.2-0.6,0.3-0.7c0.1-0.2,0.2-0.3,0.5-0.6     c0.2-0.2,0.2-0.3,0.2-0.3c0.1-0.4-0.8-0.6-1.1-1.4c-0.4-0.7,0-1.6,0.1-1.8c0.4-0.9,1.1-1.2,1.4-1.4c0.3-0.1,1.1-0.5,1.9-0.2     c0.4,0.2,0.7,0.5,0.8,0.4c0.1-0.1-0.3-0.5-0.2-1.1c0.1-0.6,0.3-0.9,0.5-1c0.1-0.2,0.5-0.6,1.1-0.7c0.5-0.1,0.9,0,1.1,0.1     c0.3,0.1,0.6,0.3,0.9,0.5c0.7,0.5,0.8,0.9,0.9,0.7c0-0.2-0.4-2.3,1.3-2.9c0.4-0.1,0.8-0.3,1.1-0.3h0c0.4,0.1,0.8,0.2,1.1,0.3     c1.7,0.6,1.3,2.8,1.3,2.9c0,0.2,0.2-0.2,0.9-0.7c0.3-0.2,0.5-0.4,0.9-0.5c0.2-0.1,0.6-0.2,1.1-0.1c0.6,0.1,1,0.5,1.1,0.7     c0.1,0.1,0.4,0.5,0.5,1c0.1,0.6-0.3,1-0.2,1.1c0.1,0.1,0.3-0.2,0.8-0.4c0.8-0.3,1.6,0.1,1.9,0.2c0.3,0.1,1.1,0.5,1.4,1.4     C42.1,53.5,42.4,54.4,42.1,55.1z M69,77.4h-8.7h-8.7v-21c0,0,2.6-6.8,8.7-8.9c6.1,2.1,8.7,8.9,8.7,8.9V77.4z"></path></g></g></g></svg>