<svg height='100px' width='100px'  fill="#000000" xmlns:dc="http://purl.org/dc/elements/1.1/" xmlns:cc="http://creativecommons.org/ns#" xmlns:rdf="http://www.w3.org/1999/02/22-rdf-syntax-ns#" xmlns:svg="http://www.w3.org/2000/svg" xmlns="http://www.w3.org/2000/svg" xmlns:sodipodi="http://sodipodi.sourceforge.net/DTD/sodipodi-0.dtd" xmlns:inkscape="http://www.inkscape.org/namespaces/inkscape" version="1.1" x="0px" y="0px" viewBox="0 0 48 48" style="enable-background:new 0 0 48 48;" xml:space="preserve"><style type="text/css">
	.st0{fill:#000000;}
	.st1{fill:#000000;}
	.st2{fill:none;stroke:#000000;stroke-width:2;stroke-linecap:round;stroke-linejoin:round;stroke-miterlimit:10;}
	.st3{fill:#000000;}
</style><path d="M 7.8007812,5 C 6.5007811,5 5.3999998,5.8 5,7 l 5.601562,0 c -0.4,-1.2 -1.5007808,-2 -2.8007808,-2 z m 3.9999998,0 c 0.6,0.8 1,1.9 1,3 l 0,32 c 0,1.7 1.3,3 3,3 1.7,0 3,-1.3 3,-3 0,-0.6 0.4,-1 1,-1 l 19,0 0,-31 c 0,-1.7 -1.3,-3 -3,-3 l -1,0 -23,0 z m 9,2 9,0 c 0.6,0 1,0.4 1,1 0,0.6 -0.4,1 -1,1 l -9,0 c -0.6,0 -1,-0.4 -1,-1 0,-0.6 0.4,-1 1,-1 z m -5,4 20,0 c 0.6,0 1,0.4 1,1 0,0.6 -0.4,1 -1,1 l -20,0 c -0.6,0 -1,-0.4 -1,-1 0,-0.6 0.4,-1 1,-1 z m 0,4 20,0 c 0.6,0 1,0.4 1,1 0,0.6 -0.4,1 -1,1 l -20,0 c -0.6,0 -1,-0.4 -1,-1 0,-0.6 0.4,-1 1,-1 z m 0,4 20,0 c 0.6,0 1,0.4 1,1 0,0.6 -0.4,1 -1,1 l -20,0 c -0.6,0 -1,-0.4 -1,-1 0,-0.6 0.4,-1 1,-1 z m 0,4 20,0 c 0.6,0 1,0.4 1,1 0,0.6 -0.4,1 -1,1 l -20,0 c -0.6,0 -1,-0.4 -1,-1 0,-0.6 0.4,-1 1,-1 z m 0,4 20,0 c 0.6,0 1,0.4 1,1 0,0.6 -0.4,1 -1,1 l -20,0 c -0.6,0 -1,-0.4 -1,-1 0,-0.6 0.4,-1 1,-1 z m 0,4 20,0 c 0.6,0 1,0.4 1,1 0,0.6 -0.4,1 -1,1 l -20,0 c -0.6,0 -1,-0.4 -1,-1 0,-0.6 0.4,-1 1,-1 z m 0,4 4,0 c 0.6,0 1,0.4 1,1 0,0.6 -0.4,1 -1,1 l -4,0 c -0.6,0 -1,-0.4 -1,-1 0,-0.6 0.4,-1 1,-1 z m 4.900391,6 c -0.2,0.7 -0.500391,1.4 -0.900391,2 l 20,0 c 1.3,0 2.400781,-0.8 2.800781,-2 l -21.90039,0 z"></path></svg>