<svg height='100px' width='100px'  fill="#000000" xmlns="http://www.w3.org/2000/svg" xmlns:xlink="http://www.w3.org/1999/xlink" version="1.1" x="0px" y="0px" viewBox="0 0 395.467 301.523" style="enable-background:new 0 0 395.467 301.523;" xml:space="preserve"><g><rect x="108.356" y="241.047" width="28.611" height="6"></rect><path d="M247.745,5.357H356.48l-89.569,22.85v245.608l0.453-0.116l104.475-26.652h23.629v-6h-17.092V0H242.383v113.735   c1.707,0.687,3.489,1.264,5.361,1.739V5.357z M292.911,70.02l64.757-16.52v11.749L292.911,81.77V70.02z M276.776,135.751   l8.039-2.68v50.908l-8.039,2.68V135.751z"></path><path d="M260.219,240.249h-12.475V139.983c-1.819-0.3-3.605-0.67-5.361-1.102v102.167h-31.527v6h49.363V240.249z"></path><path d="M145.376,84.663c-4.422,2.979-8.49,7.196-11.795,12.247c-1.556,2.425-2.95,5.049-3.99,7.862   c-1.128,3.053-1.839,6.329-1.865,9.826c-0.01,3.408,0.758,7.046,2.584,10.368c2.734,5.041,7.654,8.902,13.881,11.248   c6.268,2.38,14.006,3.546,23.854,3.558c1.729-0.002,3.52-0.039,5.381-0.113c4.416-0.176,7.852-3.898,7.674-8.313   c-0.178-4.413-3.9-7.849-8.314-7.673c-1.662,0.066-3.24,0.1-4.74,0.1c-11.406,0.037-18.111-1.997-21.092-3.941   c-1.521-0.97-2.188-1.8-2.605-2.544c-0.402-0.751-0.611-1.541-0.619-2.689c-0.085-1.923,0.877-4.83,2.498-7.695l2.158,0.276   c-1.729,2.847-2.727,5.739-2.656,7.328c0.008,0.955,0.156,1.415,0.383,1.837c0.242,0.428,0.678,1.012,1.916,1.8   c1.318,0.859,6.584,3.628,19.707,3.628l0.303-0.002c1.473,0,3.039-0.031,4.67-0.098c0.135-0.004,0.27-0.008,0.404-0.008   c5.385,0,9.77,4.218,9.986,9.603c0.107,2.667-0.832,5.218-2.643,7.183c-1.813,1.961-4.279,3.101-6.949,3.209   c-1.861,0.074-3.697,0.111-5.461,0.115h-0.002c-8.985-0.012-16.36-0.991-22.479-2.971v116.278c0,6.83,5.537,12.363,12.363,12.363   c6.828,0,12.365-5.533,12.365-12.363V164.81h4.635v90.271c0,6.83,5.537,12.363,12.363,12.363c6.828,0,12.365-5.533,12.365-12.363   V101.814c0.523,0.543,1.058,1.122,1.617,1.762c4.154,4.668,9.07,11.627,16.434,18.087c7.354,6.472,17.424,12.268,31.076,14.44   c0.434,0.07,0.865,0.104,1.291,0.104c3.854,0,7.25-2.792,7.887-6.719c0.707-4.362-2.254-8.472-6.615-9.179   c-8.113-1.331-13.951-4.008-18.822-7.352c-7.297-5.01-12.35-11.809-17.848-18.342c-2.771-3.246-5.674-6.461-9.457-9.117   c-3.352-2.378-7.644-4.162-12.372-4.48c-0.303-0.036-0.607-0.06-0.919-0.06h-0.661c-0.025,0-0.051-0.003-0.077-0.003   c-0.02,0-0.038,0.003-0.058,0.003h-6.123c-4.482,4.895-10.921,7.97-18.065,7.97c-6.707,0-12.791-2.711-17.22-7.092   c-0.687,0.358-1.314,0.814-1.859,1.354C147.013,83.646,146.19,84.142,145.376,84.663z"></path><circle cx="166.942" cy="64.428" r="22.5"></circle><path d="M21.843,297.329c20.83-23.351,29.281-46.233,32.205-63.784c6.641,12.131,13.9,30.517,18.111,57.212   c0.963,6.166,6.282,10.571,12.334,10.572c0.643,0,1.292-0.05,1.946-0.152c6.821-1.066,11.485-7.459,10.42-14.281   c-5.231-33.514-15.224-56.466-24.259-71.177c-0.807-1.314-1.6-2.539-2.386-3.724c-1.865-0.115-3.647-0.741-5.185-1.841   c-10.69-7.622-18.609-16.598-23.542-26.676c-3.978-8.103-5.991-16.804-5.983-25.857c0.025-11.958,3.496-20.632,4.557-23.005   l0.008-0.016l0.047-0.103c1.641-3.489,5.195-5.744,9.054-5.744c1.477,0,2.905,0.32,4.251,0.954   c4.965,2.334,7.121,8.281,4.815,13.257c-0.092,0.212-0.181,0.43-0.295,0.73c-0.236,0.618-0.592,1.633-0.965,2.985   c-0.672,2.446-1.475,6.33-1.473,10.943c0.008,5.983,1.334,11.721,3.943,17.051c0.063,0.127,0.131,0.252,0.195,0.378   c1.206-10.423,3.491-20.548,5.075-28.639c2.871-9.953-0.883-21.865-9.42-23.992c-8.535-2.129-20.912,2.508-25.945,17.15   c-6.809,20.174-8.268,33.304-5.682,55.521c1.091,5.611,3.144,9.464,5.741,12.102c0.004,0.015,0.005,0.029,0.009,0.044   c0.078,0.312,0.965,4.107,0.963,10.33c-0.086,13.054-3.587,36.438-27.226,63.151c-4.588,5.16-4.121,13.061,1.038,17.647   c2.382,2.116,5.347,3.157,8.3,3.157C15.943,301.523,19.374,300.107,21.843,297.329z"></path><ellipse transform="matrix(0.2268 -0.9739 0.9739 0.2268 -41.7479 138.4611)" cx="66.334" cy="95.525" rx="22.495" ry="22.495"></ellipse><path d="M53.506,157.623c-0.002-4.663,0.777-8.689,1.543-11.473c0.383-1.393,0.759-2.472,1.021-3.164   c0.131-0.344,0.234-0.593,0.295-0.734c0.029-0.069,0.049-0.113,0.055-0.128c1.854-3.991,0.137-8.732-3.85-10.607   c-3.998-1.88-8.764-0.164-10.645,3.835v-0.002c-0.289,0.663-4.393,9.413-4.42,22.274c-0.006,7.34,1.402,16.058,5.78,24.976   c4.364,8.92,11.681,17.924,22.907,25.929c1.41,1.007,3.034,1.492,4.644,1.492c2.495,0,4.954-1.165,6.516-3.351   c2.567-3.597,1.734-8.592-1.86-11.161c-9.32-6.672-14.674-13.52-17.842-19.955C54.498,169.114,53.511,162.972,53.506,157.623z"></path></g></svg>