<svg height='100px' width='100px'  fill="#000000" xmlns="http://www.w3.org/2000/svg" xmlns:xlink="http://www.w3.org/1999/xlink" version="1.1" x="0px" y="0px" viewBox="0 0 301.168 307.415" style="enable-background:new 0 0 301.168 307.415;" xml:space="preserve"><g><path d="M49.791,129.346c-3.817,10.83-7.259,19.55-10.519,26.657c-3.248,7.05-6.092,12.069-8.948,15.798   c-1.829,2.34-3.962,4.733-7.238,6.523c-1.473,0.785-3.8,1.711-6.612,1.711h-0.02h-0.123c-0.765,0-1.506-0.081-2.222-0.215v17.23v98   c0,6.83,5.537,12.363,12.363,12.363c6.828,0,12.365-5.533,12.365-12.363V204.78h4.635v90.271c0,6.83,5.537,12.363,12.363,12.363   c6.828,0,12.365-5.533,12.365-12.363v-40.203c-0.419,0.023-0.841,0.055-1.255,0.055c-3.988,0-7.531-0.994-10.531-2.953   c-12.501-8.168-11.587-29.971-2.418-44.006c3.779-5.783,8.68-9.714,14.204-11.52v-18.313V145.08   c1.847,3.792,3.725,9.392,5.054,17.5c0.293,1.79,0.561,3.702,0.794,5.744c0.001,0.007,0.003,0.014,0.004,0.022   c0.695,6.041,1.11,13.195,1.11,21.626c0,5.512-0.178,11.568-0.565,18.221c-0.257,4.411,3.108,8.195,7.521,8.453   c0.158,0.009,0.314,0.014,0.471,0.014c4.205,0,7.734-3.282,7.98-7.536c0.404-6.931,0.592-13.297,0.594-19.151   c-0.002-8.954-0.438-16.708-1.216-23.458c-0.001-0.009-0.001-0.017-0.002-0.025c-0.249-2.142-0.536-4.169-0.851-6.118   c-2.519-15.65-7.048-25.249-12.416-31.308c-3.005-3.374-6.275-5.51-9.177-6.684c-2.772-1.135-5.146-1.41-6.674-1.431   c-0.118-0.005-0.235-0.017-0.355-0.017h-4.971c-1.617,1.558-3.363,2.891-5.225,3.922C50.454,126.325,50.315,127.856,49.791,129.346   z"></path><rect x="105.924" y="226.273" width="70.667" height="4"></rect><rect x="247.257" y="226.273" width="33.334" height="4"></rect><path d="M82.589,218.659h-0.012h-0.014c-0.18-0.002-0.364-0.008-0.549-0.016c-5.52-0.324-9.734-5.063-9.413-10.567   c0.214-3.672,0.359-7.227,0.451-10.663c-6.444,0.686-12.632,4.356-17.38,11.625c-8.759,13.408-9.303,33.962,1.836,41.237   c11.139,7.275,29.74-1.481,38.5-14.891c7.743-11.855,5.195-23.376-3.196-30.915c-0.072,1.573-0.153,3.161-0.247,4.769   C92.261,214.522,87.877,218.659,82.589,218.659z M71.651,244.876c-0.99,1.514-2.969-2.73-7.079-5.414   c-4.109-2.686-8.792-2.792-7.802-4.307c0.988-1.514,6.123-2.1,10.232,0.586C71.112,238.424,72.64,243.362,71.651,244.876z    M72.39,220.761c-0.626,2.101-2.709-0.808-6.051-1.806c-3.343-0.996-6.679,0.297-6.052-1.804c0.626-2.101,3.843-2.996,7.186-1.999   C70.815,216.149,73.017,218.661,72.39,220.761z M86.724,234.42c-1.672,1.418-1.829-2.156-4.084-4.816   c-2.256-2.66-5.756-3.398-4.086-4.816c1.674-1.418,4.856-0.412,7.111,2.248C87.923,229.698,88.396,233.002,86.724,234.42z"></path><path d="M157.42,184.994c0.467-5.187,4.743-9.097,9.948-9.097c0.301,0,0.605,0.012,0.912,0.04c1.872,0.17,3.682,0.256,5.447,0.299   v-29.912H116.69v43.323h41.429C157.537,188.216,157.271,186.634,157.42,184.994z M160.879,167.313h-34v-3.25h34V167.313z    M167.696,147.466l5.099,6.296h-6.865l-5.099-6.296H167.696z M153.294,147.466l5.099,6.296h-6.865l-5.099-6.296H153.294z    M138.891,147.466l5.099,6.296h-6.864l-5.1-6.296H138.891z M117.624,147.466h6.864l5.1,6.296h-6.866L117.624,147.466z    M126.879,172.397h34v3.25h-34V172.397z"></path><path d="M231.136,152.005c0.498-4.391-2.656-8.353-7.047-8.85c-4.373-0.497-8.319,2.63-8.844,6.991c0,0,0,0.004-0.006,0.055   c-0.088,0.721-1.351,7.895-6.451,14.417c-2.65,3.411-6.261,6.72-11.498,9.276c-5.246,2.545-12.205,4.377-21.744,4.385   c-2.328,0-4.807-0.113-7.445-0.351c-4.4-0.399-8.291,2.845-8.689,7.245c-0.398,4.4,2.845,8.291,7.246,8.689   c3.091,0.281,6.053,0.414,8.889,0.414c0.02,0,0.04,0,0.059,0c11.953,0.001,21.703-2.446,29.416-6.358   c11.63-5.874,18.273-14.88,21.799-22.191C230.373,158.381,231.058,152.61,231.136,152.005z"></path><ellipse transform="matrix(0.9739 -0.2268 0.2268 0.9739 -19.3543 48.1737)" cx="199.957" cy="108.31" rx="22.495" ry="22.493"></ellipse><path d="M231.467,254.441l12.748-36.854c2.754-2.644,4.936-6.578,6.073-12.427c2.586-22.215,1.123-35.346-5.682-55.519   c-3.947-11.479-12.404-16.807-19.987-17.548c-0.025-0.006-0.05-0.015-0.075-0.021l-12.233-2.606   c-2.092,1.219-4.375,2.133-6.8,2.697c-1.832,0.429-3.71,0.645-5.575,0.645c-8.12,0-15.401-3.94-19.879-10.213l-24.763-5.275   c-4.321-0.917-8.57,1.84-9.491,6.161c-0.025,0.119-0.037,0.238-0.058,0.358l-22.285-8.563l-3.078,8.01l53.242,20.457l2.188-5.691   l32.901,7.008c-0.694,3.669-0.552,7.684,0.526,11.424c0.186,0.948,0.382,1.929,0.584,2.93c2.634-4.775,3.36-9,3.425-9.42   c0.004-0.037,0.011-0.074,0.017-0.109c0.641-5.031,4.886-8.779,9.91-8.779c0.377,0,0.758,0.022,1.141,0.064   c2.653,0.301,5.03,1.615,6.695,3.706c1.664,2.089,2.414,4.702,2.113,7.356c-0.271,2.113-1.23,7.603-4.506,14.369   c-2.547,5.281-6.966,12.087-14.377,17.85c0.746,6.196,1.104,12.505,0.73,18.574l-35.21,33.503   c-2.491,2.367-3.884,5.622-3.884,9.057v48.979c0,6.905,5.594,12.502,12.5,12.502c6.902,0,12.499-5.597,12.499-12.502v-43.62   l7.968-7.581l-3.614,10.449c-1.591,4.594-0.362,9.708,3.137,13.084l37.335,35.999c2.425,2.339,5.552,3.503,8.676,3.503   c3.274,0,6.545-1.278,8.998-3.822c4.792-4.969,4.648-12.885-0.323-17.673L231.467,254.441z M128.071,125.016l-6.408-2.462   l7.017-4.047l6.409,2.462L128.071,125.016z M135.106,127.719l7.018-4.047l6.408,2.462l-7.018,4.047L135.106,127.719z    M148.552,132.885l7.017-4.047l6.408,2.462l-7.017,4.047L148.552,132.885z M168.404,140.512l-6.408-2.462l7.017-4.047l6.408,2.463   L168.404,140.512z"></path><path d="M174.983,14.626c0.888-1.772,0.17-3.93-1.604-4.815L154.52,0.379c-1.77-0.886-3.928-0.168-4.814,1.604l-35.918,71.82   c-0.888,1.773-0.169,3.93,1.605,4.816l18.857,9.432c1.771,0.888,3.928,0.168,4.813-1.604l17.034-34.061l143.197,71.269l1.872-3.744   L157.972,48.642L174.983,14.626z"></path><path d="M2.051,159.646c0.629,3.332,1.407,6.458,2.704,9.432c0.047,0.118,0.087,0.237,0.141,0.354   c0.836,1.797,1.858,3.605,3.645,5.336c1.136,1.134,2.831,2.206,4.781,2.796c0.954,0.289,1.965,0.472,3.01,0.472   c0.041,0,0.082,0,0.123,0c2.141,0.004,4.098-0.627,5.673-1.468c2.771-1.511,4.69-3.529,6.608-5.981   c2.834-3.699,5.584-8.612,8.719-15.418c3.12-6.798,6.567-15.469,10.451-26.487c1.467-4.167-0.723-8.736-4.89-10.204   c-4.167-1.467-8.734,0.721-10.202,4.89l-0.002-0.003c-5.728,16.286-10.422,26.984-13.932,33.106   c-0.714,1.262-1.383,2.324-1.977,3.187c-0.14-0.102-0.291-0.185-0.436-0.277l0.674-3.896c2.602-4.544,7.016-13.703,13.354-31.574   c-1.396-0.926-2.721-2.017-3.965-3.248H8.025c-4.345,0-7.9,3.475-7.997,7.818C0.025,128.53,0,129.621,0,131.433   c0.004,3.73,0.093,10.494,0.688,17.584C0.991,152.566,1.416,156.197,2.051,159.646z"></path><path d="M31.235,121.931c1.602-3.566,5.168-5.91,9.124-5.91c1.13,0,2.247,0.19,3.321,0.569c2.985,1.053,5.153,3.389,6.118,6.17   c9.032-5.414,15.445-18.638,15.445-30.984c0-16.018-10.785-24.479-24.089-24.479s-24.089,8.462-24.089,24.479   C17.066,103.533,22.882,116.083,31.235,121.931z M26.105,92.694c0.489-2.137,3.642-3.237,7.043-2.458   c3.399,0.778,5.757,3.142,5.268,5.279c-0.489,2.136-2.755-0.632-6.155-1.411C28.861,93.327,25.616,94.831,26.105,92.694z    M41.155,115.704c-4.909,0-8.888-3.297-8.888-5.105c0-1.809,3.979,0.662,8.888,0.662c4.908,0,8.887-2.471,8.887-0.662   C50.042,112.407,46.063,115.704,41.155,115.704z M49.163,90.236c3.4-0.779,6.553,0.321,7.041,2.458   c0.49,2.137-2.754,0.633-6.154,1.41c-3.399,0.779-5.664,3.547-6.154,1.411C43.405,93.377,45.764,91.014,49.163,90.236z"></path></g></svg>