<svg height='100px' width='100px'  fill="#000000" xmlns="http://www.w3.org/2000/svg" xmlns:xlink="http://www.w3.org/1999/xlink" version="1.1" x="0px" y="0px" viewBox="0 0 64 64" style="enable-background:new 0 0 64 64;" xml:space="preserve"><g><path d="M18.9914722,20.0000401c4.9624023,0,9-4.0375977,9-9s-4.0375977-9-9-9s-8.999999,4.0375977-8.999999,9   S14.0290709,20.0000401,18.9914722,20.0000401z M18.9914722,4.0000396c3.8598633,0,7,3.1401367,7,7.0000005s-3.1401367,7-7,7   s-6.999999-3.1401367-6.999999-7S15.1316099,4.0000396,18.9914722,4.0000396z"></path><path d="M53.7493477,32.0984879c6.8256226-13.2059307,3.4359741-28.6658916,3.2875366-29.3196392   c-0.0615234-0.2719727-0.2338867-0.5058594-0.4755859-0.6450195c-0.2431641-0.1401367-0.5317383-0.1713867-0.7973633-0.0883789   c-0.2456055,0.0766602-6.0893555,1.9262695-12.4521484,6.3427739c-2.019043,1.3999023-3.0825195,5.355957-3.6293945,8.5996094   c-1.1010742-3.0361328-1.5800781-3.1513672-1.9853516-3.2490234c-0.3481445-0.0805664-0.8032227,0.0532227-1.0493164,0.3115234   c-1.9916992,2.0908203-3.6787109,4.3398438-5.0151386,6.6845703c-1.2861938,2.2590332-2.3182373,4.7617798-3.1046753,7.4433594   c-0.1146851-0.1241455-0.2189941-0.2553101-0.3391724-0.3754883c-2.4521484-2.4521484-5.7182617-3.8027344-9.1972656-3.8027344   c-7.1684561,0-12.999999,5.831543-12.999999,12.9999981v12c0,0.5522461,0.4477539,1,1,1H25.093523l-3.0634766,10.7250977   c-0.1264648,0.4428711,0.0654297,0.9150391,0.465332,1.1430664c0.1552734,0.0888672,0.3261719,0.1318359,0.4956055,0.1318359   c0.2675781,0,0.5317383-0.1069336,0.7260742-0.3115234l11.9736347-12.6171875   c5.4858398-2.8374023,12.9052734-7.8652344,17.4277344-15.8027344c0.1621094-0.2817993,0.3157959-0.5724487,0.4697876-0.862793   c0.0343018-0.0413818,0.0715332-0.0795288,0.0995483-0.1274414C53.7211494,32.2212906,53.7283516,32.1586075,53.7493477,32.0984879   z M7.9914732,48.0000381v-11c0-6.0654278,4.9345703-10.9999981,10.999999-10.9999981   c2.9448242,0,5.7084961,1.1425781,7.7832031,3.2167969c0.4155273,0.4155273,0.7924805,0.8598633,1.1235352,1.3237305   c-0.0166016,0.0731201-0.0258179,0.1503296-0.0420532,0.2236938c-0.2069702,0.9348755-0.3880615,1.8843975-0.5359497,2.8514996   c-0.015625,0.1021118-0.0280151,0.2057495-0.0429688,0.3082275c-0.1447144,0.9909668-0.2625122,1.9957275-0.3453979,3.017334   c-0.0064087,0.0795288-0.0099487,0.1602783-0.0159912,0.2399292c-0.0800781,1.0502319-0.1315918,2.1138916-0.1463623,3.1932373   c-0.0006104,0.0471191,0.0007324,0.0950317,0.0001831,0.1422119c-0.0123291,1.1160278,0.007019,2.2453613,0.0645752,3.3890991   l-1.1694336,4.0942383H7.9914732z M50.0761909,34.3467789c-0.0061035-0.0037231-0.0092163-0.0101318-0.0153809-0.0137329   l-1.9750977-1.1547852c-0.4780273-0.2792969-1.0893555-0.1176758-1.3681641,0.3583984   c-0.2788086,0.4770508-0.1181641,1.0893555,0.3583984,1.3681641l1.821228,1.0648193   c-0.5474243,0.7035522-1.1176758,1.3751221-1.704834,2.0197754l-3.3624878-1.9659424   c-0.4770508-0.2788086-1.0898438-0.1181641-1.3681641,0.3583984c-0.2788086,0.4770508-0.1181641,1.0893555,0.3583984,1.3681641   l2.9468994,1.7229614c-0.6721191,0.6592407-1.3588867,1.2822876-2.053833,1.8737793   c-0.0594482-0.0595093-0.1129761-0.1240845-0.1889648-0.1685181l-3.9506836-2.3095703   c-0.4780273-0.2797852-1.0898438-0.1186523-1.3681641,0.3583984c-0.2788086,0.4770508-0.1181641,1.0893555,0.3583984,1.3681641   l3.5319824,2.0648193c-2.5919189,1.9949951-5.2086182,3.5491943-7.470459,4.710083   c-0.1000977,0.0512695-0.1914063,0.1196289-0.269043,0.2011719l-9.2822285,9.78125l2.3035278-8.0653076   c0.0014038-0.0046387,0.0046997-0.0081177,0.0060425-0.0128174l1.1792603-4.1373901l0.2406616-0.8425903   c0.0302734-0.1064453,0.0424805-0.2172852,0.0366211-0.3276367c-0.0622559-1.1704102-0.085144-2.3377075-0.0692139-3.4940796   c0.0477295-3.4690552,0.444458-6.8395386,1.1732178-9.8999615c0.7753906-3.2402344,1.9282227-6.2172852,3.4262714-8.8476563   c1.0683594-1.875,2.3779297-3.6870117,3.9033203-5.4023438c0.5249023,1.2607422,1.3056641,3.6035156,1.9091797,5.6499023   c0.137207,0.4663086,0.5883789,0.7661133,1.0722656,0.7109375c0.4829102-0.0551758,0.855957-0.4492188,0.8847656-0.9345703   c0.2260742-3.7993164,1.3251953-10.340332,3.3120117-11.7177734c4.543457-3.1533208,8.8955078-4.9711919,10.8422852-5.7006841   c0.6137085,3.6481323,2.0528564,15.6151123-2.9267578,26.0174561l-1.0136719-0.5926514   c-0.4780273-0.2788086-1.0893555-0.1181641-1.3681641,0.3583984c-0.2788086,0.4770508-0.1181641,1.0893555,0.3588867,1.3681641   l1.1152344,0.6520367c-0.0262451,0.0466309-0.0499878,0.0945435-0.0766602,0.1409302   C50.9740181,32.992897,50.5323067,33.6780167,50.0761909,34.3467789z"></path></g></svg>