<svg height='100px' width='100px'  fill="#000000" xmlns="http://www.w3.org/2000/svg" viewBox="0 0 64 64" x="0px" y="0px"><g><path d="M56.923,8.285A11,11,0,0,0,47,2H45A11.013,11.013,0,0,0,34,13v2.548A3.995,3.995,0,0,0,36,23h.223A9.891,9.891,0,0,0,41,29.631V34H36c-.209,0-.416.011-.62.031-.024,0-.047.009-.071.011A5.928,5.928,0,0,0,33.6,34.5h0l.523,1.2.278.638h0A4.7,4.7,0,0,1,36,36h2l-1.8,2.4a1,1,0,0,0,.353,1.5l2.759,1.379-1.019,1.019a1,1,0,0,0,.126,1.521L45,48.515V60H37.91V54a1,1,0,0,0-.234-.643,6.762,6.762,0,0,1-.171-8.713l-1.53-1.288a8.738,8.738,0,0,0-.065,11V60H33v2H61a1,1,0,0,0,1-1V40a6.006,6.006,0,0,0-6-6H51V29.63a9.948,9.948,0,0,0,3.427-3.246A7,7,0,0,0,61,31a1,1,0,0,0,1-1V15a6.967,6.967,0,0,0-5.077-6.715ZM56,17a2,2,0,0,1,0,4ZM36,13a9.011,9.011,0,0,1,9-9h2a9.011,9.011,0,0,1,9,9v.547L52.826,10.3a1,1,0,0,0-1.348-.075l-2.264,1.852c-3.139,2.569-6.886,3.348-11.225,4.251-.655.136-1.318.274-1.989.421Zm-1.413,7.413a1.982,1.982,0,0,1-.494-2.008A.972.972,0,0,0,35,19a1.042,1.042,0,0,0,.228-.026c.262-.062.512-.11.772-.168V21A1.983,1.983,0,0,1,34.587,20.413ZM50.473,35.921,46,45.613l-4.473-9.692A2,2,0,0,0,43,34V30.523a9.672,9.672,0,0,0,6,0V34A2,2,0,0,0,50.473,35.921Zm-.921,6.769.564-1.222a1,1,0,0,0,.177.239l1.165,1.166-2.969,2.12ZM50.8,39.98l1.4-3.039,1.275,1.7ZM38.519,38.642l1.275-1.7,1.4,3.039Zm2.023,4.231,1.165-1.166a1,1,0,0,0,.177-.239l.564,1.222,1.063,2.3ZM60,40V60H56V54.353a8.727,8.727,0,0,0-.066-11l-1.528,1.292a6.748,6.748,0,0,1-.172,8.711A1,1,0,0,0,54,54v6H47V48.515l6.581-4.7a1,1,0,0,0,.126-1.521l-1.019-1.019L55.447,39.9a1,1,0,0,0,.353-1.5L54,36h2A4,4,0,0,1,60,40ZM49.553,28.166a8.121,8.121,0,0,1-7.108,0A7.955,7.955,0,0,1,38,21V18.373c.13-.027.267-.059.4-.086q.845-.175,1.675-.353A1.5,1.5,0,0,0,43,17.5a1.443,1.443,0,0,0-.027-.265,19.542,19.542,0,0,0,7.507-3.609l1.556-1.272L53.747,14.1l0,0,.2.2.058.063V21A7.956,7.956,0,0,1,49.553,28.166ZM60,19v9.9A5.008,5.008,0,0,1,56,24V23a3.987,3.987,0,0,0,2-7.444V13a11.012,11.012,0,0,0-.212-2.139,5.042,5.042,0,0,1,.748.609A4.93,4.93,0,0,1,60,15Z"></path><path d="M50.5,16A1.5,1.5,0,1,0,52,17.5,1.5,1.5,0,0,0,50.5,16Z"></path><path d="M46,23a1,1,0,0,1-1-1H43a3,3,0,0,0,6,0H47A1,1,0,0,1,46,23Z"></path><rect x="41" y="50" width="2" height="2"></rect><rect x="41" y="56" width="2" height="2"></rect><path d="M6,62H28a4,4,0,0,0,4-4V22a4,4,0,0,0-4-4H20V10h5a1,1,0,0,0,1-1V6a4,4,0,0,0-4-4H10A4,4,0,0,0,6,6V18a4,4,0,0,0-4,4V58A4,4,0,0,0,6,62ZM24,6V8H20V6a2,2,0,0,1,4,0ZM8,6a2,2,0,0,1,2-2h8.537a3.892,3.892,0,0,0-.211.424l-.013.026a3.969,3.969,0,0,0-.206.664c-.013.055-.024.111-.034.168A3.954,3.954,0,0,0,18,6V22H8ZM4,22a2,2,0,0,1,2-2v3a1,1,0,0,0,1,1H19a1,1,0,0,0,1-1V20h8a2,2,0,0,1,2,2V58a2,2,0,0,1-2,2H6a2,2,0,0,1-2-2Z"></path><path d="M7,34H27a1,1,0,0,0,1-1V27a1,1,0,0,0-1-1H7a1,1,0,0,0-1,1v6A1,1,0,0,0,7,34Zm1-6H26v4H8Z"></path><path d="M7,42h4a1,1,0,0,0,1-1V37a1,1,0,0,0-1-1H7a1,1,0,0,0-1,1v4A1,1,0,0,0,7,42Zm1-4h2v2H8Z"></path><path d="M19,36H15a1,1,0,0,0-1,1v4a1,1,0,0,0,1,1h4a1,1,0,0,0,1-1V37A1,1,0,0,0,19,36Zm-1,4H16V38h2Z"></path><path d="M27,36H23a1,1,0,0,0-1,1v4a1,1,0,0,0,1,1h4a1,1,0,0,0,1-1V37A1,1,0,0,0,27,36Zm-1,4H24V38h2Z"></path><path d="M7,50h4a1,1,0,0,0,1-1V45a1,1,0,0,0-1-1H7a1,1,0,0,0-1,1v4A1,1,0,0,0,7,50Zm1-4h2v2H8Z"></path><path d="M19,44H15a1,1,0,0,0-1,1v4a1,1,0,0,0,1,1h4a1,1,0,0,0,1-1V45A1,1,0,0,0,19,44Zm-1,4H16V46h2Z"></path><path d="M27,44H23a1,1,0,0,0-1,1V57a1,1,0,0,0,1,1h4a1,1,0,0,0,1-1V45A1,1,0,0,0,27,44ZM26,56H24V46h2Z"></path><path d="M7,58h4a1,1,0,0,0,1-1V53a1,1,0,0,0-1-1H7a1,1,0,0,0-1,1v4A1,1,0,0,0,7,58Zm1-4h2v2H8Z"></path><path d="M19,52H15a1,1,0,0,0-1,1v4a1,1,0,0,0,1,1h4a1,1,0,0,0,1-1V53A1,1,0,0,0,19,52Zm-1,4H16V54h2Z"></path><rect x="10" y="18" width="6" height="2"></rect><rect x="10" y="14" width="6" height="2"></rect><rect x="10" y="10" width="6" height="2"></rect><rect x="10" y="6" width="6" height="2"></rect></g></svg>