<svg height='100px' width='100px'  fill="#000000" xmlns="http://www.w3.org/2000/svg" viewBox="0 0 100 100" x="0px" y="0px"><title>Creator Icon_43</title><path d="M85.87207,44.644V39.09521a3.62886,3.62886,0,0,0-3.625-3.625H40.3418V30.38184h2.67969a1.24991,1.24991,0,0,0,1.25-1.25V22.80859a1.24991,1.24991,0,0,0-1.25-1.25H19.71484a1.24991,1.24991,0,0,0-1.25,1.25v6.32324a1.24991,1.24991,0,0,0,1.25,1.25h2.67969V52.81543H19.71484a1.24991,1.24991,0,0,0-1.25,1.25v6.32324a1.24991,1.24991,0,0,0,1.25,1.25H43.02148a1.24991,1.24991,0,0,0,1.25-1.25V54.06543a1.24991,1.24991,0,0,0-1.25-1.25H40.3418V48.269H82.24707A3.62886,3.62886,0,0,0,85.87207,44.644Zm-2.5-5.54883V44.644a1.12654,1.12654,0,0,1-1.125,1.125H53.21484V37.97021H82.24707A1.12654,1.12654,0,0,1,83.37207,39.09521ZM20.96484,24.05859H41.77148v3.82324H20.96484ZM41.77148,59.13867H20.96484V55.31543H41.77148Zm-16.877-6.32324V30.38184H37.8418V52.81543ZM40.3418,37.97021h10.373V45.769H40.3418Z"></path><path d="M15.37793,78.44141H47.35742a1.24991,1.24991,0,0,0,1.25-1.25V72.2041a3.22261,3.22261,0,0,0-3.21875-3.21875h-28.042a3.22261,3.22261,0,0,0-3.21875,3.21875v4.9873A1.24991,1.24991,0,0,0,15.37793,78.44141Zm1.25-6.2373a.71935.71935,0,0,1,.71875-.71875h28.042a.71935.71935,0,0,1,.71875.71875v3.7373H16.62793Z"></path></svg>