<svg height='100px' width='100px'  fill="#000000" xmlns="http://www.w3.org/2000/svg" xmlns:xlink="http://www.w3.org/1999/xlink" version="1.1" x="0px" y="0px" viewBox="0 0 64 64" style="enable-background:new 0 0 64 64;" xml:space="preserve"><title>Broker-job-avatar-profession-occupation-agent-investor-capitalist-economist</title><rect x="27" y="48" width="2" height="2"></rect><rect x="27" y="52" width="2" height="2"></rect><rect x="27" y="56" width="2" height="2"></rect><path d="M55.1,44c-1.1-2.5-3-4.5-5.4-5.6l-8.2-3.8c0.4-0.6,0.8-1.2,1.2-1.8l0,0l4.6-3.7c0.5-0.4,0.8-1,0.8-1.6v-2.2c0-1.1-0.9-2-2-2  c-0.2,0-0.3,0-0.5,0.1l-0.2,0.1l1.2-1.8c1-1.5,1.5-3.2,1.5-5v-0.2c0-4.3-2.5-8.2-6.3-10L32,1.9l-9.7,4.5c-3.9,1.8-6.3,5.7-6.3,10  v0.2c0,1.8,0.5,3.5,1.5,5l1.2,1.8l-0.2-0.1c-1.1-0.3-2.2,0.4-2.4,1.5c0,0.2-0.1,0.3-0.1,0.5v2.2c0,0.6,0.3,1.2,0.8,1.6l4.6,3.7l0,0  c0.3,0.6,0.7,1.2,1.2,1.8l-8.2,3.8c-3.9,1.8-6.3,5.7-6.3,10V62h47c1.7,0,3-1.3,3-3V47C58,45.4,56.7,44.1,55.1,44z M52.9,44H41  c-0.7,0-1.4,0.2-1.9,0.7c0.7-2.6,2.5-4.9,4.9-6.1l0.7-0.3l4.1,1.9C50.5,41,51.9,42.3,52.9,44z M42,22h-2.2c-0.4-1.2-1.5-2-2.8-2  h-2.2c-0.8,0-1.6,0.3-2.1,0.9l-0.8,0.8l-0.5-0.6C30.8,20.4,30,20,29,20h-2c-1.3,0-2.4,0.8-2.8,2H22v-1.9c0-1.4,0.9-2.5,2.2-2.9  L32,15l7.8,2.1c1.3,0.4,2.2,1.5,2.2,2.9V22z M38,23v1c0,0.6-0.4,1-1,1h-2c-0.3,0-0.6-0.1-0.8-0.4l-1.1-1.3l1-1  c0.2-0.2,0.4-0.3,0.7-0.3H37C37.6,22,38,22.4,38,23z M30.4,23.1l-1.6,1.6c-0.2,0.2-0.4,0.3-0.7,0.3H27c-0.6,0-1-0.4-1-1v-1  c0-0.6,0.4-1,1-1h2c0.3,0,0.6,0.1,0.8,0.4L30.4,23.1z M22,24h2c0,1.7,1.3,3,3,3h1.2c0.8,0,1.6-0.3,2.1-0.9l1.4-1.4l0.9,1.2  C33.2,26.6,34,27,35,27h2c1.7,0,3-1.3,3-3h2v3.2c0,4.1-2.5,7.8-6.3,9.3l-1.1,0.4c-0.6,0.2-1.2,0.4-1.8,0.5l0,0l0,0  c-0.5,0.1-1,0.1-1.5,0l0,0l0,0c-0.6-0.1-1.2-0.2-1.8-0.5l-1.1-0.4C24.5,35,22,31.3,22,27.2V24z M40,36.1l2.4,1.1  c-2.2,1.3-3.9,3.3-4.8,5.7l-3.3-3.8c0.4-0.1,0.7-0.2,1.1-0.3l1.1-0.4C37.7,37.8,39,37,40,36.1z M27.6,38.3l1.1,0.4  c0.3,0.1,0.7,0.2,1.1,0.3l-3.3,3.8c-0.9-2.4-2.6-4.4-4.8-5.7l2.4-1.1C25,37,26.3,37.8,27.6,38.3z M38,46.6c0,0.1,0,0.3,0,0.4v12  c0,0.3,0.1,0.7,0.2,1H33V40.7L38,46.6z M46,25.3v2.2l-2.2,1.8c0.1-0.7,0.2-1.4,0.2-2.1v-1.4L46,25.3z M18,16.4c0-3.5,2-6.7,5.2-8.2  L32,4.1l8.8,4.1C44,9.7,46,12.9,46,16.4v0.2c0,1.4-0.4,2.7-1.2,3.9L44,21.7v-1.6c0-2.3-1.5-4.2-3.7-4.8L32,13l-8.3,2.3  c-2.2,0.6-3.7,2.6-3.7,4.8v1.6l-0.8-1.2C18.4,19.3,18,18,18,16.6V16.4z M18,27.5v-2.2l2,0.5v1.4c0,0.7,0.1,1.4,0.2,2.1L18,27.5z   M10,48.4c0-3.5,2-6.7,5.2-8.2l4.1-1.9l0.7,0.3c2.6,1.3,4.5,3.7,5,6.6l0.4,2l5.6-6.5V60H21v-8h-2v8h-9V48.4z M56,59c0,0.6-0.4,1-1,1  H41c-0.6,0-1-0.4-1-1V47c0-0.6,0.4-1,1-1h14c0.6,0,1,0.4,1,1V59z"></path><rect x="43" y="55" width="2" height="3"></rect><rect x="47" y="54" width="2" height="4"></rect><rect x="51" y="53" width="2" height="5"></rect><polygon points="48.2,49.7 46.1,47.7 41.4,51.2 42.6,52.8 45.9,50.3 47.8,52.3 53.5,48.9 52.5,47.1 "></polygon></svg>