<svg height='100px' width='100px'  fill="#000000" xmlns="http://www.w3.org/2000/svg" xmlns:xlink="http://www.w3.org/1999/xlink" version="1.1" x="0px" y="0px" viewBox="0 0 100 100" style="enable-background:new 0 0 100 100;" xml:space="preserve"><g><path d="M11.72943,100H1.68322C0.75312,100,0,99.24688,0,98.31678v-17.6954c0-0.9301,0.75312-1.68322,1.68322-1.68322h10.04621   c0.9301,0,1.68322,0.75312,1.68322,1.68322v17.6954C13.41264,99.24688,12.65952,100,11.72943,100z M3.36643,96.63357h6.67978   V82.30459H3.36643V96.63357z"></path><path d="M10.64595,82.30459c-0.9301,0-1.68322-0.75312-1.68322-1.68321v-5.67889H4.39485v5.67889   c0,0.93009-0.75312,1.68321-1.68322,1.68321s-1.68322-0.75312-1.68322-1.68321v-7.36211c0-0.9301,0.75312-1.68322,1.68322-1.68322   h7.93432c0.9301,0,1.68322,0.75312,1.68322,1.68322v7.36211C12.32917,81.55147,11.57605,82.30459,10.64595,82.30459z"></path><path d="M9.10432,74.94248c-0.93009,0-1.68322-0.75312-1.68322-1.68321v-3.76758c0-0.7197-0.6784-2.06076-1.42366-3.19339   l-0.00393,6.96097c0,0.93009-0.75312,1.68321-1.68322,1.68321s-1.68322-0.75312-1.68322-1.68321v-9.59002   c0-0.59974,0.11208-1.08937,0.34215-1.49641C3.3448,61.50821,4.01927,61.111,4.77436,61.111   c2.51893,0,6.01317,5.8185,6.01317,8.38069v3.76758C10.78753,74.18936,10.03441,74.94248,9.10432,74.94248z"></path><path d="M1.7953,61.18572c-0.80818,0-1.52197-0.58205-1.65962-1.40596C0,58.95782,0,58.12605,0,57.39062   c0-11.06184,9.0001-20.06194,20.06292-20.06194c0.87504,0,1.76187,0.06391,2.63494,0.18877   c0.92026,0.13076,1.5613,0.98417,1.42955,1.90443c-0.13175,0.92026-0.97335,1.56818-1.90542,1.42857   c-0.71576-0.10225-1.44332-0.15338-2.15908-0.15338c-9.20657,0-16.69649,7.48894-16.69649,16.69354   c0,0.63317,0,1.28798,0.09242,1.83463c0.15141,0.9183-0.468,1.78547-1.38433,1.93885   C1.98014,61.17982,1.88772,61.18572,1.7953,61.18572z"></path><path d="M25.60024,62.04306c-0.4326,0-0.86521-0.16518-1.19556-0.49749l-7.99135-8.04837   c-0.6548-0.65873-0.65087-1.72451,0.00983-2.38128c0.6607-0.65087,1.72254-0.65284,2.38128,0.00983l7.99135,8.04837   c0.6548,0.65874,0.65087,1.72451-0.00983,2.38128C26.45757,61.87986,26.02891,62.04306,25.60024,62.04306z"></path><path d="M20.234,63.01249c-0.43064,0-0.86127-0.16321-1.18966-0.49159l-3.65353-3.65156   c-0.65874-0.65874-0.65874-1.72451-0.00197-2.38128c0.6607-0.6607,1.72451-0.65873,2.38128-0.00196l3.65352,3.65156   c0.65874,0.65874,0.65874,1.72451,0.00197,2.38128C21.09527,62.84928,20.66463,63.01249,20.234,63.01249z"></path><path d="M95.63268,100H75.7133c-2.40685,0-4.36535-1.95851-4.36535-4.36732V70.5201c0-2.40881,1.9585-4.36732,4.36535-4.36732   h19.91938c2.40881,0,4.36732,1.95851,4.36732,4.36732v25.11258C100,98.04149,98.04149,100,95.63268,100z M75.7133,69.51922   c-0.55058,0-0.99892,0.44833-0.99892,1.00089v25.11258c0,0.55255,0.44833,1.00089,0.99892,1.00089h19.91938   c0.55255,0,1.00089-0.44833,1.00089-1.00089V70.5201c0-0.55255-0.44833-1.00089-1.00089-1.00089H75.7133z"></path><path d="M93.86491,89.89677H77.48304c-0.93009,0-1.68322-0.75312-1.68322-1.68322V77.93924   c0-0.9301,0.75313-1.68322,1.68322-1.68322h16.38187c0.9301,0,1.68322,0.75312,1.68322,1.68322v10.27431   C95.54813,89.14365,94.79501,89.89677,93.86491,89.89677z M79.16626,86.53033h13.01543v-6.90788H79.16626V86.53033z"></path><path d="M88.66975,84.7606h-5.99351c-0.9301,0-1.68322-0.75313-1.68322-1.68322c0-0.9301,0.75312-1.68322,1.68322-1.68322h5.99351   c0.9301,0,1.68322,0.75312,1.68322,1.68322C90.35297,84.00747,89.59985,84.7606,88.66975,84.7606z"></path><path d="M90.26841,69.51922c-0.93009,0-1.68322-0.75312-1.68322-1.68321v-4.88054h-5.82243v4.88054   c0,0.93009-0.75312,1.68321-1.68322,1.68321c-0.93009,0-1.68321-0.75312-1.68321-1.68321v-6.56376   c0-0.9301,0.75312-1.68322,1.68321-1.68322h9.18887c0.9301,0,1.68322,0.75312,1.68322,1.68322v6.56376   C91.95163,68.7661,91.19851,69.51922,90.26841,69.51922z"></path><path d="M95.91977,57.87632c-0.93009,0-1.68321-0.75312-1.68321-1.68322c0-1.43152-1.1405-2.59758-2.54056-2.59758H79.93707   c-0.93009,0-1.68321-0.75312-1.68321-1.68322s0.75312-1.68322,1.68321-1.68322H91.696c3.25829,0,5.90699,2.67427,5.90699,5.96401   C97.60299,57.12319,96.84987,57.87632,95.91977,57.87632z"></path><path d="M85.70248,62.95546c-0.93009,0-1.68321-0.75312-1.68321-1.68322V51.9123c0-0.9301,0.75312-1.68322,1.68321-1.68322   c0.9301,0,1.68322,0.75312,1.68322,1.68322v9.35994C87.3857,62.20234,86.63258,62.95546,85.70248,62.95546z"></path><path d="M49.8712,58.39151c-3.10687,0-5.92469-1.23292-8.37872-3.66139c-7.1753-7.1055-9.07089-22.08731-9.07089-29.01681   c0-0.9301,0.75312-1.6842,1.68322-1.6842s1.68322,0.7541,1.68322,1.6842c0,7.48894,2.15121,20.75804,8.07394,26.62373   c1.82479,1.8071,3.79117,2.68607,6.00924,2.68607c0.02753,0,0.05506,0,0.08456,0   c9.72372-0.09635,14.25622-17.54596,14.25622-29.3098c0-0.9301,0.75312-1.6842,1.68322-1.6842   c0.93009,0,1.68321,0.7541,1.68321,1.6842c0,12.5671-4.77436,32.55039-17.59119,32.67624   C49.94986,58.38954,49.91053,58.39151,49.8712,58.39151z"></path><path d="M18.17914,100c-0.9301,0-1.68322-0.75312-1.68322-1.68322c0-11.62324,2.42061-22.24166,6.64045-29.13381   c2.41078-3.95634,6.00924-4.56592,9.18297-5.10274c2.60545-0.44047,4.85498-0.82195,6.53623-2.85321   c1.32141-1.57703,1.26635-4.65244,1.04415-8.82509c-0.04916-0.9301,0.66267-1.72255,1.5908-1.77171   c0.9301-0.05703,1.72255,0.66267,1.7717,1.5908c0.2222,4.15692,0.4503,8.45345-1.8189,11.16114   c-2.4737,2.98889-5.70839,3.53555-8.5616,4.0173c-2.93776,0.4975-5.25809,0.89077-6.87248,3.53751   c-3.90719,6.38285-6.14689,16.36024-6.14689,27.3798C19.86235,99.24688,19.10923,100,18.17914,100z"></path><path d="M69.32259,67.80847c-0.12192,0-0.2458-0.0118-0.37165-0.04129c-0.63907-0.14355-1.28797-0.25366-1.93884-0.36771   c-2.82175-0.48766-6.01907-1.04021-8.46918-4.03304c-2.25543-2.69197-2.02733-7.04552-1.80513-11.2575   c0.04916-0.92813,0.86127-1.63996,1.76974-1.59276c0.92813,0.04916,1.64192,0.84161,1.59276,1.76974   c-0.2222,4.2395-0.27922,7.36211,1.03628,8.93324c1.66748,2.03519,3.88359,2.41864,6.44774,2.86304   c0.7079,0.12192,1.41186,0.24384,2.10599,0.40115c0.9065,0.20254,1.47675,1.10313,1.27225,2.0116   C70.78754,67.27756,70.0934,67.80847,69.32259,67.80847z"></path><path d="M67.72195,100H18.17914c-0.9301,0-1.68322-0.75312-1.68322-1.68322c0-0.93009,0.75312-1.68321,1.68322-1.68321h49.54282   c0.93009,0,1.68322,0.75312,1.68322,1.68321C69.40517,99.24688,68.65205,100,67.72195,100z"></path><path d="M65.89716,27.3975c-0.11601,0-0.23399-0.0118-0.35197-0.03736c-4.63868-0.98712-8.01298-3.3625-10.07571-7.07895   c-3.25632,4.1461-10.27431,6.48412-21.26831,7.11336c-0.90257,0.06882-1.72451-0.65578-1.7776-1.5849   c-0.05309-0.92813,0.65677-1.72451,1.5849-1.7776c12.04601-0.68921,18.76905-3.45099,19.9823-8.20961   c0.18877-0.73641,0.84554-1.25553,1.60653-1.26733c0.76099-0.07177,1.43349,0.48668,1.64389,1.2162   c1.31944,4.57281,4.26507,7.2864,9.00403,8.29515c0.91043,0.19369,1.49051,1.08741,1.29781,1.99685   C67.37391,26.85478,66.67387,27.3975,65.89716,27.3975z"></path><path d="M62.01553,47.66002c-0.74132,0-1.41776-0.49061-1.62423-1.23882c-0.2458-0.89666,0.28119-1.82283,1.17786-2.06961   c3.43919-0.94288,6.75449-2.27707,9.85744-3.96421c0.81801-0.44833,1.83856-0.14158,2.28296,0.67348   c0.4444,0.81703,0.14355,1.83954-0.67446,2.28394c-3.32908,1.81202-6.88625,3.24354-10.5732,4.25524   C62.31246,47.64035,62.16105,47.66002,62.01553,47.66002z M37.92941,47.60299c-0.14158,0-0.28513-0.0177-0.42867-0.05604   C33.89441,46.60112,30.351,45.1873,26.9649,43.3448c-0.81801-0.4444-1.11887-1.46692-0.67447-2.28394   c0.4444-0.81506,1.46495-1.12083,2.28296-0.67348c3.14817,1.71272,6.43791,3.02527,9.78075,3.90326   c0.9006,0.23597,1.43742,1.15623,1.20145,2.05584C39.35699,47.10255,38.67466,47.60299,37.92941,47.60299z"></path><path d="M27.76718,43.55029c-0.82195,0-1.53967-0.60171-1.66355-1.4384c-2.43634-16.51558-0.72166-27.90286,5.24039-34.81073   C35.5265,2.45699,41.79333,0,49.97149,0c0.9301,0,1.68322,0.7541,1.68322,1.6842s-0.75312,1.6842-1.68322,1.6842   c-7.25592,0-12.51401,2.0057-16.07708,6.13312c-5.21286,6.03775-6.7132,16.84397-4.45974,32.11877   c0.13568,0.92027-0.49946,1.77564-1.41972,1.91132C27.93236,43.54439,27.8478,43.55029,27.76718,43.55029z"></path><path d="M72.23282,43.55029c-0.08259,0-0.16518-0.0059-0.24776-0.01868c-0.92027-0.13568-1.5554-0.99105-1.41972-1.91132   c2.24953-15.2512,0.74329-26.05054-4.47743-32.09911c-3.57487-4.1402-8.84672-6.15279-16.11641-6.15279   c-0.9301,0-1.68322-0.7541-1.68322-1.6842S49.04139,0,49.97149,0c8.19192,0,14.47252,2.46387,18.66483,7.32081   c5.97385,6.91869,7.69442,18.29909,5.26005,34.79107C73.77249,42.94858,73.05476,43.55029,72.23282,43.55029z"></path><path d="M49.97149,100c-0.35592,0-0.71183-0.11208-1.01072-0.33625L37.71704,91.2162   c-0.53092-0.39917-0.77868-1.07167-0.63121-1.71861l1.00679-4.44991l-2.2338-0.56828   c-0.84161-0.21433-1.38433-1.03431-1.24865-1.89362l3.02428-19.23508c0.12192-0.77475,0.76099-1.3627,1.54361-1.41776   c0.81605-0.07472,1.49838,0.43653,1.72844,1.18376l10.67348,34.70456c0.2163,0.69806-0.04326,1.45315-0.64104,1.87395   C50.64792,99.89971,50.3097,100,49.97149,100z M40.60958,89.17707l6.22948,4.67998l-7.00816-22.78635l-1.65569,10.52207   l2.33605,0.59384c0.88487,0.22417,1.42955,1.11297,1.22702,2.00374L40.60958,89.17707z"></path><path d="M49.97149,100c-0.34018,0-0.6784-0.10225-0.97139-0.30676c-0.59581-0.42081-0.85341-1.17786-0.63711-1.87395   L59.0935,63.11474c0.23006-0.74919,0.91436-1.27028,1.73041-1.18179c0.78065,0.05703,1.41972,0.64301,1.54164,1.41776   l3.02428,19.23508c0.13568,0.85931-0.40704,1.67928-1.24865,1.89362l-2.2338,0.56828l1.00679,4.44991   c0.14748,0.6489-0.10225,1.3214-0.63317,1.72058l-11.30076,8.44755C50.68135,99.88792,50.32544,100,49.97149,100z    M60.16714,71.04513l-7.05732,22.82372l6.27864-4.69374l-1.12673-4.98476c-0.20254-0.89077,0.34215-1.77957,1.22702-2.00374   l2.33605-0.59384L60.16714,71.04513z"></path><path d="M50.00098,68.87818c-4.19821,0-8.39642-1.31354-11.74319-3.94258c-0.73149-0.57418-0.85931-1.63209-0.28316-2.36358   c0.57222-0.73149,1.63013-0.86127,2.36358-0.28316c5.50782,4.32406,13.81969,4.32013,19.32357,0   c0.73346-0.57811,1.79333-0.44833,2.36358,0.28316c0.57615,0.73149,0.44833,1.7894-0.28316,2.36358   C58.39544,67.56464,54.19723,68.87818,50.00098,68.87818z"></path><path d="M28.45345,100c-0.9301,0-1.68322-0.75312-1.68322-1.68322v-7.30704c0-0.9301,0.75312-1.68322,1.68322-1.68322   s1.68322,0.75312,1.68322,1.68322v7.30704C30.13666,99.24688,29.38354,100,28.45345,100z"></path><path d="M17.21168,77.22545c-0.07472,0-0.14944-0.00394-0.22417-0.01377c-0.91043-0.12191-1.92705-0.36378-2.9358-0.69806   c-0.8829-0.29496-1.36073-1.24668-1.06774-2.12959c0.29299-0.88094,1.24865-1.3568,2.12958-1.06774   c0.81211,0.27136,1.6144,0.46407,2.31836,0.55648c0.92223,0.12389,1.56917,0.96943,1.44725,1.89165   C18.76708,76.60997,18.04346,77.22545,17.21168,77.22545z"></path></g></svg>