<svg height='100px' width='100px'  fill="#000000" xmlns="http://www.w3.org/2000/svg" xmlns:xlink="http://www.w3.org/1999/xlink" version="1.1" x="0px" y="0px" viewBox="0 0 64 64" style="enable-background:new 0 0 64 64;" xml:space="preserve"><path d="M7.464,4.297l-4.67,7.265c-0.744,1.158-0.977,2.533-0.655,3.871c0.321,1.338,1.153,2.457,2.342,3.15l8.392,4.896  c0.013,0.007,0.026,0.01,0.039,0.016c0.007,0.004,0.011,0.011,0.018,0.014l2,1c0.281,0.141,0.613,0.141,0.895,0l3.105-1.553  l1.553,3.105c0.209,0.419,0.681,0.638,1.137,0.522l3.222-0.805l1.641,3.282c0.21,0.419,0.68,0.641,1.137,0.522l3.316-0.829  l1.609,2.414c0.225,0.337,0.629,0.509,1.028,0.426l4.393-0.879L39.737,33H8c-0.552,0-1,0.447-1,1v9c0,0.553,0.448,1,1,1h12.097  l-3.689,14.758c-0.075,0.299-0.007,0.615,0.182,0.857C16.779,59.858,17.069,60,17.377,60h6c0.459,0,0.859-0.312,0.97-0.758  L28.158,44h10.438l3.811,15.242C42.519,59.688,42.918,60,43.377,60h6c0.308,0,0.599-0.142,0.788-0.385  c0.189-0.242,0.257-0.559,0.182-0.857L46.658,44H58c0.552,0,1-0.447,1-1v-9c0-0.553-0.448-1-1-1h-3.872l1.181-3.021  c0.172-0.44,0.013-0.941-0.382-1.2l-32-21c-0.008-0.005-0.018-0.006-0.026-0.01c-0.007-0.005-0.011-0.013-0.019-0.017l-8.691-5.07  c0-0.001,0-0.001,0-0.001C11.869,1.328,8.916,2.037,7.464,4.297z M22.597,58h-3.938l3.5-14h3.938L22.597,58z M48.097,58h-3.938  l-3.5-14h3.938L48.097,58z M57,42H45.377h-6h-12h-6H9v-7h32.777h10.886H57V42z M51.98,33h-9.713l-3.1-3.997  c-0.232-0.299-0.612-0.441-0.986-0.368l-4.343,0.868l-1.628-2.442c-0.235-0.352-0.665-0.521-1.075-0.415l-3.222,0.805l-1.641-3.282  c-0.209-0.419-0.678-0.638-1.137-0.522l-3.222,0.805l-1.641-3.282c-0.247-0.493-0.846-0.692-1.342-0.447l-3.553,1.776l-0.556-0.278  l7.852-12.214l30.478,20.002L51.98,33z M20.971,8.953l-7.917,12.316l-7.565-4.412c-0.713-0.417-1.212-1.088-1.405-1.891  c-0.193-0.804-0.054-1.629,0.393-2.323l4.67-7.264c0.573-0.892,1.535-1.381,2.523-1.381c0.515,0,1.036,0.133,1.512,0.411V4.408  L20.971,8.953z"></path><path d="M9.487,8.647l-1.779,2.668c-0.459,0.689-0.612,1.514-0.431,2.321c0.182,0.809,0.673,1.488,1.383,1.915l3.202,1.921  c0.161,0.097,0.338,0.143,0.514,0.143c0.324,0,0.641-0.157,0.833-0.445l4-6c0.152-0.228,0.204-0.507,0.144-0.774  c-0.06-0.267-0.227-0.497-0.461-0.638l-3.365-2.019C12.151,6.914,10.377,7.312,9.487,8.647z M12.498,9.454l2.465,1.479l-2.889,4.334  L9.69,13.837c-0.237-0.143-0.401-0.369-0.461-0.639s-0.009-0.544,0.144-0.773l1.779-2.668c0.192-0.289,0.509-0.446,0.832-0.446  C12.159,9.311,12.336,9.357,12.498,9.454z"></path><rect x="52" y="60" width="2" height="2"></rect><rect x="39" y="60" width="2" height="2"></rect><rect x="35" y="58" width="2" height="2"></rect><rect x="31" y="60" width="2" height="2"></rect><rect x="56" y="58" width="2" height="2"></rect><rect x="60" y="60" width="2" height="2"></rect><rect x="56" y="54" width="2" height="2"></rect><rect x="56" y="50" width="2" height="2"></rect><rect x="56" y="46" width="2" height="2"></rect><rect x="35" y="54" width="2" height="2"></rect><rect x="35" y="50" width="2" height="2"></rect><rect x="35" y="46" width="2" height="2"></rect></svg>