<svg height='100px' width='100px'  fill="#000000" xmlns="http://www.w3.org/2000/svg" xmlns:xlink="http://www.w3.org/1999/xlink" version="1.1" x="0px" y="0px" viewBox="0 0 512 512" style="enable-background:new 0 0 512 512;" xml:space="preserve"><g><path d="M246.677,296.166h-43.272c-6.194,0-11.229-5.026-11.229-11.21v-30.222l14.583,7.829c3.204,1.728,6.838,2.644,10.5,2.644   h91.094c15.022,0,27.26-12.219,27.26-27.241c0-15.022-12.238-27.241-27.26-27.241h-78.445c-2.485,0-4.951-0.617-7.128-1.794   l-28.568-15.358c-1.252-0.673-2.037-1.971-2.037-4.718c0-20.188-16.423-36.612-36.612-36.612h-41.376   c-20.188,0-36.612,16.423-36.612,36.612V316.42c0,22.851,18.591,41.441,41.441,41.441h85.246c7.418,0,13.462,6.035,13.462,13.415   l-0.364,77.334c0,19.002,15.452,34.454,34.454,34.454c16.04,0,29.091-13.042,29.11-29.091l0.374-123.166   C281.298,311.711,265.772,296.166,246.677,296.166z M265.622,453.935v0.019c0,7.604-6.194,13.789-13.808,13.789   c-10.557,0-19.151-8.576-19.151-19.095l0.364-77.334c0-15.863-12.901-28.774-28.764-28.774h-85.246   c-14.415,0-26.139-11.715-26.139-26.12V188.854c0-11.752,9.557-21.309,21.309-21.309h41.376c11.752,0,21.309,9.557,21.309,22.626   c0,7.072,3.868,13.537,10.089,16.89l28.577,15.358c4.4,2.364,9.37,3.606,14.368,3.606h78.445c6.595,0,11.939,5.353,11.939,11.939   s-5.344,11.939-11.939,11.939h-91.094c-1.13,0-2.251-0.28-3.242-0.822l-16.573-8.894c-4.363-2.364-9.51-2.233-13.77,0.299   c-4.26,2.541-6.801,7.025-6.801,11.986v32.482c0,14.63,11.902,26.531,26.531,26.531h43.272c10.65,0,19.319,8.669,19.319,19.301   L265.622,453.935z"></path><path d="M201.592,362.551H77.866c-2.644,0-4.802-2.149-4.802-4.802V166.368c0-4.223-3.429-7.651-7.651-7.651H34.378   c-4.223,0-7.651,3.429-7.651,7.651v306.849c0,4.223,3.429,7.66,7.651,7.66h29.484c4.223,0,7.651-3.438,7.651-7.66V409.84h3.522   v49.756c0,4.223,3.429,7.66,7.651,7.66h24.308c4.223,0,7.651-3.438,7.651-7.66V409.84h9.314v49.756c0,4.223,3.429,7.66,7.651,7.66   h24.299c4.223,0,7.651-3.438,7.651-7.66V409.84h3.494v63.377c0,4.223,3.429,7.66,7.651,7.66h26.886c4.223,0,7.651-3.438,7.651-7.66   V370.211C209.243,365.989,205.814,362.551,201.592,362.551z M99.343,451.936h-9.006v-41.572h9.006V451.936z M148.258,451.936   h-8.996V409.84h8.996V451.936z M193.941,465.556h-11.584V402.18c0-4.223-3.429-7.66-7.651-7.66H63.862   c-4.223,0-7.651,3.438-7.651,7.66v63.377H42.029V174.019h15.732v183.73c0,11.098,9.015,20.123,20.104,20.123h116.075V465.556z"></path><path d="M131.61,142.966c31.436,0,57.015-25.579,57.015-57.015s-25.579-57.015-57.015-57.015   c-31.445,0-57.024,25.579-57.024,57.015S100.165,142.966,131.61,142.966z M131.61,44.239c23,0,41.712,18.712,41.712,41.712   s-18.712,41.712-41.712,41.712s-41.722-18.712-41.722-41.712S108.61,44.239,131.61,44.239z"></path><path d="M477.612,266.832h-12.406h-6.684l-5.722-78.249c-0.224-3.055-2.261-5.689-5.176-6.68l-21.86-7.472v-38.78   c0-3.896-2.933-7.175-6.82-7.604l-32.436-3.606c-2.167-0.308-4.335,0.439-5.942,1.906c-1.626,1.448-2.56,3.522-2.56,5.699v105.491   c0,3.587,2.504,6.689,5.998,7.474l32.436,7.203c0.561,0.121,1.102,0.178,1.663,0.178c1.719,0,3.419-0.579,4.783-1.682   c1.812-1.457,2.877-3.653,2.877-5.97V190.6l12.126,4.149l5.267,72.083H294.004h-43.562c-4.223,0-7.651,3.429-7.651,7.651   c0,4.232,3.429,7.651,7.651,7.651h35.869l-0.752,179.835c0,2.055,0.822,4.036,2.279,5.474c1.42,1.42,3.363,2.223,5.381,2.223   c0.037,0,0.075,0,0.093,0l171.203-2.242c4.185-0.056,7.548-3.457,7.567-7.623l0.752-177.667h4.778c4.223,0,7.66-3.419,7.66-7.651   C485.273,270.261,481.835,266.832,477.612,266.832z M410.443,235.2l-17.115-3.802v-90.805l17.115,1.906V235.2z M456.798,452.216   l-155.9,2.037l0.729-172.118h155.9L456.798,452.216z"></path></g></svg>