<svg height='100px' width='100px'  fill="#000000" xmlns="http://www.w3.org/2000/svg" xmlns:xlink="http://www.w3.org/1999/xlink" version="1.1" x="0px" y="0px" viewBox="0 0 216.368 237.183" style="enable-background:new 0 0 216.368 237.183;" xml:space="preserve"><g><path d="M96.656,51.542l-0.445-3.188l8.614-1.205l-1.179,12.44c1.193,1.81,2.348,3.855,3.438,6.154l2.242-23.673l97.268,9.214   l-10.627,112.201l-8.455-0.802l9.055-95.598l-80.357-7.612l-0.096,0.996l-2.546,26.884c0.473,2.687,0.874,5.502,1.209,8.446   l0.06-0.636l15.469,1.465l-1.395,14.738l-13.084-1.239c0.025,0.67,0.054,1.335,0.073,2.016l12.822,1.215l-1.396,14.738   l-11.414-1.081c-0.016,0.67-0.027,1.328-0.047,2.006l11.272,1.068l-1.4,14.787l-11.394-1.079c-0.278,0.666-0.598,1.31-0.971,1.918   l12.176,1.153l-1.396,14.738l-15.468-1.465l0.987-10.42c-0.67,0.489-1.381,0.921-2.131,1.287l-1.035,10.933l67.82,6.427   l-1.563,16.496l-0.104,0.094l-76.184-7.214l2.421-25.56c-1.372-0.251-2.679-0.696-3.893-1.322l-1.954,20.634v9.94l17.979,1.703   l0.657,4.698l19.76-2.765l42.576,4.033l13.251-11.844l29.098-4.071l-0.276-1.98l-10.041-71.775l4.902-51.756l-12.305-1.166   l-2.268-16.21l-68.183,9.537l-22.479-2.129l-0.506,5.344l-13.518,1.891l0.476,3.397C93.583,49.163,95.098,50.211,96.656,51.542z    M145.414,41.472l47.559-6.653l1.581,11.308L145.414,41.472z M199.736,166.12l0.072-0.779l4.611-48.684l7.433,53.128l-19.225,2.689   L199.736,166.12z M191.4,100.404l-58.916-5.579l1.4-14.79l58.916,5.58L191.4,100.404z M192.989,83.625l-58.917-5.58l1.396-14.739   l58.916,5.579L192.989,83.625z M133.479,63.118l-1.396,14.739l-15.468-1.465l1.396-14.739L133.479,63.118z M115.025,93.172   l1.4-14.79l15.468,1.465l-1.4,14.789L115.025,93.172z M132.295,96.816l58.917,5.579l-1.396,14.739l-58.917-5.579L132.295,96.816z    M130.711,113.546l58.916,5.58l-1.395,14.738l-58.917-5.58L130.711,113.546z M129.127,130.277l58.916,5.579l-1.4,14.788   l-58.916-5.58L129.127,130.277z M126.142,161.795l1.396-14.738l58.917,5.579l-0.934,9.858l-10.546-0.999l-0.462,4.881   L126.142,161.795z"></path><path d="M30.954,147.104v-20.678l2,0.842v28.708v68.841c0,6.832,5.537,12.365,12.365,12.365c5.281,0,9.778-3.318,11.549-7.981   c0.518-1.364,0.814-2.838,0.814-4.384v-90.27h4.635v90.27c0,6.832,5.537,12.365,12.365,12.365c6.826,0,12.363-5.533,12.363-12.365   v-98V107.88V74.815c3.467,7.1,6.998,20.703,6.965,44.92c0,5.516-0.178,11.572-0.568,18.222c-0.26,4.411,3.105,8.198,7.518,8.456   c0.16,0.008,0.318,0.014,0.475,0.014c4.205-0.002,7.73-3.281,7.98-7.533c0.406-6.934,0.594-13.301,0.594-19.158   c-0.012-22.658-2.77-37.664-6.877-48.045c-4.057-10.339-9.855-16.174-15.234-18.842c-3.416-1.721-6.414-2.11-8.221-2.133   c-0.119-0.005-0.238-0.017-0.359-0.017H52.76c0.004,0.219,0.008,0.476,0.009,0.807c-0.016,3.917-0.447,15.504-5.408,28.774   l-5.538-2.332c4.512-12.226,4.959-22.989,4.946-26.442c0-0.36-0.005-0.621-0.009-0.807h-6.077c-0.479,0-0.944,0.05-1.399,0.133   l0.001,0.009c-3.087,0.348-5.765,1.558-8.109,3.105c-2.766,1.849-5.152,4.261-7.215,7.11c-4.088,5.686-6.924,13.246-6.939,21.842   c-0.01,6.435,1.672,13.41,5.572,20.1c3.891,6.699,9.926,13.072,18.375,18.721c1.365,0.914,2.912,1.354,4.441,1.354   c2.58,0,5.113-1.248,6.656-3.553c2.457-3.672,1.473-8.641-2.201-11.098c-6.777-4.541-10.939-9.168-13.439-13.465   c-2.49-4.309-3.395-8.326-3.404-12.059c-0.004-3.486,0.836-6.736,2.119-9.43c1.264-2.686,3.018-4.777,4.393-5.836   c0.426-0.342,0.79-0.558,1.067-0.699l0.185,2.258c-1.045,0.806-2.648,2.608-3.834,5.128c-1.268,2.66-1.934,5.621-1.932,8.576   c0.007,1.968,0.29,3.883,0.845,5.776l3.568-8.476l30.987,13.049l-16.649,39.534l-30.985-13.048l3.459-8.217   c-2.066-2.407-3.87-4.912-5.384-7.514c-3.832-6.578-5.852-13.877-5.838-21.107c0.012-8.289,2.611-16.461,7.313-23.006   c2.271-3.139,4.871-5.694,7.729-7.605c2.846-1.881,6.135-3.07,9.056-3.463l0.002,0.017c0.51-0.083,1.029-0.137,1.562-0.137h14.631   c-5.286-1.128-14.396-2.855-20.276-2.773c-1.518,0.021-2.826,0.161-3.79,0.465c-6.332,2-24,14-30.5,49.5   C-4.141,122.584,15.988,143.479,30.954,147.104z"></path><circle cx="60.001" cy="22.5" r="22.5"></circle><rect x="50.687" y="82.661" transform="matrix(0.3881 -0.9216 0.9216 0.3881 -54.9358 105.3177)" width="2.325" height="22.742"></rect><rect x="48.88" y="86.947" transform="matrix(0.3871 -0.922 0.922 0.3871 -59.9824 106.3999)" width="2.326" height="22.744"></rect></g></svg>