<svg height='100px' width='100px'  fill="#000000" xmlns="http://www.w3.org/2000/svg" xmlns:xlink="http://www.w3.org/1999/xlink" version="1.1" x="0px" y="0px" viewBox="0 0 100 100" enable-background="new 0 0 100 100" xml:space="preserve"><g><path d="M44.134,82.416h0.067c1.448-3.546,2.855-8.148,4.044-12.749c-0.602-3.919-1.568-7.321-2.105-9.044   c0.462-1.313,1.516-2.696,1.719-3.952c0.211-1.313-0.232-2.209-0.907-3.044c-0.279-0.345-0.733-0.481-1.053-0.238l-1.154,0.8   c-0.317,0.244-0.838,0.244-1.158,0l-1.152-0.8c-0.321-0.243-0.774-0.106-1.055,0.238c-0.672,0.835-1.117,1.73-0.905,3.044   c0.199,1.256,1.256,2.639,1.717,3.952c-0.539,1.725-1.503,5.121-2.105,9.042C41.279,74.266,42.684,78.87,44.134,82.416z"></path><path d="M51.727,63.057c2.196-2.958,5.137-5.326,8.548-6.829c0.347-0.153,0.351-0.394,0.005-0.549   c-1.202-0.545-1.987-0.901-1.99-0.902c-0.567-0.362-3.616-3.446-3.616-3.446c-0.27-0.314-0.599-0.505-0.854-0.474   c-0.271,0.01-0.477,0.244-0.48,0.828v0.122c0.161,1.596-0.587,6.013-1.845,11.142C51.401,63.315,51.503,63.36,51.727,63.057z"></path><path d="M13.892,86.337h35.781c0.378,0,0.53-0.267,0.353-0.601c-1.452-2.733-2.329-5.817-2.465-9.094   c-0.015-0.381-0.126-0.401-0.264-0.046c-1.01,2.614-2.072,4.892-3.116,6.473c-4.626-6.972-9.578-27.396-9.185-31.263v-0.122   c-0.005-0.584-0.212-0.818-0.48-0.828c-0.258-0.031-0.585,0.159-0.855,0.474c0,0-3.633,3.478-3.644,3.49   c-0.238,0.151-14.529,6.54-14.529,6.54c-1.21,0.539-2.333,2.382-2.502,4.12l-1.079,17.713   C11.733,84.93,12.622,86.337,13.892,86.337z"></path><path d="M81.906,84.802h-1.525c-0.111,0-0.2,0.107-0.2,0.237c0,0.133,0.089,0.242,0.2,0.242h1.525c0.11,0,0.201-0.109,0.201-0.242   C82.107,84.909,82.017,84.802,81.906,84.802z"></path><path d="M88.115,75.743c0-10.633-8.621-19.257-19.259-19.257c-10.636,0-19.256,8.624-19.256,19.257   C49.601,86.379,58.221,95,68.856,95C79.494,95,88.115,86.379,88.115,75.743z M56.88,65.418c0-0.528,0.43-0.957,0.962-0.957h22.032   c0.534,0,0.965,0.429,0.965,0.957v14.248c0,0.528-0.431,0.956-0.965,0.956H57.842c-0.532,0-0.962-0.428-0.962-0.956V65.418z    M53.363,83.942l3.646-2.828c0.083-0.065,0.238-0.117,0.342-0.117h22.991c0.105,0,0.261,0.052,0.344,0.117l3.667,2.828   c0.085,0.065,0.067,0.117-0.04,0.117H53.405C53.299,84.06,53.28,84.008,53.363,83.942z M54.591,85.792   c-0.736,0-1.335-0.491-1.335-1.101v-0.184c0-0.103,0.087-0.183,0.192-0.183h12.847c0.106,0,0.191,0.011,0.191,0.024   c-0.002,0.005-0.002,0.015-0.002,0.023c0,0.377,0.325,0.684,0.723,0.684h3.302c0.399,0,0.723-0.307,0.723-0.684   c0-0.009,0-0.019,0-0.023c-0.002-0.014,0.085-0.024,0.19-0.024h12.846c0.107,0,0.192,0.08,0.192,0.183c0,0.06,0,0.12,0,0.184   c0,0.609-0.599,1.101-1.335,1.101H54.591z"></path><path d="M59.408,79.196h18.9c0.524,0,0.949-0.422,0.949-0.944V67.019c0-0.522-0.425-0.945-0.949-0.945h-18.9   c-0.523,0-0.948,0.423-0.948,0.945v11.233C58.46,78.774,58.885,79.196,59.408,79.196z"></path><path d="M55.674,41.686c0.28-0.969,0.478-1.994,0.605-2.769c0.897-0.408,1.585-1.098,1.958-1.974   c0.533-1.253,0.815-3.97,0.829-4.084c0.22-2.14,0.092-3.505-0.458-4.449c-0.22-0.378-0.743-0.633-1.063-0.626   c-0.29,0.008-0.58,0.018-0.58,0.018c-0.814,0-1.654,0.369-1.913,0.807c-0.007,0.011-0.021,0.021-0.029,0.035   c-0.056,1.143-0.139,2.025-0.139,2.025c-0.019,0.152,0.209,0.263,0.316,0.029c0.179-0.38,0.641-1.832,1.29-1.877   c0.438-0.023,0.715,0.468,0.791,0.71c0.124,0.408,0.22,1.224,0.046,2.924c-0.151,1.474-0.465,3.121-0.7,3.672   c-0.146,0.342-0.417,0.568-0.809,0.671c-1.106,0.298-1.355,0.963-1.405,1.331c-0.128,0.928-0.358,2.293-0.713,3.521   c-0.591,2.025-4.313,6.788-8.856,6.831c-0.224,0.005-1.23,0.007-1.505-0.002c-4.388-0.139-8.054-4.585-8.708-6.829   c-0.315-1.091-0.534-2.294-0.667-3.199c-0.017-0.111-0.033-0.221-0.048-0.321c-0.048-0.368-0.297-1.033-1.404-1.331   c-0.39-0.103-0.663-0.329-0.807-0.671c-0.234-0.551-0.548-2.198-0.7-3.672c-0.176-1.7-0.08-2.516,0.046-2.924   c0.076-0.242,0.353-0.733,0.789-0.71c0.652,0.045,1.114,1.497,1.291,1.877c0.109,0.233,0.336,0.123,0.316-0.029   c0,0-0.063-0.875-0.12-2.005c-0.013-0.018-0.039-0.036-0.05-0.056c-0.259-0.438-1.099-0.807-1.914-0.807c0,0-0.262,0-0.587,0   c-0.325,0-0.85,0.249-1.068,0.629c-0.539,0.944-0.661,2.304-0.443,4.427c0.013,0.116,0.295,2.833,0.829,4.088   c0.373,0.874,1.06,1.563,1.956,1.972c0.129,0.775,0.327,1.803,0.608,2.769c0.831,2.855,5.101,8.045,10.65,8.222   c0.141,0.006,0.46,0.008,0.78,0.008l0.724-0.003C50.386,49.859,54.845,44.529,55.674,41.686z"></path><path d="M38.186,17.395l-1.869-9.259c-0.09-0.45-0.482-0.62-0.857-0.354c-3.391,2.416-5.734,6.195-6.215,10.541   c-0.1,0.916-0.526,1.664-1.063,1.664c-0.538,0-0.974,0.742-0.974,1.664v2.912c0,0.92,0.747,1.666,1.67,1.666h0.818   c0.922,0,1.871,0.448,2.163,0.98c0.105,0.195,0.313,0.368,0.575,0.516c0.376,0.205,0.933,0.609,1.341,0.821   c1.529,0.787,5.601,1.354,10.392,1.354c4.791,0,8.864-0.567,10.392-1.354c0.41-0.212,0.965-0.616,1.341-0.821   c0.263-0.147,0.47-0.32,0.575-0.516c0.291-0.532,1.242-0.98,2.164-0.98h0.818c0.921,0,1.667-0.746,1.667-1.666v-2.912   c0-0.922-0.436-1.664-0.973-1.664c-0.536,0-0.962-0.748-1.063-1.664c-0.48-4.344-2.822-8.122-6.21-10.536   c-0.374-0.269-0.765-0.1-0.854,0.351l-1.872,9.257c-0.362,1.805-0.85,3.233-1.086,3.196c-0.236-0.042-0.232-1.55,0.007-3.37   l1.317-9.986c0.059-0.457-0.227-0.984-0.656-1.157C48.012,5.386,46.136,5,44.166,5c-1.965,0-3.84,0.386-5.561,1.075   c-0.427,0.172-0.716,0.701-0.656,1.157l1.317,9.988c0.24,1.82,0.244,3.328,0.007,3.37C39.037,20.628,38.549,19.199,38.186,17.395z"></path></g></svg>