<svg height='100px' width='100px'  fill="#000000" xmlns="http://www.w3.org/2000/svg" xmlns:xlink="http://www.w3.org/1999/xlink" version="1.1" x="0px" y="0px" viewBox="0 0 107.656 100" enable-background="new 0 0 107.656 100" xml:space="preserve"><polygon points="53.04,1.5 6,29.454 9.6,34.354 53.04,9.046 97.002,34.354 100.604,29.454 "></polygon><path d="M35.177,86.604c-3.081,0-5.637,2.262-6.111,5.213c-0.052,0.32-0.087,0.65-0.087,0.986c0,3.418,2.78,6.197,6.198,6.197  s6.198-2.779,6.198-6.197c0-0.336-0.034-0.666-0.086-0.986C40.815,88.865,38.258,86.604,35.177,86.604z"></path><path d="M68.467,86.604c-3.08,0-5.639,2.262-6.111,5.211c-0.053,0.322-0.086,0.65-0.086,0.986c0,3.418,2.779,6.198,6.197,6.198  s6.197-2.78,6.197-6.198c0-0.334-0.035-0.664-0.086-0.986C74.104,88.865,71.547,86.604,68.467,86.604z"></path><path d="M32.754,36.706v26.661H21.263c-2.209,0-4.001,1.791-4.001,4v20.447c0,2.209,1.792,4,4.001,4h4.94  c0.493-4.519,4.329-8.045,8.974-8.045c4.646,0,8.48,3.526,8.975,8.045h15.34c0.492-4.519,4.328-8.045,8.975-8.045  c4.647,0,8.48,3.526,8.975,8.045h11.9V36.706H32.754z M31.81,74.921H21.063v-8.146H31.81V74.921z M75.853,70.095l-19.561-0.459  c0,1.664-0.918,2.639-2.408,2.639h-9.292c-1.32,0-1.32-1.777,0-1.777h5.449c1.836,0,1.836-1.721,0-1.721h-5.449  c-1.32,0-1.32-1.607,0-1.607h5.449c1.836,0,1.836-1.893,0.057-1.893h-5.449c-1.377,0-1.377-1.662,0-1.662h9.292  c1.434,0,2.352,1.318,2.352,2.811l19.561-0.459C78.778,65.966,78.72,70.153,75.853,70.095z M77.976,57.935  c-0.748,1.721-2.582,2.18-14.055,1.318c0.229,1.264-1.033,2.41-3.041,2.238l-13.937-0.746c-2.295,0-3.27-0.918-3.27-3.211  c0-1.492,0.859-2.295,2.352-2.295h29.884C78.146,55.239,78.261,56.96,77.976,57.935z"></path></svg>