<svg height='100px' width='100px'  fill="#000000" xmlns="http://www.w3.org/2000/svg" xmlns:xlink="http://www.w3.org/1999/xlink" viewBox="0 0 131 100" version="1.1" x="0px" y="0px"><title>Driver</title><desc>Created with Sketch.</desc><g stroke="none" stroke-width="1" fill="none" fill-rule="evenodd"><g transform="translate(-5116.000000, -759.000000)" fill="#000000" fill-rule="nonzero"><path d="M5185.55197,799.573721 L5186.36364,791.682885 C5186.36364,788.393696 5189.02773,785.727273 5192.31405,785.727273 L5198.26446,785.727273 L5201.48761,785.727273 L5207.68595,785.727273 C5210.97227,785.727273 5213.63636,788.393696 5213.63636,791.682885 L5214.34603,798.167191 C5222.07998,797.313389 5227.14949,796.074721 5227.14949,794.45149 C5227.14949,793.568608 5226.98049,792.469528 5226.96903,792.39524 C5225.37354,785.975056 5219.24079,772.706106 5219.24079,772.706106 C5217.75702,768.928855 5214.03326,766.0002 5211.82192,766.0002 L5152.4012,766.0002 C5150.18985,766.0002 5146.46609,768.928855 5144.97945,772.71182 C5144.97945,772.71182 5139.58573,785.040744 5137.24262,792.400954 C5137.21971,792.469528 5137.05357,793.577178 5137.05357,794.454346 C5137.05357,798.053742 5161.93868,799.759095 5185.55197,799.573721 Z M5191.25046,799.491475 C5191.7115,799.48172 5192.17122,799.471221 5192.62939,799.459978 C5192.54444,799.008157 5192.5,798.542041 5192.5,798.065546 C5192.5,797.054997 5192.69986,796.091127 5193.06221,795.211309 L5198.12172,798.132417 L5198.7728,799.260113 C5199.65842,799.223835 5200.53403,799.184542 5201.39797,799.142233 L5201.98098,798.132417 L5206.95736,795.259306 C5207.30733,796.126137 5207.5,797.073341 5207.5,798.065546 C5207.5,798.306626 5207.48863,798.545048 5207.46638,798.780307 C5207.93064,798.747138 5208.38956,798.712946 5208.84283,798.677733 C5208.85662,798.475459 5208.86364,798.271322 5208.86364,798.065546 C5208.86364,793.170295 5204.89525,789.20191 5200,789.20191 C5195.10475,789.20191 5191.13636,793.170295 5191.13636,798.065546 C5191.13636,798.550958 5191.17538,799.027256 5191.25046,799.491475 Z M5247,798.301123 C5247,802.306952 5244.1327,805.555616 5240.60659,805.555616 L5239.03974,805.555616 C5239.03974,805.567045 5239.04547,805.572759 5239.04547,805.584188 C5239.89621,808.089974 5240.37171,810.824338 5240.37171,813.692991 L5240.37171,822.193234 C5240.37171,830.5049 5238.34082,837.679391 5233.74914,841.173776 L5233.74914,850.511186 C5233.74914,855.199891 5230.39203,859 5226.26438,859 L5219.4012,859 C5215.27356,859 5211.91931,855.194177 5211.91931,850.511186 L5211.91931,843.428127 L5151.09788,843.428127 L5151.09788,850.511186 C5151.09788,855.199891 5147.74363,859 5143.61312,859 L5136.74421,859 C5132.6137,859 5129.25945,855.194177 5129.25945,850.511186 L5129.25945,841.173776 C5124.6735,837.679391 5122.64262,830.510615 5122.64262,822.193234 L5122.64262,813.692991 C5122.64262,810.830052 5123.11238,808.095688 5123.95453,805.595617 C5123.95453,805.584188 5123.96312,805.572759 5123.96312,805.555616 L5122.39341,805.555616 C5118.86157,805.555616 5116,802.306952 5116,798.306837 C5116,794.295294 5118.86157,791.04663 5122.39341,791.04663 L5128.62928,791.04663 C5128.85557,791.04663 5129.06467,791.09806 5129.2795,791.120918 L5137.40017,770.451756 C5139.9667,763.922998 5146.15387,759 5151.79107,759 L5160.74528,759 L5202.25472,759 L5211.20893,759 C5216.7516,759 5223.08486,764.028715 5225.59983,770.446041 L5233.72336,791.120918 C5233.93533,791.095203 5234.14157,791.04663 5234.36786,791.04663 L5240.60659,791.04663 C5244.1327,791.040915 5247,794.286722 5247,798.301123 Z M5155.76786,824.339765 C5155.76786,819.192817 5151.57826,815.0016 5146.40846,815.0016 C5141.24543,815.0016 5137.05357,819.183686 5137.05357,824.339765 C5137.05357,829.489757 5141.24317,833.668798 5146.40846,833.668798 C5151.57826,833.671842 5155.76786,829.4928 5155.76786,824.339765 Z M5228.28571,824.339766 C5228.28571,819.192817 5224.10063,815.0016 5218.93083,815.0016 C5213.76554,815.0016 5209.57143,819.183686 5209.57143,824.339766 C5209.57143,829.489758 5213.75877,833.6688 5218.93083,833.6688 C5224.10289,833.6688 5228.28571,829.492802 5228.28571,824.339766 Z M5167.62612,822 C5166.79769,822 5166.12612,822.671573 5166.12612,823.5 C5166.12612,824.328427 5166.79769,825 5167.62612,825 L5196.70683,825 C5197.53526,825 5198.20683,824.328427 5198.20683,823.5 C5198.20683,822.671573 5197.53526,822 5196.70683,822 L5167.62612,822 Z M5167.62612,829 C5166.79769,829 5166.12612,829.671573 5166.12612,830.5 C5166.12612,831.328427 5166.79769,832 5167.62612,832 L5196.70683,832 C5197.53526,832 5198.20683,831.328427 5198.20683,830.5 C5198.20683,829.671573 5197.53526,829 5196.70683,829 L5167.62612,829 Z M5199.83957,783.952539 C5195.40948,783.952539 5191.81818,780.381439 5191.81818,775.976269 C5191.81818,771.5711 5195.40948,768 5199.83957,768 C5204.26966,768 5207.86096,771.5711 5207.86096,775.976269 C5207.86096,780.381439 5204.26966,783.952539 5199.83957,783.952539 Z M5205.93933,793.485176 L5200.95826,796.361001 L5199.14445,796.361001 L5194.0925,793.444255 C5195.46537,791.691743 5197.60117,790.565546 5200,790.565546 C5202.41745,790.565546 5204.56777,791.709293 5205.93933,793.485176 Z M5200,797.383728 C5200.37656,797.383728 5200.68182,797.688989 5200.68182,798.065546 C5200.68182,798.442104 5200.37656,798.747365 5200,798.747365 C5199.62344,798.747365 5199.31818,798.442104 5199.31818,798.065546 C5199.31818,797.688989 5199.62344,797.383728 5200,797.383728 Z"></path></g></g></svg>