<svg height='100px' width='100px'  fill="#000000" xmlns="http://www.w3.org/2000/svg" xmlns:xlink="http://www.w3.org/1999/xlink" version="1.1" x="0px" y="0px" viewBox="0 0 256 256" style="enable-background:new 0 0 256 256;" xml:space="preserve"><style type="text/css">
	.st0{fill-rule:evenodd;clip-rule:evenodd;}
</style><g><path d="M178.1,127.9C178.1,127.9,178,127.9,178.1,127.9C178,127.8,178,127.8,178.1,127.9c-0.3-0.1-0.5-0.2-0.8-0.3   c0,0-0.1,0-0.1,0c-0.3-0.1-0.5-0.1-0.8-0.2c0,0,0,0,0,0c-0.5-0.1-1.1,0-1.6,0.1c0,0,0,0-0.1,0c-0.2,0.1-0.4,0.1-0.6,0.2L128,149.5   l-46.1-21.8c-0.2-0.1-0.4-0.2-0.6-0.2c0,0-0.1,0-0.1,0c-0.5-0.1-1-0.2-1.6-0.1c0,0,0,0,0,0c-0.3,0-0.5,0.1-0.8,0.2c0,0-0.1,0-0.1,0   c-0.2,0.1-0.5,0.2-0.7,0.3c0,0,0,0,0,0c0,0,0,0,0,0c-17.2,8.9-46.6,49.2-40.3,75.2c2.2,9.3,10,20.4,33.9,20.4h112.9   c23.9,0,31.6-11.1,33.9-20.4C224.7,177.1,195.2,136.8,178.1,127.9z M129.9,158.4l15.7-7.4L128,165.3L110.5,151l15.6,7.4   C127.3,158.9,128.7,158.9,129.9,158.4z M46.2,201c-4.7-19.3,17.5-53.6,33.5-64l44,36v30.8v7.7v3.2h-52   C56.9,214.7,48.4,210.1,46.2,201z M209.8,201c-2.2,9.1-10.7,13.7-25.4,13.7h-52.1v-3.2v-7.7V173l44-36   C192.4,147.5,214.5,181.7,209.8,201z"></path><path d="M75.7,84.8c0,28.9,23.4,52.3,52.3,52.3c28.9,0,52.3-23.5,52.3-52.3c0-28.8-23.5-52.3-52.3-52.3c-7.5,0-15,1.7-21.9,4.8   c-3.3-1.9-7.1-3-11.2-3c-12.6,0-22.8,10.2-22.8,22.8c0,5.5,2,10.6,5.3,14.6C76.3,76.1,75.7,80.4,75.7,84.8z M128,128.4   c-24,0-43.5-19.5-43.5-43.6c0-2.3,0.2-4.6,0.6-7c1.5,0.7,3.1,1.3,4.8,1.7c0,0,0,0,0,0c0.4,0.1,0.8,0.2,1.1,0.2c0,0,0.1,0,0.1,0   c0.3,0.1,0.7,0.1,1,0.1c0.1,0,0.2,0,0.2,0c0.3,0,0.7,0.1,1,0.1c0.1,0,0.2,0,0.3,0c0.4,0,0.8,0,1.2,0c6.4,0,12.2-2.6,16.3-6.9H170   c1,3.7,1.6,7.6,1.6,11.6C171.6,108.8,152,128.4,128,128.4z M128,41.3c16.6,0,31.1,9.4,38.5,23.1h-49.9c0.7-2.1,1.1-4.4,1.1-6.8   h16.4c2.4,0,4.4-2,4.4-4.4c0-2.4-2-4.4-4.4-4.4h-18c-0.7-1.8-1.6-3.4-2.7-4.9c0,0-0.1-0.1-0.1-0.1C118.1,42.2,123,41.3,128,41.3z    M94.9,43.2c3.2,0,6.2,1.1,8.6,3c0.2,0.2,0.5,0.4,0.7,0.6c0.2,0.1,0.3,0.3,0.5,0.4c0.3,0.2,0.5,0.5,0.7,0.8   c0.1,0.1,0.2,0.2,0.3,0.3c0.3,0.4,0.6,0.8,0.9,1.2c0,0,0,0,0,0c0.3,0.4,0.5,0.9,0.8,1.3c0,0.1,0.1,0.2,0.1,0.2   c0.2,0.4,0.4,0.8,0.5,1.2c0,0.1,0.1,0.2,0.1,0.3c0.1,0.4,0.3,0.8,0.4,1.2c0,0.1,0.1,0.2,0.1,0.3c0.1,0.4,0.2,0.8,0.2,1.2   c0,0.1,0,0.2,0.1,0.4c0.1,0.5,0.1,1,0.1,1.6c0,7.8-6.3,14.1-14.1,14.1c-0.5,0-0.9,0-1.4-0.1c-0.3,0-0.6-0.1-0.9-0.1   c-0.1,0-0.3,0-0.4-0.1c-0.4-0.1-0.8-0.2-1.2-0.3c0,0-0.1,0-0.1,0c-2.1-0.6-4.1-1.8-5.7-3.3c0,0,0,0-0.1,0   c-2.7-2.6-4.3-6.2-4.3-10.1C80.9,49.5,87.2,43.2,94.9,43.2z"></path><polygon points="177.2,173.9 168.1,173.9 168.1,179.7 162.3,179.7 162.3,188.8 168.1,188.8 168.1,194.7 177.2,194.7 177.2,188.8    183,188.8 183,179.7 177.2,179.7  "></polygon><path d="M94.9,65c4.3,0,7.8-3.5,7.8-7.8c0-4.3-3.5-7.8-7.8-7.8c-4.3,0-7.8,3.5-7.8,7.8C87.1,61.5,90.7,65,94.9,65z"></path></g></svg>