<svg height='100px' width='100px'  fill="#000000" xmlns="http://www.w3.org/2000/svg" xmlns:xlink="http://www.w3.org/1999/xlink" version="1.1" x="0px" y="0px" viewBox="0 0 72 72" enable-background="new 0 0 72 72" xml:space="preserve"><g><path fill="#000000" d="M63.6,2.2H8.4c-4.2,0-7.5,3.4-7.5,7.5v39.7c0,4.2,3.4,7.5,7.5,7.5h21.9c0.4,0,0.7,0.3,0.7,0.7v3.6   c0,0.3-0.2,0.6-0.6,0.6c-4.5,0.7-7.7,2.1-7.7,3.8c0,2.3,5.9,4.2,13.3,4.2s13.3-1.9,13.3-4.2c0-1.7-3.1-3.1-7.7-3.8   c-0.3,0-0.6-0.3-0.6-0.6v-3.6c0-0.4,0.3-0.7,0.7-0.7h21.9c4.2,0,7.5-3.4,7.5-7.5V9.7C71.1,5.6,67.7,2.2,63.6,2.2z M66.3,49.4   c0,1.5-1.2,2.7-2.7,2.7H8.4c-1.5,0-2.7-1.2-2.7-2.7V9.7C5.7,8.2,6.9,7,8.4,7h55.2c1.5,0,2.7,1.2,2.7,2.7V49.4z"></path><g><path d="M22.8,37.8c-1.9,0.2-2.8,1.6-3.3,3.3c-0.4,1.3-0.6,2.7-1,4c-0.7,2.3-0.6,2.6,1.9,2.6c2.3,0,4.5-0.6,6-2.5    c1.2-1.5,1.4-3.1,0.4-4.8C26,38.9,24.7,37.6,22.8,37.8z"></path><path d="M53.5,15.7l-3.5-3.5c-0.5-0.5-1.4-0.5-1.9,0L35.9,24.3c-0.3,0.3-0.7,0.3-0.9,0l-5.5-5.5c-0.3-0.3-0.7-0.3-0.9,0L24,23.3    c-0.3,0.3-0.3,0.7,0,0.9l5.5,5.5c0.3,0.3,0.3,0.7,0,0.9L26.2,34c-0.3,0.3-0.3,0.7,0,0.9l4.5,4.5c0.3,0.3,0.7,0.3,0.9,0l3.3-3.3    c0.3-0.3,0.7-0.3,0.9,0l7.1,7.1c0.2,0.2,0.6,0.3,0.9,0c1.6-1.4,3.2-3,4.6-4.6c0.2-0.3,0.2-0.6,0-0.9l-7.1-7.1    c-0.3-0.3-0.3-0.7,0-0.9l12.2-12.2C54,17.1,54,16.3,53.5,15.7z"></path><path d="M50,40.3c-1.3,1.5-2.7,2.9-4.2,4.2c-0.4,0.4-0.4,1,0,1.4l0,0c0.1,0.1,0.2,0.1,0.3,0.2l6.1,1.5c0.5,0.1,0.9-0.3,0.8-0.8    l-1.5-6c0-0.1-0.1-0.2-0.2-0.3l-0.3-0.3C50.7,40,50.2,40.1,50,40.3z"></path><path d="M22.4,21.7l4.5-4.5c0.3-0.3,0.3-0.7,0-0.9l-2-2c-2.3-2.3-6.7-1.1-6.8,3.5c0,0.4,0.2,0.8,0.4,1l2.9,2.9    C21.7,22,22.2,22,22.4,21.7z"></path></g></g></svg>