<svg height='100px' width='100px'  fill="#000000" xmlns="http://www.w3.org/2000/svg" xmlns:xlink="http://www.w3.org/1999/xlink" version="1.1" x="0px" y="0px" viewBox="0 0 126 126.006" style="enable-background:new 0 0 126 126.006;" xml:space="preserve"><g><path d="M72,40.805c0.761,0,1.42-0.377,1.826-0.948c0.034,0,0.066,0.005,0.1,0.005c0.122,0,0.243-0.003,0.363-0.009   c0.699-0.042,1.294-0.173,1.82-0.401c0.506-0.221,0.738-0.81,0.518-1.316c-0.221-0.507-0.811-0.739-1.316-0.518   c-0.307,0.134-0.68,0.212-1.131,0.239c-0.018,0.001-0.034-0.001-0.052,0c-0.003-0.01-0.006-0.02-0.009-0.03   c0.021-0.015,0.042-0.022,0.063-0.037c0.237-0.169,0.436-0.364,0.609-0.594c0.332-0.442,0.242-1.069-0.2-1.4   c-0.443-0.333-1.069-0.241-1.4,0.2c-0.05,0.066-0.103,0.117-0.188,0.179c-0.157,0.117-0.342,0.17-0.517,0.194   c-0.156-0.033-0.318-0.053-0.485-0.053c-1.24,0-2.24,1-2.24,2.24S70.76,40.805,72,40.805z"></path><path d="M54.05,36.315c-0.166,0-0.328,0.021-0.484,0.055c-0.174-0.024-0.355-0.075-0.507-0.188   c-0.08-0.062-0.138-0.119-0.189-0.188c-0.331-0.44-0.957-0.532-1.4-0.2c-0.442,0.331-0.531,0.958-0.2,1.4   c0.16,0.214,0.347,0.401,0.582,0.582c0.026,0.02,0.054,0.029,0.08,0.047c-0.002,0.007-0.004,0.014-0.007,0.021   c-0.023-0.001-0.044,0.002-0.067,0.001c-0.42-0.017-0.812-0.096-1.103-0.225c-0.505-0.225-1.096,0.004-1.319,0.509   c-0.224,0.505,0.004,1.096,0.509,1.319c0.524,0.232,1.16,0.369,1.824,0.395c0.118,0.006,0.236,0.009,0.355,0.009   c0.032,0,0.064-0.004,0.096-0.005c0.408,0.575,1.074,0.957,1.83,0.957c1.24,0,2.25-1.01,2.25-2.25S55.29,36.315,54.05,36.315z"></path><path d="M98,26.876h5.563c0.474,2.684,2.814,4.73,5.627,4.73c2.813,0,5.153-2.046,5.627-4.73h5.483   c0.379,0,0.726-0.214,0.895-0.554c0.169-0.339,0.132-0.745-0.096-1.048L110.15,10.731V1.006c0-0.552-0.448-1-1-1s-1,0.448-1,1   v9.726L97.201,25.274c-0.228,0.303-0.265,0.708-0.096,1.048C97.274,26.661,97.621,26.876,98,26.876z M109.19,29.606   c-1.703,0-3.128-1.161-3.567-2.73h7.134C112.318,28.445,110.893,29.606,109.19,29.606z"></path><path d="M125.708,53.429c-0.188-0.188-0.442-0.294-0.708-0.294H88.618c1.652-0.925,3.031-2.54,3.791-4.604   c1.536-4.178-0.079-8.711-3.586-10.099c-0.066-0.027-0.14-0.047-0.209-0.072c0.02-0.222,0.048-0.441,0.062-0.661   c0.002-0.025,0.015-0.047,0.015-0.073c0-0.014-0.006-0.029-0.007-0.043C88.893,35.079,89,32.53,89,30.006   c0-4.429-0.787-9.007-2.21-13.01c0.277-0.158,0.539-0.332,0.761-0.54c0.927-0.84,1.454-2.054,1.523-3.509   c0.127-2.652-1.243-5.824-3.666-8.485c-3.896-4.279-9.055-5.714-11.728-3.279c-0.218,0.191-0.404,0.41-0.575,0.64   C70.1,0.622,66.708,0.006,63,0.006c-19.191,0-26,16.161-26,30c0,2.567,0.109,5.159,0.323,7.7c0.018,0.222,0.039,0.436,0.058,0.654   c-0.066,0.023-0.135,0.042-0.2,0.068c-3.52,1.398-5.134,5.931-3.599,10.104c1.208,3.282,3.982,5.424,6.931,5.463   c0.516,1.389,1.061,2.582,1.63,3.527c2.356,3.92,7.456,8.79,13.674,11.119l-0.016,4.361l-3.485,2.649   c-0.11,0.07-0.954,0.648-1.14,1.935c-2.573,1.263-5.046,2.818-7.361,4.641H27.008l3.593-12.494   c0.087-0.302,0.027-0.627-0.162-0.878s-0.485-0.398-0.799-0.398h-4.284c0.595-0.83,1.121-1.909,1.165-3.173   c0.053-1.518-0.58-2.97-1.885-4.33c1.272-0.914,3.148-2.635,3.39-4.962c0.183-1.756-0.578-3.473-2.262-5.114   c0.858-0.875,1.988-2.393,1.878-4.244c-0.097-1.65-1.131-3.146-3.078-4.455c0.94-1.144,2.23-3.176,1.852-5.379   c-0.312-1.814-1.65-3.311-3.983-4.458c0.306-1.184,0.583-3.272-0.576-4.983c-1.153-1.702-3.352-2.537-6.519-2.473   c-3.201-0.058-5.41,0.771-6.562,2.475c-1.158,1.71-0.878,3.799-0.571,4.982c-2.332,1.146-3.67,2.643-3.982,4.457   c-0.378,2.203,0.911,4.234,1.851,5.378c-1.95,1.31-2.985,2.805-3.083,4.456c-0.109,1.852,1.022,3.37,1.882,4.245   c-1.684,1.641-2.444,3.357-2.261,5.113c0.242,2.327,2.118,4.048,3.39,4.962c-1.305,1.36-1.938,2.813-1.885,4.33   c0.044,1.264,0.57,2.343,1.165,3.173H1c-0.314,0-0.61,0.147-0.799,0.398s-0.249,0.576-0.162,0.878l7.16,24.89   c0.123,0.429,0.515,0.724,0.961,0.724h14.32c0.446,0,0.838-0.295,0.961-0.724l2.992-10.396h14.994   c-9.971,8.989-16.163,22.648-18.419,40.655c-0.036,0.285,0.053,0.571,0.242,0.786c0.19,0.215,0.463,0.338,0.75,0.338h13.257   c0.001,0,0.002,0,0.002,0c0.001,0,0.002,0,0.003,0h17.474c0.001,0,0.002,0,0.003,0s0.002,0,0.003,0H102   c0.287,0,0.56-0.123,0.75-0.338c0.19-0.215,0.278-0.501,0.243-0.786c-0.221-1.771-0.491-3.493-0.788-5.159   c11.611-3.547,16.917-6.886,16.641-10.483c-0.471-6.129-18.234-9.101-23.026-9.791c-2.071-4.207-4.551-7.988-7.395-11.273h36.517   c0.552,0,1-0.448,1-1v-7.167l0.06-25.87C126,53.872,125.895,53.617,125.708,53.429z M63,70.006c1.645,0,3.321-0.231,4.998-0.67   l-0.007,3.638l-5.04,6.061l-5.15-5.892l0.014-3.858C59.552,69.756,61.29,70.006,63,70.006z M74.816,77.582   c-0.179-1.284-1.012-1.856-1.061-1.883l-3.764-2.859l0.008-4.14c3.415-1.251,6.802-3.395,9.641-6.085v8.74   c-1.899,0.049-3.43,1.601-3.43,3.511v3.43C75.754,78.049,75.286,77.813,74.816,77.582z M83.86,57.515   c0.414-0.699,0.81-1.502,1.18-2.38h17.489v23.87H85.1v-4.14c0-1.917-1.546-3.475-3.46-3.513V60.534   C82.507,59.529,83.273,58.494,83.86,57.515z M123.942,79.006H104.53v-23.87h19.468L123.942,79.006z M90.532,47.84   c-0.797,2.163-2.509,3.695-4.338,4.057c0.97-3.218,1.734-7.193,2.206-11.433C90.675,41.623,91.642,44.821,90.532,47.84z    M35.458,47.84c-1.11-3.017-0.142-6.214,2.135-7.376c0.481,4.259,1.247,8.23,2.213,11.435   C37.969,51.539,36.255,50.006,35.458,47.84z M43.857,56.49c-0.593-0.984-1.168-2.28-1.711-3.851   c-1.228-3.558-2.187-8.399-2.701-13.636c-0.043-0.425-0.078-0.853-0.113-1.287c0.342-1.24,2.784-9.688,6.755-13.785l0.424,2.066   c0.064,0.314,0.276,0.579,0.569,0.711c0.292,0.131,0.63,0.114,0.91-0.046c0.25-0.145,5.2-3.037,7.164-7.057   c3.606,5.649,10.392,6.628,10.713,6.671c0.32,0.043,0.644-0.072,0.865-0.309c0.221-0.237,0.313-0.567,0.248-0.884l-0.277-1.338   c5.679,3.636,11.638,3.075,11.92,3.045c0.435-0.045,0.791-0.367,0.877-0.796l0.417-2.06c3.994,4.12,6.428,12.58,6.752,13.756   c-0.03,0.433-0.07,0.873-0.125,1.32c-0.497,5.158-1.436,9.947-2.647,13.506c-0.024,0.047-0.044,0.096-0.06,0.148   c-0.122,0.384-0.253,0.75-0.398,1.107c-0.406,1.038-0.843,1.955-1.296,2.72c-0.579,0.965-1.357,2.006-2.25,3.011   c-3.074,3.463-7.158,6.216-11.205,7.554c-3.884,1.282-7.677,1.258-11.545-0.057C51.125,64.955,46.038,60.119,43.857,56.49z    M21.727,93.345H8.913l-6.585-22.89h25.984L21.727,93.345z M38.923,123.695l2.257-5.169c0.455-1.075,1.178-2.038,2.09-2.784   c1.533-1.247,2.58-2.205,3.296-2.963l0.898,3.866l-2.471,0.879c-0.52,0.186-0.792,0.757-0.606,1.278   c0.185,0.52,0.757,0.791,1.278,0.606l10.287-3.659c0.891-0.315,1.879,0.116,2.253,0.993c0.096,0.215,0.144,0.452,0.144,0.704   c0,0.258-0.057,0.515-0.172,0.76c-0.201,0.446-0.595,0.792-1.08,0.947l-5.55,1.76c-0.526,0.167-0.818,0.729-0.651,1.255   c0.135,0.426,0.529,0.698,0.953,0.698c0.1,0,0.202-0.016,0.303-0.047l5.553-1.761c0.369-0.118,0.702-0.306,1.012-0.521   c0.174,0.514,0.14,1.064-0.104,1.553c-0.249,0.5-0.679,0.865-1.212,1.031l-2.814,0.884H38.788l0.127-0.291   C38.918,123.708,38.921,123.701,38.923,123.695z M89,124.006v-22.04c0-0.552-0.448-1-1-1s-1,0.448-1,1v22.04H70.016l7.839-1.733   c0.263-0.058,0.492-0.22,0.634-0.449c0.142-0.229,0.186-0.505,0.121-0.767l-7-28.37c-0.131-0.533-0.665-0.861-1.202-0.733   l-26.21,6.23c-0.535,0.127-0.867,0.663-0.743,1.199l2.535,10.919c-0.123,0.25-0.769,1.277-3.984,3.891   c-1.166,0.953-2.088,2.182-2.664,3.544L39,118.522v-16.556c0-0.552-0.448-1-1-1s-1,0.448-1,1v21.136l-0.395,0.904H25.139   c2.466-18.135,9.069-31.588,19.636-39.999c2.097-1.68,4.335-3.114,6.656-4.308c0.634,2.161,2.262,7.499,2.262,7.499   c0.096,0.313,0.338,0.559,0.649,0.66c0.101,0.032,0.204,0.048,0.307,0.048c0.216,0,0.429-0.07,0.605-0.204l7.717-5.871l7.775,5.873   c0.176,0.133,0.388,0.202,0.603,0.202c0.104,0,0.208-0.016,0.309-0.049c0.311-0.101,0.553-0.347,0.648-0.659   c0,0,1.634-5.357,2.263-7.501c0.72,0.371,1.428,0.755,2.13,1.178c3.169,1.88,6.112,4.232,8.747,6.991   c3.462,3.623,6.427,7.974,8.813,12.934c2.587,5.353,4.547,11.546,5.828,18.411c0.29,1.539,0.55,3.147,0.774,4.794H89z"></path><path d="M63,85.006c-1.748,0-3.17,1.422-3.17,3.17s1.422,3.17,3.17,3.17c1.748,0,3.17-1.422,3.17-3.17S64.748,85.006,63,85.006z    M63,89.345c-0.645,0-1.17-0.525-1.17-1.17s0.525-1.17,1.17-1.17s1.17,0.525,1.17,1.17S63.645,89.345,63,89.345z"></path><path d="M71.261,29.521c0.025-0.006,2.64-0.432,4.442,0.842c0.175,0.124,0.377,0.183,0.576,0.183c0.314,0,0.623-0.147,0.818-0.423   c0.318-0.451,0.211-1.075-0.24-1.394c-2.492-1.76-5.8-1.203-5.94-1.178c-0.543,0.096-0.905,0.612-0.811,1.155   C70.2,29.249,70.713,29.616,71.261,29.521z"></path><path d="M50.307,30.362c1.802-1.273,4.417-0.846,4.442-0.842c0.544,0.093,1.06-0.269,1.156-0.812   c0.096-0.544-0.268-1.063-0.812-1.158c-0.139-0.024-3.447-0.581-5.94,1.178c-0.451,0.319-0.558,0.943-0.24,1.394   c0.195,0.275,0.504,0.423,0.818,0.423C49.93,30.546,50.132,30.486,50.307,30.362z"></path><path d="M61.936,48.736c0.031,0,0.062,0,0.093,0h1.931c1.872,0.017,3.251-0.466,4.159-1.435c1.078-1.151,1.009-2.518,1-2.574   c0.045-2.143-1.704-3.058-2.62-3.239c-0.115-0.025-1.147-0.228-2.11,0.224c-0.354,0.168-0.611,0.244-0.831,0.244h-1.12   c-0.22,0-0.476-0.075-0.834-0.245c-0.957-0.451-1.99-0.247-2.09-0.226c-0.932,0.185-2.681,1.1-2.633,3.146   c-0.012,0.152-0.081,1.519,0.997,2.67C58.772,48.253,60.139,48.736,61.936,48.736z M59.911,43.445   c0.056-0.011,0.169-0.024,0.304-0.024c0.17,0,0.374,0.022,0.536,0.098c0.395,0.188,1,0.437,1.689,0.437h1.12   c0.689,0,1.294-0.25,1.685-0.436c0.296-0.138,0.72-0.099,0.839-0.076c0.248,0.056,1.056,0.309,1.038,1.321   c0.001,0.027,0.022,0.669-0.481,1.189c-0.505,0.522-1.429,0.787-2.67,0.781h-1.95c-1.257,0.019-2.156-0.259-2.661-0.781   c-0.503-0.52-0.482-1.162-0.479-1.27C58.86,43.753,59.667,43.5,59.911,43.445z"></path></g></svg>