<svg height='100px' width='100px'  fill="#000000" xmlns="http://www.w3.org/2000/svg" data-name="Layer 1" viewBox="0 0 64 64" x="0px" y="0px"><title>manager-director-leader-unity-hierarchy</title><path d="M32,6a4,4,0,1,0,4,4A4,4,0,0,0,32,6Zm0,6a2,2,0,1,1,2-2A2,2,0,0,1,32,12Z"></path><path d="M26,18.18v7.64a3.2,3.2,0,0,0,2,2.95v6.62A2.61,2.61,0,0,0,30.61,38h2.78A2.61,2.61,0,0,0,36,35.39V28.77a3.2,3.2,0,0,0,2-2.95V18.18A3.19,3.19,0,0,0,34.82,15H29.18A3.19,3.19,0,0,0,26,18.18Zm2,0A1.18,1.18,0,0,1,29.18,17h5.64A1.18,1.18,0,0,1,36,18.18v7.64A1.18,1.18,0,0,1,34.92,27,1,1,0,0,0,34,28v7.4a.61.61,0,0,1-.61.61H30.61a.61.61,0,0,1-.61-.61V28a1,1,0,0,0-.92-1A1.18,1.18,0,0,1,28,25.82Z"></path><path d="M42,42h4a1,1,0,0,0,1-1V37a1,1,0,0,0-2,0v3H42a1,1,0,0,0,0,2Z"></path><path d="M28.67,40a1,1,0,0,0,0,2h6.66a1,1,0,0,0,0-2Z"></path><path d="M18,36a1,1,0,0,0-1,1v4a1,1,0,0,0,1,1h4a1,1,0,0,0,0-2H19V37A1,1,0,0,0,18,36Z"></path><path d="M17,21H11a1,1,0,0,0-1,1V38.59l-1.29-1.3a1,1,0,1,0-1.42,1.42l3,3,0,0a.85.85,0,0,0,.3.19h0A1,1,0,0,0,11,42a1.22,1.22,0,0,0,.38-.07,1.19,1.19,0,0,0,.33-.22l3-3a1,1,0,0,0-1.42-1.42L12,38.59V23h5v4a1,1,0,0,0,2,0V17a1,1,0,0,0-2,0Z"></path><path d="M22,2H18a1,1,0,0,0-1,1V7a1,1,0,0,0,2,0V4h3a1,1,0,0,0,0-2Z"></path><path d="M36.33,3a1,1,0,0,0-1-1H28.67a1,1,0,0,0,0,2h6.66A1,1,0,0,0,36.33,3Z"></path><path d="M46,2H42a1,1,0,0,0,0,2h3V7a1,1,0,0,0,2,0V3A1,1,0,0,0,46,2Z"></path><path d="M15,50a4,4,0,1,0-4,4A4,4,0,0,0,15,50Zm-4,2a2,2,0,1,1,2-2A2,2,0,0,1,11,52Z"></path><path d="M29,50a4,4,0,1,0-4,4A4,4,0,0,0,29,50Zm-4,2a2,2,0,1,1,2-2A2,2,0,0,1,25,52Z"></path><path d="M35,50a4,4,0,1,0,4-4A4,4,0,0,0,35,50Zm6,0a2,2,0,1,1-2-2A2,2,0,0,1,41,50Z"></path><path d="M32,56.75A6.84,6.84,0,0,0,26.4,54H23.6A6.84,6.84,0,0,0,18,56.75,6.84,6.84,0,0,0,12.4,54H9.6C6,54,3,56.6,3,59.8V61a1,1,0,0,0,1,1H60a1,1,0,0,0,1-1V59.8c0-3.2-3-5.8-6.6-5.8H51.6A6.84,6.84,0,0,0,46,56.75,6.84,6.84,0,0,0,40.4,54H37.6A6.84,6.84,0,0,0,32,56.75ZM17,60H5v-.2C5,57.7,7.06,56,9.6,56h2.8c2.54,0,4.6,1.7,4.6,3.8Zm14,0H19v-.2c0-2.1,2.06-3.8,4.6-3.8h2.8c2.54,0,4.6,1.7,4.6,3.8Zm16-.2c0-2.1,2.06-3.8,4.6-3.8h2.8c2.54,0,4.6,1.7,4.6,3.8V60H47ZM40.4,56c2.54,0,4.6,1.7,4.6,3.8V60H33v-.2c0-2.1,2.06-3.8,4.6-3.8Z"></path><path d="M57,50a4,4,0,1,0-4,4A4,4,0,0,0,57,50Zm-4,2a2,2,0,1,1,2-2A2,2,0,0,1,53,52Z"></path><path d="M53,21H47V17a1,1,0,0,0-2,0V27a1,1,0,0,0,2,0V23h5V38.59l-1.29-1.3a1,1,0,0,0-1.42,1.42l3,3a1.19,1.19,0,0,0,.33.22A1.22,1.22,0,0,0,53,42a1,1,0,0,0,.38-.08h0a.85.85,0,0,0,.3-.19l0,0,3-3a1,1,0,0,0-1.42-1.42L54,38.59V22A1,1,0,0,0,53,21Z"></path></svg>