<svg height='100px' width='100px'  fill="#000000" xmlns="http://www.w3.org/2000/svg" xmlns:xlink="http://www.w3.org/1999/xlink" version="1.1" x="0px" y="0px" viewBox="0 0 100 100" style="enable-background:new 0 0 100 100;" xml:space="preserve"><ellipse transform="matrix(0.7071 -0.7071 0.7071 0.7071 -34.3191 83.5149)" cx="83.652" cy="83.184" rx="1.535" ry="1.535"></ellipse><path d="M13.867,54.193l3.705,3.705l-0.847,0.847c-0.669,0.668-1.037,1.558-1.037,2.503s0.368,1.835,1.037,2.503l8.793,8.793  c0.69,0.69,1.597,1.035,2.503,1.035s1.813-0.345,2.503-1.035l19.447-19.447c0.601-0.6,1.578-0.6,2.179,0L63.343,64.29l-3.089,3.088  c-0.188,0.188-0.293,0.442-0.293,0.707s0.105,0.52,0.293,0.707l19.586,19.586c1.241,1.241,2.872,1.862,4.502,1.862  s3.261-0.621,4.502-1.862c2.483-2.482,2.483-6.522,0-9.005L69.26,59.787c-0.391-0.391-1.023-0.391-1.414,0l-3.089,3.089  L53.566,51.684c-1.38-1.38-3.626-1.379-5.007,0L29.112,71.131c-0.601,0.601-1.578,0.601-2.179,0l-8.793-8.793  c-0.601-0.601-0.601-1.578,0-2.179l0.847-0.847l4.6,4.6c0.704,0.704,1.639,1.091,2.634,1.091c0.996,0,1.931-0.388,2.635-1.091  l36.741-36.741c0.704-0.704,1.091-1.639,1.091-2.634s-0.388-1.931-1.091-2.634l-4.153-4.153l0.98-0.981  c0.391-0.391,0.391-1.024,0-1.414c-0.391-0.391-1.023-0.391-1.414,0l-0.98,0.98l-4.153-4.153c-1.407-1.407-3.861-1.407-5.269,0  L13.867,48.924c-0.704,0.704-1.091,1.639-1.091,2.635C12.776,52.554,13.164,53.489,13.867,54.193z M62.376,68.085l6.177-6.177  l18.879,18.879c1.703,1.703,1.703,4.474,0,6.177c-1.703,1.703-4.474,1.703-6.177,0L62.376,68.085z M15.281,50.338l36.741-36.741  c0.673-0.673,1.768-0.673,2.44,0l9.719,9.72c0.673,0.673,0.673,1.768,0,2.44L27.442,62.498c-0.672,0.672-1.768,0.673-2.441,0  l-9.719-9.719C14.609,52.106,14.609,51.011,15.281,50.338z"></path><path d="M66.479,42.934c-0.552,0-1-0.448-1-1V30.406c0-0.552,0.448-1,1-1s1,0.448,1,1v11.528  C67.479,42.486,67.031,42.934,66.479,42.934z"></path><path d="M62.295,48.118c-0.552,0-1-0.448-1-1V34c0-0.552,0.448-1,1-1s1,0.448,1,1v13.118C63.295,47.67,62.847,48.118,62.295,48.118z  "></path><path d="M63.295,55.068c0,0.552-0.448,1-1,1s-1-0.448-1-1V51.09c0-0.552,0.448-1,1-1s1,0.448,1,1V55.068z"></path><path d="M67.479,50.095c0,0.552-0.448,1-1,1s-1-0.448-1-1v-3.978c0-0.552,0.448-1,1-1s1,0.448,1,1V50.095z"></path><path d="M56.985,47.066v-8.541c0-0.552,0.448-1,1-1s1,0.448,1,1v8.541c0,0.552-0.448,1-1,1S56.985,47.618,56.985,47.066z"></path></svg>