<svg height='100px' width='100px'  fill="#000000" xmlns="http://www.w3.org/2000/svg" xmlns:xlink="http://www.w3.org/1999/xlink" version="1.1" x="0px" y="0px" viewBox="0 0 186.67 229.183" style="enable-background:new 0 0 186.67 229.183;" xml:space="preserve"><g><ellipse transform="matrix(0.9739 -0.2268 0.2268 0.9739 -3.7227 12.5976)" cx="52.963" cy="22.5" rx="22.495" ry="22.495"></ellipse><path d="M128.188,110.559c-0.016,0.097-0.022,0.195-0.041,0.291c-0.108,0.578-0.277,1.148-0.49,1.709h14.649   c3.054,0,5.549,2.492,5.548,5.548v16.636c0,3.054-2.494,5.548-5.548,5.548l-33.287-0.001c-3.056,0.001-5.54-2.492-5.54-5.547   l-0.001-16.636c0.001-3.033,2.449-5.508,5.473-5.544c-0.247-0.577-0.494-1.15-0.742-1.711c-0.033-0.078-0.068-0.154-0.102-0.231   c-0.507-1.145-1.013-2.251-1.518-3.331c-4.952,1.111-8.655,5.528-8.656,10.818l0.001,16.636   c-0.001,6.127,4.966,11.093,11.091,11.093h11.09v5.545l-27.729,0.001v-5.546H81.294v5.545h-1.147h-4.4   c-6.124,0.001-11.09,4.968-11.09,11.095v55.459c0,4.843,3.107,8.95,7.433,10.463c1.146,0.401,2.374,0.63,3.657,0.63l99.833-0.001   c6.124,0.001,11.091-4.965,11.091-11.093v-55.458c0-6.127-4.967-11.095-11.091-11.094l-44.369-0.001v-5.545h11.092   c6.125,0,11.091-4.966,11.091-11.093v-16.636c0-6.127-4.966-11.094-11.091-11.094l-14.189,0   C128.355,108.183,128.375,109.381,128.188,110.559z M100.7,190.205c0.001-13.789,11.174-24.964,24.963-24.964   c13.773,0,24.945,11.175,24.955,24.963c-0.01,13.784-11.182,24.958-24.955,24.957C111.874,215.161,100.7,203.988,100.7,190.205z    M158.94,173.566v-11.091h16.639v11.09L158.94,173.566z"></path><path d="M125.66,206.843h0.003h0.002c9.157-0.008,16.618-7.472,16.637-16.641c-0.019-9.159-7.48-16.625-16.641-16.642   c-9.17,0.017-16.634,7.482-16.642,16.646C109.027,199.372,116.494,206.836,125.66,206.843z"></path><path d="M13.14,146.185c0.659,0,1.329-0.082,1.997-0.254c4.28-1.1,6.858-5.46,5.759-9.74C17.352,122.415,16,111.363,16,102.607   c0.079-17.728,5.256-25.81,9.573-30.107c0.115-0.112,0.229-0.211,0.345-0.319v36.699v18.939v89c0,6.828,5.537,12.363,12.365,12.363   c6.826,0,12.363-5.535,12.363-12.363v-81.273h4.772v81.273c0,6.828,5.537,12.363,12.365,12.363c0.405,0,0.805-0.022,1.2-0.061   c-3.785-2.297-6.327-6.445-6.327-11.189v-55.459c0-7.221,5.872-13.092,13.089-13.092h3.55l0.001-3.546l-0.001-1.999h0.852v-34.958   c0-0.593-0.056-1.171-0.137-1.742V70.332c1.602,0.87,3.435,2.053,5.478,3.689c5.181,4.173,11.697,11.354,18.478,23.662   c1.258,2.283,2.524,4.746,3.793,7.395c0.307,0.639,0.612,1.29,0.919,1.952c0.529,1.143,1.059,2.318,1.588,3.529   c0.042,0.096,0.084,0.195,0.126,0.292c0.188,0.431,0.374,0.858,0.562,1.298c0.062,0.144,0.144,0.271,0.212,0.41   c0.373,0.752,0.847,1.42,1.403,1.997c1.509,1.563,3.585,2.463,5.748,2.463c1.046,0,2.108-0.206,3.132-0.642   c1.026-0.437,1.914-1.064,2.64-1.821c0.569-0.594,1.035-1.27,1.395-1.997c0.269-0.544,0.472-1.117,0.611-1.709   c0.023-0.097,0.052-0.193,0.071-0.291c0.228-1.151,0.194-2.36-0.113-3.546c-0.1-0.38-0.218-0.759-0.376-1.131   c-0.125-0.293-0.25-0.577-0.375-0.867c-1.105-2.563-2.221-5.006-3.343-7.331c-9.513-19.71-19.536-31.071-28.311-37.571   c-8.577-6.388-15.853-7.874-19.337-8.135c-0.647-0.176-1.325-0.278-2.028-0.278H33.646c-0.649,0-1.277,0.089-1.88,0.24   c-0.364,0.01-0.731,0.037-1.101,0.099l-0.002-0.002c-0.984,0.176-8.614,1.601-16.25,9C6.739,68.413-0.078,81.672,0.001,102.607   c0.002,10.398,1.59,22.752,5.396,37.566C6.326,143.785,9.576,146.185,13.14,146.185z"></path></g></svg>