<svg height='100px' width='100px'  fill="#000000" xmlns:x="http://ns.adobe.com/Extensibility/1.0/" xmlns:i="http://ns.adobe.com/AdobeIllustrator/10.0/" xmlns:graph="http://ns.adobe.com/Graphs/1.0/" xmlns="http://www.w3.org/2000/svg" xmlns:xlink="http://www.w3.org/1999/xlink" version="1.1" x="0px" y="0px" viewBox="0 0 100 100" style="enable-background:new 0 0 100 100;" xml:space="preserve"><g><g i:extraneous="self"><g><path d="M95.1,9H42.7c-1.4,0-2.4,1.1-2.4,2.4v24.1l2.8,3.4l2.1,0.7V13.9h47.4v49.4H45.2v-7c-0.5-0.1-1-0.2-1.5-0.3l-3.3-1.1v10.9     c0,1.3,1.1,2.4,2.4,2.4h23.7v17.9h-6.1c-1.4,0-2.4,1.1-2.4,2.4c0,1.4,1.1,2.4,2.4,2.4h17.2c1.4,0,2.4-1.1,2.4-2.4     c0-1.4-1.1-2.4-2.4-2.4h-6.1V68.2h23.7c1.4,0,2.4-1.1,2.4-2.4V11.4C97.5,10.1,96.4,9,95.1,9z"></path><path d="M49.7,49.5c0.3-0.9,0.2-1.8-0.1-2.6l17-15.9c0.7-0.6,0.7-1.7,0.1-2.4c-0.6-0.7-1.7-0.7-2.4-0.1L46.9,44.7l-6.4-2.1     L35,35.8c-2-2.4-4.9-3.8-8-3.8h-7.3c-8.6,0-15.2,14.8-17,19.3c-0.8,1.9,0.2,4.1,2.1,4.9c0.5,0.2,0.9,0.3,1.4,0.3     c1.5,0,2.9-0.9,3.5-2.4c1.5-3.9,3.6-7.7,5.6-10.5l-0.5,14.7L8.9,86c-0.5,2.3,1,4.5,3.2,5C12.4,91,12.7,91,13,91     c1.9,0,3.7-1.3,4.1-3.3l5.9-27.3h1.6v26.4c0,2.3,1.9,4.2,4.2,4.2s4.2-1.9,4.2-4.2l0-28.1l-0.5-14.1l2.9,3.6     c0.5,0.6,1.1,1,1.8,1.2l7.8,2.5C46.9,52.6,49,51.5,49.7,49.5z"></path><circle cx="23.9" cy="21.4" r="8.4"></circle></g></g></g></svg>