<svg height='100px' width='100px'  fill="#000000" xmlns="http://www.w3.org/2000/svg" xmlns:xlink="http://www.w3.org/1999/xlink" version="1.1" x="0px" y="0px" viewBox="0 0 276.235 237.183" style="enable-background:new 0 0 276.235 237.183;" xml:space="preserve"><g><rect x="196.985" y="80.573" width="20.25" height="8"></rect><rect x="162.733" y="80.573" width="20.252" height="8"></rect><rect x="231.233" y="80.573" width="27.502" height="8"></rect><path d="M148.735,88.573v-8h-19.541c0.607,2.532,1.139,5.203,1.601,8H148.735z"></path><path d="M155.985,27.823c1.626,0,3.214,0.167,4.748,0.482v-7.731v-7.001h-9.998v7.001v7.848   C152.425,28.035,154.18,27.823,155.985,27.823z"></path><path d="M184.985,69.323v35h-0.75c-0.476,0-0.907,0.173-1.25,0.45c-0.454,0.366-0.75,0.921-0.75,1.55v2.75   c0,0.35,0.098,0.675,0.257,0.962c0.341,0.616,0.988,1.038,1.743,1.038h0.008c-1.694,4.657-6.141,7.99-11.383,7.999   c-5.254-0.009-9.707-3.353-11.394-8.023c0.782-0.092,1.421-0.629,1.66-1.355c0.065-0.196,0.108-0.402,0.108-0.621v-2.75   c0-0.505-0.193-0.96-0.502-1.313c-0.367-0.418-0.899-0.687-1.498-0.687h-0.5l-0.001-29.982c-1.534,0.315-3.122,0.482-4.749,0.482   c-1.805,0-3.561-0.211-5.25-0.599v30.098h-1c-0.366,0-0.705,0.105-1,0.277c-0.596,0.347-1,0.984-1,1.723v2.75   c0,0.872,0.561,1.605,1.34,1.88c0.207,0.072,0.428,0.12,0.66,0.12h1.391c1.934,10.247,10.923,17.997,21.734,17.999   c10.809-0.002,19.797-7.752,21.733-17.999h1.142c0.338,0,0.651-0.092,0.931-0.24c0.633-0.335,1.069-0.993,1.069-1.76v-2.75   c0-0.629-0.296-1.183-0.75-1.55c-0.344-0.277-0.774-0.45-1.25-0.45h-0.75v-35h0.75c0.477,0,0.907-0.174,1.251-0.452   c0.453-0.366,0.749-0.92,0.749-1.548v-2.22v-0.53c0-0.775-0.446-1.44-1.091-1.772c2.102-3.601,5.994-6.026,10.464-6.034   c4.433,0.008,8.295,2.394,10.41,5.943c-0.746,0.287-1.276,1.004-1.282,1.849c0,0.005-0.001,0.009-0.001,0.014v2.75   c0,0.738,0.404,1.376,1,1.723c0.295,0.172,0.634,0.277,1,0.277h0.998v65.25h-1.998h-6.5v7.156h-78.699   c-0.534,2.137-1.559,4.07-2.941,5.688h147.141v-5.688h-38.5v-7.156h-4.25v-8.75h-2.252h-2v-56.5h0.502   c0.596,0,1.125-0.267,1.491-0.68c0.313-0.354,0.509-0.812,0.509-1.32v-2.75c0-0.861-0.549-1.59-1.313-1.871   c-0.215-0.079-0.445-0.129-0.688-0.129h-1.424c-2.72-9.14-11.178-15.804-21.203-15.806c-10.025,0.002-18.483,6.666-21.202,15.806   h-1.671c-0.143,0-0.281,0.017-0.416,0.045c-0.905,0.191-1.584,0.993-1.584,1.955v2.75c0,0.629,0.296,1.183,0.75,1.551   c0.344,0.276,0.774,0.449,1.25,0.449H184.985z"></path><rect x="62.862" y="50.698" width="28.334" height="29.417"></rect><path d="M104.077,139.498c-2.901,0.836-10.708,2.627-24.729,2.809v82.513c0,6.83,5.537,12.363,12.363,12.363   c6.828,0,12.365-5.533,12.365-12.363V139.498z"></path><path d="M96.196,80.115h0.041l7.84,50.417v-3.713V107.88V74.764c0.592,1.216,1.189,2.61,1.779,4.237   c2.82,7.813,5.191,20.631,5.182,40.64c0,5.513-0.178,11.571-0.566,18.223c-0.256,4.411,3.111,8.194,7.521,8.452   c0.158,0.009,0.316,0.014,0.473,0.014c4.205,0,7.732-3.283,7.979-7.533c0.406-6.934,0.594-13.301,0.594-19.155   c-0.041-30.183-4.861-46.887-11.436-56.933c-3.283-4.985-7.127-8.183-10.678-9.955c-3.549-1.789-6.662-2.143-8.436-2.137   c-0.104,0-0.197,0.003-0.293,0.005V80.115z"></path><path d="M74.714,142.307c-14.017-0.182-21.824-1.971-24.729-2.807v85.319c0,6.83,5.537,12.363,12.363,12.363   c6.828,0,12.365-5.533,12.365-12.363V142.307z"></path><path d="M80.701,44.697c9.697-1.592,17.302-9.379,18.62-19.166c-2.029-0.104-4.17-0.322-6.371-0.664   c-11.521-1.792-20.401-6.306-20.146-10.171c1.524,3.461,10.442,6.12,21.247,6.12c8.154,0,15.248-1.514,18.893-3.743   c1.663-1.018,2.609-2.184,2.609-3.424c0-3.958-9.627-7.167-21.502-7.167c-0.406,0-0.803,0.013-1.203,0.02   C88.784,2.483,83.198,0,77.03,0c-12.426,0-22.5,10.074-22.5,22.5c0,11.178,8.15,20.444,18.83,22.197   C74.554,44.894,75.78,45,77.03,45S79.506,44.894,80.701,44.697z"></path><circle cx="63.946" cy="86.657" r="2.875"></circle><circle cx="90.112" cy="86.657" r="2.875"></circle><path d="M14.772,178.175l3.41-2.956l-1.775-2.048l3.403-2.951c2.121,1.947,5.396,2.059,7.626,0.127   c2.228-1.933,2.58-5.19,0.954-7.568l4.192-3.636c1.635-1.417,1.811-3.889,0.393-5.523c-1.418-1.636-3.891-1.811-5.525-0.394   l-4.142,3.592l-1.54-1.775l5.951-5.161l4.808-4.169c0.948,0.396,1.984,0.617,3.067,0.617c0.156,0,0.316-0.004,0.475-0.014   c4.412-0.259,7.777-4.045,7.518-8.454c-0.033-0.567-0.057-1.105-0.086-1.665l8.436-7.315c1.633-1.417,1.811-3.891,0.393-5.525   c-0.318-0.366-0.694-0.647-1.097-0.866l6.589-42.374h0.041V50.619c-0.095-0.002-0.188-0.005-0.291-0.005   c-1.777-0.004-4.891,0.35-8.438,2.141c-5.379,2.665-11.178,8.5-15.236,18.838c-4.106,10.38-6.863,25.387-6.877,48.047   c0,5.854,0.188,12.223,0.596,19.158c0.015,0.249,0.043,0.494,0.079,0.735l-4.953,4.295L7.956,156.651l4.19,4.831   c0.001,0,0.001,0.001,0.002,0.002l2.481,2.86l-3.354,2.909l-6.672-7.693l-3.408,2.955c-2.861,2.48-0.15,10.291,3.598,14.613   C8.542,181.453,11.913,180.655,14.772,178.175z M43.02,119.64c-0.033-24.218,3.496-37.82,6.965-44.92v33.16v14.192   c-1.104-0.176-2.271,0.101-3.182,0.891l-3.696,3.205C43.054,123.921,43.02,121.729,43.02,119.64z M24.673,167.558   c-1.309,1.134-3.287,0.993-4.42-0.313c-1.133-1.307-0.992-3.285,0.314-4.42c1.307-1.133,3.287-0.992,4.42,0.314   C26.12,164.445,25.979,166.424,24.673,167.558z"></path><path d="M155.985,71.823c11.322,0,20.5-9.179,20.5-20.5c0-11.321-9.178-20.5-20.5-20.5s-20.5,9.179-20.5,20.5   C135.485,62.644,144.663,71.823,155.985,71.823z M158.219,66.917v-10.2l7.208,7.208C163.357,65.479,160.898,66.534,158.219,66.917z    M168.586,60.765l-7.206-7.207h10.197C171.195,56.236,170.141,58.694,168.586,60.765z M171.578,49.089H161.38l7.207-7.208   C170.141,43.951,171.195,46.41,171.578,49.089z M165.427,38.722l-7.208,7.208V35.73C160.898,36.113,163.357,37.167,165.427,38.722z    M153.751,35.73v10.198l-7.206-7.207C148.615,37.167,151.073,36.113,153.751,35.73z M143.384,41.882l7.207,7.207h-10.199   C140.775,46.41,141.829,43.952,143.384,41.882z M140.393,53.558h10.198l-7.207,7.207C141.83,58.694,140.776,56.235,140.393,53.558z    M146.545,63.925l7.206-7.207v10.198C151.073,66.534,148.615,65.479,146.545,63.925z"></path></g></svg>