<svg height='100px' width='100px'  fill="#000000" xmlns="http://www.w3.org/2000/svg" xmlns:xlink="http://www.w3.org/1999/xlink" viewBox="0 0 56 60" version="1.1" x="0px" y="0px"><title>026 - Software Engineer</title><desc>Created with Sketch.</desc><g stroke="none" stroke-width="1" fill="none" fill-rule="evenodd"><g fill="#000000" fill-rule="nonzero"><path d="M52,6 L37.384,6 C36.2448177,3.84119713 34.2826539,2.2334632 31.942,1.541 C31.7294796,0.639690511 30.9260233,0.002138462 30,0 L26,0 C25.0904215,0.00295359685 24.297391,0.619298531 24.07,1.5 C21.7140778,2.2035753 19.7402357,3.8253189 18.593,6 L4,6 C1.790861,6 4.4408921e-16,7.790861 0,10 L0,44 C4.4408921e-16,46.209139 1.790861,48 4,48 L16,48 L16,50.42 L9.5,54.132 C9.45350873,54.1636924 9.40969518,54.1991445 9.369,54.238 C9.33412064,54.2626745 9.30072915,54.2893877 9.269,54.318 C9.19337072,54.3975415 9.13152382,54.489129 9.086,54.589 C9.086,54.598 9.075,54.604 9.071,54.613 C9.0254702,54.7262767 9.00106778,54.8469332 8.999,54.969 C8.999,54.98 8.993,54.989 8.993,55 L8.993,58 C8.993,59.1045695 9.8884305,60 10.993,60 L45,60 C46.1045695,60 47,59.1045695 47,58 L47,55 C47,54.989 46.994,54.98 46.994,54.969 C46.9919322,54.8469332 46.9675298,54.7262767 46.922,54.613 C46.922,54.604 46.91,54.597 46.906,54.588 C46.860814,54.4884807 46.7992984,54.3972213 46.724,54.318 C46.6922708,54.2893877 46.6588794,54.2626745 46.624,54.238 C46.5833048,54.1991445 46.5394913,54.1636924 46.493,54.132 L40,50.42 L40,48 L52,48 C54.209139,48 56,46.209139 56,44 L56,10 C56,7.790861 54.209139,6 52,6 Z M52,8 C53.1045695,8 54,8.8954305 54,10 L54,38 L49,38 L49,37.48 C48.9996489,36.1639547 48.1416131,35.0017946 46.884,34.614 L35.884,31.226 L35.316,27.82 C35.6650425,27.5145467 35.9631215,27.1553666 36.199,26.756 C36.6474756,25.8333489 36.9188378,24.8347362 36.999,23.812 C38.1576409,23.5579915 38.9569396,22.4956593 38.88,21.312 C38.8802095,20.9163753 38.9679748,20.5257002 39.137,20.168 C39.2336397,19.9457013 39.3414436,19.7284246 39.46,19.517 C40.1843601,18.4410656 40.1902779,17.0349935 39.475,15.953 C40.0946505,15.8618337 40.6678254,15.5715608 41.108,15.126 C41.6826832,14.5685382 42.0048744,13.8006252 42,13 C42,11.3431458 40.6568542,10 39,10 L38.836,10 C38.6969424,9.32163439 38.5121879,8.65344457 38.283,8 L52,8 Z M8.99998985,38 L9,37.48 C8.99803282,37.0426268 9.28219025,36.6553608 9.7,36.526 L20.53,33.19 C21.33,34.29 23.322,36 27.996,36 C32.67,36 34.663,34.288 35.462,33.19 L46.301,36.528 C46.7182994,36.6568657 47.0024117,37.0432585 47.001,37.48 L47.0010052,38 L8.99998985,38 Z M25,12 L39,12 C39.5522847,12 40,12.4477153 40,13 C40.000531,13.2698664 39.8894139,13.5279331 39.693,13.713 C39.5105442,13.8987836 39.2603843,14.0023852 39,14 L17,14 C16.4477153,14 16,13.5522847 16,13 C15.999469,12.7301336 16.1105861,12.4720669 16.307,12.287 C16.4894558,12.1012164 16.7396157,11.9976148 17,12 L25,12 Z M18.137,17.135 C18.3222273,16.9753658 18.5893192,16.9535459 18.798,17.081 C19.1980792,17.2533881 19.6632615,17.1570746 19.962,16.84 C20.1513788,16.629431 20.243231,16.3487918 20.215,16.067 L20.208,16 L35.792,16 L35.785,16.067 C35.785,16.09 35.792,16.11 35.792,16.132 C35.7959331,16.264264 35.8174554,16.3954159 35.856,16.522 C35.863,16.543 35.856,16.564 35.87,16.585 C35.892318,16.6197588 35.9166948,16.6531518 35.943,16.685 C35.9764872,16.7424642 36.0156856,16.7964039 36.06,16.846 C36.1048373,16.8924209 36.154445,16.9339841 36.208,16.97 C36.3109034,17.0521111 36.4331181,17.1065053 36.563,17.128 C36.6004389,17.1426898 36.6388677,17.1547196 36.678,17.164 C36.713,17.164 36.747,17.169 36.778,17.169 L36.79,17.169 C36.8334015,17.1633333 36.8764645,17.1553216 36.919,17.145 C37.0034229,17.1360013 37.0863954,17.1165179 37.166,17.087 C37.1747696,17.0854757 37.1834493,17.0834727 37.192,17.081 C37.4016384,16.9517954 37.6704939,16.9715463 37.859,17.13 C38.04,17.323 38.105,17.814 37.696,18.568 C37.526,18.884 37.383,19.168 37.285,19.404 C37.0064095,20.0211103 36.867112,20.6919919 36.877,21.369 C36.8875677,21.5021843 36.8503424,21.6347771 36.772,21.743 C36.5584713,21.8850318 36.3020273,21.9479933 36.047,21.921 C35.4947153,21.921 35.047,22.3687153 35.047,22.921 C35.0446718,23.9129325 34.8376896,24.8937148 34.439,25.802 C33.6509783,26.7319405 32.6551229,27.4633307 31.532,27.937 C31.2236149,28.0743098 30.9501652,28.279397 30.732,28.537 C30.0604807,29.378667 29.0727551,29.9075991 28,30 C26.9287764,29.9083791 25.9421671,29.3809101 25.271,28.541 C25.0641229,28.2930369 24.8049229,28.0939412 24.512,27.958 C23.3650743,27.4955341 22.3507839,26.7557755 21.56,25.805 C21.161182,24.8949222 20.9535579,23.912622 20.95,22.919 C20.95,22.3667153 20.5022847,21.919 19.95,21.919 C19.6953041,21.945755 19.4392547,21.8828036 19.226,21.741 C19.1488574,21.6323769 19.1133631,21.4996283 19.126,21.367 C19.1269635,20.6928316 18.9859009,20.0260213 18.712,19.41 C18.612,19.163 18.467,18.882 18.294,18.56 C17.892,17.817 17.958,17.328 18.137,17.135 L18.137,17.135 Z M23.654,29.764 C23.6933986,29.7829629 23.7276869,29.8110793 23.754,29.846 C24.8048879,31.1273606 26.3453285,31.9088276 28,32 C29.6572663,31.9082146 31.1997481,31.1244553 32.251,29.84 C32.2890011,29.7950699 32.3378926,29.7606392 32.393,29.74 C32.746,29.561 33.127,29.355 33.508,29.129 L33.963,31.859 C33.644,32.41 32.343,34 28,34 C23.631,34 22.341,32.392 22.036,31.866 L22.492,29.129 C22.886,29.362 23.282,29.576 23.654,29.764 L23.654,29.764 Z M36.793,10 L32,10 L32,3.672 C35.021,4.87 36.277,7.758 36.793,10 Z M26,2 L30,2 L30,10 L26,10 L26,2 Z M24,3.647 L24,10 L19.206,10 C19.724,7.742 20.981,4.835 24,3.647 Z M4,8 L17.7,8 C17.4741972,8.65344794 17.2937684,9.32170279 17.16,10 L17,10 C15.3465566,10.0082058 14.0082058,11.3465566 14,13 C14.0049634,14.4719627 15.0771265,15.7228902 16.531,15.953 C15.810511,17.0311936 15.8136725,18.4380554 16.539,19.513 C16.67,19.758 16.786,19.977 16.868,20.177 C17.0325855,20.5336436 17.1221047,20.9203119 17.131,21.313 C17.0906865,21.9827128 17.3271235,22.6396027 17.785,23.13 C18.1174222,23.4675714 18.538694,23.7040384 19,23.812 C19.0800865,24.8337908 19.3514618,25.8314341 19.8,26.753 C20.0343121,27.155217 20.3329332,27.5163323 20.684,27.822 L20.116,31.222 L9.126,34.608 C7.86230707,34.9928497 6.99905991,36.1590048 7,37.48 L7,38 L2,38 L2,10 C2,8.8954305 2.8954305,8 4,8 Z M11,58 L11,56 L45,56 L45,58 L11,58 Z M13.766,54 L17.266,52 L38.734,52 L42.234,54 L13.766,54 Z M38,50 L18,50 L18,48 L38,48 L38,50 Z M52,46 L4,46 C2.8954305,46 2,45.1045695 2,44 L2,40 L54,40 L54,44 C54,45.1045695 53.1045695,46 52,46 Z"></path><path d="M30,42 L26,42 C25.4477153,42 25,42.4477153 25,43 C25,43.5522847 25.4477153,44 26,44 L30,44 C30.5522847,44 31,43.5522847 31,43 C31,42.4477153 30.5522847,42 30,42 Z"></path></g></g></svg>