<svg height='100px' width='100px'  fill="#000000" xmlns:x="http://ns.adobe.com/Extensibility/1.0/" xmlns:i="http://ns.adobe.com/AdobeIllustrator/10.0/" xmlns:graph="http://ns.adobe.com/Graphs/1.0/" xmlns="http://www.w3.org/2000/svg" xmlns:xlink="http://www.w3.org/1999/xlink" version="1.1" x="0px" y="0px" viewBox="0 0 100 100" style="enable-background:new 0 0 100 100;" xml:space="preserve"><g><g i:extraneous="self"><g><path d="M82.6,2.5L71.9,4.1c-0.7,0.1-1.2,0.7-1.2,1.4v10.1c-0.6-0.2-1.3-0.3-2-0.1c-1.9,0.4-3.2,2-2.9,3.6c0.3,1.6,2.1,2.6,4,2.2     c1.7-0.3,2.9-1.6,2.9-3.1V8.1l9.5-1.4v7.1c-0.6-0.2-1.3-0.3-2-0.1c-1.9,0.4-3.2,2-2.9,3.6c0.3,1.6,2.1,2.6,4,2.2     c1.7-0.3,2.9-1.6,2.9-3.1V3.9C84.2,3,83.4,2.4,82.6,2.5z"></path><ellipse transform="matrix(0.2821 -0.9594 0.9594 0.2821 18.0809 59.6908)" cx="48.9" cy="17.8" rx="9.8" ry="9.8"></ellipse><path d="M74.1,34.2c0.3-1.8-0.5-3.6-2.2-4.5c-1.2-0.6-2.6-0.6-3.7,0l-2.5-1.9c0.3-2-0.8-3.9-2.8-4.4c-2.1-0.6-4.3,0.6-5,2.7     c-0.6,2.1,0.6,4.3,2.7,5c1,0.3,2,0.2,2.8-0.2l2.3,1.7c-1.5,2.8-3.2,5.6-4.4,7.2c-0.2-0.2-0.3-0.4-0.4-0.6     c-1.7-2.5-4.4-6.3-10.1-8l-5.4-1.6c0,0,0,0,0,0L40,28c-7.3-2.2-13.6,4.5-16.6,7.7l-0.2,0.2c-3,3.1-6.4,10.7-7.1,12.2     c-0.9,2.1,0,4.6,2.1,5.5c0.5,0.2,1.1,0.4,1.7,0.4c1.6,0,3.1-0.9,3.8-2.5c1.4-3.2,4-8.3,5.5-9.9l0.2-0.2c0.7-0.7,1.9-2,3.3-3.1     l-5.2,17.5c-0.4,1.3-0.6,2.7-0.6,4.1c-0.2,9.8-0.5,13.7-0.7,14.4C25.6,75.9,21,83.7,17,90c-1.4,2.3-0.8,5.3,1.5,6.7     c0.8,0.5,1.7,0.8,2.6,0.8c1.6,0,3.2-0.8,4.1-2.3c3.5-5.6,9.6-15.4,10.4-18.5c0.2-0.7,0.7-2.6,0.9-13.5l0.2,0.2     c3.8,4.1,7.5,9.3,7.8,10.7c0,3.2-0.9,14.2-1.2,18.2c-0.2,2.7,1.8,5,4.4,5.2c2.7,0.2,5-1.8,5.2-4.4c0-0.6,1.2-14.6,1.2-18.9     c0-4.3-4.3-10.2-7.9-14.6l5.8-18.2c0.7,0.8,1.3,1.6,2,2.6c1.4,2,3.2,4.6,6.5,5.2c0.3,0.1,0.7,0.1,1.1,0.1c2,0,5.4-1.4,10.8-11.6     l1.9,1.4c0.3,0.2,0.7,0.4,1.1,0.4c0.6,0,1.1-0.3,1.5-0.7c0.6-0.8,0.4-2-0.4-2.6L74.1,34.2z"></path></g></g></g></svg>