<svg height='100px' width='100px'  fill="#000000" xmlns="http://www.w3.org/2000/svg" data-name="Layer 2 copy" viewBox="0 0 48 48" x="0px" y="0px"><title>Insurance_expand</title><path d="M46.215.067H29.687a.75.75,0,0,0-.75.75V11.253a.75.75,0,0,0,.75.75h1.022L29,15.868a.75.75,0,0,0,1.088.936l7.56-4.8h8.566a.75.75,0,0,0,.75-.75V.817A.75.75,0,0,0,46.215.067ZM45.465,10.5H37.432a.754.754,0,0,0-.4.117l-5.657,3.592,1.174-2.656A.75.75,0,0,0,31.86,10.5H30.437V1.567H45.465Z"></path><path d="M37.516,5.381h5.467a.75.75,0,0,0,0-1.5H37.516a.75.75,0,1,0,0,1.5Z"></path><path d="M33.256,5.381h2.327a.75.75,0,0,0,0-1.5H33.256a.75.75,0,1,0,0,1.5Z"></path><path d="M42.983,7.289H40.908a.75.75,0,0,0,0,1.5h2.075a.75.75,0,0,0,0-1.5Z"></path><path d="M33.256,8.789h5.693a.75.75,0,0,0,0-1.5H33.256a.75.75,0,0,0,0,1.5Z"></path><path d="M38.562,27.854H23.96a.753.753,0,0,0-.712.513L22.7,30.01a.75.75,0,0,0,1.424.474l.376-1.13h13.02L31.789,46.567H18.77l.075-.226a2.8,2.8,0,0,0,.409-.036l4.07-.716a3.4,3.4,0,0,0,2.538-2l1.506-3.48a1.742,1.742,0,0,0-1.739-2.429L21.623,38l1.661-4.985a.751.751,0,1,0-1.424-.475l-.6,1.815-1.512.285a.75.75,0,0,0-.465.292L17.55,37.272a.666.666,0,0,1-.533.27H9.462a.2.2,0,0,1-.2-.2v-4.23a.75.75,0,0,0-1.5,0v4.23a1.7,1.7,0,0,0,1.7,1.7h7.555a2.172,2.172,0,0,0,1.739-.878l1.556-2.107.4-.076L19.842,38.6a.755.755,0,0,0,.121.7.787.787,0,0,0,.65.285l5.136-.412a.268.268,0,0,1,.216.1.238.238,0,0,1,.026.24l-1.506,3.478a1.906,1.906,0,0,1-1.421,1.123l-4.07.716a1.336,1.336,0,0,1-1.007-.234l-1.1-.806a.749.749,0,0,0-.444-.145h-.461V40.454a.75.75,0,0,0-1.5,0v3.189H3.239a.705.705,0,0,1-.7-.7V27.015a2.791,2.791,0,0,1,1.9-2.655L9.151,23l-.732,1.632a.751.751,0,0,0,.071.738.76.76,0,0,0,.671.317l1.76-.136-.359.954a.748.748,0,0,0,.062.653l5.227,8.606,0,0a.748.748,0,0,0,1.269.008c.005-.007.011,0,.016-.012l5.226-8.606a.748.748,0,0,0,.062-.653l-.358-.954,1.759.136a.751.751,0,0,0,.742-1.055L23.841,23l4.68,1.35a2.793,2.793,0,0,1,1.828,1.918.75.75,0,0,0,1.445-.4,4.3,4.3,0,0,0-2.832-2.953l-8.5-2.451V18.877a12.518,12.518,0,0,0,2.786-4.614c.016-.043.027-.088.043-.131.051.011.092.029.147.036a1.652,1.652,0,0,0,.2.012c1.173,0,2.6-1.176,3.156-3.881a1.951,1.951,0,0,0-.4-1.856,1.869,1.869,0,0,0-1.26-.513A8.588,8.588,0,0,0,23.815.516.751.751,0,0,0,23.253.26h0a.754.754,0,0,0-.561.251c-.007.008-.727.784-1.422.65A9.878,9.878,0,0,1,20.026.807a12.212,12.212,0,0,0-4.3-.74C13.8.067,9.191.473,8.1,4.224a7.76,7.76,0,0,0-.166,3.7,2.054,2.054,0,0,0-1.278.5A1.877,1.877,0,0,0,6.179,10.3C6.73,13,8.159,14.18,9.334,14.18a1.652,1.652,0,0,0,.2-.012c.056-.007.1-.025.147-.035.015.042.027.086.043.129A12.722,12.722,0,0,0,12.517,18.9v1.568L4,22.927a4.294,4.294,0,0,0-2.962,4.088V42.938a2.206,2.206,0,0,0,2.2,2.2H7.48v2.174a.75.75,0,0,0,1.5,0V45.143H16.2l.9.66a2.848,2.848,0,0,0,.284.175l-.367,1.1a.749.749,0,0,0,.711.987h14.6a.752.752,0,0,0,.712-.512l6.231-18.713a.751.751,0,0,0-.711-.988ZM12.636,24.263a.754.754,0,0,0-.657-.3l-1.674.129.735-1.639,1.67-.482,2.046,9.1L12.1,26.69l.643-1.713A.749.749,0,0,0,12.636,24.263Zm3.26-3.534a4.047,4.047,0,0,0,.59.042,3.987,3.987,0,0,0,.576-.04,5.045,5.045,0,0,0,1.9-.673v.815c-.2.459-1.1,2.323-2.535,2.323s-2.249-1.883-2.411-2.309v-.82A4.977,4.977,0,0,0,15.9,20.729Zm2.353,3.4-1.758,7.823L14.748,24.2a3.151,3.151,0,0,0,1.68.493A3.276,3.276,0,0,0,18.249,24.13Zm4.437-.036-1.673-.129a.765.765,0,0,0-.658.3.749.749,0,0,0-.1.714L20.9,26.69l-2.675,4.4,2.049-9.12,1.682.485ZM25.325,10c-.388,1.9-1.224,2.565-1.6,2.663a16.06,16.06,0,0,0,.4-2.255,7.117,7.117,0,0,0,.523-.966c.551-.058.678.053.679.054C25.346,9.512,25.4,9.653,25.325,10ZM9.538,4.644c.81-2.777,4.6-3.077,6.186-3.077a10.768,10.768,0,0,1,3.829.663,11.091,11.091,0,0,0,1.427.4,2.842,2.842,0,0,0,2.112-.515,7.742,7.742,0,0,1,.455,6c-.018.062-.039.12-.058.179a2.887,2.887,0,0,0-1.215-1.356,1.38,1.38,0,0,0-1.224.032,7.357,7.357,0,0,1-4.926.931,12.332,12.332,0,0,1-3.712-.92.757.757,0,0,0-.988.33,7.184,7.184,0,0,1-1.373,1.619c-.063.058-.126.106-.189.155A6.355,6.355,0,0,1,9.538,4.644ZM7.648,10c-.047-.234-.038-.417.025-.475a1.1,1.1,0,0,1,.7-.1,7.3,7.3,0,0,0,.473.97,15.936,15.936,0,0,0,.4,2.272C8.865,12.569,8.037,11.9,7.648,10Zm2.732.562a4.557,4.557,0,0,0,.692-.527,10.475,10.475,0,0,0,1.306-1.441,14.8,14.8,0,0,0,3.6.807,8.428,8.428,0,0,0,5.682-1.088,4.116,4.116,0,0,1,.977,1.921,14.606,14.606,0,0,1-.8,3.522,10.916,10.916,0,0,1-2.522,4.157,4.3,4.3,0,0,1-2.457,1.333,2.623,2.623,0,0,1-.761,0,4.346,4.346,0,0,1-2.493-1.371,11.354,11.354,0,0,1-2.471-4.121A14.559,14.559,0,0,1,10.38,10.561Z"></path></svg>