<svg height='100px' width='100px'  fill="#000000" xmlns="http://www.w3.org/2000/svg" xmlns:xlink="http://www.w3.org/1999/xlink" version="1.1" x="0px" y="0px" viewBox="0 0 100 100" style="enable-background:new 0 0 100 100;" xml:space="preserve"><polygon points="37.4,72.9 29.2,79.2 27.6,86.3 38.5,78 "></polygon><path d="M39.1,80.7l-10,7.6l5,4.8c0.1,0.1,0.1,0.1,0.2,0.1c0.1,0,0.2,0,0.2-0.1l5.8-6.2c0.1-0.1,0.1-0.2,0.1-0.4  L39.1,80.7z"></path><path d="M32.2,66.1l-2.1,9.3l6.8-5.2l-0.9-4.1l2.8-3.5c0.1-0.1,0.1-0.3,0.1-0.4L37,57.7c-0.1-0.1-0.2-0.2-0.3-0.2  h-5.4c-0.1,0-0.2,0.1-0.3,0.2l-1.7,4.5c-0.1,0.1,0,0.3,0.1,0.4L32.2,66.1z"></path><path d="M34,14c-10.8,0-19.6,8.8-19.6,19.6S23.2,53.3,34,53.3s19.6-8.8,19.6-19.6S44.8,14,34,14z M48.9,33.6  c0,8.2-6.6,14.8-14.8,14.8s-14.8-6.6-14.8-14.8c0-1.3,0.2-2.5,0.5-3.6c1.8,0.9,4.9,2.1,8.5,2.1c2.6,0,5.4-0.6,8-2.5  c0.3-0.2,6.8-4.9,12-0.2C48.6,30.8,48.9,32.2,48.9,33.6z"></path><path d="M65.8,78.3l0.2-5.1c0-8.7-7-15.7-15.7-15.7h-0.5l-7.7,34.1C51.3,89.7,59.5,84.9,65.8,78.3z M59.1,72.9h-7.2v-2.3h7.2V72.9z"></path><path d="M25.9,91.8l-8.4-34.3h-0.7C8.1,57.5,1,64.5,1,73.2l0.2,5.9C7.8,85.7,16.3,90.3,25.9,91.8z"></path><rect x="82.5" y="29" width="2.4" height="6.9"></rect><rect x="77.9" y="29" width="2.4" height="2.3"></rect><rect x="77.9" y="33.6" width="2.4" height="2.3"></rect><rect x="73.3" y="22" width="11.6" height="4.7"></rect><path d="M98.5,24.7C95.6,14,84.7,7.6,73.9,10.4c-10.7,2.8-17.1,13.8-14.3,24.5c1.3,5.1,4.5,9.2,8.6,11.8L63,54.8l21.2-5.6  C94.9,46.4,101.3,35.4,98.5,24.7z M87.1,38.3H71V19.7h16.2V38.3z"></path><rect x="73.3" y="29" width="2.4" height="2.3"></rect><rect x="73.3" y="33.6" width="2.4" height="2.3"></rect></svg>