<svg height='100px' width='100px'  fill="#000000" xmlns="http://www.w3.org/2000/svg" xmlns:xlink="http://www.w3.org/1999/xlink" version="1.1" x="0px" y="0px" viewBox="0 0 64 64" style="enable-background:new 0 0 64 64;" xml:space="preserve"><g><rect x="41" y="47" width="8" height="2"></rect><rect x="37" y="47" width="2" height="2"></rect><path d="M63,18c0-9.374-7.626-17-17-17c-8.349,0-15.296,6.054-16.719,14H6c-2.757,0-5,2.243-5,5v28c0,2.757,2.243,5,5,5h12.613   l-1.333,4H16c-2.757,0-5,2.243-5,5v1h32v-1c0-2.757-2.243-5-5-5h-1.28l-1.333-4H48c2.757,0,5-2.243,5-5V33.474   C58.888,30.8,63,24.877,63,18z M46,3c2.52,0,4.91,3.138,6.143,7.928c-2.052-0.242-3.952-1.152-5.436-2.635L46,7.586l-0.707,0.707   c-1.484,1.483-3.384,2.393-5.436,2.635C41.09,6.138,43.48,3,46,3z M60.949,17h-5.986c-0.014-0.46-0.018-0.924-0.051-1.373   C54.964,15.108,55,14.585,55,14.056v-1.298c0-0.57-0.277-1.073-0.7-1.394c-0.027-0.122-0.054-0.243-0.082-0.363h5.038   C60.217,12.812,60.806,14.845,60.949,17z M37.026,19c0.063,2.139,0.322,4.16,0.752,6h-5.034c-0.961-1.812-1.55-3.845-1.693-6   H37.026z M38.336,27c0.658,2.023,1.528,3.762,2.566,5.089c-2.759-1.002-5.137-2.785-6.874-5.089H38.336z M39,14.056v-1.058   c2.591-0.055,5.037-0.981,7-2.64c1.963,1.659,4.409,2.585,7,2.64v1.058c0,4.967-2.669,9.449-7,11.816   C41.669,23.505,39,19.023,39,14.056z M37.7,11.363c-0.422,0.321-0.7,0.824-0.7,1.394v1.298c0,0.53,0.036,1.052,0.087,1.571   c-0.033,0.449-0.037,0.913-0.051,1.373h-5.986c0.143-2.155,0.732-4.188,1.693-6h5.038C37.754,11.12,37.726,11.241,37.7,11.363z    M46,35c0.338,0,0.667-0.031,1-0.051V43H7V21h22.281C30.704,28.946,37.651,35,46,35z M46,33c-3.118,0-5.834-4.642-6.705-10.808   c1.479,2.395,3.618,4.383,6.258,5.702L46,28.118l0.447-0.224c2.64-1.32,4.779-3.307,6.258-5.702C51.834,28.358,49.118,33,46,33z    M54.974,19h5.975c-0.143,2.155-0.732,4.188-1.693,6h-5.034C54.652,23.16,54.911,21.139,54.974,19z M57.972,9h-4.309   c-0.665-2.047-1.542-3.776-2.573-5.092C53.852,4.909,56.233,6.694,57.972,9z M40.911,3.908C39.879,5.224,39.003,6.953,38.338,9   h-4.309C35.767,6.694,38.148,4.909,40.911,3.908z M40.829,61H13.171c0.413-1.164,1.525-2,2.829-2h22   C39.304,59,40.416,59.836,40.829,61z M34.613,57H19.387l1.333-4H33.28L34.613,57z M51,48c0,1.654-1.346,3-3,3H6   c-1.654,0-3-1.346-3-3V20c0-1.654,1.346-3,3-3h23.051C29.031,17.333,29,17.662,29,18s0.031,0.667,0.051,1H7c-1.103,0-2,0.897-2,2   v22c0,1.103,0.897,2,2,2h40c1.103,0,2-0.897,2-2v-8.281c0.68-0.122,1.35-0.271,2-0.471V48z M51.098,32.089   c1.038-1.327,1.908-3.066,2.566-5.089h4.308C56.235,29.304,53.857,31.087,51.098,32.089z"></path><polygon points="51.707,15.707 50.293,14.293 45,19.586 43.707,18.293 42.293,19.707 45,22.414  "></polygon><path d="M12,29c1.302,0,2.402-0.839,2.816-2H28v-2H14.816c-0.414-1.161-1.514-2-2.816-2c-1.654,0-3,1.346-3,3S10.346,29,12,29z    M12,25c0.552,0,1,0.449,1,1s-0.448,1-1,1s-1-0.449-1-1S11.448,25,12,25z"></path><path d="M18,29c-1.654,0-3,1.346-3,3s1.346,3,3,3c1.302,0,2.402-0.839,2.816-2H33v-2H20.816C20.402,29.839,19.302,29,18,29z M18,33   c-0.552,0-1-0.449-1-1s0.448-1,1-1s1,0.449,1,1S18.552,33,18,33z"></path><path d="M12,41c1.302,0,2.402-0.839,2.816-2H28v-2H14.816c-0.414-1.161-1.514-2-2.816-2c-1.654,0-3,1.346-3,3S10.346,41,12,41z    M12,37c0.552,0,1,0.449,1,1s-0.448,1-1,1s-1-0.449-1-1S11.448,37,12,37z"></path><rect x="32" y="39" width="8" height="2"></rect><rect x="32" y="35" width="8" height="2"></rect></g></svg>