<svg height='100px' width='100px'  fill="#000000" xmlns="http://www.w3.org/2000/svg" xmlns:xlink="http://www.w3.org/1999/xlink" version="1.1" x="0px" y="0px" viewBox="0 0 128 128" style="enable-background:new 0 0 128 128;" xml:space="preserve"><g><path d="M22.6,107c4.8,0,9.6-1.6,13.4-4.6L49,92h29l3.3,2.4l10.9,8.2c0,0,0,0,0,0l0,0c0,0,0,0,0,0c0.9,0.7,1.9,1.3,2.9,1.8   c3.1,1.6,6.6,2.5,10.1,2.5c2.9,0,5.8-0.6,8.5-1.7c0.6-0.2,1.1-0.5,1.6-0.8c0.4-0.2,0.7-0.4,1-0.6c0.1,0,0.1-0.1,0.2-0.1   c3.9-2.4,6.9-5.9,8.6-10c0-0.1,0.1-0.1,0.1-0.2c1.1-2.6,1.7-5.4,1.7-8.3V42.8c0-12-9.8-21.8-21.8-21.8c-4.7,0-9.3,1.5-13,4.4L78,36   H49L35.9,25.6c-3.8-3-8.5-4.6-13.4-4.6C10.7,21,1,30.7,1,42.6v42.9C1,97.3,10.7,107,22.6,107z M105.2,101c-2.5,0-5.1-0.6-7.3-1.8   c-0.8-0.4-1.5-0.8-2.1-1.4l-6.2-4.7l4.7-4.7l12.4,12.4C106.2,101,105.7,101,105.2,101z M121,66.8l-2.5-2.5l2.5-2.5V66.8z M121,41.8   c0,0.3,0,0.6,0,1v10.5l-6.7,6.7l-5.8-5.8L121,41.8z M119.1,35.2L104.2,50l-5.8-5.8l14.9-14.9C115.8,30.8,117.7,32.8,119.1,35.2z    M95.8,30.1c2.7-2,6.1-3.1,9.5-3.1c0.6,0,1.3,0,1.9,0.1L94.3,40l-5-5L95.8,30.1z M82,40.5l2.4-1.8l7.7,7.7c0,0,0,0,0,0s0,0,0,0   l10,10c0,0,0,0,0,0s0,0,0,0L121,75.2v10c0,0.5,0,1-0.1,1.4L82,47.8V40.5z M82,56.2l36.9,36.9c-1.4,2.4-3.3,4.4-5.8,5.8L82,67.8   V56.2z M82,81v-0.3l2.3-2.3l5.8,5.8l-5.3,5.3l-2.7-2V81z M52,42h24v36H52V42z M46,41.2v6l-2.2,2.2L38,43.7l4.9-4.9L46,41.2z    M31.7,30c0.2,0.1,0.3,0.2,0.5,0.3l6,4.7l-4.4,4.4L28,33.7L31.7,30z M7,42.6C7,34,14,27,22.6,27c1.1,0,2.2,0.1,3.3,0.4l-4.3,4.3   c-1,1-1.2,2.6-0.4,3.8c0.1,0.2,0.2,0.3,0.4,0.5L46,60.2v11.5L16.7,42.5c-1.2-1.2-3.1-1.2-4.2,0c-1.2,1.2-1.2,3.1,0,4.2L46,80.2V81   v5.8L43.2,89L16.1,61.9c0,0-0.1-0.1-0.1-0.1c0,0-0.1-0.1-0.1-0.1c-1.2-1.2-3.1-1.2-4.2,0L7,66.3V42.6z M7,85.4V74.7   c0,0,0.1-0.1,0.2-0.1l6.6-6.6l24.7,24.7l-6.3,4.9c-2.7,2.2-6.2,3.3-9.6,3.3c-0.6,0-1.2,0-1.7-0.1l7.5-7.5c1.2-1.2,1.2-3.1,0-4.2   c-1.2-1.2-3.1-1.2-4.2,0l-9.6,9.6c-2.4-1.4-4.3-3.5-5.6-5.9l9.5-9.5c1.2-1.2,1.2-3.1,0-4.2c-1.2-1.2-3.1-1.2-4.2,0L7,86.2   C7,86,7,85.7,7,85.4z"></path></g></svg>