<svg height='100px' width='100px'  fill="#000000" xmlns="http://www.w3.org/2000/svg" xmlns:xlink="http://www.w3.org/1999/xlink" version="1.1" x="0px" y="0px" viewBox="0 0 200 200" enable-background="new 0 0 200 200" xml:space="preserve"><g><g><path fill="#000000" d="M171.698,123.19H28.299V35.556h143.399V123.19z M35.386,116.104h129.227V42.643H35.386V116.104z"></path><g><g><polygon fill="#000000" points="117.336,122.152 82.028,86.835 58.734,110.129 52.549,103.943 34.349,122.152 29.337,117.142       52.547,93.922 58.734,100.107 82.028,76.814 122.35,117.142     "></polygon><polygon fill="#000000" points="165.648,122.152 143.997,100.498 122.35,122.152 117.336,117.142 143.997,90.477       170.662,117.142     "></polygon></g><path fill="#000000" d="M116.486,81.694c-7.861,0-14.26-6.396-14.26-14.258c0-7.856,6.398-14.248,14.26-14.248     c7.856,0,14.248,6.392,14.248,14.248C130.734,75.297,124.343,81.694,116.486,81.694z M116.486,60.275     c-3.955,0-7.173,3.213-7.173,7.161c0,3.956,3.218,7.171,7.173,7.171c3.949,0,7.161-3.216,7.161-7.171     C123.647,63.488,120.436,60.275,116.486,60.275z"></path></g></g><g><polygon fill="#000000" points="188.739,140.229 11.26,140.229 11.26,18.515 76.766,18.515 76.766,25.602 18.347,25.602     18.347,133.143 181.652,133.143 181.652,25.602 123.232,25.602 123.232,18.515 188.739,18.515   "></polygon><path fill="#000000" d="M198.034,155.726H1.966v-22.577h196.068V155.726z M9.053,148.639h181.895v-8.403H9.053V148.639z"></path><path fill="#000000" d="M126.775,31.909H73.222V12.224h53.553V31.909z M80.309,24.822h39.38v-5.512h-39.38V24.822z"></path><rect x="96.456" y="155.281" fill="#000000" width="7.087" height="42.944"></rect><rect x="96.456" fill="#000000" width="7.087" height="15.767"></rect><rect x="114.709" y="171.658" transform="matrix(0.4999 0.8661 -0.8661 0.4999 222.4074 -34.7522)" fill="#000000" width="53.172" height="7.089"></rect><rect x="55.159" y="148.615" transform="matrix(0.866 0.5 -0.5 0.866 95.4704 -5.8775)" fill="#000000" width="7.086" height="53.174"></rect></g></g></svg>