<svg height='100px' width='100px'  fill="#000000" xmlns="http://www.w3.org/2000/svg" xmlns:xlink="http://www.w3.org/1999/xlink" version="1.1" x="0px" y="0px" viewBox="0 0 100 100" enable-background="new 0 0 100 100" xml:space="preserve"><g><path d="M73.3,7.3c-1.6,0-3.3,0.2-5,0.6l-2.6,0.6l15.9,15.9c0.3,0.3,0.4,0.7,0.4,1.1s-0.2,0.8-0.4,1.1l-9.2,9.2   c-0.6,0.6-1.6,0.6-2.1,0L54.2,19.7l-0.7,2.4c-0.5,1.9-0.8,3.8-0.8,5.7c0,7.7,4.4,14.8,11.2,18.3v46.6h19V46.1   c6.8-3.5,11.1-10.6,11.1-18.3C93.9,16.5,84.7,7.3,73.3,7.3z M80.7,43.8l-0.9,0.4v45.5h-13V44.3L66,43.9c-6.3-2.9-10.3-9.1-10.3-16   c0-0.8,0.1-1.5,0.2-2.3l12.3,12.3c0.8,0.8,2,1.3,3.2,1.3c1.2,0,2.3-0.5,3.2-1.3l9.2-9.2c0.8-0.8,1.3-2,1.3-3.2s-0.5-2.3-1.3-3.2   l-12-12c0.5,0,1-0.1,1.5-0.1c9.7,0,17.6,7.9,17.6,17.6C90.9,34.7,86.9,40.9,80.7,43.8z"></path><path d="M31.2,36.4c-13.9,0-25.2,11.3-25.2,25.2c0,13.9,11.3,25.2,25.2,25.2c13.9,0,25.2-11.3,25.2-25.2   C56.4,47.7,45.1,36.4,31.2,36.4z M41.2,42.6c2.8,1.5,5.3,3.6,7.2,6.1l-5.8,4.3c-1.3-1.7-2.9-3.1-4.8-4.1L41.2,42.6z M31.2,40.2   c0.3,0,0.5,0,0.8,0l-0.3,7.2c-0.2,0-0.3,0-0.5,0c-2.2,0-4.3,0.5-6.1,1.4L22,42.3C24.9,40.9,28,40.2,31.2,40.2z M14.3,74.8   c-2-2.5-3.4-5.5-4-8.6l7-1.5c0.5,2.1,1.4,4.1,2.7,5.7L14.3,74.8z M17.4,58.3l-7-1.7c0.7-3.1,2.2-6,4.2-8.5l5.6,4.5   C18.8,54.3,17.9,56.2,17.4,58.3z M30.9,83.1c-3.2-0.1-6.3-0.8-9.2-2.3l3.2-6.4c1.8,0.9,3.9,1.5,6.1,1.5L30.9,83.1z M21.9,61.6   c0-5.2,4.2-9.4,9.4-9.4c5.2,0,9.4,4.2,9.4,9.4c0,5.2-4.2,9.4-9.4,9.4C26.1,71,21.9,66.8,21.9,61.6z M40.1,81.1l-3-6.6   c1.9-0.9,3.7-2.2,5-3.8l5.5,4.6C45.6,77.8,43,79.8,40.1,81.1z M52.7,61.6c0,1.8-0.2,3.6-0.7,5.3l-7-1.8c0.3-1.1,0.5-2.3,0.5-3.5   c0-0.9-0.1-1.9-0.3-2.8l7.1-1.4C52.5,58.8,52.7,60.2,52.7,61.6z"></path></g></svg>