<svg height='100px' width='100px'  fill="#000000" xmlns="http://www.w3.org/2000/svg" xmlns:xlink="http://www.w3.org/1999/xlink" version="1.1" x="0px" y="0px" viewBox="0 0 64 64" enable-background="new 0 0 64 64" xml:space="preserve"><g><g><path d="M11.891,7.912h12.092l-1.646,6.882H21.16c-0.276,0-0.5,0.224-0.5,0.5v3.783c0,0.276,0.224,0.5,0.5,0.5h21.68    c0.276,0,0.5-0.224,0.5-0.5v-3.783c0-0.276-0.224-0.5-0.5-0.5h-1.177l-1.646-6.882h12.092c1.315,0,2.386-1.073,2.386-2.392V4.892    c0-1.319-1.07-2.392-2.386-2.392H11.891c-1.315,0-2.386,1.073-2.386,2.392v0.629C9.505,6.839,10.576,7.912,11.891,7.912z     M42.34,18.577H21.66v-2.783h1.071h18.537c0.007-0.001,0.013,0,0.02,0h1.051V18.577z M40.635,14.794h-17.27l1.646-6.882h13.978    L40.635,14.794z M10.505,4.892c0-0.767,0.622-1.392,1.386-1.392h40.218c0.764,0,1.386,0.625,1.386,1.392v0.629    c0,0.767-0.622,1.392-1.386,1.392H39.383H24.617H11.891c-0.764,0-1.386-0.625-1.386-1.392V4.892z"></path><path d="M52.115,54.825H43.34V41.139c0-0.276-0.224-0.5-0.5-0.5h-2.816l1.646-6.869h1.17c0.276,0,0.5-0.224,0.5-0.5v-3.783    c0-0.276-0.224-0.5-0.5-0.5H21.16c-0.276,0-0.5,0.224-0.5,0.5v3.783c0,0.276,0.224,0.5,0.5,0.5h1.17l1.646,6.869H21.16    c-0.276,0-0.5,0.224-0.5,0.5v13.686h-8.775c-1.337,0-2.385,0.776-2.385,1.767v3.159c0,0.981,1.048,1.749,2.385,1.749H24.61    c0.276,0,0.5-0.224,0.5-0.5V48.081c0-0.767,0.622-1.392,1.385-1.392h11.009c0.764,0,1.385,0.625,1.385,1.392V61    c0,0.276,0.224,0.5,0.5,0.5h12.725c1.337,0,2.385-0.768,2.385-1.749v-3.159C54.5,55.602,53.452,54.825,52.115,54.825z     M21.66,29.987h20.68v2.783h-1.065h-18.55H21.66V29.987z M53.5,59.751c0,0.346-0.605,0.749-1.385,0.749H39.89V48.081    c0-1.319-1.07-2.392-2.385-2.392H26.496c-1.315,0-2.385,1.073-2.385,2.392V60.5H11.885c-0.78,0-1.385-0.403-1.385-0.749v-3.159    c0-0.362,0.592-0.767,1.385-0.767h9.275c0.276,0,0.5-0.224,0.5-0.5V41.639h2.95c0.153,0,0.298-0.07,0.393-0.19    s0.129-0.277,0.094-0.426l-1.738-7.252h17.282l-1.738,7.252c-0.036,0.149-0.001,0.306,0.094,0.426s0.239,0.19,0.393,0.19h2.95    v13.686c0,0.276,0.224,0.5,0.5,0.5h9.275c0.793,0,1.385,0.405,1.385,0.767V59.751z"></path></g></g></svg>