<svg height='100px' width='100px'  fill="#000000" xmlns="http://www.w3.org/2000/svg" xmlns:xlink="http://www.w3.org/1999/xlink" version="1.1" x="0px" y="0px" viewBox="0 0 64 64" style="enable-background:new 0 0 64 64;" xml:space="preserve"><style type="text/css">
	.st0{display:none;}
	.st1{display:inline;}
</style><g><path d="M59,57V36h2c0.55,0,1-0.45,1-1v-4c0-0.55-0.45-1-1-1H33v-8h14c0.34,0,0.66-0.17,0.84-0.46s0.21-0.65,0.07-0.96l-8.28-18   C39.47,2.23,39.12,2,38.72,2H25.28c-0.39,0-0.75,0.23-0.91,0.58l-8.28,18c-0.14,0.31-0.12,0.67,0.07,0.96S16.66,22,17,22h14v8H3   c-0.55,0-1,0.45-1,1v4c0,0.55,0.45,1,1,1h2v21c0,0.55,0.45,1,1,1h0.38l-1.28,2.55c-0.25,0.49-0.05,1.09,0.45,1.34   C5.7,61.97,5.85,62,6,62c0.37,0,0.72-0.2,0.9-0.55L8.62,58h46.76l1.72,3.45C57.28,61.8,57.63,62,58,62c0.15,0,0.3-0.03,0.45-0.11   c0.49-0.25,0.69-0.85,0.45-1.34L57.62,58H58C58.55,58,59,57.55,59,57z M25.92,4h12.17l7.36,16H18.56L25.92,4z M7,56v-9h50v9H7z    M4,32h56v2h-2H6H4V32z M57,36v9H7v-9H57z"></path><path d="M29,40h6c0.55,0,1-0.45,1-1s-0.45-1-1-1h-6c-0.55,0-1,0.45-1,1S28.45,40,29,40z"></path><path d="M35,49h-6c-0.55,0-1,0.45-1,1s0.45,1,1,1h6c0.55,0,1-0.45,1-1S35.55,49,35,49z"></path></g></svg>