<svg height='100px' width='100px'  fill="#000000" xmlns="http://www.w3.org/2000/svg" xmlns:xlink="http://www.w3.org/1999/xlink" version="1.1" x="0px" y="0px" viewBox="0 0 512 512" style="enable-background:new 0 0 512 512;" xml:space="preserve"><g><g><g><path d="M163.128,320.148c-19.944,0-36.17-16.226-36.17-36.17s16.226-36.17,36.17-36.17s36.17,16.226,36.17,36.17     S183.072,320.148,163.128,320.148z M163.128,267.809c-8.916,0-16.17,7.254-16.17,16.17s7.254,16.17,16.17,16.17     s16.17-7.254,16.17-16.17S172.044,267.809,163.128,267.809z"></path></g><g><path d="M161,391c-6.141,0-12.333-0.543-18.405-1.615c-25.413-4.486-48.649-18.337-65.427-39.001     C60.293,329.601,51,303.108,51,275.787V170.574c0-5.523,4.477-10,10-10h182.914c5.523,0,10,4.477,10,10s-4.477,10-10,10H71     v95.213c0,46.731,31.572,86.223,75.072,93.902c12.429,2.192,25.266,1.606,37.315-1.656C223.196,357.253,251,319.319,251,275.787     v-72.299c0-5.523,4.477-10,10-10c5.522,0,10,4.477,10,10v72.299c0,52.544-33.878,98.415-82.386,111.551     C179.636,389.768,170.346,391,161,391z"></path></g><g><path d="M131,145.681H91c-5.523,0-10-4.477-10-10V51c0-16.542,13.458-30,30-30s30,13.458,30,30v84.681     C141,141.204,136.523,145.681,131,145.681z M101,125.681h20V51c0-5.514-4.486-10-10-10s-10,4.486-10,10V125.681z"></path></g><g><path d="M231,145.681h-40c-5.523,0-10-4.477-10-10V51c0-16.542,13.458-30,30-30s30,13.458,30,30v84.681     C241,141.204,236.523,145.681,231,145.681z M201,125.681h20V51c0-5.514-4.486-10-10-10s-10,4.486-10,10V125.681z"></path></g><g><path d="M266.106,180.574H41c-5.523,0-10-4.477-10-10v-34.894c0-5.523,4.477-10,10-10h240c5.522,0,10,4.477,10,10     s-4.478,10-10,10H51v14.894h215.106c5.522,0,10,4.477,10,10S271.629,180.574,266.106,180.574z"></path></g><g><path d="M189.298,215.468H61c-5.523,0-10-4.477-10-10s4.477-10,10-10h128.298c5.523,0,10,4.477,10,10     S194.821,215.468,189.298,215.468z"></path></g><g><path d="M261,215.468h-36.809c-5.523,0-10-4.477-10-10s4.477-10,10-10H261c5.522,0,10,4.477,10,10S266.522,215.468,261,215.468z"></path></g><g><path d="M401,491h-11.428c-5.522,0-10-4.478-10-10s4.478-10,10-10H401c11.028,0,20-8.972,20-20s-8.972-20-20-20h-50     c-22.056,0-40-17.944-40-40s17.944-40,40-40h130c5.522,0,10,4.478,10,10s-4.478,10-10,10H351c-11.028,0-20,8.972-20,20     s8.972,20,20,20h50c22.056,0,40,17.944,40,40S423.056,491,401,491z M339.572,491H61c-22.056,0-40-17.944-40-40s17.944-40,40-40     h70c11.028,0,20-8.972,20-20v-10c0-5.522,4.477-10,10-10s10,4.478,10,10v10c0,22.056-17.944,40-40,40H61     c-11.028,0-20,8.972-20,20s8.972,20,20,20h278.572c5.522,0,10,4.478,10,10S345.095,491,339.572,491z"></path></g></g></g></svg>