<svg height='100px' width='100px'  fill="#000000" xmlns="http://www.w3.org/2000/svg" xmlns:xlink="http://www.w3.org/1999/xlink" version="1.1" x="0px" y="0px" viewBox="-346 256 100 100" enable-background="new -346 256 100 100" xml:space="preserve"><g><path d="M-246.202,303.901c-0.074-0.443-0.321-0.836-0.689-1.093l-19.052-13.397c-0.463-0.322-1.049-0.395-1.578-0.19   l-11.127,4.311c-0.652,0.249-1.077,0.881-1.08,1.568v2.546l-11.701-1.545l-1.312-9.783c-0.265-3.184-2.928-5.69-6.176-5.69h-32.323   c-3.246,0-5.91,2.506-6.175,5.69l-1.782,13.453l-6.802,4.111l0.016,19.854h3.482l-0.008,6.497c0,2.793,2.259,5.057,5.05,5.057   c2.791,0,5.049-2.264,5.049-5.057l-0.004-6.497h34.676l-0.006,6.497c0,2.793,2.261,5.057,5.046,5.057   c2.791,0,5.052-2.264,5.052-5.057l-0.008-6.497h3.481l0.016-19.854l-6.78-4.1l-0.239-1.787l11.448,1.512l-0.002,7.54   c0.002,0.55,0.271,1.065,0.719,1.383l18.852,13.131c0.757,0.525,1.8,0.345,2.336-0.41l11.339-15.99   c0.16-0.228,0.26-0.487,0.294-0.758C-246.168,304.237-246.171,304.066-246.202,303.901z M-337.585,314.971   c-2.337,0-4.23-1.897-4.23-4.237c0-2.337,1.893-4.234,4.23-4.234c2.334,0,4.229,1.897,4.229,4.234   C-333.356,313.073-335.251,314.971-337.585,314.971z M-329.515,316.591l0.007-7.615c0-1.053,0.857-1.91,1.909-1.91h24.993   c1.055,0,1.908,0.857,1.908,1.91l0.007,7.615H-329.515z M-333.745,299.038l0.755-12.482c0.138-1.653,1.52-1.624,3.207-1.624h29.419   c1.687,0,3.069-0.029,3.212,1.624l0.753,12.482H-333.745z M-288.342,310.733c0,2.34-1.894,4.237-4.229,4.237   c-2.334,0-4.229-1.897-4.229-4.237c0-2.337,1.895-4.234,4.229-4.234C-290.235,306.499-288.342,308.396-288.342,310.733z    M-259.606,317.842l-16.755-11.674v-6.225l2.631,0.343c0.217,1.105,1.104,2,2.283,2.154c1.472,0.19,2.82-0.849,3.012-2.324   c0.189-1.472-0.85-2.82-2.323-3.011c-1.12-0.146-2.17,0.427-2.688,1.355l-2.913-0.377l0.003-1.826l9.213-3.57l16.932,11.902   L-259.606,317.842z"></path></g></svg>