<svg height='100px' width='100px'  fill="#000000" xmlns="http://www.w3.org/2000/svg" data-name="Layer 104" viewBox="0 0 100 100" x="0px" y="0px"><path d="M22.51,88.69a18.31,18.31,0,0,0,10.74-3.47.91.91,0,0,0,.17-.09l.5-.41c.2-.15.4-.31.59-.48l6.67-5.41a18.49,18.49,0,0,0,34.16-3.64l7.83-13.35L84,60.41l2-3.36L91.82,56a1,1,0,0,0,.81-.81l.86-5a1,1,0,0,0-.19-.77,1,1,0,0,0-.68-.39l-1.78-.22,3.53-6a5,5,0,0,0,.32-.53A10.59,10.59,0,0,0,96,37.1,10.72,10.72,0,0,0,85.29,26.39a10.59,10.59,0,0,0-2.58.31,10.7,10.7,0,0,0-9.62-15.39,10.87,10.87,0,0,0-2.91.4l-.31.09-.74.23V10.91a1,1,0,0,0-.8-1L64,9a1,1,0,0,0-1,.43L59.26,15l-21.1,6.43A18.47,18.47,0,0,0,23.62,48.41c-3.22,1.88-7.47,4.33-7.89,4.55l-.05,0a18.5,18.5,0,0,0,6.83,35.7Zm16.9-11A16.09,16.09,0,0,0,40,76.13c.09.28.19.55.3.82ZM36.43,58a18.44,18.44,0,0,0,3.59.36A18.24,18.24,0,0,0,43.56,58,18.19,18.19,0,0,0,40,64.19,18.67,18.67,0,0,0,36.43,58ZM74,71.38a15.61,15.61,0,0,1-.53,3.14A16.51,16.51,0,1,1,48.79,56.17L49,56l.66-.38,0,0,.59-.29.31-.16.55-.23.39-.17.52-.18.45-.16L53,54.3l.46-.13.55-.12.44-.1.56-.08.45-.07c.2,0,.41,0,.61-.06l.41,0q.51,0,1,0A16.53,16.53,0,0,1,74,70.18C74,70.58,74,71,74,71.38Zm11.3-43a8.72,8.72,0,0,1,7.64,12.9c-.06.1-.12.22-.24.39l-4,6.84-5.76-.72a1,1,0,1,0-.25,2l8.67,1.07-.56,3.28L78.42,56.39a1,1,0,0,0,.18,2l.18,0,4.62-.84-1.1,1.87c-.29.48-.58,1-.85,1.44L76,70.05A18.52,18.52,0,0,0,54,52L79.22,30.8l0,0a1.66,1.66,0,0,0,.21-.16,6.38,6.38,0,0,0,.64-.52h0A8.67,8.67,0,0,1,85.29,28.39ZM57.54,17.65l-2,3A1,1,0,0,0,55.84,22a1,1,0,0,0,.55.17,1,1,0,0,0,.84-.45l7-10.63,2.88.6v6.74a1,1,0,1,0,2,0V14.12l1.45-.45.11,0a8.91,8.91,0,0,1,2.4-.33A8.71,8.71,0,0,1,81.79,22a8.62,8.62,0,0,1-2.43,6L58.91,45.28l-1.69,1.43A18.52,18.52,0,0,0,44,21.78Zm-34,22.22A16.41,16.41,0,0,1,38.38,23.44h.1A13,13,0,0,1,40,23.36,16.53,16.53,0,0,1,56.53,39.87c0,.5,0,1-.07,1.5,0,.17-.05.34-.07.51s-.07.65-.13,1-.09.38-.13.58-.12.58-.2.87-.13.39-.2.59-.16.55-.27.82-.16.38-.24.58-.22.52-.34.78-.21.38-.31.56-.25.5-.4.74-.24.37-.37.56-.29.46-.45.68l-.44.55-.48.59L48.62,54c-.23.12-.47.26-.75.44A16.52,16.52,0,0,1,23.51,39.87Zm1.12,10.27A19.13,19.13,0,0,0,26.1,52a18.44,18.44,0,0,0-3.59-.36l-.57,0Zm-2.12,3.53a16.49,16.49,0,0,1,10.75,29l-.65.53a16.5,16.5,0,1,1-10.1-29.54Z"></path><path d="M22.51,84.31c5.33,0,8.49-3.38,10.4-5.93l.11-.15c1.7-2.27,3.62-4.83,3.62-8,0-4.75-2.43-8.54-7.23-11.28-.34-.2-.7-.41-1.06-.64-1.7-1-3.63-2.21-5.84-2.21C15,56.05,9.35,62.12,9.35,70.18a17.18,17.18,0,0,1-.15,1.89,8.14,8.14,0,0,0,.22,4.12C11.37,81,16.75,84.31,22.51,84.31Zm-11.33-12a18,18,0,0,0,.17-2.13c0-7,4.69-12.13,11.16-12.13,1.64,0,3.25,1,4.8,1.92l1.11.67c4.19,2.39,6.22,5.51,6.22,9.54,0,2.55-1.64,4.74-3.22,6.85l-.11.15c-2.66,3.55-5.38,5.13-8.8,5.13-5,0-9.59-2.83-11.24-6.88A6.57,6.57,0,0,1,11.18,72.31Z"></path><path d="M22.62,80.11c3.77,0,6-2.38,7.32-4.16l.08-.1c1.12-1.5,2.52-3.37,2.52-5.67,0-3.35-1.7-6-5.07-8l-.72-.42a8,8,0,0,0-4.13-1.56c-5.29,0-9.28,4.27-9.28,9.93a9.26,9.26,0,0,1-.1,1.25,5.77,5.77,0,0,0,.18,3C14.79,77.76,18.57,80.11,22.62,80.11Zm-7.39-8.44a11.86,11.86,0,0,0,.11-1.49c0-4.59,3.06-7.93,7.28-7.93a6.52,6.52,0,0,1,3.09,1.26l.77.46c2.73,1.56,4.06,3.59,4.06,6.21,0,1.63-1.08,3.07-2.12,4.47l-.08.1c-1.74,2.32-3.51,3.36-5.72,3.36-3.2,0-6.29-1.88-7.35-4.48A4.22,4.22,0,0,1,15.23,71.67Z"></path><path d="M22.72,75.78a5.16,5.16,0,0,0,4.21-2.39,5.42,5.42,0,0,0,1.39-3.21,5,5,0,0,0-2.86-4.51l-.35-.22a4.61,4.61,0,0,0-2.39-.87,5.33,5.33,0,0,0-5.26,5.6,5.65,5.65,0,0,1,0,.59,3.39,3.39,0,0,0,.12,1.76A5.62,5.62,0,0,0,22.72,75.78ZM19.4,71a7.36,7.36,0,0,0,.06-.82,3.33,3.33,0,0,1,3.26-3.6,3.15,3.15,0,0,1,1.35.58l.4.24a3.08,3.08,0,0,1,1.85,2.78,3.86,3.86,0,0,1-1,2.06,3.1,3.1,0,0,1-2.57,1.54,3.63,3.63,0,0,1-3.33-2A2,2,0,0,1,19.4,71Z"></path><path d="M64.43,58.9c-.35-.2-.7-.41-1.06-.64-1.71-1-3.64-2.21-5.84-2.21-7.51,0-13.16,6.07-13.16,14.13a15.06,15.06,0,0,1-.16,1.89,8.14,8.14,0,0,0,.23,4.12c2,4.78,7.33,8.12,13.09,8.12,5.33,0,8.49-3.38,10.4-5.93l.11-.15c1.69-2.26,3.62-4.83,3.62-8C71.66,65.43,69.23,61.64,64.43,58.9Zm2,18.13-.11.15c-2.66,3.55-5.38,5.13-8.8,5.13-5,0-9.59-2.83-11.24-6.88a6.44,6.44,0,0,1-.09-3.12,18,18,0,0,0,.17-2.13c0-7,4.69-12.13,11.16-12.13,1.64,0,3.25,1,4.8,1.92l1.11.67c4.19,2.39,6.22,5.51,6.22,9.54C69.66,72.73,68,74.92,66.44,77Z"></path><path d="M62.49,62.23c-.24-.13-.48-.28-.72-.43a8.15,8.15,0,0,0-4.14-1.55c-5.28,0-9.27,4.27-9.27,9.93a11.24,11.24,0,0,1-.1,1.25,5.77,5.77,0,0,0,.18,3c1.37,3.37,5.15,5.72,9.19,5.72,3.78,0,6-2.38,7.33-4.16l.08-.11c1.12-1.5,2.52-3.37,2.52-5.66C67.56,66.83,65.86,64.15,62.49,62.23Zm.95,12.41-.08.11c-1.74,2.32-3.51,3.36-5.73,3.36-3.19,0-6.28-1.88-7.34-4.48a4.22,4.22,0,0,1,0-2,14.09,14.09,0,0,0,.11-1.49c0-4.59,3.06-7.93,7.27-7.93a6.55,6.55,0,0,1,3.1,1.26l.77.46c2.73,1.56,4.06,3.59,4.06,6.21C65.56,71.81,64.48,73.25,63.44,74.64Z"></path><path d="M60.48,65.67l-.35-.22a4.61,4.61,0,0,0-2.39-.87,5.32,5.32,0,0,0-5.26,5.6,3.81,3.81,0,0,1,0,.59,3.4,3.4,0,0,0,.13,1.76,5.62,5.62,0,0,0,5.18,3.25,5.12,5.12,0,0,0,4.2-2.39,5.37,5.37,0,0,0,1.4-3.21A5,5,0,0,0,60.48,65.67Zm-.17,6.57a3.1,3.1,0,0,1-2.57,1.54,3.62,3.62,0,0,1-3.33-2,2,2,0,0,1,0-.78,7.36,7.36,0,0,0,.06-.82,3.33,3.33,0,0,1,3.26-3.6,3.07,3.07,0,0,1,1.34.58l.41.24a3.09,3.09,0,0,1,1.85,2.78A3.94,3.94,0,0,1,60.31,72.24Z"></path><path d="M40,54c5.33,0,8.49-3.39,10.4-5.94l.11-.14c1.7-2.27,3.62-4.84,3.62-8.06,0-4.74-2.43-8.54-7.23-11.28-.34-.19-.7-.41-1.06-.63-1.7-1-3.63-2.22-5.84-2.22-7.51,0-13.16,6.08-13.16,14.13a15.38,15.38,0,0,1-.16,1.9,8.11,8.11,0,0,0,.23,4.11C28.88,50.65,34.26,54,40,54ZM28.69,42a18,18,0,0,0,.17-2.13c0-7,4.69-12.13,11.16-12.13,1.64,0,3.25,1,4.8,1.93l1.11.66c4.19,2.39,6.22,5.51,6.22,9.54,0,2.56-1.64,4.74-3.22,6.86l-.11.14C46.16,50.41,43.44,52,40,52c-5,0-9.59-2.83-11.24-6.89A6.43,6.43,0,0,1,28.69,42Z"></path><path d="M40.12,49.79c3.78,0,6-2.37,7.33-4.16l.08-.1c1.12-1.5,2.52-3.37,2.52-5.67,0-3.35-1.7-6-5.07-7.94l-.72-.43a8.07,8.07,0,0,0-4.14-1.56c-5.28,0-9.27,4.27-9.27,9.93a10.87,10.87,0,0,1-.1,1.25,5.77,5.77,0,0,0,.18,3C32.3,47.44,36.08,49.79,40.12,49.79Zm-7.38-8.44a14.09,14.09,0,0,0,.11-1.49c0-4.59,3.06-7.93,7.27-7.93a6.53,6.53,0,0,1,3.1,1.27l.77.45c2.73,1.56,4.06,3.6,4.06,6.21,0,1.63-1.08,3.08-2.12,4.47l-.08.1c-1.74,2.33-3.51,3.36-5.73,3.36-3.19,0-6.28-1.88-7.34-4.48A4.22,4.22,0,0,1,32.74,41.35Z"></path><path d="M40.23,45.46a5.12,5.12,0,0,0,4.2-2.39,5.34,5.34,0,0,0,1.4-3.21A5,5,0,0,0,43,35.35l-.35-.21a4.62,4.62,0,0,0-2.39-.88A5.32,5.32,0,0,0,35,39.86a5.65,5.65,0,0,1,0,.59,3.39,3.39,0,0,0,.12,1.76A5.6,5.6,0,0,0,40.23,45.46Zm-3.32-4.77a7.54,7.54,0,0,0,.06-.83,3.33,3.33,0,0,1,3.26-3.6,3.15,3.15,0,0,1,1.35.58l.4.25a3.06,3.06,0,0,1,1.85,2.77,3.87,3.87,0,0,1-1,2.07,3.08,3.08,0,0,1-2.56,1.53,3.63,3.63,0,0,1-3.33-2A2,2,0,0,1,36.91,40.69Z"></path></svg>