<svg height='100px' width='100px'  fill="#000000" xmlns="http://www.w3.org/2000/svg" xmlns:xlink="http://www.w3.org/1999/xlink" version="1.1" x="0px" y="0px" viewBox="0 0 67 67" enable-background="new 0 0 67 67" xml:space="preserve"><g><path d="M53.00293,27.91993h-4.28027v-4.8219c0.42841-0.18652,0.72998-0.61218,0.72998-1.10828v-6.60449   C50.16077,15.31159,50.7168,14.72235,50.7168,14v-0.43018h6.12012v2.0625h2v-6.125h-2v2.0625H50.7168v-0.33008   c0-0.77734-0.63281-1.40967-1.41016-1.40967h-0.58008V1.5H12.27686v8.33008h-0.58008c-0.77734,0-1.41016,0.63232-1.41016,1.40967   v0.33008H4.16699v-2.0625h-2v6.125h2v-2.0625h6.11963V14c0,0.72101,0.55408,1.30933,1.26025,1.38483v6.60492   c0,0.49951,0.302,0.92908,0.73145,1.11353v13.46021c0,4.26758,3.47217,7.73975,7.73975,7.73975s7.73975-3.47217,7.73975-7.73975   v-1.99365h5.48486v1.99023c0,4.48336,3.90564,8.28853,8.74609,7.67578c3.83887-0.48682,6.73389-3.88525,6.73389-7.9043v-1.61182   h3.1001c3.42432,0,6.20996,2.78564,6.20996,6.20996s-2.78564,6.20996-6.20996,6.20996H34.46289v-1.96973H31.4248V43.5625h2.57813   v-2h-7.15625v2h2.57813v1.60742h-3.12207v1.96973h-0.7998c-1.53857,0-2.79004,1.25146-2.79004,2.79004v3.1001   c0,1.60168,1.10242,2.93988,2.58466,3.32672l-0.11884,0.15521c-0.65381,0.854-2.78564,3.7666-2.78564,5.4082   c0,1.97412,1.60596,3.58007,3.57959,3.58007c1.97949,0,3.59033-1.60595,3.59033-3.58007c0-1.64258-2.14111-4.55566-2.79736-5.40967   l-0.05786-0.07532c1.31122-0.20911,2.37909-1.15765,2.75708-2.40515h22.43799c7.12988,0,12.93018-5.80029,12.93018-12.93018V39.75   C64.83301,33.22705,59.52588,27.91993,53.00293,27.91993z M12.28662,11.83008h15.45996v1.56982H12.28662V11.83008z    M26.48682,15.39991v5.79785H13.54688v-5.79785H26.48682z M27.75781,23.10138c0.42792-0.18518,0.729-0.61334,0.729-1.11163   v-6.60492c0.70612-0.0755,1.25977-0.66382,1.25977-1.38483v-0.43018h1.51025V14c0,0.71948,0.55176,1.30701,1.25586,1.3844v6.60535   c0,0.49872,0.30151,0.92737,0.72998,1.1123v4.96777h-5.48486V23.10138z M48.7168,13.39991H33.25684v-1.56982H48.7168V13.39991z    M34.5127,15.39991h12.93994v5.79981H34.5127V15.39991z M14.27686,3.5h32.44971v6.33008H32.66699   c-0.77734,0-1.41016,0.63232-1.41016,1.40967v0.33008h-1.51025v-0.33008c0-0.77734-0.63232-1.40967-1.40967-1.40967H14.27686V3.5z    M25.75781,36.56348c0,3.16504-2.57471,5.73975-5.73975,5.73975s-5.73975-2.57471-5.73975-5.73975V23.19971h11.47949   C25.75781,23.38112,25.75781,36.76406,25.75781,36.56348z M27.75781,32.56983v-2.5h5.48486v2.5H27.75781z M27.56299,61.91993   c0,0.87109-0.71338,1.58008-1.59033,1.58008c-0.87109,0-1.57959-0.70898-1.57959-1.58008c0-0.50049,0.7251-1.82324,1.58154-3.08887   C26.83447,60.09717,27.56299,61.41993,27.56299,61.91993z M62.83301,41.09961c0,6.02686-4.90332,10.93018-10.93018,10.93018   H27.61279v1c0,0.7998-0.65039,1.4502-1.44971,1.4502c-0.7998,0-1.4502-0.65039-1.4502-1.4502v-3.1001   c0-0.43555,0.35449-0.79004,0.79004-0.79004h2.7998v-1.96973h4.16016v1.96973h19.35986c4.52686,0,8.20996-3.68311,8.20996-8.20996   s-3.68311-8.20996-8.20996-8.20996h-5.1001v3.61182c0,3.01465-2.14355,5.55957-4.98584,5.91992   c-3.55119,0.44865-6.49414-2.31186-6.49414-5.69141c0-0.23058,0-8.90955,0-8.49023v-4.87012h11.47998v6.72021h6.28027   c5.42041,0,9.83008,4.40967,9.83008,9.83008V41.09961z"></path></g></svg>