<svg height='100px' width='100px'  fill="#000000" xmlns="http://www.w3.org/2000/svg" xmlns:xlink="http://www.w3.org/1999/xlink" version="1.1" x="0px" y="0px" viewBox="0 0 66 66" enable-background="new 0 0 66 66" xml:space="preserve"><g><g><path d="M35.064,48.386v1.337c0,0.414,0.336,0.75,0.75,0.75h15.55c0.414,0,0.75-0.336,0.75-0.75c0-13.65,0.271-13.807-0.75-13.807    c-2.107,0-13.465,0-15.55,0c-0.414,0-0.75,0.336-0.75,0.75c0,4.321,0,7.5,0,11.705C35.064,48.375,35.064,48.38,35.064,48.386z     M36.564,42.657l5.233-5.242h3.918l-9.151,9.151V42.657z M50.614,44.595l-4.378,4.377h-3.918l8.296-8.296V44.595z M48.358,48.972    l2.256-2.256v2.256H48.358z M50.614,38.555L40.197,48.972h-3.633v-0.285l11.272-11.272h2.778V38.555z M39.677,37.415l-3.113,3.119    v-3.119H39.677z"></path></g><g><path d="M37.73,9.881c0-2.613-2.127-4.74-4.74-4.74c-2.613,0-4.74,2.126-4.74,4.74c0,2.613,2.126,4.74,4.74,4.74    C35.603,14.621,37.73,12.495,37.73,9.881z M29.75,9.881c0-1.787,1.453-3.24,3.24-3.24c1.787,0,3.24,1.453,3.24,3.24    c0,1.787-1.453,3.24-3.24,3.24C31.203,13.121,29.75,11.668,29.75,9.881z"></path></g><g><path d="M61.761,57.995h-0.627V30.842c2.126-1.002,3.808-3.121,3.851-6.49c0.008-0.043,0.026-0.083,0.026-0.128    c0-0.168-0.055-0.323-0.148-0.448l-3.978-8.948c-0.121-0.271-0.389-0.445-0.686-0.445c-18.124,0-3.391-0.002-20.317-0.002    c0.796-1.715,1.348-3.321,1.348-4.5c0-4.543-3.696-8.239-8.239-8.239c-4.543,0-8.24,3.696-8.24,8.239    c0,1.179,0.552,2.785,1.348,4.5c-21.751,0-20.694-0.243-21.002,0.448L1.054,23.92c-0.001,0.002,0,0.004-0.001,0.006    c-0.04,0.092-0.063,0.192-0.063,0.298v0.313c0,2.728,1.572,5.09,3.854,6.244v27.212H4.22c-1.754,0-3.182,1.427-3.182,3.182    s1.427,3.182,3.182,3.182h57.542c1.754,0,3.182-1.427,3.182-3.182S63.515,57.995,61.761,57.995z M25.724,46.955H15.256v-9.54    h10.468V46.955z M25.724,48.455v9.537H15.256v-9.537H25.724z M52.503,24.975h10.953C62.821,31.875,52.906,31.571,52.503,24.975z     M17.242,15.881h9.481l-0.666,7.59H15.219C16.695,17.929,16.268,19.531,17.242,15.881z M39.255,15.881h9.483    c0.267,1,0.014,0.051,2.025,7.59H39.93C39.525,18.924,39.668,20.523,39.255,15.881z M37.941,18.04l0.483,5.432h-3.979    C35.299,22.248,36.659,20.227,37.941,18.04z M27.562,23.472l0.475-5.435c1.283,2.188,2.643,4.211,3.497,5.435H27.562z     M25.966,25.012c-0.57,6.644-10.381,6.663-10.953,0H25.966z M38.466,25.012c-0.57,6.644-10.381,6.663-10.953,0H38.466z     M50.966,25.012c-0.57,6.644-10.381,6.663-10.953,0H50.966z M63.086,23.475H52.321l-2.029-7.591h9.42L63.086,23.475z M32.99,3.142    c3.716,0,6.739,3.023,6.739,6.739c0,2.912-4.415,9.765-6.739,13.057c-2.325-3.291-6.74-10.144-6.74-13.057    C26.25,6.166,29.274,3.142,32.99,3.142z M6.269,15.884h9.418c-0.897,3.37-0.47,1.769-2.024,7.591H2.894L6.269,15.884z     M2.507,24.975h10.966C12.944,31.674,3.036,31.681,2.507,24.975z M14.24,27.673c2.593,5.148,9.909,5.144,12.5,0    c2.593,5.148,9.909,5.144,12.5,0c2.577,5.117,9.819,5.145,12.456,0.091c1.417,2.927,4.802,4.283,7.938,3.584v26.644h-32.41V36.665    c0-0.414-0.336-0.75-0.75-0.75H14.506c-0.414,0-0.75,0.336-0.75,0.75v10.29h-1.613c-0.414,0-0.75,0.336-0.75,0.75v2.018    c0,0.414,0.336,0.75,0.75,0.75c0.414,0,0.75-0.336,0.75-0.75v-1.268h0.863v9.537H6.344V31.334    C9.597,32.123,12.805,30.522,14.24,27.673z M61.761,62.858H4.22c-0.927,0-1.682-0.754-1.682-1.682    c0-0.927,0.754-1.682,1.682-1.682h10.287h11.968h35.287c0.927,0,1.682,0.754,1.682,1.682    C63.443,62.104,62.688,62.858,61.761,62.858z"></path></g></g></svg>