<svg height='100px' width='100px'  fill="#000000" xmlns="http://www.w3.org/2000/svg" xmlns:xlink="http://www.w3.org/1999/xlink" version="1.1" x="0px" y="0px" viewBox="0 0 100 100" style="enable-background:new 0 0 100 100;" xml:space="preserve"><g><path d="M84.0114288,12.7821655c0.6203613,0,1.125,0.5046387,1.125,1.125s-0.5046387,1.125-1.125,1.125H53.636425v3h30.3750038   c2.2749023,0,4.125-1.8504639,4.125-4.125s-1.8500977-4.125-4.125-4.125H14.7426271   c-1.3410645,0-2.6015625,0.5910645-3.4592285,1.621582s-1.2092285,2.3770752-0.9660645,3.6947021l3.4599609,18.7503662   c0.394043,2.1342773,2.255126,3.6833496,4.425292,3.6833496h24.5324707c2.170166,0,4.03125-1.5490723,4.425293-3.6837158   l3.4599609-18.7496338c0.1450195-0.7862549,0.0783691-1.5831299-0.1809082-2.3166504H84.0114288z M42.7350578,34.5321655   H18.2025871c-0.7229004,0-1.3439941-0.5167236-1.4750977-1.2279053l-0.4654083-2.5220947H44.675518l-0.4653625,2.5217285   C44.079052,34.0154419,43.4579582,34.5321655,42.7350578,34.5321655z M47.6701164,14.5542603l-2.4410248,13.2279053H15.7085085   l-2.440979-13.2282715c-0.1113281-0.6013184,0.1538086-1.0294189,0.3215332-1.2312012   c0.168457-0.2017822,0.5412598-0.5405273,1.1535645-0.5405273h31.4523926c0.6123047,0,0.9851074,0.3387451,1.1535645,0.5405273   C47.5163078,13.5244751,47.7814445,13.9525757,47.6701164,14.5542603z"></path><path d="M25.1605949,52.4076538c0,2.4727936-1.6146698,4.5725098-3.84375,5.3092346V43.5449829h-3v14.3103333   c-2.4840994-0.5700073-4.3439932-2.7936401-4.3439932-5.4476624v-8.8626709h-3v8.8626709   c0,4.3127289,3.1972046,7.8834229,7.3439932,8.4920197v28.3015594h3V60.8211212   c3.9023438-0.8105164,6.84375-4.2745514,6.84375-8.4134674v-8.8626709h-3V52.4076538z"></path><path d="M41.3053703,42.8132935c-1.0986328-0.1911621-2.1313477,0.416748-2.5012207,1.4725342l-7.1008301,20.2207031   c-0.4833984,1.3743896-0.2687988,2.9047852,0.5734863,4.0935059c0.8422852,1.1883545,2.2148438,1.8980713,3.6716309,1.8980713   h1.8208008v-3h-1.8208008c-0.4929199,0-0.9389648-0.2307129-1.223877-0.6328125s-0.3544922-0.8994141-0.1911621-1.364502   l5.6433105-16.0697021v39.7701416h3v-44.170166C43.1767082,43.9130249,42.4069328,43.0011597,41.3053703,42.8132935z"></path><path d="M70.5443878,51.789856c-10.5944862,0-19.2143593,8.6195068-19.2143593,19.2139893   s8.619873,19.2139893,19.2143593,19.2139893s19.213623-8.6195068,19.213623-19.2139893S81.1388702,51.789856,70.5443878,51.789856z    M70.5443878,87.2178345c-8.9406776,0-16.2143593-7.2736816-16.2143593-16.2139893S61.6037102,54.789856,70.5443878,54.789856   c8.9399414,0,16.213623,7.2736816,16.213623,16.2139893S79.4843292,87.2178345,70.5443878,87.2178345z"></path><path d="M70.5443878,59.3330688v3c5.0544434,0,9.1662598,4.1118164,9.1662598,9.1658936h3   C82.7106476,64.7907104,77.2526398,59.3330688,70.5443878,59.3330688z"></path><path d="M76.8666534,22.5321655H64.2506866c-1.3007851,0-2.5378456,0.5625-3.3925819,1.5435791   s-1.2429199,2.2825928-1.0649414,3.5712891l2.1723633,15.7496338c0.3054199,2.21521,2.2214394,3.885498,4.4575233,3.885498   h8.2712402c2.236084,0,4.1520996-1.6702881,4.4575195-3.8851318l2.1723633-15.75   c0.1779785-1.2886963-0.2102051-2.5905762-1.0649414-3.5712891C79.4044952,23.0946655,78.1681671,22.5321655,76.8666534,22.5321655   z M78.352005,27.2368774l-2.1723633,15.7503662c-0.1018066,0.7382812-0.7404785,1.2949219-1.4853516,1.2949219h-8.2712402   c-0.744873,0-1.3835449-0.5566406-1.4853516-1.2952881l-2.1723671-15.75   c-0.0600586-0.435791,0.065918-0.8583984,0.3544922-1.1901855c0.2893066-0.3317871,0.6906738-0.5145264,1.1308632-0.5145264   h12.6159668c0.4401855,0,0.8415527,0.1827393,1.1308594,0.5145264   C78.286087,26.3781128,78.4120636,26.8007202,78.352005,27.2368774z"></path></g></svg>