<svg height='100px' width='100px'  fill="#000000" xmlns="http://www.w3.org/2000/svg" xmlns:xlink="http://www.w3.org/1999/xlink" version="1.1" x="0px" y="0px" viewBox="0 0 1024 1024" style="enable-background:new 0 0 1024 1024;" xml:space="preserve"><g><path d="M908.3,777H115.7c-25.3,0-45.9-20.6-45.9-45.9V159.7c0-25.3,20.6-45.9,45.9-45.9h20v0.1h772.6c25.3,0,45.9,20.6,45.9,45.9   v571.3C954.2,756.4,933.6,777,908.3,777z M114.6,153.9c-2.7,0.5-4.8,2.9-4.8,5.8v571.4c0,3.3,2.6,5.9,5.9,5.9h792.6   c3.3,0,5.9-2.6,5.9-5.9V159.8c0-3.3-2.6-5.9-5.9-5.9H114.6z"></path><path d="M610,910.1H414V737h196V910.1z M454,870.1h116V777H454V870.1z"></path><rect x="345.6" y="870.2" width="332.8" height="40"></rect><rect x="89.8" y="616.9" width="844.5" height="40"></rect><polygon points="214,436.3 185.8,408.1 311.8,282 352.1,322.3 449.7,224.7 477.9,252.9 352.1,378.9 311.8,338.6  "></polygon><polygon points="483.8,319.4 443.8,319.4 443.8,258.8 383.3,258.8 383.3,218.8 483.8,218.8  "></polygon><rect x="209.9" y="468.1" width="40" height="63.8"></rect><rect x="311.9" y="419.4" width="40" height="112.5"></rect><rect x="413.8" y="370.8" width="40" height="161.1"></rect><path d="M689.7,538.5c-78.2,0-141.9-63.7-141.9-141.9s63.7-141.9,141.9-141.9h20v121.9h121.9v20   C831.6,474.8,767.9,538.5,689.7,538.5z M669.7,296.7c-46.6,9.3-81.9,50.6-81.9,99.9c0,56.2,45.7,101.9,101.9,101.9   c49.3,0,90.6-35.3,99.9-81.9H669.7V296.7z"></path><path d="M863.9,356H730.4V222.5h20c62.6,0,113.5,50.9,113.5,113.5V356z M770.4,316h50.7c-6.9-24.5-26.3-43.8-50.7-50.7V316z"></path><rect x="189.9" y="511.9" width="283.9" height="40"></rect></g></svg>