<svg height='100px' width='100px'  fill="#000000" xmlns="http://www.w3.org/2000/svg" xmlns:xlink="http://www.w3.org/1999/xlink" version="1.1" x="0px" y="0px" viewBox="0 0 64 64" style="enable-background:new 0 0 64 64;" xml:space="preserve"><g><path d="M24.061,52.475l2.232,2.232C26.48,54.895,26.734,55,27,55h13c0.197,0,0.391-0.059,0.555-0.168l0.92-0.613   C43.056,53.165,44,51.401,44,49.5s-0.944-3.665-2.525-4.719l-0.57-0.38C40.968,43.998,41,43.587,41,43.171v-0.343   c0-2.091-0.814-4.057-2.293-5.536C37.606,36.192,37,34.728,37,33.171V29c0-0.404-0.243-0.769-0.617-0.924s-0.804-0.069-1.09,0.217   l-3.232,3.232C30.731,32.854,30,34.621,30,36.5s0.731,3.646,2.061,4.975l0.232,0.233C32.749,42.163,33,42.769,33,43.414v0.172   c0,0.645-0.251,1.251-0.707,1.707C31.837,45.749,31.23,46,30.586,46h-0.172c-0.645,0-1.251-0.251-1.707-0.708   C28.251,44.837,28,44.231,28,43.586V41c0-0.404-0.243-0.769-0.617-0.924s-0.803-0.07-1.09,0.217l-2.232,2.232   C22.731,43.854,22,45.621,22,47.5S22.731,51.146,24.061,52.475z M25.475,43.939L26,43.414v0.172c0,1.18,0.459,2.288,1.293,3.122   S29.235,48,30.414,48h0.172c1.179,0,2.287-0.459,3.121-1.292S35,44.766,35,43.586v-0.172c0-1.18-0.459-2.288-1.293-3.121   l-0.232-0.232C32.523,39.109,32,37.845,32,36.5s0.523-2.609,1.475-3.561L35,31.414v1.757c0,2.091,0.814,4.057,2.293,5.536   C38.394,39.808,39,41.272,39,42.829v0.343c0,1.557-0.606,3.021-1.707,4.122l-1,1l1.414,1.414l1-1   c0.677-0.677,1.214-1.456,1.599-2.302l0.06,0.04C41.389,47.127,42,48.27,42,49.5s-0.611,2.373-1.635,3.055L39.697,53H27.414   l-1.939-1.939C24.523,50.109,24,48.845,24,47.5S24.523,44.891,25.475,43.939z"></path><path d="M55.053,6.999C55.584,6.971,56,6.532,56,6V5c0-2.206-1.794-4-4-4H33c-1.654,0-3,1.346-3,3v1.812   C29.093,6.338,28.338,7.093,27.812,8H25V6h-2v4.051C16.299,10.565,11,16.169,11,23v17h-1c-0.521,0-0.953,0.398-0.996,0.917l-1,12   c-0.023,0.279,0.071,0.554,0.26,0.76C8.453,53.883,8.721,54,9,54h6c0.279,0,0.547-0.117,0.736-0.323   c0.188-0.206,0.283-0.481,0.26-0.76l-1-12C14.953,40.398,14.521,40,14,40h-1V23c0-5.728,4.402-10.442,10-10.949V16h2v-2h2.812   c0.061,0.105,0.122,0.209,0.188,0.31V19h-5c-2.757,0-5,2.243-5,5v34c0,2.757,2.243,5,5,5h20c2.757,0,5-2.243,5-5V24   c0-2.757-2.243-5-5-5h-5v-4h17c0.553,0,1-0.448,1-1v-3c0-0.507-0.38-0.934-0.883-0.993l-16.919-1.99   c-0.025-0.043-0.051-0.084-0.077-0.127L55.053,6.999z M13.913,52h-3.826l0.833-10h2.16L13.913,52z M32,4c0-0.551,0.448-1,1-1h19   c1.103,0,2,0.897,2,2v0.051L36.283,5.984C35.339,5.364,34.212,5,33,5c-0.341,0-0.674,0.035-1,0.09V4z M33,7c2.206,0,4,1.794,4,4   s-1.794,4-4,4s-4-1.794-4-4S30.794,7,33,7z M25,12v-2h2.09C27.035,10.326,27,10.659,27,11s0.035,0.674,0.09,1H25z M46,24v34   c0,1.654-1.346,3-3,3H23c-1.654,0-3-1.346-3-3V24c0-1.654,1.346-3,3-3h20C44.654,21,46,22.346,46,24z M30,19v-2.812   C30.884,16.701,31.907,17,33,17s2.116-0.299,3-0.812V19H30z M54,11.889V13H38.65c0.223-0.627,0.35-1.298,0.35-2   c0-0.301-0.03-0.595-0.073-0.884L54,11.889z"></path><rect x="32" y="10" width="2" height="2"></rect></g></svg>