<svg height='100px' width='100px'  fill="#000000" xmlns="http://www.w3.org/2000/svg" data-name="Layer 1" viewBox="0 0 64 64" x="0px" y="0px"><title>pharmacy drugstore medical store</title><path d="M57.9927,24.9636a.99.99,0,0,0-.062-.3075c-.0082-.0222-.0134-.0445-.0231-.066-.0055-.0122-.007-.0253-.0131-.0374l-6-12A1,1,0,0,0,51,12H42a1,1,0,0,0,0,2h8.3818l5,10H8.6182l5-10H22a1,1,0,0,0,0-2H13a1,1,0,0,0-.8945.5527l-6,12c-.0061.0121-.0077.0254-.0132.0376-.01.0213-.0147.0436-.0228.0656a.9874.9874,0,0,0-.0621.3075C6.0069,24.9763,6,24.9871,6,25v2a5.997,5.997,0,0,0,11,3.31,5.9913,5.9913,0,0,0,10,0,5.9913,5.9913,0,0,0,10,0,5.9913,5.9913,0,0,0,10,0A5.997,5.997,0,0,0,58,27V25C58,24.9871,57.9932,24.9764,57.9927,24.9636ZM12,31a4.0042,4.0042,0,0,1-4-4V26h8v1A4.0042,4.0042,0,0,1,12,31Zm10,0a4.0042,4.0042,0,0,1-4-4V26h8v1A4.0042,4.0042,0,0,1,22,31Zm10,0a4.0042,4.0042,0,0,1-4-4V26h8v1A4.0042,4.0042,0,0,1,32,31Zm10,0a4.0042,4.0042,0,0,1-4-4V26h8v1A4.0042,4.0042,0,0,1,42,31Zm14-4a4,4,0,0,1-8,0V26h8Z"></path><path d="M25,21H39a1,1,0,0,0,1-1V6a1,1,0,0,0-1-1H25a1,1,0,0,0-1,1V20A1,1,0,0,0,25,21ZM26,7H38V19H26Z"></path><path d="M35,12H33V10a1,1,0,0,0-2,0v2H29a1,1,0,0,0,0,2h2v2a1,1,0,0,0,2,0V14h2a1,1,0,0,0,0-2Z"></path><path d="M52,34a1,1,0,0,0-1,1V57H29V40a1,1,0,0,0-1-1H18a1,1,0,0,0-1,1V57H13V35a1,1,0,0,0-2,0V58a1,1,0,0,0,1,1H52a1,1,0,0,0,1-1V35A1,1,0,0,0,52,34ZM19,57V41h8V57Z"></path><path d="M46,53a1,1,0,0,0,1-1V40a1,1,0,0,0-1-1H34a1,1,0,0,0-1,1V52a1,1,0,0,0,1,1ZM35,41H45V51H35Z"></path></svg>