<svg height='100px' width='100px'  fill="#000000" xmlns="http://www.w3.org/2000/svg" xmlns:xlink="http://www.w3.org/1999/xlink" version="1.1" x="0px" y="0px" viewBox="0 0 100 100" enable-background="new 0 0 100 100" xml:space="preserve"><path d="M72.454,21.682l3.039-5.263l-3.465-2l-1.884,3.263l-1.884-3.263l-3.465,2l1.884,3.264H43.866l2.918-5.055l-3.464-2  L40.334,17.8l-2.987-5.172l-3.464,2l4.141,7.172L2.32,83.641l1.732,3H25.67l1.732-1l12.931-22.396  c3.879,6.718,12.931,22.396,12.931,22.396l1.732,1h22.441l19.636-19.319l0.33-2.426L72.454,21.682z M56.15,82.641L42.125,58.25  l-3.524-0.006L24.515,82.641H7.517L40.334,25.8l32.817,56.841H56.15z M77.056,81.402L43.73,23.682h25.259l24.176,41.873  L77.056,81.402z"></path></svg>