<svg height='100px' width='100px'  fill="#000000" xmlns="http://www.w3.org/2000/svg" data-name="Layer 1" viewBox="0 0 128 128" x="0px" y="0px"><title>miscellaneous 264 final</title><path d="M126,74H115.85156A22.03376,22.03376,0,0,0,95,59a2.00252,2.00252,0,0,0-1.52441,3.29492c.47168.55859,4.47852,5.55859.22656,9.18359a2.01533,2.01533,0,0,0-.35156,2.65234c.05176.0752,5.085,7.56836.11621,13.585a2.00044,2.00044,0,0,0,.01367,2.585c.49023.582,4.46094,5.56348.22168,9.17773a2.0035,2.0035,0,0,0,1.29926,3.52142A22.00727,22.00727,0,0,0,114,92.06995V116a6.00656,6.00656,0,0,0-6,6v2H73v-2a5.99842,5.99842,0,0,0-3-5.18823V101H82a2,2,0,0,0,0-4H46a2,2,0,0,0,0,4H58v15.81177A5.99842,5.99842,0,0,0,55,122v2H20v-2a6.00656,6.00656,0,0,0-6-6V92.06995A22.00815,22.00815,0,0,0,33,103a1.96905,1.96905,0,0,0,1.71277-1.07434,2.04507,2.04507,0,0,0-.41492-2.44714c-4.24414-3.61914-.25781-8.6084.21973-9.1748a2.0012,2.0012,0,0,0,.01563-2.58789c-4.93359-5.97363-.08887-13.28125.11621-13.585a2.04968,2.04968,0,0,0-.35156-2.65228c-4.252-3.625-.24512-8.625.22168-9.17773A2.00055,2.00055,0,0,0,33,59,22.03376,22.03376,0,0,0,12.14844,74H2a2.0001,2.0001,0,0,0-2,2V86a2.0001,2.0001,0,0,0,2,2h8v28a6.00656,6.00656,0,0,0-6,6v2H2a2,2,0,0,0,0,4H126a2,2,0,0,0,0-4h-2v-2a6.00656,6.00656,0,0,0-6-6V88h8a2.0001,2.0001,0,0,0,2-2V76A2.0001,2.0001,0,0,0,126,74Zm-14.2901.3468a35.354,35.354,0,0,0-12.82233-3.19208,8.40852,8.40852,0,0,0,.72375-2.812,10.77016,10.77016,0,0,0-.89062-4.95605A18.05645,18.05645,0,0,1,111.7099,74.3468ZM99.1488,98.498a8.47941,8.47941,0,0,0,.46252-2.15527,11.08365,11.08365,0,0,0-1.11523-5.4668,35.67539,35.67539,0,0,0,13.21826-3.23413A18.05084,18.05084,0,0,1,99.1488,98.498Zm-.53357-11.63086a15.66932,15.66932,0,0,0-.26855-11.75391C107.3916,75.73828,113,78.8125,113,81,113,83.166,107.502,86.2002,98.61523,86.86719ZM28.38867,96.34277A8.47941,8.47941,0,0,0,28.8512,98.498a18.05084,18.05084,0,0,1-12.56555-10.8562A35.67539,35.67539,0,0,0,29.50391,90.876,11.08365,11.08365,0,0,0,28.38867,96.34277Zm.89063-32.95605a10.76983,10.76983,0,0,0-.89062,4.95605,8.40852,8.40852,0,0,0,.72375,2.812A35.354,35.354,0,0,0,16.2901,74.3468,18.05656,18.05656,0,0,1,29.2793,63.38672Zm.374,11.72656a15.66932,15.66932,0,0,0-.26855,11.75391C20.498,86.2002,15,83.166,15,81,15,78.8125,20.6084,75.73828,29.65332,75.11328ZM4,84V78h7.2099a21.54374,21.54374,0,0,0,0,6Zm12,40H8v-2a2.00261,2.00261,0,0,1,2-2h4a2.00261,2.00261,0,0,1,2,2Zm46-23h4v15H62Zm7,23H59v-2a2.00261,2.00261,0,0,1,2-2h6a2.00261,2.00261,0,0,1,2,2Zm51-2v2h-8v-2a2.00261,2.00261,0,0,1,2-2h4A2.00261,2.00261,0,0,1,120,122Zm4-38h-6.51886a1.99642,1.99642,0,0,0-.631-.47089A21.4865,21.4865,0,0,0,116.7901,78H124Z"></path><path d="M64,74a6,6,0,1,0,6,6A6.0068,6.0068,0,0,0,64,74Zm0,8a2,2,0,1,1,2-2A2,2,0,0,1,64,82Z"></path><path d="M42,82V78H37.11517a8.80134,8.80134,0,0,0-.75354,4Z"></path><path d="M86,82h5.64557a8.76026,8.76026,0,0,0-.75769-4H86Z"></path><path d="M12,4H32v8H24a4.004,4.004,0,0,0-4,4V58.49768a25.8895,25.8895,0,0,1,4-1.89008V16h8v2a2,2,0,0,0,4,0V16H92v2a2,2,0,0,0,4,0V16h8V56.6076a25.88949,25.88949,0,0,1,4,1.89008V16a4.004,4.004,0,0,0-4-4H96V4h20a2,2,0,0,0,0-4H12a2,2,0,0,0,0,4ZM36,4H92v8H36Z"></path><path d="M73.61963,68.35138l-1.28632-2.95013A4,4,0,0,0,68.66669,63H59.33331a4,4,0,0,0-3.66663,2.40125l-1.28632,2.95013H50a4,4,0,0,0-4,4V89a4,4,0,0,0,4,4H78a4,4,0,0,0,4-4V72.35138a4,4,0,0,0-4-4ZM78,89H50V72.35138h7L59.33331,67h9.33337L71,72.35138h7Z"></path></svg>