<svg height='100px' width='100px'  fill="#000000" xmlns="http://www.w3.org/2000/svg" xmlns:xlink="http://www.w3.org/1999/xlink" version="1.1" x="0px" y="0px" viewBox="0 0 100 100" style="enable-background:new 0 0 100 100;" xml:space="preserve"><path d="M89.2900391,10.03125c-0.5351562-0.1376953-1.0805664,0.1835938-1.2177734,0.71875  c-5.515625,21.390625-34.027832,38.1845703-38.0717773,40.4726562C45.9609375,48.9345703,17.4838867,32.140625,11.9682617,10.75  c-0.1381836-0.5351562-0.6826172-0.8564453-1.2177734-0.71875c-0.5351562,0.1386719-0.8569336,0.6835938-0.71875,1.21875  c3.2133789,12.4619141,13.8007812,23.2275391,22.1171875,30.0634766  c7.7410278,6.3640747,15.0023193,10.5983276,16.8916016,11.6635742v3.4975586h-8.0600586  c-0.026001,0-0.050293,0.0080566-0.0759888,0.0100708c-0.0325317,0.0024414-0.0631714,0.007019-0.09552,0.0126953  c-0.1154785,0.0203247-0.227417,0.0531006-0.3275757,0.1107178c-0.0003052,0.0001831-0.0006104,0.0001221-0.0009155,0.0003052  c-0.0001221,0.000061-0.0001221,0.0001831-0.0002441,0.0002441c-0.1014404,0.0585327-0.1868286,0.1403809-0.2628174,0.2317505  c-0.0194092,0.0233765-0.0372925,0.0458984-0.0543823,0.0707397c-0.0152588,0.0220947-0.0351562,0.039917-0.0487671,0.0634766  l-9.1005859,15.7626953c-0.0134888,0.0234985-0.0189209,0.0495605-0.0303955,0.0737915  c-0.0130005,0.0272827-0.0234985,0.0540771-0.0340576,0.0826416c-0.0408325,0.1110229-0.0687866,0.2252808-0.0689697,0.3418579  c0,0.0006104-0.0003662,0.0010986-0.0003662,0.001709s0.0003662,0.0010986,0.0003662,0.001709  c0.0001831,0.1165771,0.0281372,0.230835,0.0689697,0.3418579c0.0105591,0.0285645,0.0209961,0.0552368,0.0339966,0.0825195  c0.0114746,0.024231,0.0169067,0.050415,0.0304565,0.0739136L40.1142578,89.5  c0.0136108,0.0235596,0.0335083,0.0413818,0.0487671,0.0634766c0.0170898,0.0248413,0.0349731,0.0473633,0.0543823,0.0707397  c0.0759888,0.0913696,0.161377,0.1732178,0.2628174,0.2317505c0.0001221,0.000061,0.0001221,0.0001831,0.0002441,0.0002441  c0.0067139,0.0039062,0.0141602,0.0048828,0.0209351,0.008606c0.0698853,0.038208,0.1431885,0.0701904,0.2207642,0.0909424  C40.8071899,89.9884644,40.8936157,90,40.9794922,90c0.0001831,0,0.0003052-0.000061,0.0004883-0.000061  S40.9802856,90,40.9804688,90h18.2011719c0.0001831,0,0.0003052-0.000061,0.0004883-0.000061S59.1824341,90,59.1826172,90  c0.0859375,0,0.1725464-0.0115356,0.2576294-0.0343018c0.0766602-0.0205078,0.1491699-0.0523682,0.2183838-0.0900269  c0.0074463-0.0040283,0.015625-0.005188,0.0230103-0.0094604c0.0001221-0.000061,0.0001221-0.0001831,0.0002441-0.0002441  c0.1014404-0.0585327,0.1868286-0.1403809,0.2628174-0.2317505c0.0194092-0.0233765,0.0372925-0.0458984,0.0543823-0.0707397  c0.0152588-0.0220947,0.0351562-0.039917,0.0487671-0.0634766l9.1010742-15.7626953  c0.0135498-0.0234985,0.0189819-0.0496826,0.0304565-0.0739746c0.0130005-0.0271606,0.0234375-0.053833,0.0339355-0.0822754  c0.0408936-0.111084,0.0688477-0.2254028,0.0690308-0.342041c0-0.0006104,0.0003662-0.0010986,0.0003662-0.001709  s-0.0003662-0.0010986-0.0003662-0.001709c-0.0001831-0.1166382-0.0281372-0.230957-0.0690308-0.342041  c-0.0105591-0.0285034-0.0209351-0.0552368-0.0339355-0.0823975c-0.0114746-0.024231-0.0169067-0.050354-0.0304565-0.0738525  l-9.1010742-15.7626953c-0.0136108-0.0235596-0.0335083-0.0413818-0.0487671-0.0634766  c-0.0170898-0.0248413-0.0349731-0.0473633-0.0543823-0.0707397c-0.0759888-0.0913696-0.161377-0.1732178-0.2628174-0.2317505  c-0.0001221-0.000061-0.0001221-0.0001831-0.0002441-0.0002441c-0.0003052-0.0001831-0.0006104-0.0001221-0.0009155-0.0003052  c-0.100769-0.0579834-0.213623-0.0908813-0.329895-0.1110229c-0.0314331-0.0054321-0.0612793-0.0099487-0.0928955-0.0123291  c-0.0257568-0.0020142-0.0501709-0.0101318-0.0762939-0.0101318h-8.1411133v-3.5424805  c2.0012207-1.1308594,9.1782837-5.3345947,16.8305664-11.6176758C76.1962891,34.4775391,86.7954102,23.7119141,90.0087891,11.25  C90.1469727,10.7148438,89.8251953,10.1699219,89.2900391,10.03125z M66.5505371,72.2373047H60.411499l-4.2990723-7.4462891  l3.069397-5.3164062L66.5505371,72.2373047z M59.1818237,87l-3.069397-5.3164062l4.2990723-7.4462891h6.1390381L59.1818237,87z   M33.6119995,74.2373047h6.1386108l4.2990723,7.4462891L40.9802856,87L33.6119995,74.2373047z M40.9802856,59.4746094  l3.069397,5.3164062l-4.2990723,7.4462891h-6.1386108L40.9802856,59.4746094z M54.3803711,65.7910156l4.2988281,7.4462891  l-4.2988281,7.4462891h-8.5986328l-4.2988281-7.4462891l4.2988281-7.4462891H54.3803711z M45.7821045,82.6835938h8.5979004  L57.4494019,88H42.7127075L45.7821045,82.6835938z M54.3800049,63.7910156h-8.5979004l-3.069397-5.3164062h14.7366943  L54.3800049,63.7910156z"></path></svg>