<svg height='100px' width='100px'  fill="#000000" xmlns="http://www.w3.org/2000/svg" xmlns:xlink="http://www.w3.org/1999/xlink" version="1.1" x="0px" y="0px" viewBox="0 0 66 66" enable-background="new 0 0 66 66" xml:space="preserve"><g><g><g><g><path d="M6.8,18.3c-2.3,0-4.3-1.9-4.3-4.3v-3.8H11V14C11,16.4,9.1,18.3,6.8,18.3z"></path></g><g><path d="M13.3,4.6l-1.9,3.7H3.6l5-6.4c0.2-0.2,0.5-0.4,0.8-0.4h5.6L13.3,4.6z"></path></g><g><path d="M17.3,18.3c-2.3,0-4.3-1.9-4.3-4.3v-3.8h8.5V14C21.5,16.4,19.6,18.3,17.3,18.3z"></path></g><g><polygon points="23.5,1.5 21.7,8.3 13.7,8.3 15.3,5.2 17.2,1.5     "></polygon></g><g><polygon points="32,8.3 23.8,8.3 25.6,1.5 32,1.5     "></polygon></g><g><path d="M27.8,18.3c-2.3,0-4.3-1.9-4.3-4.3v-3.8H32V14C32,16.4,30.1,18.3,27.8,18.3z"></path></g><g><polygon points="42.2,8.3 34,8.3 34,1.5 40.4,1.5     "></polygon></g><g><path d="M38.3,18.3c-2.3,0-4.3-1.9-4.3-4.3v-3.8h8.5V14C42.5,16.4,40.6,18.3,38.3,18.3z"></path></g><g><polygon points="52.3,8.3 44.3,8.3 42.5,1.5 48.8,1.5     "></polygon></g><g><path d="M48.8,18.3c-2.3,0-4.3-1.9-4.3-4.3v-3.8H53V14C53,16.4,51.1,18.3,48.8,18.3z"></path></g><g><path d="M62.4,8.3h-7.8l-3.5-6.8h5.6c0.3,0,0.6,0.1,0.8,0.4L62.4,8.3z"></path></g><g><path d="M55,10.3h8.5V14c0,2.4-1.9,4.3-4.3,4.3S55,16.4,55,14V10.3z"></path></g></g></g><g><g><path d="M65.5,60.5v2c0,1.1-0.9,2-2,2h-61c-1.1,0-2-0.9-2-2v-2c0-1.1,0.9-2,2-2h61C64.6,58.5,65.5,59.4,65.5,60.5z"></path></g></g><g><g><rect x="39" y="38" width="5.5" height="5.5"></rect></g><g><rect x="39" y="45.5" width="5.5" height="5.5"></rect></g><g><path d="M12.8,30.6v25.9h18V30.6H12.8z M17,47.6h-1c-0.6,0-1-0.4-1-1c0-0.5,0.4-1,1-1h1c0.5,0,1,0.5,1,1     C18,47.2,17.6,47.6,17,47.6z"></path></g><g><rect x="46.5" y="45.5" width="5.5" height="5.5"></rect></g><g><rect x="46.5" y="38" width="5.5" height="5.5"></rect></g><g><path d="M54,17.4c-2.5,3.8-8,3.8-10.5,0c-2.5,3.8-8,3.8-10.5,0c-2.5,3.8-8,3.8-10.5,0c-2.5,3.8-8,3.8-10.5,0     c-1.4,2.2-4,3.2-6.3,2.8v36.3h5V29.6c0-0.5,0.4-1,1-1h20c0.5,0,1,0.5,1,1v26.9h27.5V20.2C58,20.6,55.4,19.6,54,17.4z M54,52     c0,0.5-0.4,1-1,1H38c-0.5,0-1-0.5-1-1V37c0-0.5,0.5-1,1-1h15c0.6,0,1,0.5,1,1V52z"></path></g></g></g></svg>