<svg height='100px' width='100px'  fill="#000000" xmlns="http://www.w3.org/2000/svg" viewBox="0 0 64 64" x="0px" y="0px"><title>courier</title><g><path d="M51.83,35.78a9.81,9.81,0,0,0-3.42.61A16.54,16.54,0,0,0,49.33,31,3,3,0,0,0,49,25a2.79,2.79,0,0,0-.76.11,17.58,17.58,0,0,0-6.39-7.95A1.1,1.1,0,0,0,41.3,17H37.11a1,1,0,0,0,0,2H41a14.9,14.9,0,0,1,6.29,10.65,14.5,14.5,0,0,1-1.8,8.4,1.74,1.74,0,0,0-.11.18h0a.56.56,0,0,0,0,.08A16.17,16.17,0,0,1,44.15,40L44,40H36a1,1,0,0,0,0,2h6.26A14,14,0,0,1,41,43H34.6a7.54,7.54,0,0,1-3.48-7.5A6.89,6.89,0,0,1,32.87,32h1.45a1,1,0,0,0,0-2H24.87l-2.53-1.81a1,1,0,0,0-.58-.19h-14a1,1,0,1,0,0,2H21.43L24,31.81a1,1,0,0,0,.59.19h5.83a9.64,9.64,0,0,0-.54,1H23.47l-2.53-1.81a1,1,0,0,0-.58-.19h-13l-.19,0a3.83,3.83,0,0,0-3,2.8,4.06,4.06,0,0,0,2.55,5l4.91,1.56.94,1.72A6,6,0,0,0,11,46a5.89,5.89,0,1,0,11.78,0,5.69,5.69,0,0,0-.1-1H41.3a1,1,0,0,0,.55-.17,16.76,16.76,0,0,0,4.5-4.42L47.52,42A6,6,0,0,0,46,46a5.89,5.89,0,1,0,5.88-6,5.87,5.87,0,0,0-2.73.68l-1.35-1.79a7.79,7.79,0,0,1,4.08-1.16,8,8,0,0,1,6.47,3.3,1,1,0,0,0,.8.41.92.92,0,0,0,.59-.2,1,1,0,0,0,.21-1.39A10,10,0,0,0,51.83,35.78ZM7.3,36.87a2,2,0,0,1-1.22-2.52A1.86,1.86,0,0,1,7.41,33H20l2.53,1.81a1,1,0,0,0,.58.19h6a1.42,1.42,0,0,0-.05.16,8.73,8.73,0,0,0,0,2.84H22a1,1,0,0,0,0,2h7.67a9.81,9.81,0,0,0,1.87,3H15.36l-.65-1.18v0L13.17,39a1,1,0,0,0-.58-.47ZM20.82,46A3.89,3.89,0,1,1,13,46a4.05,4.05,0,0,1,.58-2l.28.5a1,1,0,0,0,.87.52H16v1a1,1,0,0,0,2,0V45h2.67A3.81,3.81,0,0,1,20.82,46ZM49,27a1,1,0,0,1,1,1,1,1,0,0,1-.79,1A16.12,16.12,0,0,0,48.86,27,.7.7,0,0,1,49,27Zm2.83,15A4,4,0,1,1,48,46a4,4,0,0,1,.81-2.41l2.27,3a1,1,0,0,0,.8.39,1,1,0,0,0,.6-.2,1,1,0,0,0,.2-1.4l-2.31-3.06A3.85,3.85,0,0,1,51.83,42.05Z"></path><path d="M19,40h0a1,1,0,1,0-1-1A1,1,0,0,0,19,40Z"></path><path d="M5,27H22a1,1,0,0,0,1-1V14a1,1,0,0,0-1-1H5a1,1,0,0,0-1,1V26A1,1,0,0,0,5,27Zm16-2H14V21h1a1,1,0,0,0,0-2H14V15h7ZM6,15h6v4H11a1,1,0,0,0,0,2h1v4H6Z"></path></g></svg>