<svg height='100px' width='100px'  fill="#000000" xmlns="http://www.w3.org/2000/svg" xmlns:xlink="http://www.w3.org/1999/xlink" xml:space="preserve" version="1.1" style="shape-rendering:geometricPrecision;text-rendering:geometricPrecision;image-rendering:optimizeQuality;" viewBox="0 0 318 186" x="0px" y="0px" fill-rule="evenodd" clip-rule="evenodd"><defs><style type="text/css">
   
    .fil1 {fill:#000000}
    .fil0 {fill:#000000}
   
  </style></defs><g><path class="fil0" d="M173 0l-169 0 0 83 169 0 0 -83zm-46 7l-80 0c-3,10 -11,17 -22,17 -2,0 -4,-1 -6,-1l0 37c2,-1 4,-1 6,-1 10,0 19,7 21,16l81 0c2,-9 11,-17 22,-17 3,0 6,1 9,3l0 -38c-3,2 -6,2 -9,2 -11,0 -20,-7 -22,-18z"></path><path class="fil0" d="M90 16c29,0 29,44 0,44 -29,0 -29,-44 0,-44zm-10 27l3 0c0,4 3,6 7,6 7,0 11,-7 -1,-9 -13,-3 -10,-13 -2,-14l0 -5 5 0 0 5c4,0 7,3 7,7l-3 0c-1,-3 -3,-4 -6,-4 -7,0 -10,5 0,7 15,4 11,14 2,16l0 4 -5 0 0 -5c-4,0 -7,-3 -7,-8z"></path><path class="fil0" d="M140 33c-11,0 -11,17 0,17 11,0 11,-17 0,-17z"></path><path class="fil0" d="M36 32c-11,0 -11,17 0,17 11,0 11,-17 0,-17z"></path><path class="fil1" d="M318 28c0,0 0,83 0,83 -7,2 -26,-7 -41,-2 -23,9 -53,76 -92,77 -23,1 -124,-14 -161,-22 -44,-9 -20,-38 15,-33 -11,-22 21,-20 35,-19 13,-20 23,-15 70,-12 -18,9 -59,19 -46,44 8,15 29,15 44,9l54 -21c11,-4 29,-24 31,-35 -13,9 -19,18 -36,25l-53 20c-8,3 -24,6 -28,-2 -5,-11 10,-17 20,-21 69,-26 44,-47 88,-81 18,-14 99,-12 100,-10z"></path></g></svg>