<svg height='100px' width='100px'  fill="#000000" xmlns:x="http://ns.adobe.com/Extensibility/1.0/" xmlns:i="http://ns.adobe.com/AdobeIllustrator/10.0/" xmlns:graph="http://ns.adobe.com/Graphs/1.0/" xmlns="http://www.w3.org/2000/svg" xmlns:xlink="http://www.w3.org/1999/xlink" version="1.1" x="0px" y="0px" viewBox="0 0 100 100" style="enable-background:new 0 0 100 100;" xml:space="preserve"><g><g i:extraneous="self"><g><path d="M91.1,45.7l-13.6-9.4v-8.1h11.7c0.5,0,1-0.3,1.2-0.7c0.3-0.4,0.3-1,0.1-1.4L86.8,19c-0.2-0.4-0.5-0.6-0.9-0.7L34.7,5.1     c-0.3-0.1-0.6-0.1-0.9,0.1L3.4,18.3c-0.5,0.2-0.9,0.8-0.9,1.3v16c0,0.8,0.7,1.5,1.5,1.5h11c0.8,0,1.5-0.7,1.5-1.5v-7.5h11.4v56.7     h-4.2c-0.8,0-1.5,0.7-1.5,1.5v7.1c0,0.8,0.7,1.5,1.5,1.5h25.1c0.8,0,1.5-0.7,1.5-1.5v-7.1c0-0.8-0.7-1.5-1.5-1.5h-4.2V28.2h29.9     v8.1l-13.6,9.4c-3.6,0.3-6.4,3.2-6.4,6.9v11.8c0,3.8,3.1,6.9,6.9,6.9h29.1c3.8,0,6.9-3.1,6.9-6.9V52.6     C97.5,48.9,94.7,46,91.1,45.7z M34.7,10.2l5.6,8h-8.9L34.7,10.2z M41.7,75.2v9.8h-9.1L41.7,75.2z M30.7,82.7v-9.8h9.1L30.7,82.7z      M32.6,70l9.1-9.8V70H32.6z M30.7,67.8V58h9.1L30.7,67.8z M32.6,55.1l9.1-9.8v9.8H32.6z M30.7,52.8v-9.8h9.1L30.7,52.8z      M32.6,40.2l9.1-9.8v9.8H32.6z M30.7,37.9v-9.8h9.1L30.7,37.9z M30.7,25.3v-4.2h11v4.2H30.7z M32,9.2l-3.7,9H11L32,9.2z      M13.5,34.2H5.4v-6h8.1V34.2z M14.9,25.3H5.4v-4.2h22.4v4.2H14.9z M47.3,87.8V92H25.1v-4.2H47.3z M43.9,18.2l-6.6-9.4l36.6,9.4     H43.9z M44.6,25.3v-4.2h40l2.1,4.2H44.6z M76,38.8l9.9,6.8H66.1L76,38.8z M94.6,64.4c0,2.2-1.8,4-4,4H61.4c-2.2,0-4-1.8-4-4V52.6     c0-2.2,1.8-4,4-4h29.1c2.2,0,4,1.8,4,4V64.4z"></path><path d="M62.6,51.7c-0.8,0-1.5,0.7-1.5,1.5v10.6c0,0.8,0.7,1.5,1.5,1.5s1.5-0.7,1.5-1.5V53.2C64.1,52.4,63.4,51.7,62.6,51.7z"></path><path d="M69.3,51.7c-0.8,0-1.5,0.7-1.5,1.5v10.6c0,0.8,0.7,1.5,1.5,1.5c0.8,0,1.5-0.7,1.5-1.5V53.2     C70.8,52.4,70.1,51.7,69.3,51.7z"></path><path d="M76,51.7c-0.8,0-1.5,0.7-1.5,1.5v10.6c0,0.8,0.7,1.5,1.5,1.5c0.8,0,1.5-0.7,1.5-1.5V53.2C77.5,52.4,76.8,51.7,76,51.7z"></path><path d="M82.7,51.7c-0.8,0-1.5,0.7-1.5,1.5v10.6c0,0.8,0.7,1.5,1.5,1.5c0.8,0,1.5-0.7,1.5-1.5V53.2     C84.1,52.4,83.5,51.7,82.7,51.7z"></path><path d="M89.4,51.7c-0.8,0-1.5,0.7-1.5,1.5v10.6c0,0.8,0.7,1.5,1.5,1.5c0.8,0,1.5-0.7,1.5-1.5V53.2     C90.8,52.4,90.2,51.7,89.4,51.7z"></path></g></g></g></svg>