<svg height='100px' width='100px'  fill="#000000" xmlns="http://www.w3.org/2000/svg" xmlns:xlink="http://www.w3.org/1999/xlink" version="1.1" x="0px" y="0px" viewBox="0 0 64 64" enable-background="new 0 0 64 64" xml:space="preserve"><g><path d="M23.2912598,36.7099609C23.4807129,36.8896484,23.7414551,37,24.0012207,37s0.5195313-0.1103516,0.7099609-0.2900391   C24.8908691,36.5200195,25.0012207,36.2597656,25.0012207,36c0-0.2602539-0.1103516-0.5200195-0.2900391-0.7099609   c-0.1005859-0.090332-0.2099609-0.1601563-0.3300781-0.2104492c-0.3701172-0.159668-0.8105469-0.0595703-1.0898438,0.2104492   c-0.0898438,0.0898438-0.1601563,0.199707-0.2099609,0.3295898c-0.0498047,0.1201172-0.0800781,0.25-0.0800781,0.3803711   c0,0.1298828,0.0302734,0.2597656,0.0800781,0.3798828C23.1311035,36.5097656,23.201416,36.6196289,23.2912598,36.7099609z"></path><path d="M19.0812988,40.3798828c0.0195313,0.0600586,0.0498047,0.1201172,0.0898438,0.1801758   c0.0302734,0.0498047,0.0800781,0.0996094,0.1201172,0.1499023C19.4807129,40.8896484,19.7414551,41,20.0012207,41   c0.1298828,0,0.2597656-0.0302734,0.3798828-0.0800781c0.1201172-0.050293,0.2294922-0.1201172,0.3300781-0.2099609   c0.0400391-0.050293,0.0898438-0.1000977,0.1201172-0.1499023c0.0400391-0.0600586,0.0693359-0.1201172,0.0898438-0.1801758   c0.0302734-0.0600586,0.0498047-0.1201172,0.0595703-0.1801758C20.9914551,40.1298828,21.0012207,40.0600586,21.0012207,40   c0-0.2602539-0.1103516-0.5200195-0.2900391-0.7099609c-0.1005859-0.090332-0.2001953-0.1601563-0.3300781-0.2104492   c-0.3603516-0.159668-0.8105469-0.0698242-1.0898438,0.2104492C19.1105957,39.4799805,19.0012207,39.7397461,19.0012207,40   c0,0.0600586,0.0097656,0.1298828,0.0195313,0.199707C19.0314941,40.2597656,19.0510254,40.3198242,19.0812988,40.3798828z"></path><path d="M26.6213379,31.9199219C26.7414551,31.9697266,26.8713379,32,27.0012207,32   c0.2597656,0,0.5195313-0.1103516,0.7099609-0.2900391C27.8908691,31.5200195,28.0012207,31.2700195,28.0012207,31   c0-0.1303711-0.0302734-0.2602539-0.0800781-0.3803711c-0.0498047-0.1298828-0.1201172-0.2299805-0.2099609-0.3295898   c-0.3701172-0.3701172-1.0498047-0.3701172-1.4199219,0c-0.0898438,0.0996094-0.1601563,0.199707-0.2099609,0.3295898   c-0.0498047,0.1201172-0.0800781,0.25-0.0800781,0.3803711c0,0.2700195,0.109375,0.5200195,0.2900391,0.7099609   C26.3908691,31.7998047,26.4914551,31.8696289,26.6213379,31.9199219z"></path><path d="M28.4406738,21.8295898c0.0605469,0.0400391,0.1201172,0.0703125,0.1806641,0.090332   c0.0595703,0.0297852,0.1201172,0.0498047,0.1796875,0.0600586C28.8713379,21.9897461,28.9406738,22,29.0012207,22   c0.0595703,0,0.1298828-0.0102539,0.1894531-0.0200195c0.0703125-0.0102539,0.1298828-0.0302734,0.1904297-0.0600586   c0.0595703-0.0200195,0.1201172-0.050293,0.1796875-0.090332c0.0498047-0.0297852,0.1005859-0.0795898,0.1503906-0.1196289   C29.8908691,21.5200195,30.0012207,21.2597656,30.0012207,21c0-0.1303711-0.0302734-0.2602539-0.0800781-0.3803711   c-0.0498047-0.1298828-0.1201172-0.2299805-0.2099609-0.3295898C29.661377,20.25,29.6105957,20.2099609,29.560791,20.1699219   c-0.0595703-0.0400391-0.1201172-0.0703125-0.1796875-0.090332c-0.0605469-0.0297852-0.1201172-0.0498047-0.1904297-0.0595703   c-0.1298828-0.0302734-0.2597656-0.0302734-0.3896484,0c-0.0595703,0.0097656-0.1201172,0.0297852-0.1796875,0.0595703   c-0.0605469,0.0200195-0.1201172,0.050293-0.1806641,0.090332c-0.0498047,0.0400391-0.0996094,0.0800781-0.1494141,0.1201172   c-0.0898438,0.0996094-0.1601563,0.199707-0.2099609,0.3295898c-0.0605469,0.1201172-0.0800781,0.25-0.0800781,0.3803711   c0,0.2597656,0.109375,0.5200195,0.2900391,0.7099609C28.3410645,21.75,28.3908691,21.7998047,28.4406738,21.8295898z"></path><path d="M27.6213379,26.9199219C27.7414551,26.9799805,27.8713379,27,28.0012207,27   c0.0595703,0,0.1298828-0.0102539,0.1894531-0.0200195c0.0703125-0.0102539,0.1298828-0.0302734,0.1904297-0.0600586   c0.0595703-0.0200195,0.1201172-0.050293,0.1796875-0.090332c0.0498047-0.0297852,0.1005859-0.0795898,0.1503906-0.1196289   C28.8908691,26.5200195,29.0012207,26.2597656,29.0012207,26c0-0.2602539-0.1103516-0.5200195-0.2900391-0.7099609   C28.661377,25.25,28.6105957,25.2099609,28.560791,25.1699219c-0.0595703-0.0400391-0.1201172-0.0703125-0.1796875-0.090332   c-0.0605469-0.0297852-0.1201172-0.0498047-0.1904297-0.0595703c-0.3193359-0.0600586-0.6699219,0.0400391-0.8994141,0.2700195   C27.1105957,25.4799805,27.0012207,25.7397461,27.0012207,26c0,0.2597656,0.109375,0.5200195,0.2900391,0.7099609   C27.3811035,26.7998047,27.4914551,26.8696289,27.6213379,26.9199219z"></path><path d="M60.8547363,26.262207l-4.1181641-4.1181641c0,0,0,0,0-0.0004883   c-0.9789429-0.9770508-2.3681641-1.3372192-3.6477661-1.0383301c-0.4961548-0.9500732-1.1854858-1.8991699-2.0631714-2.7770996   c-1.9871216-1.9874878-5.0089722-2.319397-6.7439575-2.3283081l1.0681763-4.2722778   c0.2255859-0.9023438,0.0273438-1.8408203-0.5458984-2.5737305C44.2316895,8.4204102,43.3693848,8,42.4396973,8h-1.8769531   c-1.3789063,0-2.5761719,0.9345703-2.9101563,2.2724609L36.2208252,16h-3.2196045v-1c0-1.6542969-1.3457031-3-3-3h-2   c-1.6542969,0-3,1.3457031-3,3v1.9384766l-1.0078125,8.0610352C22.9240723,33.5512695,15.6193848,40,7.0012207,40   c-2.7568359,0-5,2.2431641-5,5v4v4c0,0.2651367,0.1054688,0.5195313,0.2929688,0.7070313   C4.5227051,55.9355469,10.3449707,56,11.0012207,56c0.265625,0,0.5195313-0.1054688,0.7070313-0.2929688l1.2929688-1.2929688   l1.2929688,1.2929688C14.4816895,55.8945313,14.7355957,56,15.0012207,56h2c0.265625,0,0.5195313-0.1054688,0.7070313-0.2929688   l1.2929688-1.2929688l1.2929688,1.2929688C20.4816895,55.8945313,20.7355957,56,21.0012207,56h2   c0.265625,0,0.5195313-0.1054688,0.7070313-0.2929688l1.2929688-1.2929688l1.2929688,1.2929688   C26.4816895,55.8945313,26.7355957,56,27.0012207,56h2c0.5527344,0,1-0.4477539,1-1v-5h6v5c0,0.5522461,0.4472656,1,1,1h12   c1.6542969,0,3-1.3457031,3-3v-4c0-8.6362305-2.0527344-12.355957-4.0390625-15.953125   c-1.2125854-2.1966553-2.3815308-4.3297729-3.131958-7.5602417c1.0308228,0.9249268,2.1339722,1.6103516,3.2120361,2.0259399   c0.114502,0.8197021,0.4850464,1.6044922,1.1035156,2.2227783l4.1181641,4.1186523   c0.7626953,0.7626953,1.7646484,1.144043,2.7666016,1.144043c1.0009766,0,2.0029297-0.3813477,2.765625-1.144043   l2.0585938-2.059082C62.380127,30.2695313,62.380127,27.7875977,60.8547363,26.262207z M51.592041,25.5908203   c-0.2862549,0.2856445-0.7530518,0.4060669-1.3128662,0.3911133c0.0006714-0.0010986,0.0006714-0.0023193,0.0013428-0.003418   c0.0712891-0.1269531,0.1621094-0.2446289,0.2792969-0.3613281l1.4216919-1.4219971   C52.0132446,24.793335,51.892395,25.2903442,51.592041,25.5908203z M39.592041,10.7578125   C39.7043457,10.3115234,40.1027832,10,40.5627441,10h1.8769531c0.3095703,0,0.5976563,0.1401367,0.7880859,0.3847656   c0.1914063,0.2441406,0.2568359,0.5571289,0.1826172,0.8574219L42.2209473,16h-0.9393311l0.6893311-2.7573242   c0.1347656-0.5361328-0.1914063-1.0791016-0.7275391-1.2128906c-0.5371094-0.1376953-1.078125,0.1918945-1.2119141,0.7275391   L39.2208252,16h-0.9393311L39.592041,10.7578125z M27.0012207,15c0-0.5512695,0.4482422-1,1-1h2c0.5517578,0,1,0.4487305,1,1v1h-4   V15z M25.9777832,25.2475586L26.8840332,18h5.1171875h0.0147095c-0.000061,4.3972778-0.7509155,22.6755371-13.1211548,24.0058594   c-0.5498047,0.059082-0.9472656,0.5517578-0.8876953,1.1010742C18.0617676,43.6196289,18.4953613,44,19.0002441,44   c0.0351563,0,0.0712891-0.0019531,0.1074219-0.0058594C33.3146973,42.4667358,34.0565186,22.8306885,34.0228882,18h2.9783325   h1.0144653c0.1489868,8.6566162,2.2023926,12.4017944,4.1954956,16.0136719   C44.0773926,37.394104,45.8397827,40.6062622,45.9868164,48h-8.9855957h-8h-10   c-3.7509766,0-6.8140869-2.9684448-6.9837036-6.678772C19.3327026,39.3251343,24.9990845,33.0800781,25.9777832,25.2475586z    M4.0012207,45c0-1.5028076,1.1140747-2.7392578,2.5575562-2.9552612C6.2089844,42.8632202,6.0012207,43.8724976,6.0012207,45   c0,0.5522461,0.4472656,1,1,1s1-0.4477539,1-1c0-1.9360352,0.7509766-3,1-3c0.2109375,0,0.3955688-0.0801392,0.5567627-0.1914673   c0.1605835-0.0216675,0.3214111-0.0418701,0.4807739-0.0675049C10.2459106,44.2642822,11.4938965,46.4949341,13.3568115,48   H4.0012207V45z M28.0012207,54h-0.5859375l-1.7070313-1.7070313c-0.390625-0.390625-1.0234375-0.390625-1.4140625,0L22.5871582,54   h-1.171875l-1.7070313-1.7070313c-0.390625-0.390625-1.0234375-0.390625-1.4140625,0L16.5871582,54h-1.171875l-1.7070313-1.7070313   c-0.390625-0.390625-1.0234375-0.390625-1.4140625,0l-1.7021484,1.7016602   c-2.0498047-0.0512695-5.2109375-0.4677734-6.5908203-1.4560547V50h24V54z M50.0012207,53c0,0.5512695-0.4482422,1-1,1h-11v-4h12   V53z M49.9914551,48H47.986145c-0.1543579-7.9206543-2.1170654-11.4998169-4.0239868-14.953125   C42.0045166,29.5004883,40.1566772,26.1290894,40.0150146,18h1.9877319   c-0.0059814,0.4041138,0.0042114,0.8964844,0.0529175,1.4477539c0.3399048,7.6464844,2.2764282,11.1605835,4.1555176,14.565918   C48.0783691,37.3959961,49.8459473,40.5976563,49.9914551,48z M44.0541992,19.3104248   c-0.0181274-0.4224854-0.031311-0.8588867-0.0391846-1.3098755c1.3535767-0.0184937,4.008606,0.1536865,5.5965576,1.7416382   c0.7576294,0.7581177,1.3118286,1.5471802,1.7062988,2.3022461c-0.0372314,0.0344849-0.0772095,0.0632935-0.1135254,0.0996094   l-2.0576172,2.0581055c-0.2431641,0.2426758-0.4482422,0.5092773-0.5966797,0.7739258   c-0.0935059,0.1572876-0.1668701,0.3212891-0.2362671,0.4862061c-0.8328857-0.394043-1.7225342-1.0047607-2.5703735-1.852417   C44.5792847,22.4457397,44.1781006,20.6939087,44.0541992,19.3104248z M59.4406738,30.3808594l-2.0585938,2.059082   c-0.7460938,0.7460938-1.9580078,0.7451172-2.7041016,0l-4.1181641-4.1191406   c-0.0987549-0.0986938-0.1628418-0.2175903-0.2358398-0.331543c0.0212402,0.0002441,0.0438232,0.0043945,0.0649414,0.0043945   c1.0341797,0,1.9482422-0.3203125,2.6171875-0.9887695c0.9510498-0.9512939,1.1941528-2.3995361,0.8165283-3.9851074   c0.0506592-0.0040894,0.1005859-0.0202637,0.1512451-0.0202637c0.4931641,0,0.9804688,0.1914063,1.3486328,0.559082   l4.1181641,4.1176758C60.185791,28.421875,60.185791,29.6352539,59.4406738,30.3808594z"></path><path d="M56.708252,26.2929688c-0.390625-0.390625-1.0234375-0.390625-1.4140625,0l-2,2   c-0.390625,0.390625-0.390625,1.0234375,0,1.4140625C53.489502,29.9023438,53.7453613,30,54.0012207,30   s0.5117188-0.0976563,0.7070313-0.2929688l2-2C57.098877,27.3164063,57.098877,26.6835938,56.708252,26.2929688z"></path><path d="M57.2941895,28.2929688l-2,2c-0.390625,0.390625-0.390625,1.0234375,0,1.4140625   C55.489502,31.9023438,55.7453613,32,56.0012207,32s0.5117188-0.0976563,0.7070313-0.2929688l2-2   c0.390625-0.390625,0.390625-1.0234375,0-1.4140625S57.6848145,27.9023438,57.2941895,28.2929688z"></path></g></svg>