<svg height='100px' width='100px'  fill="#000000" xmlns="http://www.w3.org/2000/svg" xmlns:xlink="http://www.w3.org/1999/xlink" version="1.1" x="0px" y="0px" viewBox="0 0 100 100" style="enable-background:new 0 0 100 100;" xml:space="preserve"><path d="M90,28.4023438c0-0.0546875-0.0048828-0.1088867-0.0136719-0.1630859l-2.875-17.4023438  C87.0322266,10.3540039,86.6142578,10,86.125,10h-72c-0.484375,0-0.8984375,0.3466797-0.984375,0.8232422l-3.125,17.4023438  C10.0048828,28.2836914,10,28.3432617,10,28.4023438c0,2.8828735,2.1113281,5.2789917,4.875,5.75354v20.0443115h-3.2871094  c-0.5527344,0-1,0.4477539-1,1V89c0,0.5522461,0.4472656,1,1,1h77.1162109c0.5527344,0,1-0.4477539,1-1V55.2001953  c0-0.5522461-0.4472656-1-1-1h-3.2871094V34.1000366C88.0360718,33.512146,90,31.1829224,90,28.4023438z M84.125,32.2470703  c-1.9735718,0-3.5889282-1.4767456-3.8268433-3.3720703h7.6530151C87.7128296,30.7700195,86.0981445,32.2470703,84.125,32.2470703z   M70.5,26.875V12h7.75v14.875H70.5z M68.5,26.875h-7.75V12h7.75V26.875z M58.75,26.875h-7.7373047V12H58.75V26.875z   M49.0126953,26.875H41.25V12h7.7626953V26.875z M39.25,26.875H31.5V12h7.75V26.875z M29.5,26.875h-7.7734375V12H29.5V26.875z   M29.4518433,28.875c-0.237915,1.8953247-1.8532715,3.3720703-3.8268433,3.3720703S22.0360718,30.7703247,21.7981567,28.875  H29.4518433z M39.2018433,28.875c-0.237915,1.8953247-1.8532715,3.3720703-3.8268433,3.3720703  S31.7860718,30.7703247,31.5481567,28.875H39.2018433z M48.9518433,28.875  c-0.237915,1.8953247-1.8532715,3.3720703-3.8268433,3.3720703S41.5360718,30.7703247,41.2981567,28.875H48.9518433z   M58.7018433,28.875c-0.237915,1.8953247-1.8532715,3.3720703-3.8268433,3.3720703S51.2860718,30.7703247,51.0481567,28.875  H58.7018433z M68.4518433,28.875c-0.237915,1.8953247-1.8532715,3.3720703-3.8268433,3.3720703  S61.0360718,30.7703247,60.7981567,28.875H68.4518433z M78.2018433,28.875  c-0.237915,1.8953247-1.8532715,3.3720703-3.8268433,3.3720703S70.7860718,30.7703247,70.5481567,28.875H78.2018433z   M87.7339478,26.875H80.25V12h5.0263672L87.7339478,26.875z M14.9619141,12h4.7646484v14.875h-7.4362183L14.9619141,12z   M12.0485229,28.875h7.6533203c-0.237915,1.8953247-1.8532715,3.3720703-3.8268433,3.3720703  C13.9015503,32.2470703,12.286377,30.7703247,12.0485229,28.875z M19.1621094,88h-6.5742188V56.2001953h6.5742188V88z   M37.9179688,54.7817383c-0.4785156,2.8686523-2.9785156,5.0625-5.9804688,5.0625s-5.5019531-2.1938477-5.9804688-5.0625H37.9179688  z M27.5831299,52.7817383c0.2578735-2.1858521,2.1004028-3.8935547,4.3543701-3.8935547s4.0964966,1.7077026,4.3543701,3.8935547  H27.5831299z M55.9931641,54.7817383c-0.4785156,2.8686523-2.9785156,5.0625-5.9804688,5.0625  s-5.5019531-2.1938477-5.9804688-5.0625H55.9931641z M45.6583252,52.7817383  c0.2578735-2.1858521,2.1004028-3.8935547,4.3543701-3.8935547s4.0973511,1.7077026,4.3552856,3.8935547H45.6583252z   M74.0693359,54.7817383c-0.4785156,2.8686523-2.9785156,5.0625-5.9804688,5.0625s-5.5019531-2.1938477-5.9804688-5.0625H74.0693359  z M63.7335815,52.7817383c0.2579346-2.1858521,2.1013184-3.8935547,4.3552856-3.8935547s4.0964966,1.7077026,4.3543701,3.8935547  H63.7335815z M79.1298828,79.75H72.484375c2.2043457-1.4404297,3.6669922-3.9258423,3.6669922-6.75c0-0.5522461-0.4472656-1-1-1  h-0.682251c-0.2627563-3.2928467-3.0210571-5.8935547-6.380249-5.8935547c-3.3601074,0-6.1184692,2.600708-6.3812256,5.8935547  h-0.6812744c-0.5527344,0-1,0.4477539-1,1c0,2.8241577,1.4626465,5.3095703,3.6669922,6.75h-9.2851562  c2.2043457-1.4404297,3.6669922-3.9258423,3.6669922-6.75c0-0.5522461-0.4472656-1-1-1h-0.6812744  c-0.2627563-3.2928467-3.0211182-5.8935547-6.3812256-5.8935547c-3.3591919,0-6.1174927,2.600708-6.380249,5.8935547h-0.682251  c-0.5527344,0-1,0.4477539-1,1c0,2.8241577,1.4626465,5.3095703,3.6669922,6.75h-9.2841797  C38.5373535,78.3095703,40,75.8241577,40,73c0-0.5522461-0.4472656-1-1-1h-0.682251  c-0.2627563-3.2928467-3.0210571-5.8935547-6.380249-5.8935547S25.8200073,68.7071533,25.557251,72H24.875  c-0.5527344,0-1,0.4477539-1,1c0,2.8241577,1.4626465,5.3095703,3.6669922,6.75h-6.3798828V62.4448242h57.9677734V79.75z   M74.0693359,74c-0.4785156,2.8686523-2.9785156,5.0625-5.9804688,5.0625S62.5869141,76.8686523,62.1083984,74H74.0693359z   M63.7335205,72c0.2577515-2.1859741,2.1011963-3.8935547,4.3553467-3.8935547S72.1856689,69.8140259,72.4432983,72H63.7335205z   M55.9931641,74c-0.4785156,2.8686523-2.9785156,5.0625-5.9804688,5.0625S44.5107422,76.8686523,44.0322266,74H55.9931641z   M45.6582642,72c0.2576294-2.1859741,2.1002808-3.8935547,4.3544312-3.8935547S54.1102905,69.8140259,54.368042,72H45.6582642z   M37.9179688,74c-0.4785156,2.8686523-2.9785156,5.0625-5.9804688,5.0625S26.4355469,76.8686523,25.9570312,74H37.9179688z   M27.5830688,72c0.2576294-2.1859741,2.1002808-3.8935547,4.3544312-3.8935547S36.0343018,69.8140259,36.2919312,72H27.5830688z   M21.1621094,88v-6.25h57.9677734V88H21.1621094z M87.7041016,88h-6.5742188V56.2001953h6.5742188V88z M80.1298828,54.2001953  c-0.5527344,0-1,0.4477539-1,1v5.2446289h-6.5089111c2.1289673-1.4526978,3.5303955-3.8967896,3.5303955-6.6630859  c0-0.5522461-0.4472656-1-1-1h-0.682251c-0.2630005-3.2930298-3.0212402-5.8935547-6.380249-5.8935547  c-3.3599854,0-6.1182251,2.6005249-6.3812256,5.8935547h-0.6812744c-0.5527344,0-1,0.4477539-1,1  c0,2.7662964,1.4014282,5.2103882,3.5303955,6.6630859h-9.0119629c2.1289673-1.4526978,3.5303955-3.8967896,3.5303955-6.6630859  c0-0.5522461-0.4472656-1-1-1h-0.6812744c-0.2630005-3.2930298-3.0212402-5.8935547-6.3812256-5.8935547  c-3.3590088,0-6.1172485,2.6005249-6.380249,5.8935547h-0.682251c-0.5527344,0-1,0.4477539-1,1  c0,2.7662964,1.4014282,5.2103882,3.5303955,6.6630859h-9.0109863C38.5985718,58.9921265,40,56.5480347,40,53.7817383  c0-0.5522461-0.4472656-1-1-1h-0.682251c-0.2630005-3.2930298-3.0212402-5.8935547-6.380249-5.8935547  s-6.1172485,2.6005249-6.380249,5.8935547H24.875c-0.5527344,0-1,0.4477539-1,1  c0,2.7662964,1.4014282,5.2103882,3.5303955,6.6630859h-6.2432861v-5.2446289c0-0.5522461-0.4472656-1-1-1H16.875V34.1558838  c1.6082764-0.2761841,2.9966431-1.1992188,3.875-2.4958496c1.0562134,1.5592041,2.847168,2.5870361,4.875,2.5870361  s3.8187866-1.027832,4.875-2.5870361c1.0562134,1.5592041,2.847168,2.5870361,4.875,2.5870361s3.8187866-1.027832,4.875-2.5870361  c1.0562134,1.5592041,2.847168,2.5870361,4.875,2.5870361s3.8187866-1.027832,4.875-2.5870361  c1.0562134,1.5592041,2.847168,2.5870361,4.875,2.5870361s3.8187866-1.027832,4.875-2.5870361  c1.0562134,1.5592041,2.847168,2.5870361,4.875,2.5870361s3.8187866-1.027832,4.875-2.5870361  c1.0562134,1.5592041,2.847168,2.5870361,4.875,2.5870361s3.8187866-1.027832,4.875-2.5870361  c0.9311523,1.3746338,2.4348145,2.3319702,4.1669922,2.5403442v19.9998169H80.1298828z"></path></svg>