<svg height='100px' width='100px'  fill="#000000" xmlns="http://www.w3.org/2000/svg" xmlns:xlink="http://www.w3.org/1999/xlink" xmlns:xodm="http://www.corel.com/coreldraw/odm/2003" xml:space="preserve" version="1.1" style="shape-rendering:geometricPrecision;text-rendering:geometricPrecision;image-rendering:optimizeQuality;" viewBox="0 0 33333.33 33333.33" x="0px" y="0px" fill-rule="evenodd" clip-rule="evenodd"><defs><style type="text/css">
   
    .fil0 {fill:#000000;fill-rule:nonzero}
   
  </style></defs><g><path class="fil0" d="M13172.55 7193.24l-946.28 -622.8c-1099.06,-785.24 -88.52,-2183.47 946.28,-1671.22l0 -783.63c-352.89,139.68 -766.74,193.58 -1144.06,193.58 -423.46,0 -812.94,-68.48 -1112.6,-181.43l0 9179.24c0,815.71 2256.67,726.59 2256.67,83.33 0,-2065.74 0,-4130.97 0,-6197.08zm-2809.14 23162.61c101.9,38.96 42.66,193.91 -59.24,154.94 -1533.84,-590.57 -3145.22,-1537.13 -4174.89,-2842.88 -67.57,-85.95 63.29,-188.82 130.86,-102.87 1009.86,1280.63 2599.13,2211.67 4103.27,2790.8zm6722.99 -21501.83c432.59,-233.24 410.86,-679.57 12.82,-952l-3952.5 -2630.51c-774.73,-484.28 -1498.82,438.57 -733.68,1024.52l3225.85 2123.09c205.63,135.33 431.11,309.89 669.11,419.86 248.58,114.87 510.83,159.3 778.4,15.04zm-1181.13 137.74c10.43,179.04 55.65,325.72 214.05,423.16 239.08,147.07 712.9,177.16 958.7,34.8 104.17,-60.33 122.96,-178.6 143.28,-290.91 -466.7,237.37 -904.93,103.53 -1316.03,-167.05zm1672.62 -133.99c1.76,130.07 -9.24,249.41 -27.3,351.84 -39.65,224.95 -99.98,408.62 -305.89,527.87 -349.83,202.59 -958.67,171.18 -1299.85,-38.71 -345.4,-212.46 -383.57,-551.24 -372.79,-926.32l-2066.16 -1359.84 0 4036.9c2284.6,-303.65 4680.22,-235.29 6940.74,205.72 2817.04,549.58 6063.89,1843.96 7927.51,4137.15 900.69,1108.31 1439.21,2437.11 1313.09,3875.29l-155.87 5611.59c-154.04,2665.33 -1896.37,4502.86 -4168.31,5852.03 -2126.6,1262.87 -5084.46,2051.19 -8364.01,2051.19 -5647.84,27.78 -12997.34,-2433.17 -13192.57,-7896.13l-94.57 -4513.72c-55.03,-1540.13 -275.58,-2640.45 429.96,-4085.2 309.93,-634.62 753.41,-1233.68 1311.83,-1785.85 1222.41,-1208.7 2998.71,-2192.94 5128.85,-2830.96l0 -8111.6c-201.41,-137.7 -318.6,-309.85 -318.6,-502.32l0 -2453.37c0,-317.01 309.76,-526.43 569.57,-637.94 666.87,-286.22 1723.07,-286.22 2389.94,0 259.81,111.51 569.57,320.93 569.57,637.94l0 1621.86 1351.12 1024.67c705.75,535.39 -107.35,1606.95 -812.98,1071.65l-825.28 -625.89 0 1015.41 3780.8 2516.24c373.39,255.53 492.32,583.5 440.58,882.79 -21.53,124.56 -73.38,242.81 -149.39,347.72zm-5073.06 -5521.35c-705.75,-535.4 107.33,-1606.94 812.98,-1071.65l141.89 107.61 0 -856.83c-69.6,46.07 -148.76,88.17 -236.23,125.7 -666.87,286.22 -1723.08,286.22 -2389.94,0 -87.46,-37.54 -166.63,-79.63 -236.23,-125.7l0 1941.14c3.47,357.09 968.65,536.5 1431.2,519.14 348.21,0 747.91,-49.7 1069.77,-189.35l-593.43 -450.06zm200.52 -264.32l1826.35 1385.08c357.35,271.08 769.13,-272.05 411.94,-543.01l-1826.35 -1385.08c-357.34,-271.07 -769.12,272.04 -411.94,543.01zm-2122.8 10245.3l0 -899.77c-2035.17,622.67 -3729.04,1567.26 -4895.78,2720.93 -234.7,232.07 -447.92,472.62 -638.12,720.65 -284.01,370.38 -244.29,287.29 83.57,127.22 759.76,-370.91 1838.18,-524.3 3313.12,-571.24 2599.67,-82.71 5030.15,61.05 7249.04,-1542.17 1394.34,-1007.46 2909.21,-1799.11 4651.83,-1897.54 -2226.06,-430.6 -4591.78,-494.16 -6840.33,-190.25l0 1580.78c0,1162.93 -2923.34,1150.39 -2923.34,-48.61zm2510.7 -12646.03c-582.37,-249.95 -1547.15,-249.95 -2129.52,0 -226.41,97.17 -366.44,215.51 -366.44,331.94 0,116.44 140.04,234.78 366.44,331.94 582.37,249.95 1547.15,249.95 2129.52,0 226.41,-97.17 366.44,-215.51 366.44,-331.94 0,-116.44 -140.04,-234.78 -366.44,-331.94zm10122.33 12975.72c-101.05,-41.96 -37.24,-195.61 63.8,-153.65 1624.89,678.32 3264.43,1684.6 4385.48,3064.06 68.85,84.67 -60.05,189.49 -128.91,104.82 -1103.88,-1358.32 -2720.64,-2347.42 -4320.37,-3015.23zm-8222.89 9546.37c734.96,-644.87 2220.43,-560.82 3005.87,-42.8 153.69,101.36 226.56,230.35 226.56,-85.24 0,-710.51 -1125.78,-971.64 -1671.59,-971.64 -545.81,0 -1671.59,261.13 -1671.59,971.64 -1.74,145.18 21.62,206.72 110.75,128.04zm2914.73 95.87c-723.13,-476.92 -2127.44,-565.69 -2805.35,29.13 -106.63,93.56 -123.48,86.82 -32.72,188.18 619.39,691.84 2218.36,692 2894.36,74.57 177.08,-161.76 141.49,-161.45 -56.29,-291.88zm-1353.89 -1528.88c756.95,0 2004.93,375.37 2004.93,1304.98 0,375.73 -236.11,709.8 -617.84,946.18 -772.49,478.34 -2001.68,478.34 -2774.17,0 -381.73,-236.38 -617.84,-570.45 -617.84,-946.18 0,-929.6 1247.98,-1304.98 2004.93,-1304.98zm-1815.22 -5709c360.31,401.76 281.27,1016.58 -96.45,1377.41 -379.09,362.15 -984.65,395.56 -1346.88,-8.35 -360.31,-401.76 -281.27,-1016.57 96.45,-1377.4 379.09,-362.14 984.65,-395.56 1346.88,8.35zm-1117.72 232.54c-245.83,234.83 -316.81,649.13 -78.22,915.16 235.26,262.32 629.07,219.28 870.32,-11.19 245.83,-234.83 316.81,-649.13 78.22,-915.16 -235.25,-262.32 -629.08,-219.27 -870.32,11.19zm-8969.22 5006.74c441.19,-1687.85 2539.09,-2156.87 4042.63,-2181.89 2461.08,-40.96 5183.72,-226.67 7391.93,-1412.48 2301.51,-1235.92 4672.1,-1200.88 6629.02,-481.96 2231.09,819.64 5083.92,3300.02 4411.12,5910.86 -133.89,519.58 -216.35,524 288.67,62.89 1136.3,-1037.51 1833.11,-2257.61 1942.28,-3570.36 80.48,-1392.48 -358.46,-2530.17 -1240.7,-3615.76 -1309.87,-1611.8 -3346.59,-2704.16 -5281.15,-3367.42 -2663.4,-821.94 -4767.31,-66.79 -6946.79,1507.96 -2302.21,1663.42 -4737.61,1518.96 -7432.63,1604.67 -1427.63,45.43 -2464,190.26 -3177.7,538.69 -299.13,146.04 -541.54,329.83 -732.87,559.72 -960.17,1153.61 -588.81,3252.3 106.19,4445.1zm12347.67 5550.95c-3582.59,0 -6866.47,-861.8 -9279.61,-2255.13 -1751.68,-1011.41 -3047.56,-2304.76 -3673.02,-3756.25l89.79 4379.8c192.05,5320.64 7703.85,7597.38 12862.84,7639.05 3215.31,0 6114.26,-768.82 8194.74,-2004.31 2095.2,-1244.22 3856.53,-3005.51 4000.44,-5495.55l57.27 -3473.02c12.11,-734.57 80.65,-678.92 -242.28,-108.96 -709.52,1252.26 -1841.25,2233.99 -3182.02,2986.23 -2674.95,1500.78 -6181.96,2088.14 -8828.17,2088.14zm9588.26 -3209.22c1325.32,-2509.11 -1740.8,-5280.39 -3986.93,-6105.56 -1876.42,-689.35 -4149.66,-722.87 -6356.89,462.42 -2262.87,1215.17 -5021.93,1409.57 -7544.28,1451.55 -1408.91,23.45 -3673.89,508.86 -3780,2268.62 681.66,977.67 1699.89,1857.73 2966.89,2589.3 2364.38,1365.17 5588.83,2209.56 9112.94,2209.56 2921.83,0 6095.74,-590.17 8648.63,-2050.21 473.53,-270.81 764.04,-493.25 939.63,-825.68z"></path></g></svg>