<svg height='100px' width='100px'  fill="#000000" xmlns="http://www.w3.org/2000/svg" xmlns:xlink="http://www.w3.org/1999/xlink" version="1.1" x="0px" y="0px" viewBox="0 0 24 24" enable-background="new 0 0 24 24" xml:space="preserve"><g><g><path d="M3.1,22c-0.5,0-0.7-0.2-0.9-0.4C1.7,21,2,20.3,2.9,18.3C3.3,17.2,4,15.5,4,15c0-0.3-0.1-0.7-0.2-1.1    c-0.2-1.1-0.6-2.6,0-4.6C2.9,8.3,1.8,6.9,2,5.8C2.1,5.4,2.3,5.2,2.6,5c0.8-0.5,2.1-0.3,4.8,0.3C9,5.6,10.8,6,12,6v2    c-1.4,0-3.3-0.4-5-0.7C6.1,7,5,6.8,4.3,6.7c0.3,0.4,0.8,1,1.4,1.5l0.5,0.5L5.9,9.3c-0.7,1.7-0.4,3-0.2,4.1C5.9,13.9,6,14.4,6,15    c0,0.9-0.5,2.2-1.3,4.1c-0.1,0.2-0.2,0.4-0.2,0.6c0.4-0.1,0.7-0.3,1.1-0.5l0.4-0.2L6.3,19c0,0,2.9,0.9,5.7,0.9v2    c-2.5,0-5-0.6-5.9-0.9C4.6,21.8,3.7,22,3.1,22z"></path></g><g><path d="M20.9,22c-0.5,0-1.4-0.3-3-1C17,21.3,14.5,22,12,22v-2c2.8,0,5.7-0.9,5.7-0.9l0.4-0.1l0.4,0.2c0.4,0.2,0.7,0.4,1.1,0.5    c-0.1-0.2-0.2-0.4-0.2-0.6C18.5,17.2,18,15.9,18,15c0-0.5,0.1-1,0.2-1.6c0.2-1.1,0.5-2.3-0.2-4.1l-0.2-0.6l0.5-0.5    c0.5-0.5,1-1,1.3-1.5C18.9,6.8,17.9,7,17,7.2C15.3,7.6,13.4,8,12,8V6c1.2,0,3-0.4,4.6-0.7c2.7-0.6,4-0.8,4.8-0.3    c0.3,0.2,0.5,0.5,0.5,0.8c0.2,1.1-0.9,2.5-1.8,3.5c0.6,2,0.3,3.5,0,4.6C20.1,14.3,20,14.7,20,15c0,0.5,0.7,2.3,1.1,3.3    c0.9,2.1,1.2,2.8,0.6,3.4C21.6,21.9,21.3,22,20.9,22z"></path></g><g><path d="M12,11c-4.6,0-7.3-1-7.4-1.1L5.4,8C5.4,8,7.8,9,12,9V11z"></path></g><g><path d="M17.6,6.9C15.3,5.7,12.8,4.4,12,4c-0.8,0.4-3.3,1.7-5.5,2.9l-1-1.8C11.4,2,11.7,2,12,2c0.3,0,0.6,0,6.5,3.2L17.6,6.9z"></path></g></g></svg>