<svg height='100px' width='100px'  fill="#000000" xmlns="http://www.w3.org/2000/svg" xmlns:xlink="http://www.w3.org/1999/xlink" version="1.1" x="0px" y="0px" viewBox="0 0 100 100" enable-background="new 0 0 100 100" xml:space="preserve"><g><g><path fill="#000000" d="M91.833,75.583H8.167c-0.69,0-1.25-0.56-1.25-1.25s0.56-1.25,1.25-1.25h83.666c0.69,0,1.25,0.56,1.25,1.25    S92.523,75.583,91.833,75.583z"></path></g><g><path fill="#000000" d="M72.5,75.583c-0.69,0-1.25-0.56-1.25-1.25V30.917h-42.5v43.417c0,0.69-0.56,1.25-1.25,1.25    s-1.25-0.56-1.25-1.25V29.667c0-0.69,0.56-1.25,1.25-1.25h45c0.69,0,1.25,0.56,1.25,1.25v44.667    C73.75,75.024,73.19,75.583,72.5,75.583z"></path></g><g><path fill="#000000" d="M40.377,30.925c-0.69,0-1.25-0.56-1.25-1.25V15.409c0-0.69,0.56-1.25,1.25-1.25s1.25,0.56,1.25,1.25    v14.266C41.627,30.365,41.067,30.925,40.377,30.925z"></path></g><g><path fill="#000000" d="M59.623,30.925c-0.69,0-1.25-0.56-1.25-1.25V15.409c0-0.69,0.56-1.25,1.25-1.25s1.25,0.56,1.25,1.25    v14.266C60.873,30.365,60.313,30.925,59.623,30.925z"></path></g><g><path fill="#000000" d="M12.333,75.583c-0.69,0-1.25-0.56-1.25-1.25V52c0-0.69,0.56-1.25,1.25-1.25s1.25,0.56,1.25,1.25v22.333    C13.583,75.024,13.024,75.583,12.333,75.583z"></path></g><g><path fill="#000000" d="M87.505,75.583c-0.69,0-1.25-0.56-1.25-1.25V52c0-0.69,0.56-1.25,1.25-1.25s1.25,0.56,1.25,1.25v22.333    C88.755,75.024,88.195,75.583,87.505,75.583z"></path></g><g><path fill="#000000" d="M63.446,16.659H36.554c-0.69,0-1.25-0.56-1.25-1.25V12.25c0-0.69,0.56-1.25,1.25-1.25h26.893    c0.69,0,1.25,0.56,1.25,1.25v3.159C64.696,16.099,64.137,16.659,63.446,16.659z M37.804,14.159h24.393V13.5H37.804V14.159z"></path></g><g><path fill="#000000" d="M27.5,53.25H8.607c-0.69,0-1.25-0.56-1.25-1.25v-3.159c0-0.69,0.56-1.25,1.25-1.25H27.5    c0.69,0,1.25,0.56,1.25,1.25s-0.56,1.25-1.25,1.25H9.857v0.659H27.5c0.69,0,1.25,0.56,1.25,1.25S28.19,53.25,27.5,53.25z"></path></g><g><path fill="#000000" d="M91.5,53.25H72.607c-0.69,0-1.25-0.56-1.25-1.25s0.56-1.25,1.25-1.25H90.25v-0.659H72.607    c-0.69,0-1.25-0.56-1.25-1.25s0.56-1.25,1.25-1.25H91.5c0.69,0,1.25,0.56,1.25,1.25V52C92.75,52.69,92.19,53.25,91.5,53.25z"></path></g><g><path fill="#000000" d="M64.473,75.583c-0.69,0-1.25-0.56-1.25-1.25V60.858C62.528,59.858,59.248,56,50,56    c-9.229,0-12.515,3.842-13.223,4.86v13.474c0,0.69-0.56,1.25-1.25,1.25s-1.25-0.56-1.25-1.25V60.5c0-0.205,0.05-0.406,0.146-0.587    C34.562,59.651,37.971,53.5,50,53.5s15.438,6.151,15.577,6.413c0.096,0.181,0.146,0.382,0.146,0.587v13.833    C65.723,75.024,65.164,75.583,64.473,75.583z"></path></g><g><g><path fill="#000000" d="M43.393,69.431c-0.404,0-0.8-0.195-1.041-0.557c-0.383-0.574-0.228-1.351,0.347-1.733l3.615-2.41     c0.574-0.382,1.351-0.228,1.733,0.347s0.228,1.351-0.347,1.733l-3.615,2.41C43.872,69.363,43.631,69.431,43.393,69.431z"></path></g><g><path fill="#000000" d="M43.536,72.84c-0.404,0-0.8-0.195-1.041-0.557c-0.383-0.575-0.228-1.351,0.347-1.733l3.615-2.409     c0.575-0.382,1.351-0.227,1.733,0.347c0.383,0.575,0.228,1.351-0.347,1.733l-3.615,2.409     C44.015,72.772,43.774,72.84,43.536,72.84z"></path></g></g><g><g><path fill="#000000" d="M52.925,69.43c-0.404,0-0.8-0.195-1.041-0.557c-0.383-0.574-0.228-1.351,0.347-1.733l3.615-2.41     c0.574-0.382,1.351-0.228,1.733,0.347c0.383,0.574,0.228,1.351-0.347,1.733l-3.615,2.41C53.404,69.362,53.163,69.43,52.925,69.43     z"></path></g><g><path fill="#000000" d="M53.068,72.839c-0.404,0-0.8-0.195-1.041-0.557c-0.383-0.575-0.228-1.351,0.347-1.733l3.615-2.409     c0.576-0.383,1.351-0.228,1.733,0.347c0.383,0.575,0.228,1.351-0.347,1.733l-3.615,2.409     C53.547,72.771,53.306,72.839,53.068,72.839z"></path></g></g><g><path fill="#000000" d="M59.459,75.475c-0.69,0-1.25-0.56-1.25-1.25v-9.84H41.791v9.84c0,0.69-0.56,1.25-1.25,1.25    s-1.25-0.56-1.25-1.25v-11.09c0-0.69,0.56-1.25,1.25-1.25h18.919c0.69,0,1.25,0.56,1.25,1.25v11.09    C60.709,74.916,60.15,75.475,59.459,75.475z"></path></g><g><path fill="#000000" d="M50,75.475c-0.69,0-1.25-0.56-1.25-1.25v-11.09c0-0.69,0.56-1.25,1.25-1.25s1.25,0.56,1.25,1.25v11.09    C51.25,74.916,50.69,75.475,50,75.475z"></path></g><g><path fill="#000000" d="M50,75.475h-9.459c-0.69,0-1.25-0.56-1.25-1.25v-11.09c0-0.69,0.56-1.25,1.25-1.25H50    c0.69,0,1.25,0.56,1.25,1.25v11.09C51.25,74.916,50.69,75.475,50,75.475z M41.791,72.975h6.959v-8.59h-6.959V72.975z"></path></g><g><path fill="#000000" d="M23.454,69.076H16.38c-0.69,0-1.25-0.56-1.25-1.25v-8.292c0-0.69,0.56-1.25,1.25-1.25h7.074    c0.69,0,1.25,0.56,1.25,1.25v8.292C24.704,68.517,24.144,69.076,23.454,69.076z M17.63,66.576h4.574v-5.792H17.63V66.576z"></path></g><g><path fill="#000000" d="M83.454,69.076H76.38c-0.69,0-1.25-0.56-1.25-1.25v-8.292c0-0.69,0.56-1.25,1.25-1.25h7.074    c0.69,0,1.25,0.56,1.25,1.25v8.292C84.704,68.517,84.144,69.076,83.454,69.076z M77.63,66.576h4.574v-5.792H77.63V66.576z"></path></g><g><path fill="#000000" d="M23.454,64.93H16.38c-0.69,0-1.25-0.56-1.25-1.25s0.56-1.25,1.25-1.25h7.074c0.69,0,1.25,0.56,1.25,1.25    S24.144,64.93,23.454,64.93z"></path></g><g><path fill="#000000" d="M83.454,64.93H76.38c-0.69,0-1.25-0.56-1.25-1.25s0.56-1.25,1.25-1.25h7.074c0.69,0,1.25,0.56,1.25,1.25    S84.144,64.93,83.454,64.93z"></path></g><g><g><path fill="#000000" d="M29.5,35.75h-2c-0.69,0-1.25-0.56-1.25-1.25s0.56-1.25,1.25-1.25h2c0.69,0,1.25,0.56,1.25,1.25     S30.19,35.75,29.5,35.75z"></path></g><g><path fill="#000000" d="M66.772,35.75h-3.727c-0.69,0-1.25-0.56-1.25-1.25s0.56-1.25,1.25-1.25h3.727c0.69,0,1.25,0.56,1.25,1.25     S67.463,35.75,66.772,35.75z M59.318,35.75h-3.727c-0.69,0-1.25-0.56-1.25-1.25s0.56-1.25,1.25-1.25h3.727     c0.69,0,1.25,0.56,1.25,1.25S60.008,35.75,59.318,35.75z M51.863,35.75h-3.727c-0.69,0-1.25-0.56-1.25-1.25s0.56-1.25,1.25-1.25     h3.727c0.69,0,1.25,0.56,1.25,1.25S52.554,35.75,51.863,35.75z M44.409,35.75h-3.727c-0.69,0-1.25-0.56-1.25-1.25     s0.56-1.25,1.25-1.25h3.727c0.69,0,1.25,0.56,1.25,1.25S45.099,35.75,44.409,35.75z M36.954,35.75h-3.727     c-0.69,0-1.25-0.56-1.25-1.25s0.56-1.25,1.25-1.25h3.727c0.69,0,1.25,0.56,1.25,1.25S37.645,35.75,36.954,35.75z"></path></g><g><path fill="#000000" d="M72.5,35.75h-2c-0.69,0-1.25-0.56-1.25-1.25s0.56-1.25,1.25-1.25h2c0.69,0,1.25,0.56,1.25,1.25     S73.19,35.75,72.5,35.75z"></path></g></g><g><g><path fill="#000000" d="M50,27.449c-2.951,0-5.352-2.401-5.352-5.352c0-0.69,0.56-1.25,1.25-1.25h8.203     c0.69,0,1.25,0.56,1.25,1.25C55.352,25.048,52.951,27.449,50,27.449z M47.438,23.348c0.464,0.948,1.438,1.602,2.562,1.602     s2.099-0.654,2.562-1.602H47.438z"></path></g><g><path fill="#000000" d="M51.611,23.348c-0.245,0-0.493-0.072-0.71-0.222c-0.568-0.393-0.71-1.171-0.317-1.739l2.221-3.213     c0.393-0.568,1.17-0.71,1.739-0.317c0.568,0.393,0.71,1.171,0.317,1.739l-2.221,3.213C52.398,23.159,52.008,23.348,51.611,23.348     z"></path></g></g><g><path fill="#000000" d="M52.164,52h-4.329c-0.69,0-1.25-0.56-1.25-1.25V48.32h-2.43c-0.69,0-1.25-0.56-1.25-1.25v-4.33    c0-0.69,0.56-1.25,1.25-1.25h2.43v-2.431c0-0.69,0.56-1.25,1.25-1.25h4.329c0.69,0,1.25,0.56,1.25,1.25v2.431h2.431    c0.69,0,1.25,0.56,1.25,1.25v4.33c0,0.69-0.56,1.25-1.25,1.25h-2.431v2.429C53.414,51.44,52.854,52,52.164,52z M49.085,49.5h1.829    V47.07c0-0.69,0.56-1.25,1.25-1.25h2.431v-1.83h-2.431c-0.69,0-1.25-0.56-1.25-1.25v-2.431h-1.829v2.431    c0,0.69-0.56,1.25-1.25,1.25h-2.43v1.83h2.43c0.69,0,1.25,0.56,1.25,1.25V49.5z"></path></g></g><g display="none"><g display="inline"><line fill="#000000" stroke="#000000" stroke-linecap="round" stroke-linejoin="round" stroke-miterlimit="10" x1="49.025" y1="44.035" x2="52.995" y2="50.427"></line><line fill="#000000" stroke="#000000" stroke-linecap="round" stroke-linejoin="round" stroke-miterlimit="10" x1="49.687" y1="50.427" x2="52.995" y2="45.099"></line><line fill="#000000" stroke="#000000" stroke-linecap="round" stroke-linejoin="round" stroke-miterlimit="10" x1="47.005" y1="46.809" x2="47.005" y2="40.672"></line><path fill="#000000" stroke="#000000" stroke-linecap="round" stroke-linejoin="round" stroke-miterlimit="10" d="M47.005,40.672    h2.031c0.621,0,1.125,0.503,1.125,1.124v1.114c0,0.622-0.504,1.125-1.125,1.125h-2.031"></path></g></g></svg>