<svg height='100px' width='100px'  fill="#000000" xmlns="http://www.w3.org/2000/svg" data-name="Layer 1" viewBox="0 0 512 512" x="0px" y="0px"><title>Seed</title><path d="M424.58,100.691A46.262,46.262,0,1,0,356.1,42.181,18.142,18.142,0,0,1,339.58,52H171.888a18.377,18.377,0,0,1-16.531-9.838A45.537,45.537,0,0,0,114.2,17H114A44.87,44.87,0,0,0,81.458,31.146,46.8,46.8,0,0,0,68.522,65.159,44.927,44.927,0,0,0,87.58,100.69a19.04,19.04,0,0,1,8.234,14.646l-8.2,50.544a569.13,569.13,0,0,0-.387,180.283l8.028,50.826a18.911,18.911,0,0,1-7.839,14.3,46.276,46.276,0,0,0,25.865,83.581c.435.012.866.018,1.3.018A46.166,46.166,0,0,0,155.9,469.8,18.142,18.142,0,0,1,172.42,460H340.112c7.076,0,13.564,3.412,16.532,9.349C364.375,484.816,380.155,494,397.827,494h.142a43.968,43.968,0,0,0,32.336-13.663C439.012,471.25,444,459.022,443,446.588v.116a43.087,43.087,0,0,0-18.818-35.44,18.9,18.9,0,0,1-8.116-14.639l8.254-50.42a569.114,569.114,0,0,0,.427-180.416l-8.013-50.8A18.915,18.915,0,0,1,424.58,100.691Zm-9.4-12.965A34.952,34.952,0,0,0,400.733,115.4a8.179,8.179,0,0,0,.1,1.345l8.143,51.535a553.143,553.143,0,0,1-.386,175.355L400.271,394.8a7.971,7.971,0,0,0-.1,1.372,34.778,34.778,0,0,0,14.86,28.217A27.747,27.747,0,0,1,427,447.33v-.114c1,8.118-2.533,16.082-8.254,22.052A28.1,28.1,0,0,1,397.969,478h-.142c-11.571,0-21.868-5.794-26.872-15.805C365.3,450.884,353.2,444,340.112,444H172.42A34.053,34.053,0,0,0,141.6,462.613a30.269,30.269,0,1,1-44.781-38.359,34.959,34.959,0,0,0,14.443-27.682,8.167,8.167,0,0,0-.1-1.344l-8.143-51.556a553.2,553.2,0,0,1,.376-175.224l8.326-51.284a7.967,7.967,0,0,0,.1-1.371A35.013,35.013,0,0,0,96.726,87.575,29.027,29.027,0,0,1,84.511,64.56a30.779,30.779,0,0,1,8.5-22.344A29.067,29.067,0,0,1,114.064,33h.13a29.639,29.639,0,0,1,26.851,16.315A34.491,34.491,0,0,0,171.888,68H339.58A34.055,34.055,0,0,0,370.4,49.371a30.268,30.268,0,1,1,44.781,38.355Z"></path><path d="M356,124H155a8,8,0,0,0-8,8V380a8,8,0,0,0,8,8H356a8,8,0,0,0,8-8V132A8,8,0,0,0,356,124Zm-7,248H163V140H349Z"></path><path d="M245.968,321.715,248,321.8v17.489a8,8,0,0,0,16,0V321.8l1.969-.082c35.665-1.2,65.33-30.881,66.166-66.177l.349-8.374a8,8,0,0,0-8.326-8.327l-8.388.35a67.6,67.6,0,0,0-37.926,13.465c13.215-25.2,9.84-57.748-10.138-79.134l-5.725-6.224a8,8,0,0,0-11.775,0l-5.675,6.169c-20.3,21.29-23.679,53.968-10.173,79.331a67.494,67.494,0,0,0-38.067-13.6l-8.449-.352a8,8,0,0,0-8.326,8.327l.349,8.374C180.7,290.836,210.366,320.515,245.968,321.715Zm70.171-66.529c-.651,26.878-23.249,49.489-50.535,50.534C266.6,278.834,289.188,256.233,316.139,255.186Zm-60.047-70.661c18.317,19.751,18.32,51.733,0,71.466C237.541,236.007,237.532,204,256.092,184.525Zm-9.7,121.2c-27.25-1.012-49.884-23.636-50.535-50.534C222.779,256.2,245.4,278.814,246.4,305.72Z"></path></svg>