<svg height='100px' width='100px'  fill="#000000" xmlns="http://www.w3.org/2000/svg" viewBox="0 0 64 64" x="0px" y="0px"><g data-name="Layer 17"><path d="M11,8.5v8a2.5,2.5,0,0,0,5,0v-8a2.5,2.5,0,0,0-5,0Zm3,0v8a.5.5,0,0,1-1,0v-8a.5.5,0,0,1,1,0Z"></path><path d="M11,25.5v11a2.5,2.5,0,0,0,5,0v-11a2.5,2.5,0,0,0-5,0Zm3,0v11a.5.5,0,0,1-1,0v-11a.5.5,0,0,1,1,0Z"></path><path d="M53,30H37a3,3,0,0,0-3,3V59H10V22H29a1,1,0,0,0,0-2H10V3a1,1,0,0,1,1-1H35a1,1,0,0,1,1,1V20H33a1,1,0,0,0,0,2h3v5a1,1,0,0,0,2,0V3a3,3,0,0,0-3-3H11A3,3,0,0,0,8,3V61a3,3,0,0,0,3,3h2a3,3,0,0,0,3-3H30a3,3,0,0,0,3,3H53a3,3,0,0,0,3-3V33A3,3,0,0,0,53,30ZM13,62H11a1,1,0,0,1-1-1h4A1,1,0,0,1,13,62ZM49.72,32l-.311,1.242a1,1,0,0,1-.971.758H41.562a1,1,0,0,1-.971-.757L40.28,32ZM32,61h2a2.966,2.966,0,0,0,.184,1H33A1,1,0,0,1,32,61Zm22,0a1,1,0,0,1-1,1H37a1,1,0,0,1-1-1V33a1,1,0,0,1,1-1h1.219l.432,1.729A3,3,0,0,0,41.562,36h6.876a3,3,0,0,0,2.911-2.272L51.78,32H53a1,1,0,0,1,1,1Z"></path><path d="M51.8,46.2a.971.971,0,0,0,.259.034,1,1,0,0,0,.258-1.965l-1.766-.474.473-1.767a1,1,0,0,0-1.931-.517l-.625,2.332-1.536.886A3,3,0,0,0,46,44.184v-1.77l1.707-1.707a1,1,0,0,0-1.414-1.414L45,40.586l-1.293-1.293a1,1,0,0,0-1.414,1.414L44,42.414v1.77a3,3,0,0,0-.936.543l-1.536-.886L40.9,41.509a1,1,0,1,0-1.931.517l.473,1.767-1.766.474a1,1,0,0,0,.258,1.965A.971.971,0,0,0,38.2,46.2l2.332-.625,1.527.882a2.728,2.728,0,0,0,0,1.09l-1.527.882L38.2,47.8a1,1,0,0,0-.517,1.931l1.766.474-.473,1.767a1,1,0,0,0,.707,1.224.971.971,0,0,0,.259.034,1,1,0,0,0,.965-.741l.625-2.332,1.536-.886a3,3,0,0,0,.936.543v1.77l-1.707,1.707a1,1,0,0,0,1.414,1.414L45,53.414l1.293,1.293a1,1,0,0,0,1.414-1.414L46,51.586v-1.77a3,3,0,0,0,.936-.543l1.536.886.625,2.332a1,1,0,0,0,.965.741.971.971,0,0,0,.259-.034,1,1,0,0,0,.707-1.224l-.473-1.767,1.766-.474A1,1,0,1,0,51.8,47.8l-2.332.625-1.527-.882a2.728,2.728,0,0,0,0-1.09l1.527-.882ZM44,47a1,1,0,1,1,1,1A1,1,0,0,1,44,47Z"></path><path d="M46,58H44a1,1,0,0,0,0,2h2a1,1,0,0,0,0-2Z"></path><circle cx="45" cy="27" r="1"></circle><path d="M39.728,20.322a7.146,7.146,0,0,1,10.544,0,1,1,0,1,0,1.456-1.372,9.147,9.147,0,0,0-13.456,0,1,1,0,0,0,1.456,1.372Z"></path><path d="M47,25a1,1,0,0,0,.77-1.638,3.5,3.5,0,0,0-5.542,0,1,1,0,0,0,1.542,1.276,1.532,1.532,0,0,1,2.458,0A1,1,0,0,0,47,25Z"></path><path d="M49,22.757a1,1,0,0,0,.728-1.686,6.432,6.432,0,0,0-9.456,0,1,1,0,1,0,1.456,1.372,4.431,4.431,0,0,1,6.544,0A1,1,0,0,0,49,22.757Z"></path></g></svg>