<svg height='100px' width='100px'  fill="#000000" xmlns="http://www.w3.org/2000/svg" xmlns:xlink="http://www.w3.org/1999/xlink" version="1.1" x="0px" y="0px" viewBox="0 0 60 60" style="enable-background:new 0 0 60 60;" xml:space="preserve"><path d="M53.44,33.84H50.6c0.18-0.7,0.29-1.43,0.29-2.17c0-3.94-2.65-7.26-6.26-8.3c0.08-0.47,0.13-0.95,0.13-1.43  c0-3.98-2.76-7.33-6.47-8.24c0.01-0.13,0.03-0.25,0.03-0.38C38.32,8.73,34.59,5,30,5c-4.59,0-8.32,3.73-8.32,8.32  c0,0.13,0.02,0.25,0.03,0.38c-3.71,0.91-6.47,4.25-6.47,8.24c0,0.48,0.05,0.96,0.13,1.43c-3.61,1.04-6.26,4.36-6.26,8.3  c0,0.74,0.1,1.47,0.29,2.17H6.56c-0.55,0-1,0.45-1,1c0,8.04,4.06,15.52,10.86,20c0.16,0.11,0.35,0.17,0.55,0.17h26.05  c0.2,0,0.39-0.06,0.55-0.17c6.8-4.48,10.86-11.96,10.86-20C54.44,34.28,53.99,33.84,53.44,33.84z M48.89,31.67  c0,0.75-0.13,1.48-0.37,2.17H38.35c0.18-0.7,0.29-1.43,0.29-2.17c0-1.64-0.47-3.18-1.27-4.49c1.25-1.37,3-2.15,4.88-2.15  C45.91,25.03,48.89,28.01,48.89,31.67z M23.73,33.84c-0.24-0.69-0.37-1.42-0.37-2.17c0-3.32,2.46-6.08,5.65-6.56  c0.03,0,0.05,0.01,0.08,0.01c0.1,0,0.19-0.01,0.29-0.04c0.02,0,0.03-0.02,0.04-0.02c0.19-0.02,0.38-0.03,0.57-0.03  c3.66,0,6.64,2.98,6.64,6.64c0,0.75-0.12,1.48-0.37,2.17H23.73z M42.76,21.94c0,0.38-0.04,0.74-0.1,1.11  c-0.14-0.01-0.27-0.02-0.41-0.02c-2.3,0-4.51,0.94-6.12,2.56c-1.57-1.58-3.73-2.56-6.13-2.56c-0.04,0-0.08,0.01-0.12,0.01  c-0.06-0.36-0.1-0.73-0.1-1.1c0-3.58,2.91-6.49,6.49-6.49S42.76,18.36,42.76,21.94z M23.68,13.32C23.68,9.84,26.51,7,30,7  c3.49,0,6.32,2.84,6.32,6.32c0,0.04-0.01,0.09-0.01,0.13c-0.01,0-0.03,0-0.04,0c-2.48,0-4.71,1.08-6.27,2.78  c-1.6-1.75-3.85-2.78-6.27-2.78c-0.01,0-0.03,0-0.04,0C23.69,13.41,23.68,13.36,23.68,13.32z M17.24,21.94  c0-3.58,2.91-6.49,6.49-6.49c1.99,0,3.84,0.91,5.07,2.45c-0.65,1.2-1.03,2.58-1.03,4.04c0,0.46,0.04,0.91,0.12,1.36  c-1.55,0.39-2.93,1.19-4.02,2.29c-1.61-1.62-3.82-2.56-6.12-2.56c-0.14,0-0.27,0.01-0.41,0.02C17.28,22.68,17.24,22.32,17.24,21.94z   M11.11,31.67c0-3.66,2.98-6.64,6.64-6.64c1.89,0,3.63,0.78,4.88,2.15c-0.8,1.31-1.27,2.84-1.27,4.49c0,0.74,0.1,1.47,0.29,2.17  H11.48C11.24,33.14,11.11,32.42,11.11,31.67z M42.72,53H17.28c-5.81-3.94-9.38-10.28-9.69-17.16h3.21c0,0,0,0,0,0c0,0,0,0,0,0h12.27  c0,0,0,0,0.01,0h13.86c0,0,0,0,0,0c0,0,0,0,0.01,0H49.2c0,0,0,0,0,0c0,0,0,0,0,0h3.21C52.1,42.72,48.53,49.06,42.72,53z"></path></svg>