<svg height='100px' width='100px'  fill="#000000" xmlns="http://www.w3.org/2000/svg" xmlns:xlink="http://www.w3.org/1999/xlink" version="1.1" x="0px" y="0px" viewBox="0 0 1024 1024" style="enable-background:new 0 0 1024 1024;" xml:space="preserve"><g><g><g><path d="M898.1,834.5c-5.9,0-11.8,0-17.7,0c-16.1,0-32.2,0-48.3,0c-24.2,0-48.4,0-72.6,0c-30,0-59.9,0-89.9,0     c-33.3,0-66.6,0-99.9,0c-34.7,0-69.4,0-104.2,0c-33.7,0-67.4,0-101.1,0c-30.3,0-60.6,0-90.9,0c-24.9,0-49.9,0-74.8,0     c-17.1,0-34.3,0-51.4,0c-7.1,0-14.2,0.1-21.3,0c-0.8,0-1.5,0-2.3-0.1c-0.5,0-3.3-0.4-1.4-0.1c1.8,0.3-0.4-0.1-0.6-0.2     c-1.3-0.4-2.5-0.7-3.8-1.1c-2.6-0.7,1.1,0.8-1.2-0.5c-1.5-0.9-3-1.7-4.4-2.7c2.1,1.4-0.2-0.2-1-0.9c-0.9-0.9-1.8-1.8-2.7-2.8     c-1.8-1.9,0.5,1.2-0.8-1.1c-0.8-1.5-1.8-3-2.5-4.5c1.1,2.3-0.1-0.3-0.4-1.3c-0.4-1.3-0.6-2.6-0.9-3.9c0.7,2.7-0.1-1.6-0.1-2.8     c0-2.1,0-4.3,0-6.4c0-14.4,0-28.9,0-43.3c0-24.7,0-49.5,0-74.2c0-31.5,0-63.1,0-94.6c0-34.5,0-69,0-103.5c0-33.6,0-67.2,0-100.8     c0-29.3,0-58.5,0-87.8c0-21,0-42.1,0-63.1c0-9-0.1-18.1,0-27.2c0-0.3,0-0.7,0-1c0-1.2,0.8-4.7,0.1-2.1c0.3-1.3,0.6-2.6,0.9-3.9     c0.3-1,1.5-3.6,0.4-1.3c0.7-1.6,1.7-3,2.5-4.5c1.3-2.3-1.1,0.8,0.8-1.1c0.9-0.9,1.7-1.9,2.7-2.8c0.8-0.7,3-2.3,1-0.9     c1.4-1,2.9-1.8,4.4-2.7c2.3-1.4-1.4,0.2,1.2-0.5c1.3-0.3,2.5-0.7,3.8-1.1c2.7-0.8-1.5-0.1,1.3-0.3c0.9,0,1.8-0.1,2.8-0.1     c1.6,0,3.2,0,4.9,0c11.5,0,23,0,34.5,0c20.5,0,41,0,61.5,0c27.5,0,54.9,0,82.4,0c32.1,0,64.1,0,96.2,0c34.2,0,68.5,0,102.7,0     c34.5,0,69,0,103.4,0c32.3,0,64.6,0,96.9,0c27.7,0,55.5,0,83.2,0c21.2,0,42.4,0,63.6,0c12.2,0,24.5,0,36.7,0c2,0,4.1,0,6.1,0     c0,0,0.1,0,0.1,0c0,0,0,0,0,0c0.7,0,1.4,0,2.1,0.1c0.3,0,3.1,0.4,1.4,0.1c-1.5-0.3,2,0.5,2.6,0.7c0.9,0.3,4.5,1.8,1.9,0.5     c1.2,0.6,2.3,1.2,3.4,1.8c0.6,0.3,1.1,0.7,1.6,1c1.9,1.1-1.6-1.5,0,0c1,0.8,1.9,1.7,2.8,2.6c0.7,0.7,2.8,3.7,1.3,1.4     c0.7,1.1,1.4,2.2,2.1,3.3c0.3,0.6,0.6,1.2,0.9,1.7c1,2-0.7-2.1,0,0c0.5,1.5,0.9,2.9,1.3,4.4c0.8,2.7,0.1-1.5,0.3,1.3     c0,0.9,0.1,1.9,0.1,2.8c0.1,8.1,0,16.1,0,24.2c0,20.3,0,40.6,0,60.9c0,28.6,0,57.3,0,85.9c0,33.5,0,67.1,0,100.6     c0,34.6,0,69.2,0,103.7c0,31.7,0,63.5,0,95.2c0,25.5,0,51,0,76.4c0,15.3,0,30.6,0,45.9c0,2.6,0,5.3,0,7.9c0,0.1,0,0.2,0,0.3     c0,1.4-0.1,2.7-0.2,4.1c0.3-2.6-0.2,0.3-0.4,1.3c-0.2,0.9-0.5,1.7-0.8,2.5c-0.1,0.2-0.9,2.2-0.2,0.6c0.6-1.4-1,1.8-1.3,2.3     c-0.3,0.5-2.2,3.4-1.3,2.2c0.8-1.2-1.3,1.5-1.7,1.9c-1,1.1-2.1,2.1-3.3,3c2-1.6-0.3,0.1-1.2,0.6c-1.1,0.7-2.3,1.3-3.4,1.8     c2.3-1.1-0.3,0.1-1.3,0.4c-0.5,0.2-4.7,1.2-3.2,0.9c1.7-0.3-0.4,0-0.7,0.1C900,834.4,899.1,834.5,898.1,834.5     c-7.8,0.1-15.4,6.8-15,15c0.4,8,6.6,15.2,15,15c28.5-0.5,51.4-23.3,51.8-51.9c0-2.2,0-4.4,0-6.5c0-14.7,0-29.4,0-44.1     c0-25.3,0-50.5,0-75.8c0-32,0-64,0-96c0-34.9,0-69.8,0-104.7c0-33.9,0-67.8,0-101.8c0-29.1,0-58.2,0-87.3c0-20.4,0-40.9,0-61.3     c0-7.9,0.1-15.9,0-23.8c-0.5-28.5-23.3-51.4-51.8-51.9c-1.6,0-3.1,0-4.7,0c-11.6,0-23.1,0-34.7,0c-20.9,0-41.7,0-62.6,0     c-27.8,0-55.7,0-83.5,0c-32.5,0-64.9,0-97.4,0c-34.8,0-69.5,0-104.3,0c-34.7,0-69.5,0-104.2,0c-32.4,0-64.8,0-97.2,0     c-27.7,0-55.4,0-83.1,0c-20.7,0-41.4,0-62.1,0c-11.4,0-22.7,0-34.1,0c-2.4,0-4.7-0.1-7.1,0.1c-27.4,2-48.7,24.2-49.1,51.8     c-0.1,8.2,0,16.4,0,24.6c0,20.6,0,41.3,0,61.9c0,29.2,0,58.5,0,87.7c0,34,0,67.9,0,101.9c0,34.9,0,69.7,0,104.6     c0,31.9,0,63.8,0,95.7c0,25.1,0,50.2,0,75.3c0,14.5,0,28.9,0,43.4c0,2,0,4.1,0,6.1c0.4,28.5,23.3,51.4,51.8,51.8     c6.2,0.1,12.5,0,18.7,0c16.7,0,33.3,0,50,0c24.7,0,49.5,0,74.2,0c30.5,0,61,0,91.5,0c33.9,0,67.9,0,101.8,0     c35.1,0,70.1,0,105.2,0c33.8,0,67.7,0,101.5,0c30.3,0,60.5,0,90.8,0c24.4,0,48.8,0,73.2,0c16.2,0,32.3,0,48.5,0     c5.6,0,11.3,0,16.9,0c7.8,0,15.4-6.9,15-15C912.8,841.4,906.5,834.5,898.1,834.5z"></path></g></g><g><g><path d="M547.2,773.7c16.7,0,33.4,0,50.1,0c35.1,0,70.2,0,105.3,0c31.6,0,63.1,0,94.7,0c7.4,0,14.8,0,22.2,0     c22.3-0.1,40.4-16.6,40.9-39.2c0.3-11.6,0-23.2,0-34.7c0-28.2,0-56.3,0-84.5c0-36.1,0-72.2,0-108.3c0-35.7,0-71.4,0-107.1     c0-27,0-54.1,0-81.1c0-7.5,0-15,0-22.6c0-6.7,0.1-13.4-2.3-19.8c-5.9-15.6-20.2-25.7-36.9-26.1c-1.3,0-2.6,0-3.9,0     c-8.8,0-17.5,0-26.3,0c-32.8,0-65.6,0-98.4,0c-34.4,0-68.7,0-103.1,0c-11,0-22,0-33,0c-9.5,0-18.4-0.1-27.4,4.3     c-14.5,7.2-21.3,22.1-21.3,37.7c0,6,0,11.9,0,17.9c0,24.9,0,49.8,0,74.7c0,35.1,0,70.1,0,105.2c0,36.6,0,73.1,0,109.7     c0,29.9,0,59.9,0,89.8c0,14.6-0.1,29.2,0,43.8C508.1,755.6,524.9,773.1,547.2,773.7c7.8,0.2,15.4-7.1,15-15     c-0.4-8.3-6.6-14.8-15-15c-0.2,0-2.5,0-0.7,0.1c1.9,0.1-0.8-0.2-1.3-0.3c-0.6-0.1-1.3-0.4-1.9-0.6c0.2,0.1,2.1,1.1,0.6,0.2     c-0.9-0.5-3.8-2.6-1.8-0.8c-0.8-0.7-3.5-4.1-1.9-1.7c-0.7-1.1-1.4-2.2-1.9-3.4c1.2,2.6-0.1-1.1-0.3-2c-0.3-1.4,0,2,0.1-0.7     c0,0,0,0,0-0.1c0-1,0-1.9,0-2.9c0-5.9,0-11.8,0-17.7c0-24.2,0-48.4,0-72.6c0-34.1,0-68.2,0-102.3c0-36.1,0-72.1,0-108.2     c0-29.9,0-59.9,0-89.8c0-16.2,0-32.4,0-48.6c0-0.9,0-1.9,0-2.8c-0.1-3-0.8,1.4,0.1-1.4c0.3-1,1.3-3.7,0.2-1.4     c0.4-0.9,3-4.5,1.1-2.4c0.8-1,1.7-1.9,2.7-2.7c-2.2,1.9,1-0.4,1.8-0.8c1.5-0.8-0.4,0.2-0.6,0.2c0.8-0.3,1.7-0.5,2.5-0.7     c2.6-0.8-1.4-0.1,1.4-0.1c4.5,0.1,9.1,0,13.6,0c27.9,0,55.7,0,83.6,0c35.5,0,71.1,0,106.6,0c22.4,0,44.7,0,67.1,0     c1.5,0,3.1,0,4.6,0c-2.5,0,0.2,0.2,1.3,0.4c0.6,0.1,2.7,1.1,0.1-0.1c0.6,0.3,1.2,0.6,1.7,0.9c0.6,0.3,1.1,0.7,1.6,1     c-0.6-0.4-1.8-1.9,0,0.1c0.4,0.5,0.9,0.9,1.3,1.4c1.5,1.5-1-1.8,0,0c0.5,0.9,1.9,4.3,1,1.6c0.4,1.3,0.8,2.5,1,3.8     c-0.4-2.8-0.2-0.5-0.2,0.2c-0.2,3.4,0,6.8,0,10.2c0,20.5,0,41,0,61.5c0,32.4,0,64.8,0,97.2c0,36.3,0,72.6,0,108.9     c0,32.3,0,64.5,0,96.8c0,20.3,0,40.5,0,60.8c0,3.1-0.1,6.3,0,9.5c0,0,0,0,0,0c0.1,2.8,0.1,0.9,0.2,0.1c-0.1,0.7-0.3,1.3-0.4,1.9     c-0.1,0.6-0.4,1.3-0.6,1.9c0.8-2.5,0.4-0.7-0.1,0c-0.3,0.5-0.7,1.1-1,1.7c-1,1.8,1.5-1.5,0,0c-0.8,0.8-3.5,2.9-1.3,1.5     c-0.6,0.4-4.1,2.2-2.8,1.7c1.4-0.5-2,0.5-2.6,0.6c-2.1,0.4,3.3,0-0.7-0.1c-1.3,0-2.6,0-3.9,0c-22.9,0-45.8,0-68.6,0     c-35.6,0-71.2,0-106.8,0c-27.4,0-54.9,0-82.3,0c-4.1,0-8.3,0-12.4,0c-7.8,0-15.4,6.9-15,15C532.6,766.9,538.8,773.7,547.2,773.7z     "></path></g></g><g><g><path d="M757,410.5c-42.5,0-85.1,0-127.6,0c-6,0-11.9,0-17.9,0c5,5,10,10,15,15c0-25.4,0-50.7,0-76.1     c0-3.6,0-7.3,0-10.9c-5,5-10,10-15,15c42.5,0,85.1,0,127.6,0c6,0,11.9,0,17.9,0c-5-5-10-10-15-15c0,25.4,0,50.7,0,76.1     c0,3.6,0,7.3,0,10.9c0,7.8,6.9,15.4,15,15c8.1-0.4,15-6.6,15-15c0-25.4,0-50.7,0-76.1c0-3.6,0-7.3,0-10.9c0-8.1-6.9-15-15-15     c-42.5,0-85.1,0-127.6,0c-6,0-11.9,0-17.9,0c-8.1,0-15,6.9-15,15c0,25.4,0,50.7,0,76.1c0,3.6,0,7.3,0,10.9c0,8.1,6.9,15,15,15     c42.5,0,85.1,0,127.6,0c6,0,11.9,0,17.9,0c7.8,0,15.4-6.9,15-15C771.6,417.4,765.4,410.5,757,410.5z"></path></g></g><g><g><path d="M325.9,319.9c-16.3,20.4-32.6,40.8-48.9,61.2c-26,32.6-52,65.1-78,97.7c-6,7.5-12,15.1-18.1,22.6     c-3.8,4.8-5.7,10.4-3.1,16.4c2.4,5.4,7.6,9.2,13.7,9.2c22,0,44,0,66.1,0c34.9,0,69.8,0,104.7,0c8.1,0,16.1,0,24.2,0     c-3.5-8.5-7.1-17.1-10.6-25.6c-16.3,20.4-32.6,40.8-48.9,61.2c-26,32.6-52,65.1-78,97.7c-6,7.5-12,15.1-18.1,22.6     c-5.1,6.3-6.2,15,0,21.2c5.2,5.2,16.1,6.4,21.2,0c16.3-20.4,32.6-40.8,48.9-61.2c26-32.6,52-65.1,78-97.7     c6-7.5,12-15.1,18.1-22.6c3.8-4.8,5.7-10.4,3.1-16.4c-2.4-5.4-7.6-9.2-13.7-9.2c-22,0-44,0-66.1,0c-34.9,0-69.8,0-104.7,0     c-8.1,0-16.1,0-24.2,0c3.5,8.5,7.1,17.1,10.6,25.6c16.3-20.4,32.6-40.8,48.9-61.2c26-32.6,52-65.1,78-97.7     c6-7.5,12-15.1,18.1-22.6c5.1-6.3,6.2-15,0-21.2C341.9,314.7,331,313.5,325.9,319.9L325.9,319.9z"></path></g></g><g><g><path d="M495.5,400.3c9.2,0,18.3,0,27.5,0c7.8,0,15.4-6.9,15-15c-0.4-8.1-6.6-15-15-15c-9.2,0-18.3,0-27.5,0     c-7.8,0-15.4,6.9-15,15C480.9,393.4,487.1,400.3,495.5,400.3L495.5,400.3z"></path></g></g><g><g><path d="M495.5,653.7c9.2,0,18.3,0,27.5,0c7.8,0,15.4-6.9,15-15c-0.4-8.1-6.6-15-15-15c-9.2,0-18.3,0-27.5,0     c-7.8,0-15.4,6.9-15,15C480.9,646.9,487.1,653.7,495.5,653.7L495.5,653.7z"></path></g></g></g></svg>