<svg height='100px' width='100px'  fill="#000000" xmlns="http://www.w3.org/2000/svg" xmlns:xlink="http://www.w3.org/1999/xlink" version="1.1" x="0px" y="0px" viewBox="0 0 64 64" style="enable-background:new 0 0 64 64;" xml:space="preserve"><g><path d="M58,6H6c-2.757,0-5,2.243-5,5v36c0,2.757,2.243,5,5,5h13v4h-4v2h34v-2h-4v-4h13c2.757,0,5-2.243,5-5V11   C63,8.243,60.757,6,58,6z M43,56H21v-4h22V56z M61,47c0,1.654-1.346,3-3,3H6c-1.654,0-3-1.346-3-3v-1h58V47z M61,44H3V11   c0-1.654,1.346-3,3-3h52c1.654,0,3,1.346,3,3V44z"></path><path d="M5,30h54V10H5V30z M7,12h50v16H7V12z"></path><path d="M5,42h14V32H5V42z M7,34h10v6H7V34z"></path><rect x="21" y="32" width="10" height="2"></rect><rect x="21" y="36" width="10" height="2"></rect><rect x="21" y="40" width="10" height="2"></rect><path d="M33,42h14V32H33V42z M35,34h10v6H35V34z"></path><rect x="49" y="32" width="10" height="2"></rect><rect x="49" y="36" width="10" height="2"></rect><rect x="49" y="40" width="10" height="2"></rect><path d="M39.449,15H32.28l-0.8-1H24.52l-8,10H9v2h46v-2h-7.551L39.449,15z M19.08,24l6.4-8h5.039l3.7,4.625l1.562-1.249L33.88,17   h4.67l6.222,7H19.08z"></path></g></svg>