<svg height='100px' width='100px'  fill="#000000" xmlns="http://www.w3.org/2000/svg" xmlns:xlink="http://www.w3.org/1999/xlink" version="1.1" x="0px" y="0px" viewBox="0 0 512 512" enable-background="new 0 0 512 512" xml:space="preserve"><g><path d="M162.224,63.782c5.766-1.227,9.445-6.891,8.219-12.656c-1.227-5.758-6.891-9.438-12.648-8.211   c-5.766,1.219-9.445,6.883-8.219,12.648C150.794,61.321,156.458,65.001,162.224,63.782z"></path><path d="M469.338,138.665c0-29.453-95.53-53.328-213.342-53.328c-11.758,0-23.281,0.242-34.522,0.695l-9.297-43.766   c-5.32-25.077-27.469-42.265-52.117-42.265c-3.672,0-7.398,0.383-11.133,1.172c-28.812,6.125-47.211,34.437-41.086,63.249   l7.258,34.203c-44.405,9.773-72.437,24.086-72.437,40.039c0,0.312,0.031,0.625,0.047,0.938h-0.047v319.052   c0,29.469,95.515,53.344,213.334,53.344c117.812,0,213.342-23.875,213.342-53.344V139.603h-0.062   C469.307,139.29,469.338,138.978,469.338,138.665z M255.996,106.665c49.609,0,97.437,4.414,134.655,12.43   c17.156,3.695,31.874,8.148,42.593,12.891c6.047,2.68,9.828,4.992,12.125,6.68c-2.297,1.695-6.078,4.008-12.125,6.688   c-10.719,4.734-25.437,9.195-42.593,12.891c-37.219,8.015-85.046,12.421-134.655,12.421c-5.555,0-11.086-0.055-16.586-0.164   l-13.438-63.288C235.855,106.853,245.887,106.665,255.996,106.665z M153.356,22.041c2.219-0.469,4.477-0.703,6.703-0.703   c7.203,0,14.297,2.5,19.969,7.047c5.828,4.663,9.727,10.991,11.281,18.312l26.141,123.069c-23.594-1.109-46.195-3.227-66.758-6.266   L128.708,59.993C125.044,42.735,136.099,25.713,153.356,22.041z M78.748,131.985c10.328-4.57,24.405-8.875,40.788-12.492   l8.523,40.133c-2.273-0.453-4.516-0.914-6.711-1.383c-17.164-3.695-31.89-8.156-42.601-12.891   c-6.047-2.68-9.828-4.992-12.125-6.688C68.92,136.978,72.701,134.665,78.748,131.985z M447.994,456.436   c-1.406,1.438-5.297,4.719-14.75,8.906c-10.719,4.75-25.437,9.203-42.593,12.906c-37.219,8-85.046,12.406-134.655,12.406   c-49.608,0-97.429-4.406-134.647-12.406c-17.164-3.703-31.89-8.156-42.601-12.906c-9.453-4.188-13.352-7.469-14.75-8.906v-38.469   V161.938c6,3.086,13.156,6.008,21.336,8.734v31.992c0,5.891,4.773,10.672,10.663,10.672c5.891,0,10.664-4.781,10.664-10.672V176.75   c6.703,1.641,13.82,3.172,21.336,4.586v149.318c0,5.906,4.773,10.688,10.664,10.688s10.672-4.781,10.672-10.688V184.867   c31.375,4.531,67.805,7.133,106.663,7.133v32c0,5.891,4.773,10.664,10.664,10.664c5.898,0,10.68-4.773,10.68-10.664v-32.266   c30.844-0.766,59.75-3.172,85.312-6.867v60.469c0,5.891,4.781,10.664,10.688,10.664c5.875,0,10.656-4.773,10.656-10.664v-64   c7.516-1.414,14.625-2.945,21.344-4.586v4.75l0,0c0.094,5.812,4.812,10.5,10.656,10.5c5.843,0,10.562-4.688,10.655-10.5l0,0   v-10.828c8.188-2.727,15.344-5.648,21.344-8.734V456.436z"></path></g></svg>