<svg height='100px' width='100px'  fill="#000000" xmlns="http://www.w3.org/2000/svg" xmlns:xlink="http://www.w3.org/1999/xlink" version="1.1" x="0px" y="0px" viewBox="0 0 100 100" style="enable-background:new 0 0 100 100;" xml:space="preserve"><style type="text/css">
	.st0{fill:none;stroke:#000000;stroke-width:2;stroke-linecap:round;stroke-linejoin:round;stroke-miterlimit:10;}
	.st1{fill:none;stroke:#000000;stroke-width:1.8;stroke-linecap:round;stroke-linejoin:round;stroke-miterlimit:10;}
	.st2{fill:none;stroke:#000000;stroke-width:2;stroke-miterlimit:10;}
</style><path d="M90.122,36.5l-2.031-25.553c-0.042-0.521-0.476-0.921-0.997-0.921H13.156c-0.521,0-0.955,0.4-0.997,0.921L10.128,36.5  c-0.001,0.013,0.006,0.026,0.005,0.039c-0.001,0.014-0.008,0.026-0.008,0.04c0,2.112,1.1,3.964,2.747,5.017v47.43  c0,0.553,0.447,1,1,1h72.471c0.553,0,1-0.447,1-1V41.618c1.667-1.049,2.782-2.912,2.782-5.039c0-0.014-0.007-0.026-0.008-0.04  C90.116,36.526,90.123,36.513,90.122,36.5z M84.25,40.517c-1.825,0-3.35-1.257-3.759-2.938h7.485  C87.526,39.245,86.01,40.517,84.25,40.517z M51.57,81.585v-15.88h7.213v15.88H51.57z M14.872,65.705h7.059v15.88h-7.059V65.705z   M23.931,65.705h7.213v15.88h-7.213V65.705z M33.144,65.705h7.214v15.88h-7.214V65.705z M42.357,65.705h7.213v15.88h-7.213V65.705z   M12.274,37.579h7.485c-0.408,1.68-1.933,2.938-3.759,2.938C14.24,40.517,12.724,39.245,12.274,37.579z M70.625,35.579V12.026h7.75  v23.553H70.625z M68.625,35.579h-7.75V12.026h7.75V35.579z M58.875,35.579h-7.737V12.026h7.737V35.579z M49.138,35.579h-7.763  V12.026h7.763V35.579z M39.375,35.579h-7.75V12.026h7.75V35.579z M29.625,35.579h-7.794V12.026h7.794V35.579z M29.509,37.579  c-0.408,1.68-1.933,2.938-3.759,2.938s-3.35-1.257-3.759-2.938H29.509z M39.259,37.579c-0.408,1.68-1.933,2.938-3.759,2.938  s-3.35-1.257-3.759-2.938H39.259z M49.009,37.579c-0.408,1.68-1.933,2.938-3.759,2.938s-3.35-1.257-3.759-2.938H49.009z   M58.759,37.579c-0.408,1.68-1.933,2.938-3.759,2.938s-3.35-1.257-3.759-2.938H58.759z M68.509,37.579  c-0.408,1.68-1.933,2.938-3.759,2.938s-3.35-1.257-3.759-2.938H68.509z M78.259,37.579c-0.408,1.68-1.933,2.938-3.759,2.938  s-3.35-1.257-3.759-2.938H78.259z M88.042,35.579h-7.667V12.026h5.795L88.042,35.579z M14.08,12.026h5.751v23.553h-7.623  L14.08,12.026z M16,42.517c2.028,0,3.819-1.024,4.875-2.579c1.056,1.554,2.847,2.579,4.875,2.579s3.819-1.024,4.875-2.579  c1.056,1.554,2.847,2.579,4.875,2.579s3.819-1.024,4.875-2.579c1.056,1.554,2.847,2.579,4.875,2.579s3.819-1.024,4.875-2.579  c1.056,1.554,2.847,2.579,4.875,2.579c1.441,0,2.76-0.519,3.783-1.376v22.564H14.872V42.404C15.237,42.476,15.614,42.517,16,42.517z   M14.872,88.026v-4.441h70.471v4.441H14.872z M80.243,52.53H66.295v-4.936h13.948V52.53z M66.295,54.53h13.948v27.055H66.295V54.53z   M85.343,81.585h-3.1v-34.99c0-0.553-0.447-1-1-1H65.295c-0.553,0-1,0.447-1,1v34.99h-3.512V40.976  c1.047,0.953,2.437,1.541,3.967,1.541c2.028,0,3.819-1.024,4.875-2.579c1.056,1.554,2.847,2.579,4.875,2.579  s3.819-1.024,4.875-2.579c1.056,1.554,2.847,2.579,4.875,2.579c0.374,0,0.738-0.039,1.093-0.107V81.585z"></path><path d="M69.271,60.594c-0.553,0-1,0.447-1,1v2.893c0,0.553,0.447,1,1,1s1-0.447,1-1v-2.893  C70.271,61.041,69.824,60.594,69.271,60.594z"></path></svg>