<svg height='100px' width='100px'  fill="#000000" xmlns="http://www.w3.org/2000/svg" xmlns:xlink="http://www.w3.org/1999/xlink" version="1.1" x="0px" y="0px" viewBox="0 0 60 60" style="enable-background:new 0 0 60 60;" xml:space="preserve"><path d="M6,55h48c0.6,0,1-0.4,1-1V33c0-0.3-0.1-0.5-0.3-0.7l-9-8.4L44,5.9c0-0.1,0-0.1,0-0.2c0-0.1,0-0.1,0-0.2  c0-0.1-0.1-0.1-0.1-0.2c0,0-0.1-0.1-0.1-0.1c-0.1-0.1-0.1-0.1-0.2-0.1c0,0-0.1-0.1-0.1-0.1C43.3,5,43.1,5,43,5h-6  c-0.1,0-0.3,0-0.4,0.1c0,0-0.1,0-0.1,0.1c-0.1,0-0.1,0.1-0.2,0.1c0,0-0.1,0.1-0.1,0.1c0,0.1-0.1,0.1-0.1,0.2c0,0.1,0,0.1,0,0.2  c0,0.1,0,0.1,0,0.2l-1.3,20.8l-8-7.4c-0.3-0.3-0.7-0.3-1.1-0.2C25.2,19.2,25,19.6,25,20v10.7L12.7,19.3c-0.3-0.3-0.7-0.3-1.1-0.2  C11.2,19.2,11,19.6,11,20v12H6c-0.6,0-1,0.4-1,1v21C5,54.6,5.4,55,6,55z M42,7v1h-4V7H42z M37.8,10h4.6l1.1,11.9l-2.8-2.6  c-0.3-0.3-0.7-0.3-1.1-0.2C39.2,19.2,39,19.6,39,20v10.7l-2.4-2.2L37.8,10z M7,34h5c0.6,0,1-0.4,1-1V22.3l12.3,11.4  c0.3,0.3,0.7,0.3,1.1,0.2c0.4-0.2,0.6-0.5,0.6-0.9V22.3l12.3,11.4c0.3,0.3,0.7,0.3,1.1,0.2c0.4-0.2,0.6-0.5,0.6-0.9V22.3l3.1,2.9  c0,0,0,0,0,0l8.9,8.3V53H7V34z"></path><path d="M16,38h-4c-0.6,0-1,0.4-1,1v4c0,0.6,0.4,1,1,1h4c0.6,0,1-0.4,1-1v-4C17,38.4,16.6,38,16,38z M15,42h-2v-2h2V42z"></path><path d="M24,38h-4c-0.6,0-1,0.4-1,1v4c0,0.6,0.4,1,1,1h4c0.6,0,1-0.4,1-1v-4C25,38.4,24.6,38,24,38z M23,42h-2v-2h2V42z"></path><path d="M32,38h-4c-0.6,0-1,0.4-1,1v4c0,0.6,0.4,1,1,1h4c0.6,0,1-0.4,1-1v-4C33,38.4,32.6,38,32,38z M31,42h-2v-2h2V42z"></path><path d="M40,38h-4c-0.6,0-1,0.4-1,1v4c0,0.6,0.4,1,1,1h4c0.6,0,1-0.4,1-1v-4C41,38.4,40.6,38,40,38z M39,42h-2v-2h2V42z"></path><path d="M48,38h-4c-0.6,0-1,0.4-1,1v4c0,0.6,0.4,1,1,1h4c0.6,0,1-0.4,1-1v-4C49,38.4,48.6,38,48,38z M47,42h-2v-2h2V42z"></path></svg>