<svg height='100px' width='100px'  fill="#000000" xmlns="http://www.w3.org/2000/svg" data-name="Layer 1" viewBox="0 0 128 128" x="0px" y="0px"><title>miscellaneous 200_expandline</title><path d="M40.7363,109H46a2.00009,2.00009,0,0,0,2-2v-3.9199C48,100.042,45.5889,98,42,98H19.5293L12.4785,72.0313A7.18744,7.18744,0,0,0,5.8188,67c-.0131,0-3.8574.0742-3.8574.0742A2.0003,2.0003,0,0,0,.0723,69.6074l10.4853,37.9258A2.00058,2.00058,0,0,0,12.4854,109h3.7783L8.2109,125.1055A2.02733,2.02733,0,0,0,9.9985,128a1.99958,1.99958,0,0,0,1.7906-1.1055L20.7363,109H36.2637l8.9472,17.8945a2.00025,2.00025,0,0,0,3.5782-1.789Zm-26.729-4L4.6138,71.0234,5.8188,71a3.22818,3.22818,0,0,1,2.8106,2.1191l7.4404,27.4053A2.00007,2.00007,0,0,0,18,102H42c.9126,0,2,.1875,2,1.0801V105Z"></path><path d="M117.44239,107.5332l10.4853-37.9258a2.00028,2.00028,0,0,0-1.8891-2.5332S122.19429,67,122.18119,67a7.18744,7.18744,0,0,0-6.6597,5.0313L108.47069,98H86c-3.58891,0-6,2.042-6,5.0801V107a2.00009,2.00009,0,0,0,2,2h5.26369l-8.0528,16.1055a2.00025,2.00025,0,0,0,3.5782,1.789L91.73629,109h15.5274l8.9472,17.8945A1.99958,1.99958,0,0,0,118.00149,128a2.02733,2.02733,0,0,0,1.7876-2.8945L111.73629,109h3.7783A2.00058,2.00058,0,0,0,117.44239,107.5332ZM84,105v-1.9199C84,102.1875,85.08739,102,86,102h24a2.00007,2.00007,0,0,0,1.93019-1.4756l7.4404-27.4053A3.22818,3.22818,0,0,1,122.18119,71l1.205.0234L113.99269,105Z"></path><path d="M72,124H66V90H94a2.00009,2.00009,0,0,0,2-2V84a5.99337,5.99337,0,0,0-5.97311-6H80V72a2.00009,2.00009,0,0,0-2-2H70a2.00009,2.00009,0,0,0-2,2v6H58.33939l1.6328-9.667A2.00047,2.00047,0,0,0,58,66H48a2.00047,2.00047,0,0,0-1.9722,2.333L47.6606,78H37.9731A5.99337,5.99337,0,0,0,32,84v4a2.00009,2.00009,0,0,0,2,2H62v34H56a2,2,0,0,0,0,4H72a2,2,0,0,0,0-4Zm0-50h4v4H72ZM55.63379,70l-1.3511,8h-2.5654l-1.3511-8ZM36,86V84a1.98924,1.98924,0,0,1,1.9731-2h52.0538A1.98925,1.98925,0,0,1,92,84v2Z"></path><path d="M53,39H75a1.99994,1.99994,0,0,0,1.99609-2.1279A12.8258,12.8258,0,0,0,66,25.1641V2a2,2,0,0,0-4,0V25.1641a12.82306,12.82306,0,0,0-10.99611,11.708A2,2,0,0,0,53,39ZM64,29a9.01359,9.01359,0,0,1,8.585,6H55.415A9.01093,9.01093,0,0,1,64,29Z"></path><path d="M33,15.999h1V17a2,2,0,0,0,4,0V15.999h1a2,2,0,0,0,0-4H38V11a2,2,0,0,0-4,0v.999H33a2,2,0,0,0,0,4Z"></path><path d="M2.8633,32.333l-.5459,3.3447A1.9993,1.9993,0,0,0,5.2583,37.75L8,36.2354,10.7417,37.75a1.9993,1.9993,0,0,0,2.9409-2.0723l-.5459-3.3447,2.2949-2.3535a2.00012,2.00012,0,0,0-1.1298-3.374l-3.0904-.4717L9.8105,23.1504a1.99988,1.99988,0,0,0-3.621,0L4.7886,26.1338l-3.0904.4717a2.00012,2.00012,0,0,0-1.1298,3.374Zm3.584-2.4053a2.00232,2.00232,0,0,0,1.5088-1.1279L8,28.7061l.0439.0937a2.00232,2.00232,0,0,0,1.5088,1.1279l.2984.045-.2827.29a1.99864,1.99864,0,0,0-.542,1.7187l.0449.2754-.104-.0566a1.99634,1.99634,0,0,0-1.9346,0l-.104.0566.0449-.2754a1.99862,1.99862,0,0,0-.542-1.7187l-.2827-.29Z"></path><path d="M8,18a2.00009,2.00009,0,0,0,2-2V2A2,2,0,0,0,6,2V16A2.00009,2.00009,0,0,0,8,18Z"></path><path d="M15.1035,48.7129a1.99827,1.99827,0,0,0,.4649,2.0312l2.7954,2.8653-.6641,4.0683A2.00017,2.00017,0,0,0,20.6416,59.75L24,57.8926,27.3584,59.75a2.00017,2.00017,0,0,0,2.9419-2.0723l-.6641-4.0683,2.7954-2.8653a2.00039,2.00039,0,0,0-1.1298-3.374L27.52,46.793l-1.7095-3.6426a1.99988,1.99988,0,0,0-3.621,0L20.48,46.793l-3.7818.5771A2.0013,2.0013,0,0,0,15.1035,48.7129Zm7.0352,1.874a2.00289,2.00289,0,0,0,1.5088-1.1279L24,48.708l.3525.751a2.00289,2.00289,0,0,0,1.5088,1.1279l.9888.1504-.7817.8018a1.9995,1.9995,0,0,0-.5425,1.7187l.1631.9981-.7212-.3985a1.99827,1.99827,0,0,0-1.9356,0l-.7212.3985.1631-.9981a1.99948,1.99948,0,0,0-.5425-1.7187l-.7817-.8018Z"></path><path d="M24,38a2.00009,2.00009,0,0,0,2-2V2a2,2,0,0,0-4,0V36A2.00009,2.00009,0,0,0,24,38Z"></path><path d="M38.5352,30.1172H36.8271l-.5415-1.7373c-.1582-.5069-.4135-.5069-.5722,0l-.541,1.7373H33.4663c-.5332,0-.6225.2617-.1992.581l1.396,1.0596-.5405,1.7383c-.1568.5049.0586.6562.4804.334L36,32.7715l1.397,1.0586c.4209.3222.6377.1709.4795-.334l-.5396-1.7383,1.395-1.0596C39.1563,30.3789,39.0659,30.1172,38.5352,30.1172Z"></path><path d="M89,15.999h1V17a2,2,0,0,0,4,0V15.999h1a2,2,0,0,0,0-4H94V11a2,2,0,0,0-4,0v.999H89a2,2,0,0,0,0,4Z"></path><path d="M114.86329,32.333l-.5459,3.3447a1.9993,1.9993,0,0,0,2.9409,2.0723L120,36.2354l2.74169,1.5146a1.9993,1.9993,0,0,0,2.9409-2.0723l-.5459-3.3447,2.2949-2.3535a2.00012,2.00012,0,0,0-1.1298-3.374l-3.0904-.4717-1.4009-2.9834a1.99988,1.99988,0,0,0-3.621,0l-1.4009,2.9834-3.0904.4717a2.00012,2.00012,0,0,0-1.1298,3.374Zm3.584-2.4053a2.00232,2.00232,0,0,0,1.5088-1.1279L120,28.7061l.04389.0937a2.00232,2.00232,0,0,0,1.5088,1.1279l.2984.045-.2827.29a1.99865,1.99865,0,0,0-.542,1.7187l.0449.2754-.104-.0566a1.99634,1.99634,0,0,0-1.9346,0l-.104.0566.0449-.2754a1.99861,1.99861,0,0,0-.542-1.7187l-.2827-.29Z"></path><path d="M120,18a2.00009,2.00009,0,0,0,2-2V2a2,2,0,0,0-4,0V16A2.00008,2.00008,0,0,0,120,18Z"></path><path d="M95.10349,48.7129a1.99827,1.99827,0,0,0,.4649,2.0312l2.7954,2.8653-.6641,4.0683a2.00017,2.00017,0,0,0,2.9419,2.0723L104,57.8926l3.35839,1.8574a2.00017,2.00017,0,0,0,2.9419-2.0723l-.6641-4.0683,2.7954-2.8653a2.00039,2.00039,0,0,0-1.1298-3.374L107.52,46.793l-1.70951-3.6426a1.99988,1.99988,0,0,0-3.621,0L100.48,46.793l-3.78181.5771A2.00131,2.00131,0,0,0,95.10349,48.7129Zm7.0352,1.874a2.00289,2.00289,0,0,0,1.5088-1.1279L104,48.708l.35249.751a2.00289,2.00289,0,0,0,1.5088,1.1279l.9888.1504-.7817.8018a1.99951,1.99951,0,0,0-.5425,1.7187l.16311.9981-.72121-.3985a1.99827,1.99827,0,0,0-1.9356,0l-.72119.3985.16309-.9981a1.99947,1.99947,0,0,0-.5425-1.7187l-.7817-.8018Z"></path><path d="M104,38a2.00009,2.00009,0,0,0,2-2V2a2,2,0,0,0-4,0V36A2.00008,2.00008,0,0,0,104,38Z"></path><path d="M94.53369,30.1172h-1.7061l-.541-1.7373c-.1587-.5069-.414-.5069-.5722,0l-.5415,1.7373h-1.7081c-.5307,0-.621.2617-.1967.581l1.395,1.0596-.5396,1.7383c-.1582.5049.0586.6562.47951.334L92,32.7715l1.397,1.0586c.42179.3222.63719.1709.48039-.334l-.5405-1.7383,1.396-1.0596C95.15629,30.3789,95.06689,30.1172,94.53369,30.1172Z"></path><path d="M62,43.5v2a2,2,0,0,0,4,0v-2a2,2,0,0,0-4,0Z"></path><path d="M57.10549,40.7754l-2,1a2.00083,2.00083,0,0,0-.8946,2.6836,2.023,2.023,0,0,0,2.6836.8945l2-1a2.00021,2.00021,0,1,0-1.789-3.5781Z"></path><path d="M70.89449,40.7754a2.00021,2.00021,0,1,0-1.789,3.5781l2,1a2.00021,2.00021,0,1,0,1.789-3.5781Z"></path></svg>