<svg height='100px' width='100px'  fill="#000000" xmlns="http://www.w3.org/2000/svg" viewBox="0 0 64 64" x="0px" y="0px"><g><g data-name="Ice-cream Shop"><path d="M61,57H58V31.44A4,4,0,0,0,60,28V26h1a1,1,0,0,0,0-2H59.68L54.34,10.67A3,3,0,0,0,53,5H39.12A9.89,9.89,0,0,0,24.93,5H11a3,3,0,0,0-1.34,5.67L4.32,24H3a1,1,0,0,0,0,2H4v2a4,4,0,0,0,2,3.44V57H3a1,1,0,0,0-1,1v3a1,1,0,0,0,1,1H61a1,1,0,0,0,1-1V58A1,1,0,0,0,61,57Zm-5,0H54V55a1,1,0,0,0-2,0v2H50V54a1,1,0,0,0-2,0v3H46V55a1,1,0,0,0-2,0v2H42V31.44A3.91,3.91,0,0,0,44,32a4,4,0,0,0,3.38-1.88,4.34,4.34,0,0,0,5.24,0A4,4,0,0,0,54,31.43l.22.12c.12.06.25.13.38.18s.26.08.4.12l.31.08.12,0A3.81,3.81,0,0,0,56,32h0ZM16,27.5c0,.8-.93,1.5-2,1.5s-2-.7-2-1.5V26h4Zm-6,.34a2.17,2.17,0,0,1-1.29,2,1.27,1.27,0,0,1-.18.06l-.17,0A2.2,2.2,0,0,1,8,30H8a2.05,2.05,0,0,1-.56-.09l-.12,0a1.89,1.89,0,0,1-.47-.24l-.07-.06a1.82,1.82,0,0,1-.34-.34l-.06-.07a1.83,1.83,0,0,1-.25-.48A1.91,1.91,0,0,1,6,28V26H9.94a.05.05,0,0,1,.06.06v1.78ZM14,11,10.25,24H6.48l5.2-13Zm4,16.5V26h4v2a2,2,0,0,1-4,0ZM40.85,15.26h.55a1.65,1.65,0,0,0,.54-3.21s0-.07,0-.1c0-.32,0-.64-.05-.95H48a.82.82,0,0,0,0,.27l1.14,4a1,1,0,0,0,1.24.68h0a1,1,0,0,0,.69-1.23L50,11h2.28l5.2,13H54a.82.82,0,0,0,0-.27l-1.48-5.2a1,1,0,0,0-1.24-.68h0a1,1,0,0,0-.68,1.23L52,24H47.85L46,12.84a1,1,0,1,0-2,.32L45.82,24H36.73l2.18-6.55A2.21,2.21,0,0,0,40.85,15.26ZM36,26.22l0-.07a.18.18,0,0,1,.18-.15H40v1.5c0,.8-.93,1.5-2,1.5s-2-.7-2-1.5Zm6,1.28V26h4v2a2,2,0,0,1-4,0ZM48,26h4v1.5c0,.8-.93,1.5-2,1.5s-2-.7-2-1.5ZM36.44,17.47V15.26a2.19,2.19,0,0,0,.59,1.5l-5,15s0,0,0,0a.05.05,0,0,1-.05,0L29.39,24h0L29,22.83a2.12,2.12,0,0,0,.83.17A2.22,2.22,0,0,0,32,20.79V17.47a2.21,2.21,0,1,0,4.41,0ZM27.62,18.7v0s0-.06,0-.09ZM28,26.28V27.5c0,.8-.93,1.5-2,1.5s-2-.7-2-1.5V26h3.72A.29.29,0,0,1,28,26.28ZM24,52.4l9-5.54a1,1,0,1,0-1-1.7L24,50.05V30.51A4.41,4.41,0,0,0,26,31a4.2,4.2,0,0,0,3.14-1.36l1,3a2,2,0,0,0,3.71,0l.09-.25h0l.91-2.73A4.21,4.21,0,0,0,38,31a4.41,4.41,0,0,0,2-.49v5.15a.94.94,0,0,0-.32.11L30.57,41.4a1,1,0,1,0,1.05,1.7L40,37.93V57H24ZM58,28a1.91,1.91,0,0,1-.13.68,1.83,1.83,0,0,1-.25.48l-.06.07a1.82,1.82,0,0,1-.34.34l-.07.06a1.89,1.89,0,0,1-.47.24l-.12,0A2.05,2.05,0,0,1,56,30h0a2.2,2.2,0,0,1-.36,0l-.17,0-.18-.06a2.17,2.17,0,0,1-1.29-2V26.06a.05.05,0,0,1,.06-.06H58ZM53,7a1,1,0,0,1,0,2H41.51a10.21,10.21,0,0,0-.88-2ZM35.86,5h0a7.94,7.94,0,0,1,4,6h0a6.54,6.54,0,0,1,.06.89s0,.1,0,.14a2,2,0,0,0,.25,1h0a1.37,1.37,0,0,0,.13.2h0a1,1,0,0,0,.08.11,2,2,0,0,0-1.15.75v0a1.8,1.8,0,0,0-.28.53v0a2.12,2.12,0,0,0-.1.62.22.22,0,0,1-.21.21.21.21,0,0,1-.2-.21,2,2,0,0,0-2-2h0a2.45,2.45,0,0,0-.39,0l-.14,0-.22.07a1.4,1.4,0,0,0-.17.09l-.15.07-.19.15a.27.27,0,0,0-.08.07,1.8,1.8,0,0,0-.19.2l0,0a2.33,2.33,0,0,0-.17.26v0a1.69,1.69,0,0,0-.13.31h0a2.05,2.05,0,0,0-.1.61v2.21a.22.22,0,0,1-.21.21.21.21,0,0,1-.2-.21,2,2,0,0,0-4,0v3.32a.22.22,0,0,1-.21.21.21.21,0,0,1-.2-.21V18.58a2,2,0,0,0-2-2,2.09,2.09,0,0,0-.67.12h0a2.1,2.1,0,0,0-.53.29h0a2,2,0,0,0-.41.42h0a1.89,1.89,0,0,0-.25.49l0,.11a1.73,1.73,0,0,0-.09.56.22.22,0,0,1-.05.11s0,0-.05,0h0a.22.22,0,0,1-.11.05.21.21,0,0,1-.2-.21V15.26c0-.11,0-.23,0-.34s0-.1,0-.15,0-.12-.05-.17a1.21,1.21,0,0,0-.09-.2l0-.1-.15-.22,0,0a1.15,1.15,0,0,0-.21-.23h0a1.93,1.93,0,0,0-.84-.46h0l-.07,0a1.65,1.65,0,0,0,.2-.31h0a2,2,0,0,0,.25-1,.66.66,0,0,0,0-.13A8,8,0,0,1,27,5.81h0a6.55,6.55,0,0,1,.59-.45h0A7.77,7.77,0,0,1,32,4,7.86,7.86,0,0,1,35.86,5ZM22.11,12.05a1.65,1.65,0,0,0,.54,3.21h.56v3.32a2.22,2.22,0,0,0,2.2,2.21,2.12,2.12,0,0,0,.75-.14L27.27,24h-9L19,20.2a1,1,0,1,0-2-.4L16.18,24H12.33L16,11.27A.82.82,0,0,0,16,11h6.17c0,.31,0,.63,0,.95C22.1,12,22.11,12,22.11,12.05ZM11,7H23.4a9.61,9.61,0,0,0-.87,2H11a1,1,0,0,1,0-2ZM8,32H8a3.81,3.81,0,0,0,.59,0l.12,0L9,31.85c.14,0,.27-.07.4-.12s.26-.12.38-.18l.22-.12a4,4,0,0,0,1.36-1.31,4.34,4.34,0,0,0,5.24,0A4,4,0,0,0,20,32a3.91,3.91,0,0,0,2-.56V57H20V55a1,1,0,0,0-2,0v2H16V54a1,1,0,0,0-2,0v3H12V55a1,1,0,0,0-2,0v2H8ZM60,60H4V59H60ZM30,6a1,1,0,0,1,0,2,1.56,1.56,0,0,0-1,.35l-.6.79A5.24,5.24,0,0,0,28,11a1,1,0,0,1-1,1h0a1,1,0,0,1-1-1C26,9.27,26.84,6,30,6Zm-2,8a1,1,0,0,1-1,1h0a1,1,0,1,1,1-1Zm1.27,29.44a1,1,0,0,1-.33,1.37l-1.08.68a1,1,0,0,1-1.05-1.71l1.08-.67A1,1,0,0,1,29.27,43.44Zm6.7.33a1,1,0,0,1-.32,1.38,1,1,0,0,1-1.38-.33h0a1,1,0,1,1,1.7-1Z"></path></g></g></svg>