<svg height='100px' width='100px'  fill="#000000" xmlns="http://www.w3.org/2000/svg" viewBox="0 0 64 64" x="0px" y="0px"><path d="M60,8H55V2H35V8H30V54H28v8H62V54H60ZM37,4H53V8H37Zm-5,6H58V54H53V44H37V54H32Zm7,44V46h5v8Zm7-8h5v8H46ZM60,60H30V56H60Z"></path><path d="M44,12H36v8h8Zm-2,6H38V14h4Z"></path><path d="M54,12H46v8h8Zm-2,6H48V14h4Z"></path><path d="M44,22H36v8h8Zm-2,6H38V24h4Z"></path><path d="M54,22H46v8h8Zm-2,6H48V24h4Z"></path><path d="M44,32H36v8h8Zm-2,6H38V34h4Z"></path><path d="M54,32H46v8h8Zm-2,6H48V34h4Z"></path><path d="M8,45H20v3h2V39H13.8157A2.96353,2.96353,0,0,0,14,38a3.00328,3.00328,0,0,0-3-3H9a3.00328,3.00328,0,0,0-3,3,2.96453,2.96453,0,0,0,.18433,1H6v8H8Zm12-2H8V41H20ZM8,38a1.00128,1.00128,0,0,1,1-1h2a1,1,0,0,1,0,2H9A1.00128,1.00128,0,0,1,8,38Z"></path><path d="M5,52h6V62h6V52h6a3.00328,3.00328,0,0,0,3-3V31a3.00328,3.00328,0,0,0-3-3H5a3.00328,3.00328,0,0,0-3,3V49A3.00328,3.00328,0,0,0,5,52Zm10,8H13V52h2ZM4,31a1.00128,1.00128,0,0,1,1-1H23a1.00126,1.00126,0,0,1,1,1V49a1.00126,1.00126,0,0,1-1,1H5a1.00128,1.00128,0,0,1-1-1Z"></path><path d="M5.09229,25H19.9077a1.00021,1.00021,0,0,0,.9697-.7549A3.69307,3.69307,0,0,0,21,23.3335a3.64313,3.64313,0,0,0-3.8218-3.6597,4.87739,4.87739,0,0,0-8.747.0904,3.5144,3.5144,0,0,0-.82226-.0977A3.64254,3.64254,0,0,0,4,23.3335a3.69673,3.69673,0,0,0,.12256.9116A1.00024,1.00024,0,0,0,5.09229,25Zm2.5166-3.3335a1.55677,1.55677,0,0,1,.85791.2627.99972.99972,0,0,0,1.52588-.6133,2.89068,2.89068,0,0,1,5.61522-.2095.99947.99947,0,0,0,1.2827.6553,1.54731,1.54731,0,0,1,.5005-.0952A1.62727,1.62727,0,0,1,18.9678,23H6.03223A1.62726,1.62726,0,0,1,7.60889,21.6665Z"></path><path d="M12.0923,13H26.9077a1.00021,1.00021,0,0,0,.9697-.7549A3.69307,3.69307,0,0,0,28,11.3335a3.63481,3.63481,0,0,0-3.8218-3.65967,4.87735,4.87735,0,0,0-8.747.09033,3.52091,3.52091,0,0,0-.8223-.09766A3.64253,3.64253,0,0,0,11,11.3335a3.69307,3.69307,0,0,0,.1226.9116A1.00021,1.00021,0,0,0,12.0923,13Zm2.5166-3.3335a1.55859,1.55859,0,0,1,.8584.2627.99993.99993,0,0,0,1.5254-.61377,2.89072,2.89072,0,0,1,5.6152-.209.99947.99947,0,0,0,1.2827.65527,1.54551,1.54551,0,0,1,.5005-.09522A1.62727,1.62727,0,0,1,25.9678,11H13.0322A1.62727,1.62727,0,0,1,14.6089,9.6665Z"></path></svg>