<svg height='100px' width='100px'  fill="#000000" xmlns="http://www.w3.org/2000/svg" xmlns:xlink="http://www.w3.org/1999/xlink" xmlns:serif="http://www.serif.com/" viewBox="0 0 32 32" version="1.1" xml:space="preserve" style="" x="0px" y="0px" fill-rule="evenodd" clip-rule="evenodd" stroke-linejoin="round" stroke-miterlimit="2"><path d="M19,30l0,-2c0,-0.552 -0.448,-1 -1,-1c-0.552,-0 -1,0.448 -1,1l-0,2c0,0.552 0.448,1 1,1c0.552,-0 1,-0.448 1,-1Zm-8,-0l0,-3c0,-0.552 -0.448,-1 -1,-1c-0.552,-0 -1,0.448 -1,1l-0,3c0,0.552 0.448,1 1,1c0.552,-0 1,-0.448 1,-1Zm-4,-0l0,-5c0,-0.552 -0.448,-1 -1,-1c-0.552,-0 -1,0.448 -1,1l-0,5c0,0.552 0.448,1 1,1c0.552,-0 1,-0.448 1,-1Zm8,-0l0,-5c0,-0.552 -0.448,-1 -1,-1c-0.552,-0 -1,0.448 -1,1l-0,5c0,0.552 0.448,1 1,1c0.552,-0 1,-0.448 1,-1Zm8,0l0,-5c-0,-0.552 -0.448,-1 -1,-1c-0.552,0 -1,0.448 -1,1l-0,5c-0,0.552 0.448,1 1,1c0.552,0 1,-0.448 1,-1Zm4,-0l0,-5c0,-0.552 -0.448,-1 -1,-1c-0.552,-0 -1,0.448 -1,1l-0,5c0,0.552 0.448,1 1,1c0.552,-0 1,-0.448 1,-1Zm-24,-0l0,-7c0,-0.552 -0.448,-1 -1,-1c-0.552,-0 -1,0.448 -1,1l0,7c0,0.552 0.448,1 1,1c0.552,-0 1,-0.448 1,-1Zm28,0l-0,-7c-0,-0.552 -0.448,-1 -1,-1c-0.552,0 -1,0.448 -1,1l-0,7c-0,0.552 0.448,1 1,1c0.552,0 1,-0.448 1,-1Zm-20.5,-26l0,12.036c-0.589,-0.341 -1.272,-0.536 -2,-0.536c-2.208,-0 -4,1.792 -4,4c0,2.208 1.792,4 4,4c2.208,0 4,-1.792 4,-4l0,-10.624l13,-1.734l0,7.894c-0.589,-0.341 -1.272,-0.536 -2,-0.536c-2.208,0 -4,1.792 -4,4c0,2.208 1.792,4 4,4c2.208,0 4,-1.792 4,-4c0,-0.056 -0.001,-0.111 -0.003,-0.167c0.002,-0.027 0.003,-0.055 0.003,-0.083l0,-16.25c0,-0.288 -0.124,-0.562 -0.341,-0.752c-0.217,-0.19 -0.505,-0.277 -0.791,-0.239l-15,2c-0.497,0.066 -0.868,0.49 -0.868,0.991Zm-2,13.5c1.104,0 2,0.896 2,2c0,1.104 -0.896,2 -2,2c-1.104,0 -2,-0.896 -2,-2c0,-1.104 0.896,-2 2,-2Zm15,-1c1.104,0 2,0.896 2,2c0,1.104 -0.896,2 -2,2c-1.104,0 -2,-0.896 -2,-2c0,-1.104 0.896,-2 2,-2Zm2,-13.358l0,1.982c0,0 -13,1.734 -13,1.734c0,-0 0,-1.982 0,-1.982l13,-1.734Z"></path></svg>