<svg height='100px' width='100px'  fill="#000000" xmlns="http://www.w3.org/2000/svg" xmlns:xlink="http://www.w3.org/1999/xlink" version="1.1" x="0px" y="0px" viewBox="0 0 188.443 256.133" style="enable-background:new 0 0 188.443 256.133;" xml:space="preserve"><g><path d="M102.796,121.694c-0.037-27.875-8.466-40.668-13.583-45.864c-3.416-3.468-7.208-5.517-11.068-6.019   c-0.028-0.006-0.057-0.01-0.085-0.015c-0.037-0.005-0.073-0.013-0.11-0.017c-0.449-0.081-0.91-0.13-1.382-0.13h-0.151v29.019h0.041   l7.838,60.781v-59.271c1.551,5.712,2.641,13.405,2.485,23.626c-0.052,3.363,1.33,6.552,3.89,8.977   c6.079,5.758,20.262,7.029,31.598,7.029c4.593,0,8.72-0.209,11.648-0.412c4.407-0.307,3.318-16.263-1.109-15.962   c-2.074,0.145-4.183,0.236-6.279,0.286v-6.055c0-1.696-1.388-3.083-3.083-3.083c-1.696,0-3.083,1.388-3.083,3.083v6.07   C112.652,123.595,105.866,122.845,102.796,121.694z"></path><rect x="43.083" y="69.649" width="28.334" height="29.019"></rect><path d="M59.568,243.77c0,6.83,5.537,12.363,12.365,12.363c6.826,0,12.363-5.533,12.363-12.363v-73.003   c-2.903,1.972-10.71,6.195-24.729,6.623V243.77z"></path><path d="M30.204,243.77c0,6.83,5.537,12.363,12.365,12.363c6.826,0,12.363-5.533,12.363-12.363v-66.38   c-14.019-0.428-21.826-4.651-24.729-6.623V243.77z"></path><path d="M38.042,98.668h0.041V69.649h-0.15c-0.165,0-0.326,0.014-0.488,0.025c-2.817,0.068-8.295,0.976-13.904,6.245   C10.648,88.033,5.364,115.596,7.835,157.844c0.249,4.252,3.774,7.533,7.979,7.533c0.157,0,0.316-0.004,0.475-0.014   c4.411-0.258,7.777-4.043,7.519-8.454c-2.055-35.136,1.926-53.867,6.396-63.165v65.702L38.042,98.668z"></path><path d="M33.302,47.504c-0.49-1.938-0.753-3.965-0.753-6.053c0-7.958,12.405-11.52,24.7-11.52s24.7,3.562,24.7,11.52   c0,2.088-0.263,4.115-0.753,6.053c19.655-2.297,33.303-7.328,33.303-13.17c0-6.184-15.286-11.459-36.804-13.544   C75.617,10.741,67.255,0,57.25,0C47.247,0,38.885,10.741,36.806,20.79C15.288,22.874,0,28.15,0,34.334   C0,40.176,13.648,45.207,33.302,47.504z"></path><path d="M79.75,41.451c0-12.427-45-12.427-45,0c0,12.427,10.072,22.5,22.5,22.5C69.676,63.951,79.75,53.878,79.75,41.451z    M57.25,60.05c-5.931,0-11.126-3.157-14.035-7.868h28.07C68.376,56.893,63.181,60.05,57.25,60.05z"></path><circle cx="70.333" cy="105.209" r="2.875"></circle><circle cx="44.167" cy="105.209" r="2.875"></circle><path d="M146.661,155.185l-35.02-0.434c-6.061,8.802-3.031,80.664-2.742,83.549c0.288,2.886-0.722,8.37-3.031,12.411   c-2.308,4.04,0.145,4.04,0.145,4.04s25.535-5.738,39.005-4.989c13.852,0.77,42.291,4.989,42.291,4.989s2.453,0,0.145-4.04   c-2.31-4.041-3.319-9.524-3.03-12.411c0.289-2.886,3.319-74.747-2.742-83.549l-14.546,0.18c-1.078-2.91-4.17-6.194-4.17-6.194   l1.304-3.001l1.194,0.52c0.234,0.102,0.532-0.065,0.664-0.37c0.133-0.307,0.051-0.637-0.183-0.739l-0.731-0.318l9.918-20.621   c0,0,1.411-3.249-1.836-4.66c-3.251-1.413-4.663,1.837-4.663,1.837l-8.307,21.321l-0.732-0.319   c-0.234-0.101-0.532,0.065-0.664,0.371c-0.133,0.307-0.051,0.637,0.183,0.739l1.194,0.52l-1.304,3c0,0-8.22-0.041-9.512,2.93   c-0.419,0.966-1.039,2.967-1.684,5.226L146.661,155.185z M169.871,121.865c0.191-0.417,1.04-1.904,2.893-1.099   c1.852,0.803,1.344,2.439,1.144,2.923l-0.864,1.793c-0.574-0.409-1.196-0.77-1.869-1.062c-0.672-0.292-1.358-0.501-2.05-0.641   L169.871,121.865z M149.633,226.339c1.675-2.053,3.295-4.799,3.74-8.083c0.561-4.144-0.844-8.223-4.177-12.123l-2.697,2.305   c2.644,3.092,3.774,6.229,3.362,9.323c-0.53,3.978-3.462,7.107-5.221,8.659c-14.243-1.036-25.479-12.911-25.479-27.418   c0-15.188,12.312-27.5,27.5-27.5c15.188,0,27.5,12.312,27.5,27.5C174.16,213.184,163.422,224.856,149.633,226.339z"></path><path d="M150.324,195.178c-3.043,4.995-1.833,8.016,0.912,9.69c2.744,1.671,5.984,1.361,9.027-3.635   c3.042-4.995,1.994-14.456,1.994-14.456S153.367,190.183,150.324,195.178z"></path><path d="M148.693,190.444c-0.764-3.408-5.137-7.041-5.137-7.041s-2.41,5.152-1.645,8.558c0.762,3.409,2.537,4.207,4.409,3.788   C148.192,195.329,149.457,193.852,148.693,190.444z"></path><path d="M143.019,197.236c-4.611-3.598-14.131-3.646-14.131-3.646s2.359,9.226,6.97,12.822c4.61,3.599,7.752,2.746,9.731,0.211   C147.565,204.089,147.631,200.835,143.019,197.236z"></path></g></svg>