<svg height='100px' width='100px'  fill="#000000" xmlns="http://www.w3.org/2000/svg" data-name="Layer 1" viewBox="0 0 100 100" x="0px" y="0px"><title>Artboard 54</title><path d="M57,69.25H21.9a4.23,4.23,0,0,0-4.23,4.23v9.65a4.23,4.23,0,0,0,4.23,4.23h58.9A4.23,4.23,0,0,0,85,83.12V73.48a4.23,4.23,0,0,0-4.23-4.23A1.23,1.23,0,0,1,79.58,68V44.48a1.23,1.23,0,0,1,1.23-1.23A4.23,4.23,0,0,0,85,39V28.28a4.23,4.23,0,0,0-4.23-4.23h-7.4V20.53h1.19a1.5,1.5,0,0,0,1.5-1.5v-6.9a1.5,1.5,0,0,0-1.5-1.5H69.22a1.5,1.5,0,0,0-1.5,1.5V19a1.5,1.5,0,0,0,1.5,1.5h1.19v3.53H35.25V19a1.5,1.5,0,1,0-3,0v5h-.07a14.52,14.52,0,0,0-14.5,14.5V45a6.51,6.51,0,0,0,6.5,6.5H27.5v8.77a1.5,1.5,0,0,0,3,0V51.48h5.16a4.23,4.23,0,0,0,4.23-4.22,4,4,0,0,1,4-4H57a5.51,5.51,0,0,1,5.5,5.5v15A5.51,5.51,0,0,1,57,69.25ZM46.44,84.35H30.38v-4a.5.5,0,0,1,.5-.5H45.94a.5.5,0,0,1,.5.5ZM70.72,13.63h2.37v3.9H70.72ZM57,40.25H43.89a7,7,0,0,0-7,7,1.23,1.23,0,0,1-1.23,1.22H24.18a3.5,3.5,0,0,1-3.5-3.5V38.55a11.51,11.51,0,0,1,11.5-11.5H80.81A1.23,1.23,0,0,1,82,28.28v1.27H72.25a1.5,1.5,0,1,0,0,3H82V34.8H72.25a1.5,1.5,0,0,0,0,3H82V39a1.23,1.23,0,0,1-1.23,1.23,4.23,4.23,0,0,0-4.23,4.23V68a4.23,4.23,0,0,0,4.23,4.23A1.23,1.23,0,0,1,82,73.48v9.65a1.23,1.23,0,0,1-1.23,1.23H49.44v-4a3.5,3.5,0,0,0-3.5-3.5H30.88a3.5,3.5,0,0,0-3.5,3.5v4H21.9a1.23,1.23,0,0,1-1.23-1.23V73.48a1.23,1.23,0,0,1,1.23-1.23H57a8.51,8.51,0,0,0,8.5-8.5v-15A8.51,8.51,0,0,0,57,40.25Z"></path><path d="M33.75,31.05a9,9,0,0,0-9,9,1.5,1.5,0,1,0,3,0,6,6,0,0,1,6-6,1.5,1.5,0,0,0,0-3Z"></path></svg>