<svg height='100px' width='100px'  fill="#000000" xmlns="http://www.w3.org/2000/svg" xmlns:xlink="http://www.w3.org/1999/xlink" xml:space="preserve" version="1.1" style="shape-rendering:geometricPrecision;text-rendering:geometricPrecision;image-rendering:optimizeQuality;" viewBox="0 0 846.66 846.66" x="0px" y="0px" fill-rule="evenodd" clip-rule="evenodd"><defs><style type="text/css">
   
    .fil0 {fill:#000000;fill-rule:nonzero}
   
  </style></defs><g><path class="fil0" d="M61.22 387.72l67.31 0 0 -15.24c-61.14,9.65 -116.39,-37.61 -116.39,-99.33 0,-55.54 45.03,-100.57 100.57,-100.57 5.39,0 10.67,0.43 15.83,1.25 0.39,-10.87 9.33,-19.57 20.29,-19.57l578.71 0c11.21,0 20.3,9.09 20.3,20.3l0 176.55c0,26.7 -40.6,26.7 -40.6,0l0 -156.25 -531.4 0c23.7,19.15 37.44,47.74 37.44,78.29 0,33.49 -16.56,64.53 -44.15,83.26l0 32.08c11.28,2.74 71.94,30.66 74.93,30.56 1.61,-0.05 32.99,-30.64 37.13,-34.39 55.97,-50.63 132.83,34.3 76.85,84.94l-36.02 32.55c-31.34,28.32 -65.12,37.85 -105.83,27.67l0 20.88 173.9 0c26.7,0 26.7,40.6 0,40.6l-173.9 0 0 49.11c0,28.64 -23.35,51.99 -51.99,51.99l-102.98 0c-28.64,0 -51.99,-23.35 -51.99,-51.99l0 -200.7c0,-28.59 23.43,-51.99 51.99,-51.99zm773.7 110.54c-0.72,26.59 -41.17,25.49 -40.44,-1.11l0.98 -34.57 -145.01 154.31c-9.83,10.35 -27.27,7.7 -33.23,-5.63l-46.57 -104.34c-48.19,45.17 -164.49,154.25 -176.53,166.29 -18.88,18.88 -47.58,-9.83 -28.7,-28.71 12.71,-12.72 197.71,-186.03 198.24,-186.53 10.52,-9.9 27.57,-5.84 32.73,7.36l45.38 101.65 128.54 -136.78 -32.39 0c-26.7,0 -26.7,-40.6 0,-40.6l75.16 0c13.27,0 25.41,6.16 24.29,21.76l-2.45 86.9zm-352.72 -30.47l0 6.28c0,26.7 -40.6,26.7 -40.6,0 0,-14.01 -52.18,-15.81 -52.18,-72.61 0,-26.7 40.6,-26.7 40.6,0 0,17.08 15.74,28.49 31.88,28.49 41.99,0 41.99,-56.97 0,-56.97 -81.77,0 -102.24,-112.41 -20.3,-135.39l0 -6.31c0,-26.7 40.6,-26.7 40.6,0l0 6.31c29.75,8.34 52.19,34.55 52.19,66.3 0,26.7 -40.6,26.7 -40.6,0 0,-17.22 -15.79,-28.48 -31.89,-28.48 -42.02,0 -41.64,56.97 0,56.97 83.27,0 100.21,113.15 20.3,135.41zm-369.49 -254.61c-33.12,0 -59.97,26.85 -59.97,59.97 0,33.12 26.85,59.97 59.97,59.97 32.67,0 59.97,-26.41 59.97,-59.97 0,-33.56 -27.3,-59.97 -59.97,-59.97zm51.49 215.14l-102.98 0c-6.28,0 -11.39,5.12 -11.39,11.39l0 200.7c0,6.22 5.16,11.39 11.39,11.39l102.98 0c6.22,0 11.39,-5.17 11.39,-11.39l0 -134.77c0,-15.9 10.79,-29.95 28.07,-22.77 35.31,14.75 61.58,16.11 91.24,-10.7l36.03 -32.55c16.22,-14.67 -6.37,-39.68 -22.62,-24.99l-36.02 32.55c-20.02,18.09 -34.74,13.77 -56.54,3.83 -13.38,-6.1 -49.74,-22.69 -51.55,-22.69z"></path></g></svg>