<svg height='100px' width='100px'  fill="#000000" xmlns="http://www.w3.org/2000/svg" xmlns:xlink="http://www.w3.org/1999/xlink" version="1.1" x="0px" y="0px" viewBox="0 0 128 128" style="enable-background:new 0 0 128 128;" xml:space="preserve"><style type="text/css">
	.st0{display:none;}
	.st1{display:inline;}
	.st2{fill:none;stroke:#000000;stroke-width:0.1;stroke-miterlimit:10;}
	.st3{fill:none;stroke:#000000;stroke-width:3;stroke-linecap:square;stroke-miterlimit:10;}
	.st4{fill:none;stroke:#000000;stroke-width:3;stroke-miterlimit:10;}
</style><g class="st0"><g class="st1"><rect class="st2" width="128" height="128"></rect><line class="st2" x1="0" y1="124" x2="128" y2="124"></line><line class="st2" x1="0" y1="120" x2="128" y2="120"></line><line class="st2" x1="0" y1="116" x2="128" y2="116"></line><line class="st2" x1="0" y1="112" x2="128" y2="112"></line><line class="st2" x1="0" y1="108" x2="128" y2="108"></line><line class="st2" x1="0" y1="104" x2="128" y2="104"></line><line class="st2" x1="0" y1="100" x2="128" y2="100"></line><line class="st2" x1="0" y1="96" x2="128" y2="96"></line><line class="st2" x1="0" y1="92" x2="128" y2="92"></line><line class="st2" x1="0" y1="88" x2="128" y2="88"></line><line class="st2" x1="0" y1="84" x2="128" y2="84"></line><line class="st2" x1="0" y1="80" x2="128" y2="80"></line><line class="st2" x1="0" y1="76" x2="128" y2="76"></line><line class="st2" x1="0" y1="72" x2="128" y2="72"></line><line class="st2" x1="0" y1="68" x2="128" y2="68"></line><line class="st2" x1="0" y1="64" x2="128" y2="64"></line><line class="st2" x1="0" y1="60" x2="128" y2="60"></line><line class="st2" x1="0" y1="56" x2="128" y2="56"></line><line class="st2" x1="0" y1="52" x2="128" y2="52"></line><line class="st2" x1="0" y1="48" x2="128" y2="48"></line><line class="st2" x1="0" y1="44" x2="128" y2="44"></line><line class="st2" x1="0" y1="40" x2="128" y2="40"></line><line class="st2" x1="0" y1="36" x2="128" y2="36"></line><line class="st2" x1="0" y1="32" x2="128" y2="32"></line><line class="st2" x1="0" y1="28" x2="128" y2="28"></line><line class="st2" x1="0" y1="24" x2="128" y2="24"></line><line class="st2" x1="0" y1="20" x2="128" y2="20"></line><line class="st2" x1="0" y1="16" x2="128" y2="16"></line><line class="st2" x1="0" y1="12" x2="128" y2="12"></line><line class="st2" x1="0" y1="8" x2="128" y2="8"></line><line class="st2" x1="0" y1="4" x2="128" y2="4"></line><line class="st2" x1="124" y1="0" x2="124" y2="128"></line><line class="st2" x1="120" y1="0" x2="120" y2="128"></line><line class="st2" x1="116" y1="0" x2="116" y2="128"></line><line class="st2" x1="112" y1="0" x2="112" y2="128"></line><line class="st2" x1="108" y1="0" x2="108" y2="128"></line><line class="st2" x1="104" y1="0" x2="104" y2="128"></line><line class="st2" x1="100" y1="0" x2="100" y2="128"></line><line class="st2" x1="96" y1="0" x2="96" y2="128"></line><line class="st2" x1="92" y1="0" x2="92" y2="128"></line><line class="st2" x1="88" y1="0" x2="88" y2="128"></line><line class="st2" x1="84" y1="0" x2="84" y2="128"></line><line class="st2" x1="80" y1="0" x2="80" y2="128"></line><line class="st2" x1="76" y1="0" x2="76" y2="128"></line><line class="st2" x1="72" y1="0" x2="72" y2="128"></line><line class="st2" x1="68" y1="0" x2="68" y2="128"></line><line class="st2" x1="64" y1="0" x2="64" y2="128"></line><line class="st2" x1="60" y1="0" x2="60" y2="128"></line><line class="st2" x1="56" y1="0" x2="56" y2="128"></line><line class="st2" x1="52" y1="0" x2="52" y2="128"></line><line class="st2" x1="48" y1="0" x2="48" y2="128"></line><line class="st2" x1="44" y1="0" x2="44" y2="128"></line><line class="st2" x1="40" y1="0" x2="40" y2="128"></line><line class="st2" x1="36" y1="0" x2="36" y2="128"></line><line class="st2" x1="32" y1="0" x2="32" y2="128"></line><line class="st2" x1="28" y1="0" x2="28" y2="128"></line><line class="st2" x1="24" y1="0" x2="24" y2="128"></line><line class="st2" x1="20" y1="0" x2="20" y2="128"></line><line class="st2" x1="16" y1="0" x2="16" y2="128"></line><line class="st2" x1="12" y1="0" x2="12" y2="128"></line><line class="st2" x1="8" y1="0" x2="8" y2="128"></line><line class="st2" x1="4" y1="0" x2="4" y2="128"></line></g></g><g><g><g><g><path d="M115.9,108.1h-103l-0.3-1.1C9.1,92.6,7.4,77.9,7.5,63.1c0.1-13.9,1.8-27.8,5.1-41.3l0.3-1.1h103l0.2,1.2      c2.9,14.3,4.4,29,4.3,43.6c-0.1,13.9-1.5,27.8-4.3,41.4L115.9,108.1z M15.3,105.1h98.2c2.6-13,3.9-26.4,4-39.7      c0.1-14-1.3-28.1-4-41.8H15.3c-3.1,12.9-4.7,26.2-4.8,39.5C10.4,77.2,12,91.4,15.3,105.1z"></path><path d="M111.5,23.6H17.3c-2.6,0-4.7-2.1-4.7-4.7V7.2c0-2.6,2.1-4.7,4.7-4.7h94.3c2.6,0,4.7,2.1,4.7,4.7v11.7      C116.2,21.5,114.1,23.6,111.5,23.6z M17.3,5.5c-0.9,0-1.7,0.8-1.7,1.7v11.7c0,0.9,0.8,1.7,1.7,1.7h94.3c0.9,0,1.7-0.8,1.7-1.7      V7.2c0-0.9-0.8-1.7-1.7-1.7H17.3z"></path><path d="M111.5,125.5H17.3c-2.6,0-4.7-2.1-4.7-4.7v-11.7c0-2.6,2.1-4.7,4.7-4.7h94.3c2.6,0,4.7,2.1,4.7,4.7v11.7      C116.2,123.4,114.1,125.5,111.5,125.5z M17.3,107.4c-0.9,0-1.7,0.8-1.7,1.7v11.7c0,0.9,0.8,1.7,1.7,1.7h94.3      c0.9,0,1.7-0.8,1.7-1.7v-11.7c0-0.9-0.8-1.7-1.7-1.7H17.3z"></path></g></g><g><g><g><g><path d="M61.3,94.2c-0.8-9.5,0.3-18.8,3.5-27.6c1.9-5.3,4.5-10.3,7.8-14.9l2.5,1.7c-3.1,4.4-5.6,9.2-7.4,14.2        c-3,8.4-4.2,17.2-3.4,26.3L61.3,94.2z"></path><path d="M61.8,80.6c-0.9-3.8-2.6-7.3-5-10.3c-4-5-9-7.3-12.5-8.3l0.9-2.9c3.9,1.2,9.4,3.8,13.9,9.3c2.7,3.3,4.6,7.3,5.6,11.5        L61.8,80.6z"></path><path d="M65,70.9l-0.6-1.3c-0.9-2-3.8-9.2-0.3-17.1c4.3-9.7,14.3-11.8,15.5-12l1.5-0.3l0.2,1.5c0.6,3.6,1.2,12.7-4.9,20.8        c-2.6,3.3-6,6-10,7.8L65,70.9z M78.5,43.8c-2.8,0.9-8.8,3.4-11.7,9.9c-2.4,5.5-1.3,10.6-0.3,13.2c2.9-1.5,5.5-3.7,7.5-6.2        C78.6,54.5,78.9,47.6,78.5,43.8z"></path><path d="M55.4,71.7c-2.7,0-6.6-0.5-10.4-2.9c-5.8-3.6-7.9-9-8.5-11.2l-0.4-1.2l1.1-0.6c6.2-3,13.4-2.1,18,2.3        c4.5,4.3,4.6,10.2,4.5,11.9l-0.1,1.2l-1.2,0.2C57.7,71.6,56.7,71.7,55.4,71.7z M39.8,58c0.9,2.2,2.8,5.8,6.8,8.2        c3.9,2.4,7.8,2.6,10.1,2.4c-0.1-2-0.7-5.6-3.5-8.3C49.8,57.1,44.5,56.2,39.8,58z"></path><g><path d="M66.9,84.9c-0.8,0-1.5-0.1-1.9-0.1l-1.2-0.2l-0.1-1.2c-0.1-1.1,0-4.8,2.8-7.5c2.9-2.8,7.5-3.4,11.4-1.5l1.1,0.6         l-0.4,1.2c-0.4,1.4-1.7,4.8-5.3,7C71,84.5,68.6,84.9,66.9,84.9z M66.8,81.9c1.3,0,3.2-0.2,5-1.4c1.9-1.2,3-2.8,3.5-4         c-2.4-0.7-5-0.2-6.7,1.4C67.4,79.2,67,80.7,66.8,81.9z"></path></g></g></g></g></g><path d="M64,99.1c-19.3,0-35.1-15.7-35.1-35.1S44.7,28.9,64,28.9S99.1,44.7,99.1,64S83.3,99.1,64,99.1z M64,31.9    c-17.7,0-32.1,14.4-32.1,32.1S46.3,96.1,64,96.1S96.1,81.7,96.1,64S81.7,31.9,64,31.9z"></path></g></g></svg>