<svg height='100px' width='100px'  fill="#000000" xmlns="http://www.w3.org/2000/svg" xmlns:xlink="http://www.w3.org/1999/xlink" version="1.1" x="0px" y="0px" viewBox="0 0 68 68" enable-background="new 0 0 68 68" xml:space="preserve"><g><path d="M36.53809,9.23389H13.00098c-1.10254,0-2,0.89697-2,2v12.59473c0,1.10303,0.89746,2,2,2h23.53711c1.10254,0,2-0.89697,2-2   V11.23389C38.53809,10.13086,37.64063,9.23389,36.53809,9.23389z M13.00098,23.82861V11.23389h23.53711l0.00098,12.59473H13.00098z   "></path><path d="M63.99805,16.29297h-1.10364c0.01331-0.065,0.03918-0.12543,0.03918-0.19434v-6.02832   c0-2.37695-1.93457-4.31104-4.31152-4.31104c-0.55273,0-1,0.44775-1,1s0.44727,1,1,1c1.27441,0,2.31152,1.03662,2.31152,2.31104   v6.02832c0,0.06891,0.02594,0.12933,0.03925,0.19434h-1.58807c-0.82715,0-1.5,0.67285-1.5,1.5v0.42773h-3.11621   c-1.68555,0-3.05762,1.37207-3.05762,3.05811v7.09961c0,1.68604,1.37207,3.05811,3.05762,3.05811h3.11621v0.42773   c0,0.82715,0.67285,1.5,1.5,1.5h1.21405c-0.01331,0.065-0.03925,0.12543-0.03925,0.19434v8.62402   c0,3.22607-2.625,5.85107-5.85059,5.85107s-5.85059-2.625-5.85059-5.85107V27.14746c0-1.83008-1.48926-3.31885-3.31934-3.31885   h-1.78418V7.33545c0-1.83008-1.48828-3.31885-3.31836-3.31885H9.10254c-1.83008,0-3.31934,1.48877-3.31934,3.31885v47.69189   H3.15918C1.96875,55.02734,1,55.99609,1,57.18701v4.63721c0,1.19043,0.96875,2.15918,2.15918,2.15918h43.2207   c1.19041,0,2.15918-0.96875,2.15918-2.15918v-4.63721c0-1.19092-0.96877-2.15967-2.15918-2.15967h-2.625V25.82861h1.78418   c0.72754,0,1.31934,0.5918,1.31934,1.31885v15.03516c0,4.3291,3.52148,7.85107,7.85059,7.85107s7.85059-3.52197,7.85059-7.85107   v-8.62402c0-0.06891-0.02588-0.12933-0.03918-0.19434h1.47766c1.65527,0,3.00195-1.34668,3.00195-3.00146V19.29443   C67,17.63965,65.65332,16.29297,63.99805,16.29297z M46.53906,57.18701v4.63721c0,0.08789-0.07129,0.15918-0.15918,0.15918H3.15918   C3.07129,61.9834,3,61.91211,3,61.82422v-4.63721c0-0.08789,0.07129-0.15967,0.15918-0.15967c9.3187,0,33.94199,0,43.2207,0   C46.46777,57.02734,46.53906,57.09912,46.53906,57.18701z M7.7832,55.02734V7.33545c0-0.72705,0.5918-1.31885,1.31934-1.31885   h31.33398c0.72656,0,1.31836,0.5918,1.31836,1.31885v47.69189H7.7832z M54.76855,29.43652   c-0.58301,0-1.05762-0.47461-1.05762-1.05811v-7.09961c0-0.5835,0.47461-1.05811,1.05762-1.05811h3.11621v3.41718l-2.08496,1.81378   c-0.41699,0.3623-0.46094,0.99414-0.09863,1.41064c0.36436,0.41821,0.99615,0.45964,1.41113,0.09814l0.77246-0.672v3.14807   H54.76855z M65,30.36279c0,0.55225-0.44922,1.00146-1.00195,1.00146h-4.11328V18.29297h4.11328   c0.55273,0,1.00195,0.44922,1.00195,1.00146V30.36279z"></path><rect x="16.53809" y="33.93115" width="2" height="6"></rect><rect x="23.76953" y="33.93115" width="2" height="6"></rect><rect x="31" y="33.93115" width="2" height="6"></rect></g></svg>