<svg height='100px' width='100px'  fill="#000000" xmlns="http://www.w3.org/2000/svg" xmlns:xlink="http://www.w3.org/1999/xlink" version="1.1" x="0px" y="0px" viewBox="0 0 512 512" style="enable-background:new 0 0 512 512;" xml:space="preserve"><g><g><g><path d="M329.529,48.355H182.471c-5.415,0-9.804-4.389-9.804-9.804c0-5.415,4.39-9.804,9.804-9.804h147.059     c5.414,0,9.804,4.389,9.804,9.804C339.333,43.966,334.943,48.355,329.529,48.355z"></path></g><g><path d="M256,440.51c-71.924,0-130.438-57.379-130.438-127.906c0-6.139,0.448-12.311,1.332-18.345     c0.786-5.357,5.768-9.065,11.123-8.278c5.357,0.785,9.063,5.765,8.278,11.122c-0.747,5.095-1.125,10.311-1.125,15.501     c0,59.716,49.718,108.299,110.83,108.299c61.111,0,110.83-48.583,110.83-108.299c0-59.717-49.719-108.301-110.83-108.301     c-28.86,0-56.187,10.781-76.948,30.357c-3.939,3.717-10.145,3.533-13.859-0.407c-3.714-3.939-3.533-10.145,0.407-13.859     c24.413-23.021,56.52-35.699,90.398-35.699c0.002,0,0,0,0.002,0c71.924,0,130.438,57.379,130.438,127.908     C386.438,383.131,327.924,440.51,256,440.51z"></path></g><g><path d="M256,483.253c-95.997,0-174.096-76.553-174.096-170.649c0-27.151,6.67-54.172,19.289-78.142     c2.522-4.792,8.451-6.631,13.242-4.108c4.791,2.522,6.63,8.451,4.108,13.242c-11.301,21.467-17.031,44.685-17.031,69.008     c0,83.284,69.303,151.041,154.488,151.041c19.098,0,37.734-3.363,55.393-9.997c5.069-1.9,10.722,0.663,12.625,5.73     c1.904,5.068-0.661,10.721-5.73,12.625C298.417,479.468,277.461,483.253,256,483.253z M379.075,428.955     c-2.344,0-4.694-0.835-6.57-2.53c-4.018-3.631-4.33-9.831-0.7-13.848c24.945-27.599,38.684-63.103,38.684-99.974     c0-65.745-42.957-123.505-106.894-143.729c-4.076-1.29-6.847-5.072-6.847-9.348V48.355h-81.496v111.172     c0,4.275-2.771,8.058-6.847,9.348c-14.727,4.658-28.635,11.46-41.335,20.217c-4.457,3.073-10.563,1.951-13.637-2.507     c-3.073-4.458-1.951-10.563,2.506-13.636c12.321-8.494,25.649-15.356,39.705-20.448V38.551c0-5.415,4.389-9.804,9.804-9.804     h101.103c5.414,0,9.804,4.389,9.804,9.804v113.947c31.83,11.502,59.252,31.669,79.638,58.648     c22.311,29.526,34.103,64.609,34.103,101.457c0,41.738-15.534,81.912-43.744,113.121     C384.416,427.866,381.751,428.955,379.075,428.955z"></path></g><g><path d="M256,369.744c-33.418,0-64.984-5.164-88.882-14.542c-26.798-10.516-41.556-25.644-41.556-42.599     c0-33.317,53.671-52.267,106.863-56.268c5.398-0.403,10.105,3.643,10.511,9.041c0.406,5.398-3.642,10.105-9.041,10.512     c-26.005,1.956-49.569,7.375-66.353,15.259c-14.009,6.581-22.373,14.602-22.373,21.456c0,15.673,42.164,37.533,110.83,37.533     c68.667,0,110.83-21.86,110.83-37.533c0-10.353-19.758-24.835-57.521-32.483c-5.307-1.075-8.737-6.248-7.662-11.555     c1.075-5.308,6.252-8.737,11.555-7.662c45.858,9.288,73.237,28.616,73.237,51.7c0,16.955-14.758,32.083-41.556,42.599     C320.984,364.58,289.419,369.744,256,369.744z"></path></g><g><path d="M256,440.208c-37.115,0-57.142-65.745-57.142-127.604c0-61.861,20.027-127.606,57.142-127.606     c30.038,0,53.373,46.09,56.748,112.084c0.275,5.407-3.884,10.016-9.291,10.292c-5.413,0.282-10.016-3.884-10.292-9.291     c-1.381-27.002-6.599-51.714-14.691-69.583c-6.776-14.961-15.178-23.894-22.474-23.894c-15.673,0-37.534,41.086-37.534,107.999     c0,66.911,21.861,107.997,37.534,107.997c9.191,0,22.199-14.708,30.544-47.565c1.333-5.248,6.665-8.421,11.916-7.089     c5.248,1.333,8.422,6.668,7.089,11.916C295.486,417.484,277.427,440.208,256,440.208z"></path></g><rect x="330.679" y="75.316" width="18.382" height="18.382"></rect><rect x="330.679" y="102.889" width="18.382" height="18.382"></rect><rect x="165.237" y="75.316" width="18.382" height="18.382"></rect><rect x="165.237" y="102.889" width="18.382" height="18.382"></rect></g></g></svg>