<svg height='100px' width='100px'  fill="#000000" xmlns="http://www.w3.org/2000/svg" xmlns:xlink="http://www.w3.org/1999/xlink" version="1.1" x="0px" y="0px" viewBox="0 0 512 512" style="enable-background:new 0 0 512 512;" xml:space="preserve"><g><path d="M155.118,264.595c-39.844-1.104-59.07,2.289-68.886,12.051c-7.31,7.274-8.134,16.991-7.925,26.418   c0,0.018,0.027,1.212,0.027,1.249c0.869,28.173,15.317,70.243,51.542,70.641c1.791,0.018,3.528,0.018,5.22,0.018   c28.372,0,42.929-3.112,55.831-18.746c5.175-6.279,8.559-11.906,13.598-26.49c0.434-1.031,10.395-25.513-2.018-44.693   C194.139,272.104,178.189,265.228,155.118,264.595z M190.683,324.47c-4.895,14.096-7.491,17.841-11.191,22.311   c-8.523,10.332-16.973,13.788-49.452,13.336c-25.622-0.271-36.225-34.651-36.886-56.202l-0.027-1.194   c-0.19-8.577,0.778-12.793,3.556-15.561c6.252-6.188,24.753-8.631,58.029-7.745c17.859,0.489,29.738,5.066,35.312,13.625   C198.22,305.615,190.909,323.891,190.683,324.47z"></path><path d="M485.512,255.247c0.413-2.068,0.036-4.276-1.381-6.05l-87.161-109.4c-12.25-15.371-30.562-24.183-50.212-24.183h-17.262   c-4.089,0-7.419,3.32-7.419,7.41s3.329,7.41,7.419,7.41h17.262c15.127,0,29.205,6.785,38.632,18.601l73.294,91.987   c-10.385-1.148-23.224-2.401-36.798-3.224c-3.764-0.597-92.698-13.933-147.38,25.052c-0.054,0.036-5.636,3.42-17.642,2.977   c-0.289-0.027-0.579-0.027-0.869-0.036c-0.289,0.009-0.579,0.009-0.869,0.036c-11.761,0.389-17.271-2.759-17.326-2.768   c0,0,0,0,0,0.009c-54.98-39.211-143.924-25.866-147.009-25.35c-12.651,0.789-24.747,1.929-34.493,2.971l75.956-95.325   c9.418-11.825,23.496-18.61,38.605-18.61h17.262c4.089,0,7.41-3.32,7.41-7.41s-3.32-7.41-7.41-7.41h-17.262   c-19.651,0-37.944,8.812-50.203,24.183L34.747,243.942c-4.993,2.143-8.507,6.97-8.507,12.646v11.101   c0,5.085,2.768,9.771,7.265,12.232l5.7,3.112c2.768,5.555,5.799,21.406,7.491,30.236c0.959,5.03,1.837,9.608,2.642,12.938   c8.115,33.692,22.265,48.602,22.347,48.62c2.651,3.402,5.247,6.351,7.699,8.903c10.052,10.386,24.201,16.339,38.831,16.339   l50.122-0.054c52.764-5.7,68.09-66.751,73.871-89.749c0.733-2.913,1.267-5.157,1.728-6.442c1.384-3.908,8.74-6.369,12.567-6.152   c2.597-0.941,10.459,3.094,11.544,6.152c0.461,1.303,1.004,3.547,1.737,6.478c5.79,22.98,21.134,84.031,74.658,89.767h49.326   c14.638,0,28.788-5.953,38.831-16.339c2.461-2.533,5.048-5.501,7.184-8.305c0.597-0.615,14.747-15.525,22.872-49.217   c0.814-3.347,1.701-7.962,2.66-13.028c1.809-9.409,4.723-24.681,7.473-30.146l5.718-3.112c4.469-2.461,7.256-7.138,7.256-12.232   v-11.101C485.76,256.118,485.559,255.706,485.512,255.247z M463.956,270.946c-0.959,0.525-1.791,1.248-2.425,2.135   c-4.56,6.206-7.346,19.379-10.766,37.311c-0.923,4.813-1.755,9.174-2.515,12.34c-7.093,29.386-19.017,42.287-19.633,42.975   c-2.298,2.967-4.524,5.501-6.659,7.708c-7.274,7.509-17.552,11.816-28.191,11.816l-48.53,0.054   c-42.468-4.596-55.985-58.355-61.069-78.603c-0.905-3.565-1.592-6.261-2.153-7.817c-3.528-9.97-17.081-15.977-24.021-15.977   c-0.344,0-0.66,0.018-0.968,0.036c-8.242-1.068-22.98,4.451-27.06,15.941c-0.552,1.556-1.249,4.252-2.144,7.799   c-5.085,20.248-18.583,74.025-60.282,78.566h-49.326c-10.63,0-20.908-4.306-28.173-11.816c-2.126-2.189-4.361-4.741-7.156-8.269   c-0.118-0.127-12.069-13.028-19.135-42.414c-0.76-3.148-1.583-7.473-2.497-12.25c-3.438-17.968-6.234-31.177-10.802-37.41   c-0.642-0.878-1.475-1.601-2.434-2.126l-6.957-3.257l-0.823-10.205c7.989-1.022,28.997-3.565,52.158-5.048   c0.859-0.118,86.691-13.037,137.003,22.835c0.923,0.615,9.418,5.971,26.599,5.356c17.027,0.633,25.658-4.741,26.798-5.501   c50.049-35.664,135.962-22.826,137.5-22.609c22.383,1.393,43.463,3.945,50.629,4.071l0.47,10.314L463.956,270.946z"></path><path d="M433.797,300.99c0.02-8.763-1.173-17.602-7.948-24.344c-9.843-9.762-29.168-13.1-68.886-12.051   c-23.089,0.633-39.03,7.509-47.408,20.447c-12.413,19.18-2.443,43.662-2.171,44.277c5.193,14.964,8.559,20.592,13.752,26.907   c12.901,15.634,27.449,18.746,55.84,18.746c1.683,0,3.42,0,5.211-0.018c36.243-0.398,50.683-42.468,51.551-71.292l-0.013-0.001   l0.011-0.416l0.019,0.001c0-0.054,0-0.127,0.018-0.181c0.014-0.671,0.021-1.343,0.023-2.016l0.002-0.058H433.797z M382.024,360.116   c-32.082,0.308-40.93-2.986-49.452-13.318c-3.709-4.506-6.315-8.251-11.345-22.745c-0.072-0.181-7.31-18.456,0.778-30.96   c5.555-8.595,17.461-13.191,35.357-13.68c4.506-0.127,8.722-0.181,12.684-0.181c25.423,0,39.953,2.569,45.345,7.925   c2.451,2.435,3.488,5.99,3.579,12.66c0.005,0.389,0.006,0.794,0.005,1.205l-0.106,4.109   C417.832,326.788,407.166,359.85,382.024,360.116z"></path></g></svg>