<svg height='100px' width='100px'  fill="#000000" xmlns="http://www.w3.org/2000/svg" viewBox="0 0 64 64" x="0px" y="0px"><g><path d="M41,56H38.781l-.5-2H39a1,1,0,0,0,1-1V49.217C40.773,47.5,45.891,35.8,46,26.294c1.064-1.73,7.066-11.868,4.939-17.189A5.032,5.032,0,0,0,47.243,6.03,4.922,4.922,0,0,0,43,6.978V3a1,1,0,0,0-1-1H22a1,1,0,0,0-1,1V6.977a4.922,4.922,0,0,0-4.243-.947,5.032,5.032,0,0,0-3.691,3.075c-2.127,5.321,3.875,15.459,4.939,17.189.1,9.5,5.222,21.209,6,22.923V53a1,1,0,0,0,1,1h.719l-.5,2H23a1,1,0,0,0-1,1v4a1,1,0,0,0,1,1H41a1,1,0,0,0,1-1V57A1,1,0,0,0,41,56ZM26,52V50H38v2Zm1-42H37v2.939a13.782,13.782,0,0,0-10,0Zm5,4a12,12,0,0,1,10.376,6H21.624A12,12,0,0,1,32,14ZM44,26c0,.654-.029,1.323-.079,2H42v2h1.712c-.088.664-.194,1.332-.315,2H40V22h3.3a11.815,11.815,0,0,1,.519,2H42v2ZM26,32V22h2V32Zm4-10h4V32H30Zm6,0h2V32H36ZM20.079,28c-.05-.677-.079-1.346-.079-2h2V24H20.181a11.815,11.815,0,0,1,.519-2H24V32H20.6c-.121-.668-.227-1.336-.315-2H22V28Zm22.913,6q-.223,1.01-.482,2H21.489q-.256-.989-.482-2ZM26,44V38h2v6Zm4-6h4v6H30Zm6,0h2v6H36Zm4,0h1.961c-.636,2.186-1.334,4.212-1.961,5.892ZM24,38v5.9c-.627-1.681-1.325-3.708-1.962-5.9Zm1.65,10c-.193-.444-.484-1.129-.834-2H39.184c-.35.871-.641,1.556-.834,2ZM42.011,8a4.341,4.341,0,0,0-.7,1.43c-.514,1.918.377,4.379,4.417,5.533l.55-1.922c-2.281-.652-3.387-1.78-3.035-3.094A3.006,3.006,0,0,1,46.757,7.97a3.1,3.1,0,0,1,2.32,1.877c1.246,3.116-1.349,9.155-3.436,13.046a14.036,14.036,0,0,0-6.641-9v-4.6A3.527,3.527,0,0,1,42,8ZM23,4h4V6h2V4h2V6h2V4h2V6h2V4h4V6.068A5.347,5.347,0,0,0,37.474,8H26.526A5.347,5.347,0,0,0,23,6.068ZM14.923,9.847a3.1,3.1,0,0,1,2.32-1.877A3.007,3.007,0,0,1,20.76,9.945c.352,1.314-.754,2.442-3.035,3.094l.55,1.922c4.04-1.154,4.931-3.615,4.417-5.533a4.341,4.341,0,0,0-.7-1.43L22,8a3.527,3.527,0,0,1,3,1.292v4.6a14.031,14.031,0,0,0-6.641,9C16.272,19.006,13.676,12.968,14.923,9.847ZM27.781,54h8.438l.5,2H27.281ZM40,60H24V58H40Z"></path></g></svg>