<svg height='100px' width='100px'  fill="#000000" xmlns:dc="http://purl.org/dc/elements/1.1/" xmlns:cc="http://creativecommons.org/ns#" xmlns:rdf="http://www.w3.org/1999/02/22-rdf-syntax-ns#" xmlns:svg="http://www.w3.org/2000/svg" xmlns="http://www.w3.org/2000/svg" xmlns:sodipodi="http://sodipodi.sourceforge.net/DTD/sodipodi-0.dtd" xmlns:inkscape="http://www.inkscape.org/namespaces/inkscape" version="1.1" x="0px" y="0px" viewBox="0 0 100 100"><g transform="translate(0,-952.36218)"><path d="m 31,963.36224 c -1.0744,0.0222 -1.9754,1.09908 -2,2 l 0,18 -21.0000005,0 c -1.0472,10e-5 -1.9999,0.95283 -2,2 l 0,53.99986 c 10e-5,1.0472 0.9528,1.9999 2,2 l 84.0000005,0 c 1.047201,-10e-5 1.9999,-0.9528 2,-2 l 0,-53.99986 c -1e-4,-1.04718 -0.952799,-1.9999 -2,-2 l -21,0 0,-18 c -1e-4,-1.04718 -0.952799,-1.9999 -2,-2 z m 2,4 34,0 0,18 c 1.01e-4,1.04717 0.9528,1.9999 2,2 l 21,0 0,49.99986 -29,0 0,-19.9999 c -1.01e-4,-1.0472 -0.9528,-1.9999 -2,-2 l -18,0 c -1.077,0.029 -1.9754,1.0991 -2,2 l 0,19.9999 -29.0000005,0 0,-49.99986 21.0000005,0 c 1.0472,-1e-4 1.999899,-0.95283 2,-2 z m 17,4 c -1.104601,0 -2,0.8954 -2,2 l 0,6 -6,0 c -1.104601,0 -2,0.8954 -2,2 0,1.1046 0.895399,2 2,2 l 6,0 0,6 c 0,1.1046 0.895399,2 2,2 1.1046,0 2,-0.8954 2,-2 l 0,-6 6,0 c 1.1046,0 2,-0.8954 2,-2 0,-1.1046 -0.8954,-2 -2,-2 l -6,0 0,-6 c 0,-1.1046 -0.8954,-2 -2,-2 z m -34,24 c -1.0472,10e-5 -1.9999,0.95283 -2,2 l 0,11.99996 c 10e-5,1.0472 0.9528,1.9999 2,2 l 18,0 c 1.0472,-10e-5 1.999899,-0.9528 2,-2 l 0,-11.99996 c -1.01e-4,-1.04717 -0.9528,-1.9999 -2,-2 z m 25,0 c -1.047201,10e-5 -1.9999,0.95283 -2,2 l 0,11.99996 c 1e-4,1.0472 0.952799,1.9999 2,2 l 18,0 c 1.0472,-10e-5 1.999899,-0.9528 2,-2 l 0,-11.99996 c -1.01e-4,-1.04717 -0.9528,-1.9999 -2,-2 z m 25,0 c -1.047201,10e-5 -1.9999,0.95283 -2,2 l 0,11.99996 c 1e-4,1.0472 0.952799,1.9999 2,2 l 18,0 c 1.047201,-10e-5 1.9999,-0.9528 2,-2 l 0,-11.99996 c -1e-4,-1.04717 -0.952799,-1.9999 -2,-2 z m -48,3.99999 14,0 0,7.99997 -14,0 z m 25,0 14,0 0,7.99997 -14,0 z m 25,0 14,0 0,7.99997 -14,0 z m -52,15.99997 c -1.0472,10e-5 -1.9999,0.9528 -2,2 l 0,12 c 10e-5,1.0472 0.9528,1.9999 2,2 l 18,0 c 1.0472,-10e-5 1.999899,-0.9528 2,-2 l 0,-12 c -1.01e-4,-1.0472 -0.9528,-1.9999 -2,-2 z m 50,0 c -1.047201,10e-5 -1.9999,0.9528 -2,2 l 0,12 c 1e-4,1.0472 0.952799,1.9999 2,2 l 18,0 c 1.047201,-10e-5 1.9999,-0.9528 2,-2 l 0,-12 c -1e-4,-1.0472 -0.952799,-1.9999 -2,-2 z m -48,4 14,0 0,8 -14,0 z m 25,0 14,0 0,17.9999 -14,0 z m 25,0 14,0 0,8 -14,0 z" style="text-indent:0;text-transform:none;direction:ltr;block-progression:tb;baseline-shift:baseline;color:#000000;enable-background:accumulate;" fill="#000000" fill-opacity="1" stroke="none" marker="none" visibility="visible" display="inline" overflow="visible"></path></g></svg>