<svg height='100px' width='100px'  fill="#000000" xmlns:dc="http://purl.org/dc/elements/1.1/" xmlns:cc="http://creativecommons.org/ns#" xmlns:rdf="http://www.w3.org/1999/02/22-rdf-syntax-ns#" xmlns:svg="http://www.w3.org/2000/svg" xmlns="http://www.w3.org/2000/svg" xmlns:sodipodi="http://sodipodi.sourceforge.net/DTD/sodipodi-0.dtd" xmlns:inkscape="http://www.inkscape.org/namespaces/inkscape" viewBox="0 0 64 64" version="1.1" xml:space="preserve" style="" x="0px" y="0px" fill-rule="evenodd" clip-rule="evenodd" stroke-linejoin="round" stroke-miterlimit="2"><path d="m 47.00014,9.9998155 c -3.863335,0 -7.000004,3.1366685 -7.000004,7.0000035 0,3.863335 3.136669,7.000004 7.000004,7.000004 3.863335,0 7.000003,-3.136669 7.000003,-7.000004 0,-3.863335 -3.136668,-7.0000035 -7.000003,-7.0000035 z m 0,2.0000015 c 2.759335,0 5.000002,2.240667 5.000002,5.000002 0,2.759335 -2.240667,5.000003 -5.000002,5.000003 -2.759335,0 -5.000003,-2.240668 -5.000003,-5.000003 0,-2.759335 2.240668,-5.000002 5.000003,-5.000002 z" style="" stroke-width="0.666667" fill="#000000"></path><path d="m 47.999805,28.99968 v -2 c 0,-0.552 -0.448085,-1 -1,-1 -0.551915,0 -1.000001,0.448 -1.000001,1 v 2 c 0,0.552 0.448086,1 1.000001,1 0.551915,0 1,-0.448 1,-1 z" style="" stroke-width="0.29173" fill="#000000"></path><path d="m 56.706955,25.29268 -2.000001,-2 c -0.390297,-0.39 -1.024,-0.39 -1.414298,0 -0.390213,0.39 -0.390213,1.024 0,1.414 l 2.000001,2 c 0.390298,0.39 1.024,0.39 1.414298,0 0.390213,-0.39 0.390213,-1.024 0,-1.414 z" style="" stroke-width="0.29173" fill="#000000"></path><path d="m 59.000402,15.99968 h -2 c -0.551915,0 -1,0.448 -1,1 0,0.552 0.448085,1 1,1 h 2 c 0.551915,0 1.000001,-0.448 1.000001,-1 0,-0.552 -0.448086,-1 -1.000001,-1 z" style="" stroke-width="0.206284" fill="#000000"></path><path d="m 55.292655,7.29268 -2,2 c -0.390213,0.39 -0.390213,1.024 0,1.414 0.390298,0.39 1.024,0.39 1.414298,0 l 2,-2 c 0.390213,-0.39 0.390213,-1.024 0,-1.414 -0.390298,-0.39 -1.024,-0.39 -1.414298,0 z" style="" stroke-width="0.29173" fill="#000000"></path><path d="m 40.706954,9.29268 -2,-2 c -0.390298,-0.39 -1.024,-0.39 -1.414298,0 -0.390213,0.39 -0.390213,1.024 0,1.414 l 2,2 c 0.390298,0.39 1.024,0.39 1.414298,0 0.390213,-0.39 0.390213,-1.024 0,-1.414 z" style="" stroke-width="0.29173" fill="#000000"></path><path d="m 45.999805,4.99951 v 1.9999627 c 0,0.5520199 0.448085,1.0001457 1,1.0001457 0.551915,0 1,-0.4481258 1,-1.0001457 V 4.99951 c 0,-0.5520199 -0.448085,-1.0001457 -1,-1.0001457 -0.551915,0 -1,0.4481258 -1,1.0001457 z" style="" stroke-width="0.167276" fill="#000000"></path><path d="m 39.292656,23.29268 -2.000001,2 c -0.390213,0.39 -0.390213,1.024 0,1.414 0.390298,0.39 1.024,0.39 1.414298,0 l 2.000001,-2 c 0.390213,-0.39 0.390213,-1.024 0,-1.414 -0.390298,-0.39 -1.024001,-0.39 -1.414298,0 z" style="" stroke-width="0.29173" fill="#000000"></path><path d="m 37.000402,15.99968 h -2 c -0.551915,0 -1,0.448 -1,1 0,0.552 0.448085,1 1,1 h 2 c 0.551915,0 1.000001,-0.448 1.000001,-1 0,-0.552 -0.448086,-1 -1.000001,-1 z" style="" stroke-width="0.206284" fill="#000000"></path><path d="m 37.757,21.99968 -1.878,1.879 c -1.171,1.17 -1.171,3.072 0,4.242 0.447,0.447 1,0.724 1.578,0.829 l 1.263,5.05 h -8.939 l -2.5,-10 H 25.22 l 2.5,10 h -8.939 l -2.5,-10 H 14.22 l 2.5,10 H 8.781 l 0.5,2 h 7.938 l 2.5,10 h 2.062 l -2.5,-10 h 8.938 l 2.5,10 h 2.062 l -2.5,-10 h 8.938 l 2.5,10 h 2.062 l -2.5,-10 h 7.938 l -0.5,-2 h -7.938 l -1.342,-5.367 c 0.245,-0.134 0.475,-0.305 0.682,-0.512 l 2,-2 c 0.333,-0.333 0.571,-0.724 0.715,-1.142 0.48,0.251 0.984,0.46 1.51,0.622 -0.221,0.418 -0.346,0.894 -0.346,1.399 v 2 c 0,1.656 1.344,3 3,3 1.276,0 2.367,-0.798 2.8,-1.922 l 0.981,3.922 H 52 c 0.552,0 1,0.448 1,1 0,0.552 -0.448,1 -1,1 h -0.719 l 2.689,10.757 c 0.075,0.299 0.008,0.616 -0.182,0.858 -0.189,0.243 -0.48,0.385 -0.788,0.385 H 11 c -0.459,0 -0.859,-0.312 -0.97,-0.757 L 7.219,35.99968 H 6 c -0.552,0 -1,-0.448 -1,-1 0,-0.552 0.448,-1 1,-1 H 6.719 L 4.03,23.24268 c -0.075,-0.299 -0.008,-0.616 0.182,-0.858 0.189,-0.243 0.48,-0.385 0.788,-0.385 z" style="" fill="#000000"></path><path d="m 25,57.99968 v -8 h 8 v 8 h 26 c 0.552,0 1,0.448 1,1 0,0.552 -0.448,1 -1,1 H 5 c -0.552,0 -1,-0.448 -1,-1 0,-0.552 0.448,-1 1,-1 z" style="" fill="#000000"></path></svg>