<svg height='100px' width='100px'  fill="#000000" xmlns:x="http://ns.adobe.com/Extensibility/1.0/" xmlns:i="http://ns.adobe.com/AdobeIllustrator/10.0/" xmlns:graph="http://ns.adobe.com/Graphs/1.0/" xmlns="http://www.w3.org/2000/svg" xmlns:xlink="http://www.w3.org/1999/xlink" version="1.1" x="0px" y="0px" viewBox="0 0 100 100" style="enable-background:new 0 0 100 100;" xml:space="preserve"><g><g i:extraneous="self"><g><path d="M97,69.9c0.3,0,0.5-0.2,0.5-0.5v-2c0-0.3-0.2-0.5-0.5-0.5H61.4c-0.3,0-0.5,0.2-0.5,0.5v2c0,0.3,0.2,0.5,0.5,0.5h1.9v2.7     h-1.9c-0.3,0-0.5,0.2-0.5,0.5v2c0,0.3,0.2,0.5,0.5,0.5H97c0.3,0,0.5-0.2,0.5-0.5v-2c0-0.3-0.2-0.5-0.5-0.5h-1.9v-2.7H97z"></path><path d="M10.5,72H4.2c-0.9,0-1.7,0.8-1.7,1.7v4.4c0,0.9,0.8,1.7,1.7,1.7h6.3c0.9,0,1.7-0.8,1.7-1.7v-4.4     C12.2,72.8,11.5,72,10.5,72z"></path><path d="M22.4,72h-6.3c-0.9,0-1.7,0.8-1.7,1.7v4.4c0,0.9,0.8,1.7,1.7,1.7h6.3c0.9,0,1.7-0.8,1.7-1.7v-4.4     C24.1,72.8,23.3,72,22.4,72z"></path><path d="M10.5,82H4.2c-0.9,0-1.7,0.8-1.7,1.7V88c0,0.9,0.8,1.7,1.7,1.7h6.3c0.9,0,1.7-0.8,1.7-1.7v-4.4     C12.2,82.7,11.5,82,10.5,82z"></path><path d="M22.4,82h-6.3c-0.9,0-1.7,0.8-1.7,1.7V88c0,0.9,0.8,1.7,1.7,1.7h6.3c0.9,0,1.7-0.8,1.7-1.7v-4.4     C24.1,82.7,23.3,82,22.4,82z"></path><path d="M22.4,62.1h-6.3c-0.9,0-1.7,0.8-1.7,1.7v4.4c0,0.9,0.8,1.7,1.7,1.7h6.3c0.9,0,1.7-0.8,1.7-1.7v-4.4     C24.1,62.9,23.3,62.1,22.4,62.1z"></path><path d="M52.7,81.9H47V30.6h25l0,6c0,0.3,0.1,0.5,0.2,0.7l1.9,4c0.3,0.6,0.9,1,1.5,1h1.8v5.1c0,0.9,0.8,1.7,1.7,1.7     c1.5,0,2.8,1.3,2.8,2.8c0,1.1-0.7,2-1.6,2.5l-0.3-0.3c-0.6-0.5-1.4-0.5-2,0l-0.2,0.2c-0.7-0.4-1.2-1-1.4-1.8     c-0.2-0.9-1.2-1.5-2.1-1.2c-0.9,0.2-1.5,1.2-1.2,2.1c0.3,1.3,1.1,2.5,2.1,3.3l-9.4,8.4h4.5l7.9-7.1c0.3,0,0.6,0.1,1,0.1     c0.3,0,0.5,0,0.8-0.1l7.8,7.1h4.5L83,56.8c1.4-1.1,2.4-2.9,2.4-4.9c0-2.8-1.9-5.2-4.5-6v-3.7h1.9c0.7,0,1.3-0.4,1.5-1l1.9-4     c0.1-0.2,0.2-0.5,0.2-0.7v-6h8.3c0.7,0,1.3-0.4,1.6-1.1c0.3-0.7,0.1-1.4-0.4-1.9l-4.3-4c-0.2-0.2-0.5-0.3-0.7-0.4L41.6,10.3     c-0.3-0.1-0.7-0.1-1,0L4.9,23.2c-0.7,0.2-1.1,0.9-1.1,1.6v4c0,0.9,0.8,1.7,1.7,1.7h1.9v4.3H5.5c-0.9,0-1.7,0.8-1.7,1.7v6.5     c0,0.9,0.8,1.7,1.7,1.7h15.6c0.9,0,1.7-0.8,1.7-1.7v-6.5c0-0.9-0.8-1.7-1.7-1.7h-1.9v-4.3h16.1v51.3h-5.6c-0.9,0-1.7,0.8-1.7,1.7     V88c0,0.9,0.8,1.7,1.7,1.7h23c0.9,0,1.7-0.8,1.7-1.7v-4.4C54.4,82.7,53.6,81.9,52.7,81.9z M15.8,34.9h-5v-4.3h5V34.9z M35.5,23.1     H15.3l23.5-8.5L35.5,23.1z M83,34.9h-7.6v-4.3H83L83,34.9z M43.4,14.3l33.7,8.8H46.8L43.4,14.3z"></path></g></g></g></svg>