<svg height='100px' width='100px'  fill="#000000" xmlns="http://www.w3.org/2000/svg" xmlns:xlink="http://www.w3.org/1999/xlink" version="1.1" x="0px" y="0px" viewBox="0 0 100 100" style="enable-background:new 0 0 100 100;" xml:space="preserve"><g><path d="M14.2,10.6c0.1,0,0.3,0.1,0.4,0.2C14.5,10.7,14.4,10.7,14.2,10.6c0,0-0.1,0-0.1,0c-0.1,0-0.2-0.1-0.3-0.1c0,0-0.1,0-0.1,0   c-0.1,0-0.2,0-0.4,0c-0.2,0-0.4,0.1-0.5,0.1c-0.3,0.1-0.6,0.3-0.9,0.5c-0.2,0.1-0.4,0.3-0.6,0.4c-0.1,0.1-0.1,0.1-0.2,0.1   c-0.2,0.2-0.4,0.4-0.6,0.5c0,0-0.1,0.1-0.1,0.1c-0.2,0.2-0.3,0.4-0.4,0.6c-0.1,0.1-0.1,0.1-0.2,0.2c-0.1,0.2-0.2,0.4-0.3,0.5   c-0.1,0.1-0.1,0.2-0.2,0.3c-0.1,0.2-0.1,0.3-0.2,0.5C9,14.7,8.9,14.8,8.9,15c-0.1,0.2-0.1,0.4-0.1,0.6c0,0.1-0.1,0.3-0.1,0.4   c-0.1,0.3-0.1,0.7-0.1,1c0,1.4,0.4,2.7,1.1,3.7c0.8,1.2,2.5,1.2,3.3,0l0,0c0.4-0.7,0.4-1.5,0-2.1c-0.3-0.5-0.5-1-0.5-1.6   c0-1.2,0.7-2.2,1.8-2.7c0.7-0.3,1.1-1.1,1.1-1.8C15.5,11.6,15,10.9,14.2,10.6z"></path><path d="M24.1,50.3c-2.7,0.9-4.8,3.2-5.4,6c0.1-0.3,0.1-0.5,0.2-0.8c-0.1,0.2-0.1,0.5-0.2,0.8c0,0.1-0.1,0.3-0.1,0.4c0,0,0,0,0,0   c0,0,0,0,0,0c-0.1,0.4-0.1,0.8-0.1,1.2c0-0.4,0-0.8,0.1-1.1c-0.1,0.4-0.1,0.8-0.1,1.2c0,0,0,0.1,0,0.1c0,2.2,0.8,4.1,2.2,5.6   c0.9,0.9,2.5,0.7,3.1-0.4l0-0.1c0.4-0.7,0.3-1.6-0.2-2.2C23,60,22.6,59.1,22.6,58c0-1.8,1.1-3.3,2.7-3.9c0.8-0.3,1.4-1,1.4-1.8   v-0.1C26.7,50.8,25.4,49.9,24.1,50.3z"></path><path d="M68.5,78.1c0.1,0,0.3,0.1,0.4,0.2C68.8,78.2,68.7,78.1,68.5,78.1c0,0-0.1,0-0.1,0c-0.1,0-0.2-0.1-0.3-0.1c0,0-0.1,0-0.1,0   c-0.1,0-0.2,0-0.4,0c-0.2,0-0.4,0.1-0.5,0.1c-0.3,0.1-0.6,0.3-0.9,0.5c-0.2,0.1-0.4,0.3-0.6,0.4c-0.1,0.1-0.1,0.1-0.2,0.1   c-0.2,0.2-0.4,0.4-0.6,0.5c0,0-0.1,0.1-0.1,0.1c-0.2,0.2-0.3,0.4-0.4,0.6c-0.1,0.1-0.1,0.1-0.2,0.2c-0.1,0.2-0.2,0.4-0.3,0.5   c-0.1,0.1-0.1,0.2-0.2,0.3c-0.1,0.2-0.1,0.3-0.2,0.5c-0.1,0.1-0.1,0.3-0.2,0.4c-0.1,0.2-0.1,0.4-0.1,0.6c0,0.1-0.1,0.3-0.1,0.4   c-0.1,0.3-0.1,0.7-0.1,1c0,1.4,0.4,2.7,1.1,3.7c0.8,1.2,2.5,1.2,3.3,0l0,0c0.4-0.7,0.4-1.5,0-2.1c-0.3-0.5-0.5-1-0.5-1.6   c0-1.2,0.7-2.2,1.8-2.7c0.7-0.3,1.1-1.1,1.1-1.8C69.8,79,69.2,78.3,68.5,78.1z"></path><path d="M62.6,56.6c0.9,1.2,2.7,1.1,3.4-0.3c0,0,0,0,0,0c0.3-0.6,0.3-1.4-0.1-2c-0.3-0.4-0.4-0.8-0.4-1.3c0-0.8,0.4-1.5,1.1-1.8   c0.6-0.4,0.9-1,0.9-1.7c0-1.6-1.8-2.5-3.1-1.6c-1.7,1.1-2.8,3-2.8,5.2C61.5,54.4,61.9,55.6,62.6,56.6z"></path><path d="M48.8,8.6c-1.7,1.1-2.8,3-2.8,5.2c0,1.3,0.4,2.6,1.1,3.6c0.9,1.2,2.7,1.1,3.4-0.3c0,0,0,0,0,0c0.3-0.6,0.3-1.4-0.1-2   c-0.3-0.4-0.4-0.8-0.4-1.3c0-0.8,0.4-1.5,1.1-1.8c0.6-0.4,0.9-1,0.9-1.7C51.9,8.7,50.2,7.8,48.8,8.6z"></path><path d="M86.7,8.5c-5,0-9.2,3.2-10.8,7.6l-12.2-2.2c0,0,0,0,0-0.1c0-6.4-5.2-11.6-11.6-11.6S40.6,7.4,40.6,13.8s5.2,11.6,11.6,11.6   c0.8,0,1.6-0.1,2.3-0.2l7.1,18c-3.1,1.9-5.3,5.3-5.5,9.2l-14,1.7c-1.7-6.9-8-12.1-15.5-12.1c-0.8,0-1.6,0.1-2.4,0.2l-3.3-13.1   c4.6-2.1,7.8-6.7,7.8-12.1c0-7.3-5.9-13.3-13.2-13.3S2.2,9.7,2.2,17s5.9,13.3,13.3,13.3c0.5,0,1.1,0,1.6-0.1l3.3,13.2   c-5.7,2.4-9.7,8.1-9.7,14.7c0,8.8,7.2,16,16,16c8.8,0,15.9-7.1,16-15.9l14-1.7c1.3,4.4,5.2,7.7,9.8,8.1l0.5,7   c-5.9,1.3-10.4,6.6-10.4,12.9c0,7.3,5.9,13.3,13.3,13.3S83,91.7,83,84.4c0-6.9-5.4-12.6-12.2-13.2l-0.5-7c5-1.2,8.8-5.8,8.8-11.2   c0-6.4-5.2-11.6-11.6-11.6c-0.8,0-1.6,0.1-2.3,0.2l-7.1-18c2.2-1.3,3.9-3.4,4.8-5.9L75.2,20c0,0,0,0,0,0.1   c0,6.4,5.2,11.6,11.6,11.6s11.6-5.2,11.6-11.6S93.1,8.5,86.7,8.5z M6.2,17c0-5.1,4.1-9.3,9.3-9.3s9.2,4.1,9.2,9.3s-4.1,9.3-9.2,9.3   S6.2,22.1,6.2,17z M26.7,69.9c-6.6,0-12-5.4-12-12s5.4-12,12-12s12,5.4,12,12S33.3,69.9,26.7,69.9z M79,84.4c0,5.1-4.1,9.3-9.3,9.3   s-9.3-4.1-9.3-9.3s4.1-9.3,9.3-9.3S79,79.3,79,84.4z M75.2,53c0,4.2-3.4,7.6-7.6,7.6c-4.2,0-7.6-3.4-7.6-7.6c0-4.2,3.4-7.6,7.6-7.6   C71.8,45.5,75.2,48.9,75.2,53z M52.2,21.4c-4.2,0-7.6-3.4-7.6-7.6s3.4-7.6,7.6-7.6s7.6,3.4,7.6,7.6S56.4,21.4,52.2,21.4z    M86.7,27.6c-4.2,0-7.6-3.4-7.6-7.6c0-4.2,3.4-7.6,7.6-7.6s7.6,3.4,7.6,7.6C94.3,24.2,90.9,27.6,86.7,27.6z"></path><path d="M83.4,14.9c-1.7,1.1-2.8,3-2.8,5.2c0,1.3,0.4,2.6,1.1,3.6c0.9,1.2,2.7,1.1,3.4-0.3c0,0,0,0,0,0c0.3-0.6,0.3-1.4-0.1-2   c-0.3-0.4-0.4-0.8-0.4-1.3c0-0.8,0.4-1.5,1.1-1.8c0.6-0.4,0.9-1,0.9-1.7C86.4,14.9,84.7,14,83.4,14.9z"></path></g></svg>