<svg height='100px' width='100px'  fill="#000000" xmlns="http://www.w3.org/2000/svg" xmlns:xlink="http://www.w3.org/1999/xlink" version="1.1" x="0px" y="0px" viewBox="0 0 100 100" enable-background="new 0 0 100 100" xml:space="preserve"><g><path d="M76.001,93.938v-56h4v-3h-4h-5.002v-7.999h2.008v-3h-2.008H29h-2.006v3H29v7.999h-5h-4v3h4v56h-6v3h64v-3H76.001z    M55,93.938h-9v-18h9V93.938z M32,26.938h35.999v7.999H32V26.938z M73.001,37.937v56H58v-21H43v21H27v-56H73.001z"></path><path d="M33,45.441c0-0.828,0.674-1.502,1.503-1.502h0.994c0.829,0,1.503,0.674,1.503,1.502v7.497h3v-7.497   c0-2.482-2.02-4.502-4.503-4.502h-0.994c-2.483,0-4.503,2.02-4.503,4.502v7.497h3V45.441z"></path><path d="M33,78.441c0-0.828,0.674-1.502,1.503-1.502h0.994c0.829,0,1.503,0.674,1.503,1.502v7.496h3v-7.496   c0-2.482-2.02-4.502-4.503-4.502h-0.994c-2.483,0-4.503,2.02-4.503,4.502v7.496h3V78.441z"></path><path d="M33,61.441c0-0.828,0.674-1.502,1.503-1.502h0.994c0.829,0,1.503,0.674,1.503,1.502v7.498h3v-7.498   c0-2.482-2.02-4.502-4.503-4.502h-0.994c-2.483,0-4.503,2.02-4.503,4.502v7.498h3V61.441z"></path><path d="M48,45.441c0-0.828,0.674-1.502,1.503-1.502h0.994c0.829,0,1.503,0.674,1.503,1.502v7.497h3.001v-7.497   c0-2.482-2.021-4.502-4.504-4.502h-0.994c-2.483,0-4.503,2.02-4.503,4.502v7.497h3V45.441z"></path><path d="M48,61.441c0-0.828,0.674-1.502,1.503-1.502h0.994c0.829,0,1.503,0.674,1.503,1.502v7.498h3.001v-7.498   c0-2.482-2.021-4.502-4.504-4.502h-0.994c-2.483,0-4.503,2.02-4.503,4.502v7.498h3V61.441z"></path><path d="M63,45.441c0-0.828,0.675-1.502,1.503-1.502h0.994c0.829,0,1.503,0.674,1.503,1.502v7.497h3v-7.497   c0-2.482-2.021-4.502-4.503-4.502h-0.994c-2.482,0-4.503,2.02-4.503,4.502v7.497h3V45.441z"></path><path d="M65.497,73.939h-0.994c-2.482,0-4.502,2.02-4.502,4.502v7.496h3v-7.496c0-0.828,0.674-1.502,1.502-1.502h0.994   c0.829,0,1.504,0.674,1.504,1.502v7.496h3v-7.496C70.001,75.959,67.98,73.939,65.497,73.939z"></path><path d="M65.497,56.939h-0.994c-2.482,0-4.502,2.02-4.502,4.502v7.498h3v-7.498c0-0.828,0.674-1.502,1.502-1.502h0.994   c0.829,0,1.504,0.674,1.504,1.502v7.498h3v-7.498C70.001,58.959,67.98,56.939,65.497,56.939z"></path><path d="M27.549,21.307l4.581-1.961l4.584,1.961l-0.45-4.964l3.279-3.752l-4.858-1.107L32.13,7.203l-2.554,4.281l-2.409,0.549   l-2.409,0.605l3.239,3.705L27.549,21.307z M31.493,14.125l0.637-1.066l0.637,1.066l1.211,0.275l-0.817,0.936l0.111,1.236   l-1.142-0.489l-1.141,0.488l0.111-1.235L30.283,14.4L31.493,14.125z"></path><path d="M45.416,17.172L50,15.206l4.584,1.967l-0.453-4.968l3.288-3.753l-4.866-1.103l-2.554-4.287l-2.552,4.287l-4.866,1.104   l3.288,3.752L45.416,17.172z M49.365,9.99L50,8.925l0.635,1.064l1.208,0.274l-0.816,0.933l0.112,1.233L50,11.942l-1.139,0.488   l0.112-1.233l-0.816-0.933L49.365,9.99z"></path><path d="M63.782,20.663l4.588-1.974l4.587,1.974l-0.459-4.973l3.296-3.753l-4.872-1.1L68.37,6.544l-2.551,4.293l-4.872,1.1   l3.295,3.753L63.782,20.663z M67.738,13.48l0.632-1.063l0.633,1.063l1.205,0.271l-0.816,0.929l0.115,1.231l-1.137-0.488   l-1.136,0.488l0.113-1.231l-0.815-0.929L67.738,13.48z"></path></g></svg>