<svg height='100px' width='100px'  fill="#000000" xmlns="http://www.w3.org/2000/svg" xmlns:xlink="http://www.w3.org/1999/xlink" version="1.1" x="0px" y="0px" viewBox="0 0 64 64" style="enable-background:new 0 0 64 64;" xml:space="preserve"><g><path d="M62.828,29.172l-19.999-20C42.073,8.417,41.069,8,40,8c-1.069,0-2.073,0.417-2.828,1.172L23.94,22.404   C23.663,21.034,22.45,20,21,20v-9c0-1.654-1.346-3-3-3H6c-1.654,0-3,1.346-3,3v9c-1.654,0-3,1.346-3,3v18c0,1.654,1.346,3,3,3v9   c0,1.654,1.346,3,3,3h12c1.654,0,3-1.346,3-3v-9c0.352,0,0.685-0.072,1-0.184V55c0,0.552,0.448,1,1,1h12h10h12c0.552,0,1-0.448,1-1   V35.447C58.603,35.798,59.283,36,60,36c1.069,0,2.073-0.417,2.828-1.172C63.584,34.073,64,33.068,64,32   C64,30.932,63.584,29.927,62.828,29.172z M5,11c0-0.551,0.449-1,1-1h12c0.551,0,1,0.449,1,1v9H5V11z M19,53c0,0.551-0.449,1-1,1H6   c-0.551,0-1-0.449-1-1v-9h14V53z M21,42H3c-0.551,0-1-0.449-1-1V23c0-0.551,0.449-1,1-1h18c0.551,0,1,0.449,1,1v18   C22,41.551,21.551,42,21,42z M36,54V43h8v11H36z M46,54V42c0-0.552-0.448-1-1-1H35c-0.552,0-1,0.448-1,1v12H24V41v-7.282   l16.001-16.06L56,33.657V54H46z M61.414,33.414c-0.755,0.756-2.072,0.756-2.828,0l-0.879-0.879l0,0l-17-17   c-0.094-0.094-0.206-0.167-0.327-0.217c-0.122-0.05-0.251-0.076-0.38-0.076c0,0-0.001,0-0.001,0c-0.013,0-0.025,0.007-0.038,0.008   c-0.116,0.004-0.232,0.023-0.341,0.068c-0.122,0.05-0.234,0.123-0.329,0.218l-0.133,0.133L24,30.828v-5.656l14.586-14.586   c0.755-0.756,2.072-0.756,2.828,0l20,20C61.792,30.964,62,31.466,62,32C62,32.534,61.792,33.036,61.414,33.414z"></path><path d="M12,23c-0.552,0-1,0.448-1,1v1c0,0.552,0.448,1,1,1c0.552,0,1-0.448,1-1v-1C13,23.448,12.552,23,12,23z"></path><path d="M12,38c-0.552,0-1,0.448-1,1v1c0,0.552,0.448,1,1,1c0.552,0,1-0.448,1-1v-1C13,38.448,12.552,38,12,38z"></path><path d="M6.343,27.757c0.195,0.195,0.451,0.293,0.707,0.293c0.256,0,0.512-0.098,0.707-0.293c0.391-0.391,0.391-1.023,0-1.414   L7.05,25.636c-0.391-0.391-1.023-0.391-1.414,0c-0.391,0.391-0.391,1.024,0,1.414L6.343,27.757z"></path><path d="M17.656,36.243c-0.391-0.391-1.024-0.391-1.414,0c-0.391,0.391-0.391,1.023,0,1.414l0.707,0.707   c0.195,0.195,0.451,0.293,0.707,0.293c0.256,0,0.512-0.098,0.707-0.293c0.391-0.391,0.391-1.023,0-1.414L17.656,36.243z"></path><path d="M6,32c0-0.552-0.448-1-1-1H4c-0.552,0-1,0.448-1,1s0.448,1,1,1h1C5.552,33,6,32.552,6,32z"></path><path d="M19.999,31h-1c-0.552,0-1,0.448-1,1c0,0.552,0.448,1,1,1h1c0.552,0,1-0.448,1-1C20.999,31.448,20.551,31,19.999,31z"></path><path d="M6.343,36.243L5.636,36.95c-0.391,0.391-0.391,1.023,0,1.414c0.195,0.195,0.451,0.293,0.707,0.293   c0.256,0,0.512-0.098,0.707-0.293l0.707-0.707c0.391-0.391,0.391-1.023,0-1.414C7.366,35.852,6.733,35.852,6.343,36.243z"></path><path d="M16.949,28.051c0.256,0,0.512-0.098,0.707-0.293l0.707-0.707c0.391-0.391,0.391-1.024,0-1.414s-1.024-0.391-1.414,0   l-0.707,0.707c-0.391,0.391-0.391,1.024,0,1.414C16.437,27.954,16.693,28.051,16.949,28.051z"></path><path d="M12,28c-0.552,0-1,0.448-1,1v2H9c-0.552,0-1,0.448-1,1s0.448,1,1,1h3c0.552,0,1-0.448,1-1v-3C13,28.448,12.552,28,12,28z"></path><path d="M16,12H8c-0.552,0-1,0.448-1,1s0.448,1,1,1h8c0.552,0,1-0.448,1-1S16.552,12,16,12z"></path><path d="M16,16H8c-0.552,0-1,0.448-1,1s0.448,1,1,1h8c0.552,0,1-0.448,1-1S16.552,16,16,16z"></path><path d="M8,48h8c0.552,0,1-0.448,1-1s-0.448-1-1-1H8c-0.552,0-1,0.448-1,1S7.448,48,8,48z"></path><path d="M8,52h8c0.552,0,1-0.448,1-1s-0.448-1-1-1H8c-0.552,0-1,0.448-1,1S7.448,52,8,52z"></path><path d="M39,47h-1c-0.552,0-1,0.448-1,1s0.448,1,1,1h1c0.552,0,1-0.448,1-1S39.552,47,39,47z"></path><path d="M39.29,37.29C39.11,37.48,39,37.74,39,38c0,0.26,0.11,0.52,0.29,0.71C39.48,38.89,39.74,39,40,39   c0.26,0,0.52-0.11,0.71-0.29C40.89,38.52,41,38.26,41,38c0-0.26-0.11-0.52-0.29-0.71C40.34,36.92,39.66,36.92,39.29,37.29z"></path><path d="M40,29c-2.4,0-4.659,0.937-6.361,2.639c-0.391,0.39-0.391,1.023,0,1.414c0.391,0.391,1.023,0.391,1.414,0   C36.377,31.729,38.134,31,40,31c1.866,0,3.623,0.729,4.947,2.053c0.195,0.195,0.451,0.293,0.707,0.293   c0.256,0,0.512-0.098,0.707-0.293c0.391-0.391,0.391-1.024,0-1.414C44.659,29.937,42.4,29,40,29z"></path><path d="M40,33c-1.336,0-2.591,0.521-3.536,1.465c-0.39,0.391-0.39,1.024,0,1.415c0.391,0.39,1.024,0.39,1.415,0   c1.132-1.134,3.109-1.134,4.241,0c0.195,0.195,0.452,0.293,0.707,0.293c0.256,0,0.512-0.098,0.707-0.293   c0.391-0.391,0.391-1.024,0-1.415C42.591,33.521,41.336,33,40,33z"></path></g></svg>