<svg height='100px' width='100px'  fill="#000000" xmlns:dc="http://purl.org/dc/elements/1.1/" xmlns:cc="http://creativecommons.org/ns#" xmlns:rdf="http://www.w3.org/1999/02/22-rdf-syntax-ns#" xmlns:svg="http://www.w3.org/2000/svg" xmlns="http://www.w3.org/2000/svg" xmlns:sodipodi="http://sodipodi.sourceforge.net/DTD/sodipodi-0.dtd" xmlns:inkscape="http://www.inkscape.org/namespaces/inkscape" viewBox="0 0 12.5 12.5" version="1.1" x="0px" y="0px"><path style="" d="m 1.4583325,-5e-7 a 0.62500008,0.62500008 0 0 0 -0.625,0.625 v 0.208333 H 0.6249991 A 0.62500008,0.62500008 0 0 0 -1e-6,1.4583325 V 11.875001 a 0.62500008,0.62500008 0 0 0 0.6250001,0.625 H 11.041667 a 0.62500008,0.62500008 0 0 0 0.625,-0.625 v -0.208333 h 0.208334 a 0.62500008,0.62500008 0 0 0 0.625,-0.625 V 0.6249995 a 0.62500008,0.62500008 0 0 0 -0.625,-0.625 z m 0,0.416666 H 11.875001 a 0.20833336,0.20833336 0 0 1 0.208333,0.208334 V 11.041668 a 0.20833336,0.20833336 0 0 1 -0.208333,0.208333 H 11.666667 V 1.4583325 a 0.62500008,0.62500008 0 0 0 -0.625,-0.625 H 1.2499992 V 0.6249995 A 0.20833336,0.20833336 0 0 1 1.4583325,0.4166655 Z M 0.6249991,1.2499995 H 11.041667 A 0.20833336,0.20833336 0 0 1 11.25,1.4583325 v 1.041667 H 0.4166657 v -1.041667 a 0.20833336,0.20833336 0 0 1 0.2083334,-0.208333 z m 0.2083334,0.416667 v 0.416666 h 0.4166667 v -0.416666 z m 0.8333334,0 v 0.416666 h 0.4166667 v -0.416666 z m 0.8333334,0 v 0.416666 h 0.4166668 v -0.416666 z m -2.0833336,1.25 H 11.25 v 8.9583345 a 0.20833336,0.20833336 0 0 1 -0.208333,0.208334 H 0.6249991 A 0.20833336,0.20833336 0 0 1 0.4166657,11.875001 Z m 1.0416668,0.833333 a 0.20833336,0.20833336 0 0 0 -0.2083333,0.208334 v 4.583333 a 0.20833336,0.20833336 0 0 0 0.2083333,0.208334 H 7.2916666 A 0.20833336,0.20833336 0 0 0 7.5,8.5416665 V 3.9583335 A 0.20833336,0.20833336 0 0 0 7.2916666,3.7499995 Z m 0.2083334,0.416667 h 5.4166674 v 4.166667 H 1.6666659 Z m 6.2500008,0 v 0.416667 h 2.5000003 v -0.416667 z m -4.7916673,0.416667 a 1.0429168,1.0429168 0 0 0 -1.0416668,1.041666 v 2.291667 h 0.4166667 v -1.458333 h 1.2500002 v 1.458333 H 4.1666662 V 5.6249995 A 1.0429168,1.0429168 0 0 0 3.1249994,4.5833335 Z m 1.6666669,0 a 0.20833336,0.20833336 0 0 0 -0.2083334,0.208333 v 2.916667 a 0.20833336,0.20833336 0 0 0 0.2083334,0.208333 H 5.208333 A 1.4600002,1.4600002 0 0 0 6.6666665,6.4583335 V 6.0416665 A 1.4600002,1.4600002 0 0 0 5.208333,4.5833335 Z m 0.2083334,0.416666 H 5.208333 a 1.0429168,1.0429168 0 0 1 1.0416668,1.041667 v 0.416667 A 1.0429168,1.0429168 0 0 1 5.208333,7.5000005 H 4.9999997 Z m -1.8567406,2.61e-4 a 0.62500008,0.62500008 0 0 1 0.6067404,0.624739 v 0.416667 H 2.4999993 v -0.416667 a 0.62500008,0.62500008 0 0 1 0.6432598,-0.624745 z m 4.7734076,0.416406 v 0.416667 h 2.5000003 v -0.416667 z m 0,1.25 v 0.416667 h 2.5000003 v -0.416667 z m 0,1.25 v 0.416667 H 10.416667 V 7.9166665 Z M 1.2499992,9.5833335 V 10.000001 H 10.416667 V 9.5833335 Z m 0,1.2500005 v 0.416667 h 9.1666678 v -0.416667 z" stroke-width="1.00000012"></path></svg>