<svg height='100px' width='100px'  fill="#000000" xmlns="http://www.w3.org/2000/svg" viewBox="0 0 64 64" x="0px" y="0px"><g><path d="M61,15H47V3a1,1,0,0,0-1-1H18a1,1,0,0,0-1,1V15H3a1,1,0,0,0-1,1V61a1,1,0,0,0,1,1H61a1,1,0,0,0,1-1V16A1,1,0,0,0,61,15ZM19,4H45V15H43V7a1,1,0,0,0-1-1H22a1,1,0,0,0-1,1v8H19ZM41,8v7H23V8ZM60,60H4V30H7.35l7.74,17.41A.987.987,0,0,0,16,48H26v7a1,1,0,0,0,1,1H37a1,1,0,0,0,1-1V48H48a.987.987,0,0,0,.91-.59L56.65,30H60ZM25,27.93V39H23V27.93Zm-2-2V23.3l1-1.5,1,1.5v2.63ZM28,41v2H20V41Zm4,9a2.98,2.98,0,0,0-2.82,4H28V48h8v6H34.82A2.98,2.98,0,0,0,32,50Zm1,3a1,1,0,1,1-1-1A1,1,0,0,1,33,53Zm-6-7V45h1v1Zm-2-1v1H23V45Zm-4,0v1H20V45ZM38,29h6a1,1,0,0,0,1-1V22.08a7.985,7.985,0,0,1-1.33,14.45,1.014,1.014,0,0,0-.67.95V46H39V37.48a1.014,1.014,0,0,0-.67-.95A7.985,7.985,0,0,1,37,22.08V28A1,1,0,0,0,38,29Zm22-1H56a.987.987,0,0,0-.91.59L47.35,46H45V38.16a9.989,9.989,0,0,0-.67-18.58,1,1,0,0,0-1.33.94V27H39V20.52a1,1,0,0,0-1.33-.94A9.989,9.989,0,0,0,37,38.16V46H30V40a1,1,0,0,0-1-1H27V23a.967.967,0,0,0-.17-.55l-2-3a1.03,1.03,0,0,0-1.66,0l-2,3A.967.967,0,0,0,21,23V39H19a1,1,0,0,0-1,1v6H16.65L8.91,28.59A.987.987,0,0,0,8,28H4V17H60Z"></path><rect x="38" y="31" width="6" height="2"></rect></g></svg>