<svg height='100px' width='100px'  fill="#000000" xmlns:dc="http://purl.org/dc/elements/1.1/" xmlns:cc="http://creativecommons.org/ns#" xmlns:rdf="http://www.w3.org/1999/02/22-rdf-syntax-ns#" xmlns:svg="http://www.w3.org/2000/svg" xmlns="http://www.w3.org/2000/svg" xmlns:sodipodi="http://sodipodi.sourceforge.net/DTD/sodipodi-0.dtd" xmlns:inkscape="http://www.inkscape.org/namespaces/inkscape" version="1.1" x="0px" y="0px" viewBox="0 0 100 100"><g transform="translate(0,-952.36218)"><path style="text-indent:0;text-transform:none;direction:ltr;block-progression:tb;baseline-shift:baseline;color:#000000;enable-background:accumulate;" d="m 49.785677,968.37501 a 2.0003895,1.9998227 0 0 0 -0.375035,0.0625 l -36.003407,10.99792 a 2.0003895,1.9998227 0 0 0 -1.093854,0.8436 l -9.0008518,13.99735 a 2.0003895,1.9998227 0 0 0 1.5626478,3.06193 l 7.125674,0.40617 0,25.62023 a 2.0003895,1.9998227 0 0 0 1.406384,1.9058 l 36.003407,10.9979 a 2.0003895,1.9998227 0 0 0 1.187612,0 l 36.003408,-10.9979 a 2.0003895,1.9998227 0 0 0 1.406383,-1.9058 l 0,-25.62023 7.125674,-0.40617 a 2.0003895,1.9998227 0 0 0 1.562648,-3.06193 l -9.000852,-13.99735 a 2.0003895,1.9998227 0 0 0 -1.093853,-0.8436 l -14.001325,-4.24919 a 2.0003895,1.9998227 0 1 0 -1.15636,3.81178 l 13.282507,4.06173 6.750639,10.49802 -30.096598,1.71842 -8.094516,-21.80838 9.125863,2.78073 a 2.0003895,1.9998227 0 1 0 1.187613,-3.81178 L 50.598254,968.4375 a 2.0003895,1.9998227 0 0 0 -0.812577,-0.0625 z m -3.062789,5.09279 -8.094517,21.80838 -30.0965979,-1.71842 6.7506389,-10.49802 31.440476,-9.59194 z m 1.281371,8.06098 0,50.08432 -32.003029,-9.7482 0,-23.90172 23.87726,1.37474 a 2.0003895,1.9998227 0 0 0 2.000189,-1.28101 l 6.12558,-16.52813 z m 4.000378,0 6.12558,16.52813 a 2.0003895,1.9998227 0 0 0 2.000189,1.28101 l 23.87726,-1.37474 0,23.90172 -32.003029,9.7482 0,-50.08432 z" fill="#000000" fill-opacity="1" stroke="none" marker="none" visibility="visible" display="inline" overflow="visible"></path></g></svg>