<svg height='100px' width='100px'  fill="#000000" xmlns="http://www.w3.org/2000/svg" viewBox="0 0 512 512" x="0px" y="0px"><path d="M56,439.687c0,16.356,15.423,29.877,35.244,31.765A40.056,40.056,0,0,0,128,495.687H448a8,8,0,0,0,8-8v-464a8,8,0,0,0-8-8H120a32.036,32.036,0,0,0-32,32V88.331c-18.236,2.973-32,15.9-32,31.356s13.764,28.382,32,31.355v17.289c-18.236,2.973-32,15.9-32,31.356s13.764,28.382,32,31.355v17.289c-18.236,2.973-32,15.9-32,31.356s13.764,28.382,32,31.355v17.289c-18.236,2.973-32,15.9-32,31.356s13.764,28.382,32,31.355v17.289C69.764,411.3,56,424.233,56,439.687Zm16,0c0-6.814,6.784-12.794,16-15.047v30.093C78.784,452.48,72,446.5,72,439.687Zm36.754,30.322C124.573,465.739,136,453.764,136,439.687a8,8,0,0,0-16,0c0,6.813-6.784,12.793-16,15.046V391.042c18.236-2.973,32-15.9,32-31.355a8,8,0,0,0-16,0c0,6.813-6.784,12.793-16,15.046V311.042c18.236-2.973,32-15.9,32-31.355a8,8,0,0,0-16,0c0,6.813-6.784,12.793-16,15.046V231.042c18.236-2.973,32-15.9,32-31.355a8,8,0,0,0-16,0c0,6.813-6.784,12.793-16,15.046V151.042c18.236-2.973,32-15.9,32-31.355a8,8,0,0,0-16,0c0,6.813-6.784,12.793-16,15.046V75.382a31.793,31.793,0,0,0,16,4.3h32v400H128A23.982,23.982,0,0,1,108.754,470.009ZM168,479.687v-400H440v400Zm-48-448H440v32H120a16,16,0,0,1,0-32Zm-48,88c0-6.814,6.784-12.794,16-15.047v30.093C78.784,132.48,72,126.5,72,119.687Zm0,80c0-6.814,6.784-12.794,16-15.047v30.093C78.784,212.48,72,206.5,72,199.687Zm0,80c0-6.814,6.784-12.794,16-15.047v30.093C78.784,292.48,72,286.5,72,279.687Zm0,80c0-6.814,6.784-12.794,16-15.047v30.093C78.784,372.48,72,366.5,72,359.687Z"></path><path d="M384,127.687H224a8,8,0,0,0-8,8v96a8,8,0,0,0,8,8H384a8,8,0,0,0,8-8v-96A8,8,0,0,0,384,127.687Zm-8,96H232v-80H376Z"></path><path d="M272,175.687h64a8,8,0,0,0,0-16H272a8,8,0,0,0,0,16Z"></path><path d="M256,207.687h96a8,8,0,0,0,0-16H256a8,8,0,0,0,0,16Z"></path></svg>