<svg height='100px' width='100px'  fill="#000000" xmlns="http://www.w3.org/2000/svg" data-name="Layer 1" viewBox="0 0 64 64" x="0px" y="0px"><title>training-man- nurture- culture- tuition- inculcation</title><path d="M4,51H16V42l2-.971V33.686l8.867-5.168a2.283,2.283,0,0,0-2.1-4.051L17,28H6.879A4.88,4.88,0,0,0,2,32.879v8.15L4,42Z"></path><circle cx="10" cy="22" r="5"></circle><path d="M55.2,54H50.8A6.8,6.8,0,0,0,44,60.8V62H62V60.8A6.8,6.8,0,0,0,55.2,54Z"></path><circle cx="53" cy="50" r="4"></circle><path d="M24,60.8V62H42V60.8A6.8,6.8,0,0,0,35.2,54H30.8A6.8,6.8,0,0,0,24,60.8Z"></path><circle cx="33" cy="50" r="4"></circle><path d="M12,16.35A5.991,5.991,0,0,1,13.31,27h3.473l7.575-3.443a3.283,3.283,0,0,1,3.012,5.825L19.446,34H62V2H12ZM41,8.5H59v1H41Zm-8,6H59v1H33Zm0,7H59v1H33Zm0,7H59v1H33Z"></path></svg>