<svg height='100px' width='100px'  fill="#000000" xmlns="http://www.w3.org/2000/svg" xmlns:xlink="http://www.w3.org/1999/xlink" version="1.1" x="0px" y="0px" viewBox="0 0 64 64" style="enable-background:new 0 0 64 64;" xml:space="preserve"><g><path d="M61,24v-5h2v-9c0-4.963-4.038-9-9-9H1v1c0,4.247,2.426,8.072,6.221,9.902C7.079,13.224,7,14.6,7,16c0,7.271,2.103,15,6,15   h17.077C29.379,32.203,29,33.57,29,35c0,2.953,1.613,5.532,4,6.918V49c0,3.859,3.14,7,7,7h15c0,3.859,3.14,7,7,7h1V41h-1   c-3.86,0-7,3.141-7,7H42c-0.551,0-1-0.448-1-1v-5.082c2.387-1.386,4-3.964,4-6.918c0-1.43-0.379-2.797-1.077-4H54   C57.86,31,61,27.859,61,24z M59,24c0,2.757-2.243,5-5,5H16.107C18.002,26.233,19,21.009,19,16c0-0.339-0.017-0.666-0.025-1h4.611   l4,4H59V24z M60.92,9H44c-0.551,0-1-0.448-1-1V3h11C57.519,3,60.432,5.614,60.92,9z M41,3v5c0,1.654,1.346,3,3,3h17v6H28.414l-4-4   H13v-1c0-3.716-1.852-7.008-4.682-9H41z M3.062,3.062C5.2,3.315,7.106,4.326,8.517,5.81C8.1,6.986,7.76,8.331,7.51,9.795   C5.046,8.378,3.395,5.887,3.062,3.062z M9,16c0-2.979,0.349-5.837,0.974-8.158C10.626,9.087,11,10.5,11,12v3h5.975   C16.983,15.333,17,15.661,17,16c0,7.936-2.369,13-4,13S9,23.936,9,16z M57,48c0-2.415,1.721-4.435,4-4.899v17.799   c-2.279-0.465-4-2.484-4-4.899V48z M42,50h13v4H40c-2.757,0-5-2.243-5-5v-6.263C35.641,42.903,36.308,43,37,43s1.359-0.097,2-0.263   V47C39,48.654,40.346,50,42,50z M43,35c0,3.309-2.691,6-6,6s-6-2.691-6-6c0-1.495,0.547-2.898,1.536-4H37h4.464   C42.453,32.102,43,33.505,43,35z"></path><path d="M33,35c0,2.206,1.794,4,4,4s4-1.794,4-4s-1.794-4-4-4S33,32.794,33,35z M37,33c1.103,0,2,0.897,2,2s-0.897,2-2,2   s-2-0.897-2-2S35.897,33,37,33z"></path><rect x="45" y="5" width="2" height="2"></rect><rect x="49" y="5" width="2" height="2"></rect><rect x="53" y="5" width="2" height="2"></rect><rect x="15" y="9" width="2" height="2"></rect><rect x="19" y="9" width="2" height="2"></rect><rect x="23" y="9" width="2" height="2"></rect><rect x="42" y="21" width="2" height="2"></rect><rect x="38" y="21" width="2" height="2"></rect><rect x="34" y="21" width="2" height="2"></rect></g></svg>