<svg height='100px' width='100px'  fill="#000000" xmlns="http://www.w3.org/2000/svg" xmlns:xlink="http://www.w3.org/1999/xlink" version="1.1" x="0px" y="0px" viewBox="0 0 50 50" enable-background="new 0 0 50 50" xml:space="preserve"><g><path d="M44.5,8h-5.2V6.4c0-0.4-0.3-0.8-0.8-0.8h-3.7V4.1h2.5c1.1,0,1.9-0.9,1.9-1.9c0-1.1-0.9-1.9-1.9-1.9h-6.5   c-1.1,0-1.9,0.9-1.9,1.9c0,1.1,0.9,1.9,1.9,1.9h2.5v1.5h-3.7C29.3,5.6,29,6,29,6.4V8h-5.6c-0.4,0-0.8,0.3-0.8,0.8v6.7   c0,0.4,0.3,0.7,0.8,0.7H41v11.7H1c-0.4,0-0.8,0.3-0.8,0.8v4.2c0,0.4,0.3,0.8,0.8,0.8h2.6c0,8,0,11.7,0,15.4c0,0.4,0.3,0.8,0.8,0.8   h33.9c0.4,0,0.8-0.3,0.8-0.8v-5.4v-5.4v-4.6H41V49c0,0.4,0.3,0.8,0.8,0.8H49c0.4,0,0.8-0.3,0.8-0.8V13.2C49.8,10.3,47.4,8,44.5,8z    M30.5,2.2c0-0.2,0.2-0.4,0.4-0.4h6.5c0.2,0,0.4,0.2,0.4,0.4c0,0.2-0.2,0.4-0.4,0.4h-6.5C30.6,2.6,30.5,2.4,30.5,2.2z M30.5,7.1   h7.4V8h-7.4V7.1z M26.2,33.6v3.9h-9.8v-3.9H26.2z M37.6,39v3.9h-4.4V39H37.6z M31.6,42.9h-9.5V39h9.5V42.9z M5.1,42.9V39h4.4v3.9   H5.1z M11.1,39h9.5v3.9h-9.5V39z M26.2,44.4v3.9h-9.8v-3.9H26.2z M15,37.5H5.1v-3.9H15V37.5z M5.1,44.4H15v3.9H5.1V44.4z    M37.6,48.3h-9.8v-3.9h9.8V48.3z M37.6,37.5h-9.8v-3.9h9.8V37.5z M38.3,32.1H4.4H1.8v-2.7H41v2.7H38.3z M48.3,48.3h-5.8V32.9v-4.2   V15.4c0-0.4-0.3-0.8-0.8-0.8H24.1V9.5h5.6c20.3,0,2.2,0,14.8,0c2,0,3.7,1.7,3.7,3.7V48.3z"></path><path d="M7.4,26c0.4,0.1,0.8-0.1,0.9-0.6C10,18.5,14.5,12.8,20.4,10c0.4-0.2,0.5-0.6,0.4-1c-0.2-0.4-0.6-0.5-1-0.4   c-6.3,2.9-11.1,9-12.9,16.4C6.7,25.5,7,25.9,7.4,26z"></path><path d="M14.5,26.8C14.5,26.8,14.5,26.8,14.5,26.8c0.5,0,0.8-0.3,0.8-0.7c0.5-4.7,2.5-8.8,5.7-11.8c0.3-0.3,0.3-0.8,0-1.1   c-0.3-0.3-0.8-0.3-1.1,0c-3.4,3.2-5.6,7.7-6.2,12.7C13.8,26.4,14.1,26.8,14.5,26.8z"></path><path d="M15,17.5c-0.3-0.3-0.8-0.3-1.1,0c-1.8,1.8-2.6,4.2-2.9,5.9c-0.1,0.4,0.2,0.8,0.6,0.9c0,0,0.1,0,0.2,0   c0.3,0,0.7-0.2,0.7-0.6c0.3-1.5,1-3.6,2.5-5.2C15.3,18.3,15.3,17.8,15,17.5z"></path></g></svg>