<svg height='100px' width='100px'  fill="#000000" xmlns="http://www.w3.org/2000/svg" xmlns:xlink="http://www.w3.org/1999/xlink" version="1.1" x="0px" y="0px" viewBox="0 0 100 100" style="enable-background:new 0 0 100 100;" xml:space="preserve"><path d="M78.6122437,45.7489014c0.5911255,0.0020142,1.1360474,0.4766846,0.8446655,1.0733032  c-0.298645,0.6116943-1.0831909,0.8066406-1.7227173,0.8362427c-0.2003174,0.0777588-0.4066162,0.1245728-0.5963745,0.1245728  c-4.4968262,0-8.9935913,0-13.4903564,0c-0.1952515,0-0.4108276-0.0307617-0.6133423-0.0925903  c-0.6846313-0.0046387-1.3692627-0.0037842-2.053833-0.0129395c-0.1480713-0.0019531-0.2935181-0.03302-0.4237671-0.0875854  c-0.4066772-0.1170044-0.7267456-0.4484253-0.5857544-0.8988647c0.1871948-0.5982666,0.999939-0.9291992,1.5717773-0.9711304  c0.0996094-0.0073242,0.2005615-0.0070801,0.300415-0.0133057c0.1448975-0.0389404,0.2875366-0.0629272,0.4160767-0.0650024  c0.1229248-0.0020142,0.2458496,0.0015869,0.3687744,0.0001221c0.0004272-0.0011597,0.0008545-0.0023804,0.0012817-0.00354  c0.0316772,0.00177,0.0633545,0.0018921,0.0950317,0.0036011c0.1914673-0.0020752,0.3828735,0.0006714,0.5742188,0.0001831  c0.0067749-0.0001221,0.0134277-0.0006714,0.0202026-0.0008545c0.1862793-0.0671387,0.3764648-0.1060791,0.5521851-0.1060791  c4.4968262,0,8.9935913,0,13.4903564,0c0.2927856,0,0.6329956,0.0626221,0.9013672,0.2108765  C78.3790283,45.7463379,78.4956665,45.7484741,78.6122437,45.7489014z M76.7210693,20.3032227  c-0.0469971,0.2161255,0.3656006,0.2806396,0.6523438,0.2860718c0.3746338,0.0071411,0.7492676,0.0139771,1.1239014,0.020874  c-0.0012207,0.0405273,0.0161743,0.0805054,0.0774536,0.1159058c0.151123,0.0879517,0.3745728,0.1084595,0.5753784,0.114502  c0.4364624,0.0134277,0.8800659-0.0565796,1.2659912-0.1744995c0.3150635-0.0961914,0.553833-0.2224121,0.7852783-0.3803101  c0.1009521-0.0687866,0.1088257-0.1998291-0.0043335-0.2658081c-0.0015259-0.0008545-0.0039673-0.0008545-0.0054932-0.001709  c0.0678101-0.0585327,0.1118164-0.1242065,0.0995483-0.2021484c-0.0057373-0.036499-0.0182495-0.0713501-0.041687-0.1053467  c-0.0392456-0.0565186-0.0949707-0.0959473-0.1587524-0.128479c0.0081787-0.0199585,0.0160522-0.039978,0.0238647-0.0599365  c0.0066528-0.0097046,0.0183716-0.0188599,0.0230103-0.0285645c0.005188-0.0108643,0.0012207-0.0228271,0.0020752-0.0345459  c0.0042114-0.0111694,0.0092163-0.0222778,0.0133667-0.0333862c0.0212402-0.0576782,0.0594482-0.12854,0.0333862-0.1867676  c-0.0296021-0.0656738-0.123291-0.1179199-0.2113647-0.1553345c-0.152771-0.0645142-0.3381958-0.0878906-0.5286865-0.0936279  c-0.239502-0.1787109-0.8193359-0.1293335-1.1203003-0.0925293c-0.2049561,0.0248413-0.4099121,0.0499878-0.6149292,0.0751343  c-0.2371216,0.0311279-0.5294189,0.1150513-0.7098389,0.2146606c-0.0874634,0.048584-0.208313,0.1393433-0.2144775,0.2258911  c-0.1287231,0.0262451-0.2544556,0.0582275-0.359375,0.0999146c-0.0895386,0.0354004-0.170105,0.0759277-0.2412109,0.1218872  c-0.1174316,0.0494385-0.2254028,0.1082153-0.2803955,0.1747437c-0.0791626,0.0959473-0.1179199,0.2127075,0.0199585,0.3006592  c0.0050049,0.003418,0.0133667,0.0042725,0.0184937,0.0074463C76.8426514,20.1681519,76.7369995,20.2301025,76.7210693,20.3032227z   M57.7216187,44.5982056c-0.0865479-0.0883179-0.2130737-0.1671143-0.3626099-0.2338867  c-0.1304932-0.0581055-0.2071533,0.0469971-0.2128906,0.0961304c-0.0186157-0.0134888-0.0327759-0.0290527-0.0533447-0.0413208  c-0.0602417-0.0356445-0.1343994-0.0778809-0.2324829-0.074585c-0.0496216,0.0018311-0.1008301,0.0072021-0.1462402,0.0177002  c-0.0475464,0.0107422-0.0802612,0.0254517-0.1074829,0.0424805c-0.0322266-0.0113525-0.0698242-0.019165-0.1107178-0.0206299  c-0.0889282-0.0032959-0.1739502,0.0042114-0.2556763,0.0188599c-0.0535889-0.0062866-0.1278687-0.0212402-0.1812134-0.0140991  c-0.0493774,0.006897-0.0968018,0.0323486-0.1251831,0.0524292c-0.0396118,0.027832-0.0551758,0.0614014-0.0635986,0.09552  c-0.0767822,0.0422363-0.1495361,0.0892944-0.2136841,0.1431885c-0.0542603,0.0458374-0.0196533,0.0796509,0.0335083,0.1018677  c0.0019531,0.0341187,0.0112305,0.067688,0.0195313,0.0883179c-0.0462036,0.0320435-0.0895386,0.0686035-0.0853882,0.1159058  c0.0026855,0.0305786,0.0118408,0.0617065,0.0288086,0.0895996c0.0288086,0.0476074,0.0750122,0.0718384,0.1305542,0.0913086  c-0.0227661,0.065918-0.0440674,0.1317749-0.0638428,0.197998c-0.0098267,0.032959-0.0352783,0.0793457-0.0232544,0.1126099  c0.0110474,0.0302734,0.0527344,0.0593262,0.0853882,0.0766602c0.0884399,0.0473633,0.2034302,0.0488281,0.3154907,0.0302734  c0.0192871,0.0053711,0.0390625,0.006897,0.0584717,0.0116577c-0.0064697,0.0137939-0.0151978,0.0272827-0.0096436,0.0428467  c0.0341187,0.09375,0.2540894,0.0653076,0.3380127,0.0524292c0.074585-0.0111084,0.1491089-0.0224609,0.2236938-0.0335693  c0.0145874,0.0062866,0.0180664,0.0179443,0.0352173,0.0227661c0.1209717,0.0344238,0.2096558-0.0137939,0.2368774-0.0706787  c0.0386353-0.0114136,0.0775757-0.0269775,0.1125488-0.0467529c0.0040283,0.0075073,0.0091553,0.0147095,0.0132446,0.0222168  c0.0297852,0.0532837,0.0998535,0.1443481,0.2258301,0.1575317c0.1208496,0.0128784,0.1582642-0.0665283,0.1610718-0.1117554  c0.0076294-0.1248779,0.0152588-0.2497559,0.0228882-0.3746948c0.074707-0.0218506,0.1432495-0.052063,0.1687622-0.1008911  c0.0060425-0.0117188,0.0024414-0.0206909,0.0021362-0.0305786c0.043396-0.0188599,0.0911255-0.0344238,0.1158447-0.0670776  c0.0289917-0.0383301,0.0180664-0.0706787-0.0081177-0.0964355c0.0284424-0.0213013,0.0444946-0.0509033,0.0476074-0.0823975  c0.0038452-0.0383301-0.0077515-0.0745239-0.0189209-0.1107788c0.0359497-0.0203857,0.0728149-0.0413208,0.0812378-0.0712891  C57.9248047,44.6228027,57.7954712,44.5997314,57.7216187,44.5982056z M15.5437012,86.0482178  c-0.0442505,0.038147-0.0981445,0.0670166-0.1495361,0.0984497c0.0233154,0.0007324,0.0466309,0.0014648,0.0699463,0.0021973  c0.0944824,0.0029297,0.3153076,0.0820313,0.1973877,0.2167969c-0.2820435,0.3221436-0.6593018,0.5542603-1.1026611,0.5317383  c-0.1360474-0.006897-0.2700195-0.0679932-0.1973877-0.2167358c0.0218506-0.0447388,0.0327759-0.0946655,0.0530396-0.1402588  c-0.5232544-0.0163574-1.0464478-0.0326538-1.5697021-0.0490112c-0.0898438-0.0028076-0.2473755-0.0406494-0.2221069-0.1630249  c0.0263672-0.1275635,0.2072754-0.1984863,0.3131104-0.2286377c0.0332642-0.0094604,0.0661621-0.0196533,0.0990601-0.0302124  c0.0090332-0.0040894,0.0756226-0.0283813,0.0859985-0.0325928c0.0697632-0.0281372,0.1386108-0.0592041,0.2058716-0.0930786  c0.0102539-0.0060425,0.0473022-0.026123,0.0686035-0.0377197c-0.1421509,0-0.2843628,0-0.4265137,0  c-0.1365967,0-0.2886353-0.1056519-0.2068481-0.2521362c0.03479-0.0623779,0.0992432-0.0959473,0.1629639-0.1281128  c-0.0026245-0.0194702-0.0059204-0.0387573,0.0032959-0.0628052c0.053772-0.1400757,0.2663574-0.2038574,0.3988037-0.2210083  c0.272522-0.0351563,0.5461426-0.039978,0.8189087-0.0287476c0.0419922-0.0013428,0.0839844-0.0028076,0.1259766-0.0042114  c0.0622559-0.0633545,0.1218262-0.1275635,0.180542-0.1928101c-0.055603-0.0186768-0.1083374-0.0462646-0.1675415-0.0543213  c-0.0334473-0.0045776-0.0995483-0.0077515-0.1175537-0.0073242c0.003418-0.0001221-0.0671997,0.0065308-0.076355,0.0077515  c-0.0111084,0.0014038-0.0620117,0.0119629-0.0239868,0.0036011c-0.1021729,0.020874-0.3699951,0.0680542-0.411499-0.086853  c-0.0396729-0.1479492,0.204895-0.2570801,0.3129272-0.2809448c0.1977539-0.0404053,0.3954468-0.0808716,0.5932007-0.1212769  c0.1021729-0.0209351,0.3699951-0.0681152,0.411499,0.086792c0.0064087,0.0238647-0.0042725,0.0449829-0.0110474,0.0667725  c0.0460815,0.0143433,0.0916748,0.0324707,0.1372681,0.0509033c0.1378174-0.0308228,0.2791748-0.0287476,0.390686,0.052002  c0.0422974,0.0305786,0.0975952,0.0829468,0.1118774,0.1362305c0.0159912,0.0597534-0.0193481,0.145874-0.0324707,0.2055054  c-0.0276489,0.1257935-0.057312,0.2511597-0.0894165,0.3758545c-0.0009766,0.0037231-0.0023193,0.0072632-0.0032959,0.0109863  c0.0807495,0.0348511,0.1453857,0.079834,0.1860352,0.1694336c0.0238037,0.0524902,0.0366821,0.1125488,0.0402222,0.1700439  C15.7094116,85.9049072,15.6171875,85.9848633,15.5437012,86.0482178z M14.5009155,85.9061279c-0.1102905,0-0.2207031,0-0.3309937,0  c-0.0993652,0.0701294-0.2042847,0.1314087-0.3092041,0.192688c0.1854248,0.0057983,0.3707275,0.0115356,0.5561523,0.017334  c0.0004883-0.024292,0.0006104-0.0484009,0.015564-0.0773315C14.4552612,85.9945679,14.4780884,85.9503784,14.5009155,85.9061279z   M89.4994507,15.6560669c0.0065308-0.0510864,0.0131226-0.1021729,0.0197144-0.1533203  c-0.0195923-0.0476074-0.0391235-0.0952759-0.0587158-0.1428833c-0.0016479-0.0031128-0.0032959-0.0062866-0.0048218-0.0097656  c-0.0195313-0.0301514-0.0462036-0.0471191-0.0747681-0.0737915c-0.0409546-0.0377197-0.045166-0.0444336-0.072998-0.0655518  c-0.0427856-0.0212402-0.0859375-0.0418701-0.1289673-0.0623779c-0.0622559-0.0482178-0.1297607-0.0886841-0.2084351-0.112854  c-0.0778809-0.0193481-0.1557007-0.0386963-0.2335815-0.0579834c-0.0952759-0.0140381-0.1907349-0.0011597-0.2861328-0.0013428  c-0.0305786-0.0018311-0.0612183-0.0058594-0.0908813-0.0075684c-0.041687-0.0025635-0.083313,0.0046387-0.1252441,0.0064087  c-0.0205688,0.0020142-0.0410767-0.0032349-0.0616455-0.0004883c-0.0605469,0.0043945-0.1210938,0.0087891-0.1815186,0.0128174  c-0.1442871,0.0148315-0.2831421,0.0496216-0.4165039,0.1036377c-0.1210327,0.0353394-0.2337646,0.0895386-0.3380737,0.1619873  c-0.0115967,0.0064697-0.0153809,0.0197754-0.0263062,0.0270386c-0.0614624,0.0275269-0.1280518,0.0446167-0.18396,0.0837402  c-0.1018677,0.052002-0.1882324,0.1239014-0.2591553,0.21521c-0.0302124,0.0556641-0.0604858,0.1112671-0.0906372,0.1665649  c-0.0155029,0.0495605-0.0164795,0.0970459-0.0140381,0.1442261c-0.0114746,0.0199585-0.0332031,0.0308838-0.0422363,0.0529785  c-0.0065308,0.0510864-0.0131226,0.1021729-0.0196533,0.1533203c0.0195313,0.0476074,0.0391235,0.0952759,0.0587158,0.1429443  c0.0584106,0.0770874,0.1322021,0.1314697,0.2213745,0.1635742c0.1008301,0.0565186,0.2098389,0.0908203,0.3267822,0.1029663  c0.0126953,0.0020142,0.0253296,0.0040894,0.0380249,0.0061035c0.012207,0.0114136,0.0244751,0.0224609,0.0366821,0.0338745  c0.1295166,0.0784912,0.2695313,0.1278076,0.4200439,0.1479492c0.1848755,0.0341797,0.4241333,0.0311279,0.6092529,0.0060425  c0.1782837-0.0238037,0.3042603-0.0570068,0.4633179-0.1134644c0.1574097-0.0563354,0.2305298-0.0859985,0.3861084-0.1847534  c0.0788574-0.050293,0.1463013-0.1192017,0.2156982-0.1801758c0.0683594-0.0622559,0.1026611-0.1369629,0.1029663-0.2241821  c0.0037842-0.0129395,0-0.0247192,0.0016479-0.0372314c0.0227051-0.0540161,0.0349731-0.1116943,0.0311279-0.1750488  c0.0001831-0.0184937-0.0011597-0.034668-0.005249-0.0523071c-0.0031738-0.013855-0.0141602-0.0291138-0.019104-0.0446777  c0.0014648-0.0041504,0.0029907-0.0083008,0.0044556-0.0125122C89.4949341,15.6689453,89.4971924,15.6627197,89.4994507,15.6560669z   M48.9584351,42.1485596c-0.0004272-0.0004883-0.0016479-0.0009766-0.0020752-0.0019531  c0.0064087-0.0654297-0.0561523-0.090332-0.1097412-0.0976563c-0.0047607-0.0356445-0.0154419-0.0698242-0.0437622-0.0947266  c-0.0255127-0.0229492-0.0552368-0.0424805-0.0863037-0.0556641c-0.0529785-0.0219727-0.0971069-0.0166016-0.1422119-0.0019531  c-0.0124512-0.0200195-0.0257568-0.0400391-0.0384521-0.0600586c0.0027466-0.0224609,0.0114746-0.046875,0.0018311-0.0634766  c-0.0103149-0.0175781-0.0304565-0.0107422-0.0484619-0.0092773c-0.0125122-0.019043-0.024353-0.0385742-0.0370483-0.0576172  c-0.020813-0.0317383-0.0438232-0.081543-0.076416-0.1015625c-0.0298462-0.0180664-0.0751953-0.0185547-0.1065063-0.0146484  c-0.0847168,0.0102539-0.147522,0.0708008-0.1930542,0.1455078c-0.0192871,0.0078125-0.0354004,0.0200195-0.053833,0.0292969  c-0.0075073-0.0141602-0.0004272-0.0371094-0.0155029-0.0463867c-0.0712891-0.0429688-0.1436768,0.0302734-0.1894531,0.0917969  c-0.2235718,0.0146484-0.4177856,0.1420898-0.5643921,0.3237305c-0.0721436,0.0893555,0.0582275,0.1420898,0.1188965,0.1459961  c-0.0166016,0.0126953-0.0361328,0.0224609-0.0511475,0.0366211c-0.0440063,0.0410156-0.0963135,0.0922852-0.0922852,0.1591797  c0.0020752,0.0341797,0.0089722,0.0693359,0.0218506,0.1000977c0.0218506,0.0532227,0.0570068,0.0805664,0.0991211,0.1020508  c-0.0054932,0.0229492-0.0100098,0.0463867-0.0152588,0.0698242c-0.0177002,0.0136719-0.0413818,0.0249023-0.0462036,0.043457  c-0.005127,0.0200195,0.013916,0.0292969,0.02771,0.0410156c-0.0047607,0.0224609-0.0101318,0.0444336-0.0147095,0.0668945  c-0.0074463,0.0371094-0.0267334,0.0888672-0.0176392,0.1259766c0.0083618,0.0336914,0.0400391,0.0664063,0.0648193,0.0854492  c0.0380859,0.0297852,0.083313,0.0439453,0.1303711,0.0483398c0.0013428,0.0009766,0.0006104,0.0039063,0.0020752,0.0048828  c0.0189819,0.0166016,0.0420532,0.0292969,0.0671997,0.0366211c0.0280151,0.0078125,0.0543823-0.0112305,0.0803833-0.0175781  c-0.0001831,0.0078125-0.0053711,0.0141602-0.003418,0.0224609c0.0100708,0.0405273,0.050415,0.0488281,0.0888062,0.0576172  c0.0123901,0.0229492,0.024231,0.0458984,0.0369873,0.0683594c0.0137939,0.0244141,0.0269165,0.0649414,0.0524902,0.0776367  c0.0027466,0.0014648,0.0075073-0.0009766,0.0106812,0c0.0484009,0.0585938,0.1299438,0.0146484,0.1694946-0.0224609  c0.0504761-0.046875,0.1009521-0.0942383,0.1514282-0.1416016c0.00354,0.0039063-0.0018921,0.0131836,0.0029297,0.015625  c0.0651245,0.0322266,0.1513672-0.0708008,0.1960449-0.1303711c0.0288696-0.0214844,0.0476685-0.0488281,0.0574951-0.0786133  c0.0029907-0.0039063,0.0059204-0.0083008,0.0089111-0.012207c0.2357178-0.003418,0.4415283-0.0957031,0.5942993-0.234375  c0.0545044-0.0493164-0.0070801-0.0834961-0.0665894-0.0981445c0.0125732-0.0244141,0.0333862-0.0444336,0.0430298-0.0703125  c0.0275879-0.0229492,0.0507202-0.0488281,0.0480957-0.0810547c-0.0012207-0.0146484-0.0081177-0.0288086-0.0129395-0.043457  c0.0183716-0.0966797,0.0321655-0.1958008,0.0211792-0.2988281C49.0217896,42.1627197,48.9921875,42.1490479,48.9584351,42.1485596z   M83.9048462,44.7416382c-0.0177002,0.0136719-0.0413818,0.0249023-0.0462036,0.043457  c-0.005127,0.0195313,0.013916,0.0292969,0.02771,0.0410156c-0.0047607,0.0219727-0.0101318,0.0444336-0.0147095,0.0668945  c-0.0074463,0.0366211-0.0267944,0.0888672-0.0176392,0.1254883c0.0083618,0.0341797,0.0400391,0.0664063,0.0648193,0.0859375  c0.0671387,0.0527344,0.1544189,0.0541992,0.239502,0.0336914c0.0145874,0.0058594,0.0296631,0.0078125,0.0443726,0.0131836  c-0.0048828,0.0151367-0.0115356,0.0302734-0.0073242,0.0478516c0.0259399,0.1044922,0.1929321,0.0727539,0.2566528,0.0585938  c0.1073608-0.0239258,0.2147217-0.0478516,0.3220825-0.0712891c0.0581665-0.0141602,0.1730347-0.0722656,0.1893311-0.1523438  c0.2390137-0.0009766,0.4471436-0.0957031,0.6015625-0.2353516c0.0735474-0.0664063-0.0641479-0.1054688-0.1231079-0.1074219  c-0.0037231,0-0.0075073,0-0.0112305,0c0.0203857-0.0112305,0.0484619-0.0136719,0.0665894-0.0258789  c0.0440063-0.0302734,0.0963135-0.0673828,0.0922852-0.1162109c-0.0020752-0.0249023-0.0090332-0.0507813-0.0218506-0.0732422  c-0.0212402-0.0375977-0.062561-0.050293-0.1029053-0.065918c0.0009155-0.0029297,0.0028076-0.0058594,0.0037231-0.0087891  c0.017395-0.0537109,0.0335083-0.1074219,0.0485229-0.1616211c0.0074463-0.0268555,0.0267334-0.0649414,0.0176392-0.0917969  c-0.0009766-0.0029297-0.0061035-0.0043945-0.0076904-0.0073242c0.0074463-0.0761719-0.0814209-0.1025391-0.135498-0.1044922  c-0.0670166-0.0019531-0.1339722-0.0043945-0.2009888-0.0068359c-0.0001831-0.0043945,0.0043335-0.0083008,0.0027466-0.0131836  c-0.0258789-0.0766602-0.1929321-0.0532227-0.2565918-0.0429688c-0.0809937,0.0131836-0.1619263,0.0263672-0.2429199,0.0395508  c-0.0440063-0.0014648-0.0880127-0.0029297-0.132019-0.0043945c0.0084839-0.0205078,0.0133667-0.0444336,0.0222778-0.0644531  c0.0453491-0.1005859-0.038208-0.1420898-0.1231079-0.1469727c-0.2553711-0.0136719-0.4745483,0.1293945-0.637207,0.3310547  c-0.0721436,0.0893555,0.0582275,0.1420898,0.1189575,0.1459961c-0.0166626,0.0126953-0.0361328,0.0224609-0.0512085,0.0366211  c-0.0440063,0.0410156-0.0963135,0.0917969-0.0922852,0.1591797c0.0020752,0.0341797,0.0089722,0.0688477,0.0218506,0.1000977  c0.0218506,0.0532227,0.0570068,0.0805664,0.0991211,0.1020508C83.9146118,44.6947632,83.9100952,44.7182007,83.9048462,44.7416382z   M18.5956421,81.6409302c-0.0374756,0.0181885-0.0740356,0.0391846-0.1105347,0.0601196c0.0707397,0,0.1415405,0,0.2122803,0  c0.1060181,0,0.223938,0.0985718,0.1605225,0.2352905c-0.0233765,0.050354-0.0684204,0.0745239-0.109436,0.1033936  c0.0003052,0.0151978,0.0037231,0.0288696-0.0020142,0.046814c-0.041687,0.1306763-0.206604,0.1902466-0.3093872,0.2061768  c-0.0232544,0.0036011-0.0466309-0.0014038-0.0699463,0.0016479c-0.0003662,0.0009155-0.0006714,0.00177-0.0010376,0.0026855  c-0.1812744,0.0072021-0.3625488,0.0144653-0.5437622,0.0216675c-0.0316772,0.0388794-0.0629272,0.0783691-0.0934448,0.1185913  c0.02948,0.0105591,0.0569458,0.0286865,0.0883789,0.0343628c-0.0209961-0.0037842,0.0281372,0.0028687,0.0333252,0.0031738  c0.0046997,0.0002441,0.055481,0.0015869,0.0333252,0.0019531c-0.0234375,0.0004883,0.0477905-0.0061035,0.0469971-0.0059814  c0.0217896-0.0031128,0.0365601-0.008606,0.0063477-0.0006104c0.0792236-0.0194702,0.2870483-0.0635376,0.3192139,0.0809937  c0.0307617,0.1380615-0.1589355,0.2398682-0.2427979,0.262085c-0.1335449,0.0328979-0.2670898,0.0657349-0.4006348,0.0985718  c-0.0792236,0.0194702-0.2870483,0.0634766-0.3192749-0.0809937c-0.005249-0.0235596,0.0029907-0.0446167,0.0090942-0.065979  c-0.0183105-0.0070801-0.0370483-0.0097656-0.0552368-0.0179443c-0.1057739,0.0285034-0.2144165,0.0263062-0.2979126-0.0463257  c-0.0308228-0.0267944-0.0702515-0.0715942-0.0806274-0.1182251c-0.0113525-0.0510254,0.0126343-0.1223755,0.0219116-0.1732178  c0.0186768-0.1020508,0.0386353-0.2037354,0.0603027-0.3048706c-0.0524902-0.0297852-0.0960693-0.0675049-0.123291-0.140564  c-0.0159912-0.0429077-0.0246582-0.0912476-0.0271606-0.1381226c-0.0050659-0.0926514,0.0599976-0.1627197,0.1147461-0.2195435  c0.0187378-0.0194702,0.0429688-0.0328369,0.0636597-0.050415c-0.0754395-0.0053101-0.2376099-0.0777588-0.1478882-0.2011108  c0.2023315-0.2779541,0.4749756-0.4752808,0.7927246-0.4558716c0.1055908,0.0064697,0.2094727,0.0634155,0.1531372,0.2022095  c-0.0111084,0.0272827-0.0172119,0.06073-0.027771,0.0888062c0.3440552,0.0129395,0.6881714,0.0258179,1.0322876,0.0387573  c0.0697632,0.0025635,0.1919556,0.0379639,0.1723633,0.1520996c-0.0204468,0.1189575-0.1608276,0.1851807-0.242981,0.2132568  c-0.0263062,0.0090332-0.053833,0.0172729-0.0794678,0.0292358C18.6171265,81.6303101,18.6010742,81.6383057,18.5956421,81.6409302z   M18.0117188,81.5953369c-0.092041-0.003479-0.1841431-0.0068359-0.2761841-0.0103149  c-0.0031128,0.0127563-0.0002441,0.0232544-0.0062256,0.0371704c-0.0112915,0.0263062-0.022522,0.0525513-0.0338135,0.0788574  c0.0582275,0,0.116333,0,0.1745605,0C17.9157715,81.6629639,17.9642944,81.630249,18.0117188,81.5953369z M84.7238159,66.4037476  c0.0440674,0.0014648,0.0880737,0.0029297,0.1321411,0.0043945c-0.0084839,0.0200195-0.0133667,0.0444336-0.0222778,0.0644531  c-0.0453491,0.1005859,0.038208,0.1420898,0.1231079,0.1464844c0.2553711,0.0141602,0.4745483-0.1289063,0.637207-0.3305664  c0.0721436-0.0893555-0.0582275-0.1420898-0.1188354-0.1459961c0.0166016-0.0126953,0.0361328-0.0224609,0.0511475-0.0366211  c0.0439453-0.0410156,0.0962524-0.0922852,0.0922241-0.1591797c-0.0020142-0.0341797-0.0089722-0.0693359-0.0218506-0.1000977  c-0.0219116-0.0532227-0.0570068-0.0805664-0.0991211-0.1020508c0.0054932-0.0234375,0.0100098-0.0463867,0.0152588-0.0698242  c0.0177002-0.0136719,0.0413818-0.0249023,0.0462036-0.043457c0.005127-0.0200195-0.013916-0.0292969-0.02771-0.0410156  c0.0047607-0.0224609,0.0101929-0.0444336,0.0147095-0.0668945c0.0075073-0.0371094,0.0267944-0.0888672,0.0176392-0.1259766  c-0.0083618-0.0336914-0.0400391-0.0664063-0.0648193-0.0854492c-0.0671387-0.0527344-0.1543579-0.0546875-0.2394409-0.0336914  c-0.0145874-0.0058594-0.0297241-0.0078125-0.0444336-0.0131836c0.0048828-0.015625,0.0115356-0.0307617,0.0073242-0.0478516  c-0.0258789-0.1049805-0.1929321-0.0727539-0.2566528-0.0585938c-0.1073608,0.0239258-0.2147217,0.0473633-0.3220215,0.0712891  c-0.0581665,0.0141602-0.1730957,0.0722656-0.1893921,0.1518555c-0.2390137,0.0014648-0.4471436,0.0957031-0.6015625,0.2358398  c-0.0734863,0.0664063,0.064209,0.1054688,0.1231079,0.1069336c0.0037231,0,0.0073853,0.0004883,0.0111084,0.0004883  c-0.0203857,0.0107422-0.0484009,0.0131836-0.0664673,0.0258789c-0.0440063,0.0297852-0.0963135,0.0673828-0.0922852,0.1162109  c0.0020752,0.0249023,0.0090332,0.050293,0.0218506,0.0732422c0.0212402,0.0375977,0.062561,0.050293,0.1029053,0.065918  c-0.0009155,0.0029297-0.0028076,0.0053711-0.0037231,0.0083008c-0.017395,0.0537109-0.0335083,0.1079102-0.0485229,0.1621094  c-0.0074463,0.0268555-0.0267334,0.0644531-0.0175781,0.0917969c0.0009766,0.0029297,0.0060425,0.0043945,0.0076294,0.0073242  c-0.0074463,0.0756836,0.0814819,0.1020508,0.135498,0.1040039c0.0670166,0.0024414,0.1339722,0.0048828,0.2009888,0.0068359  c0.0001831,0.0048828-0.0043335,0.0087891-0.0027466,0.0131836c0.0258789,0.0766602,0.1929321,0.0532227,0.2566528,0.0429688  C84.5619507,66.4296265,84.6428833,66.4169312,84.7238159,66.4037476z M88.6244507,80.0595093  c-0.0402222-0.1865234-0.1644287-0.2651367-0.31073-0.3183594c0.0084839-0.0209961,0.0172119-0.0419922,0.0255127-0.0625  c0.0141602-0.0166016,0.0283813-0.0332031,0.0425415-0.0498047c0.0274658-0.0371094,0.0317993-0.0786133,0.0281982-0.1225586  c0.0217896-0.0585938,0.0515137-0.1152344,0.0719604-0.1743164c0.0112915-0.0493164-0.0003052-0.0932617-0.0349121-0.1303711  c-0.1931763-0.1713867-0.4395142-0.2016602-0.6751099-0.1464844c-0.0620117-0.0161133-0.1261597-0.0195313-0.1887817-0.0327148  c-0.0198975-0.1611328-0.2918091-0.1777344-0.4074707-0.1630859c-0.2792358,0.0341797-0.5584717,0.0688477-0.8376465,0.1035156  c-0.180542,0.0239258-0.5045776,0.1181641-0.5483398,0.3305664c-0.0299072,0.144043,0.1104736,0.1933594,0.244751,0.2080078  c-0.1799927,0.0024414-0.3598633,0.0097656-0.5397949,0.0205078c-0.0262451,0.0009766-0.0525513,0.0014648-0.0788574,0.0019531  c-0.0002441,0.0009766-0.0004883,0.0009766-0.0007324,0.0014648c-0.0404663,0.0024414-0.0809326,0.0019531-0.1212769,0.0043945  c-0.1470337,0.0117188-0.3665161,0.0883789-0.4761353,0.2192383c-0.1211548,0.0415039-0.2297363,0.1098633-0.2912598,0.2197266  c-0.0900269,0.1616211,0.0333862,0.2807617,0.1814575,0.3193359c-0.1503906,0.043457-0.3074951,0.1171875-0.3599854,0.2539063  c-0.0690308,0.1796875,0.1299438,0.2509766,0.2797241,0.253418c0.7226563,0.0136719,1.4454346,0.0273438,2.1682739,0.0410156  c-0.0043335,0.0053711-0.0067139,0.0117188-0.0109863,0.0175781c-0.1469116,0.1831055,0.1275024,0.2851563,0.2632446,0.2890625  c0.487854,0.0131836,0.968689-0.1401367,1.369873-0.4160156c0.0839844-0.0576172,0.2154541-0.1533203,0.1825562-0.2753906  c-0.0185547-0.0693359-0.0814819-0.1025391-0.1509399-0.1225586C88.5378418,80.2694702,88.6505127,80.1796265,88.6244507,80.0595093  z M89.4570313,62.4086304c-0.0004272-0.0004883-0.0016479-0.0009766-0.0020752-0.0019531  c0.0064087-0.0654297-0.0561523-0.090332-0.1097412-0.0976563c-0.0047607-0.0356445-0.0154419-0.0698242-0.0437622-0.0947266  c-0.0255127-0.0229492-0.0552368-0.0424805-0.0863037-0.0556641c-0.0529785-0.0219727-0.0971069-0.0166016-0.1422119-0.0019531  c-0.0124512-0.0200195-0.0257568-0.0400391-0.0384521-0.0600586c0.0027466-0.0224609,0.0114746-0.046875,0.0018311-0.0634766  c-0.0103149-0.0175781-0.0304565-0.0107422-0.0484619-0.0092773c-0.0125122-0.019043-0.024353-0.0385742-0.0370483-0.0576172  c-0.020813-0.0317383-0.0438232-0.081543-0.076416-0.1015625c-0.0298462-0.0180664-0.0751953-0.0185547-0.1065063-0.0146484  c-0.0847168,0.0102539-0.147522,0.0708008-0.1930542,0.1455078c-0.0192871,0.0078125-0.0354004,0.0200195-0.053833,0.0292969  c-0.0075073-0.0141602-0.0004272-0.0371094-0.0155029-0.0463867c-0.0712891-0.0429688-0.1436768,0.0302734-0.1894531,0.0917969  c-0.2235718,0.0146484-0.4177856,0.1420898-0.5643921,0.3237305c-0.0721436,0.0893555,0.0582275,0.1420898,0.1188965,0.1459961  c-0.0166016,0.0126953-0.0361328,0.0224609-0.0511475,0.0366211c-0.0440063,0.0410156-0.0963135,0.0922852-0.0922852,0.1591797  c0.0020752,0.0341797,0.0089722,0.0693359,0.0218506,0.1000977c0.0218506,0.0532227,0.0570068,0.0805664,0.0991211,0.1020508  c-0.0054932,0.0229492-0.0100098,0.0463867-0.0152588,0.0698242c-0.0177002,0.0136719-0.0413818,0.0249023-0.0462036,0.043457  c-0.005127,0.0200195,0.013916,0.0292969,0.02771,0.0410156c-0.0047607,0.0224609-0.0101318,0.0444336-0.0147095,0.0668945  c-0.0074463,0.0371094-0.0267334,0.0888672-0.0176392,0.1259766c0.0083618,0.0336914,0.0400391,0.0664063,0.0648193,0.0854492  c0.0380859,0.0297852,0.083313,0.0439453,0.1303711,0.0483398c0.0013428,0.0009766,0.0006104,0.0039063,0.0020752,0.0048828  c0.0189819,0.0166016,0.0420532,0.0292969,0.0671997,0.0366211c0.0280151,0.0078125,0.0543823-0.0112305,0.0803833-0.0175781  c-0.0001831,0.0078125-0.0053711,0.0141602-0.003418,0.0224609c0.0100708,0.0405273,0.050415,0.0488281,0.0888062,0.0576172  c0.0123901,0.0229492,0.024231,0.0458984,0.0369873,0.0683594c0.0137939,0.0244141,0.0269165,0.0649414,0.0524902,0.0776367  c0.0027466,0.0014648,0.0075073-0.0009766,0.0106812,0c0.0484009,0.0585938,0.1299438,0.0146484,0.1694946-0.0224609  c0.0504761-0.046875,0.1009521-0.0942383,0.1514282-0.1416016c0.00354,0.0039063-0.0018921,0.0131836,0.0029297,0.015625  c0.0651245,0.0322266,0.1513672-0.0708008,0.1960449-0.1303711c0.0288696-0.0214844,0.0476685-0.0488281,0.0574951-0.0786133  c0.0029907-0.0039063,0.0059204-0.0083008,0.0089111-0.012207c0.2357178-0.003418,0.4415283-0.0957031,0.5942993-0.234375  c0.0545044-0.0493164-0.0070801-0.0834961-0.0665894-0.0981445c0.0125732-0.0244141,0.0333862-0.0444336,0.0430298-0.0703125  c0.0275879-0.0229492,0.0507202-0.0488281,0.0480957-0.0810547c-0.0012207-0.0146484-0.0081177-0.0288086-0.0129395-0.043457  c0.0183716-0.0966797,0.0321655-0.1958008,0.0211792-0.2988281C89.5203857,62.4227905,89.4907837,62.4091187,89.4570313,62.4086304z   M90.736084,38.623291c0.0032959-0.0064087,0.0090332-0.0113525,0.012146-0.0178223  c0.3002319-0.6227417-0.2597046-0.8100586-0.7894287-0.8670654c-3.6628418-0.3943481-7.3398438-0.5708618-11.0235596-0.5523682  c-0.5457153,0.0026855-1.2975464,0.163269-1.7070923,0.5897217c-9.5124512,0.0278931-19.0249023,0.0557861-28.5373535,0.0837402  c-0.5874634,0.001709-1.6211548,0.1924438-1.9116211,0.7950439c-0.2857666,0.5927734,0.2437744,0.852478,0.7894287,0.8670654  c0.4349365,0.0115967,0.8694458,0.0348511,1.3043213,0.0477905c-0.0073853,0.0144043-0.0188599,0.0258789-0.0255127,0.0407715  c-0.2650757,0.5952148,0.2293091,1.008606,0.8273926,1.008606c0.7648315,0,1.5296021,0,2.2944336,0  c0.1488037,0.1928101,0.4541016,0.2896729,0.7723999,0.2935791c4.1289063,0.0508423,8.2581177,0.0585327,12.3872681,0.0452271  c-0.0505981,0.0581665-0.0955811,0.119751-0.1282959,0.1876221c-0.28479,0.5907593,0.2427368,0.8554688,0.7894287,0.8670654  c3.4889526,0.0671387,6.9779053,0.1342163,10.4668579,0.2012939c0.3393555,0.0065308,0.8307495-0.0656738,1.2411499-0.2411499  c1.3564453-0.0379028,2.7127075-0.0864868,4.0686646-0.1477661c0.3015747-0.0136719,0.7127686-0.0600586,1.0840454-0.1826172  c1.6789551,0.2653809,3.3818359,0.2828979,5.0673828,0.0454712c0.4042358-0.0569458,2.1478271-0.8406372,1.5738525-1.3719482  c0.4646606-0.1159058,0.9141846-0.2750854,1.3062744-0.5470581C91.2393188,39.3239136,91.2366943,38.8501587,90.736084,38.623291z   M68.9136963,16.3155518c0.0216675,0.0302734,0.043335,0.0605469,0.0650635,0.0908203  c0.0576172,0.0466309,0.1255493,0.0766602,0.2040405,0.090332c0.0910034,0.0290527,0.1862793,0.0424805,0.2858276,0.0400391  c0.0108643,0.0004883,0.0217285,0.0007324,0.0325928,0.0009766c0.0115356,0.0063477,0.0230713,0.0129395,0.0346069,0.0195313  c0.1174316,0.0412598,0.2404785,0.0620117,0.3691406,0.0622559c0.1589966,0.0063477,0.3596191-0.0166016,0.5123291-0.0498047  c0.1470947-0.0319824,0.2492065-0.0651855,0.3765869-0.1174316c0.1259766-0.0515137,0.184082-0.0778809,0.303833-0.1582031  c0.06073-0.0407715,0.1098022-0.0927734,0.1613159-0.1398926c0.0504761-0.0480957,0.0710449-0.1013184,0.0616455-0.159668  c0.00177-0.0090332-0.0027466-0.0166016-0.0027466-0.0253906c0.0131226-0.0380859,0.0170288-0.078125,0.0068359-0.1203613  c-0.0018921-0.012207-0.0047607-0.0229492-0.0101929-0.034668c-0.0042114-0.0087891-0.0151367-0.0183105-0.0209961-0.0280762  c0.0007935-0.0029297,0.0015869-0.0058594,0.0023804-0.0087891c0.0012207-0.0043945,0.0023193-0.0090332,0.00354-0.0134277  c-0.0001831-0.0349121-0.0003052-0.0698242-0.0004272-0.1047363c-0.0217285-0.0302734-0.043396-0.0605469-0.0651245-0.0908203  c-0.001709-0.0019531-0.003418-0.0041504-0.0050659-0.0061035c-0.0197754-0.0185547-0.0440063-0.027832-0.0709839-0.0429688  c-0.0385742-0.0219727-0.0427856-0.026123-0.0685425-0.0375977c-0.038269-0.010498-0.0767822-0.0205078-0.1152344-0.0305176  c-0.0576172-0.0270996-0.1187744-0.0480957-0.1875-0.057373c-0.0675659-0.0061035-0.1350708-0.012207-0.2025757-0.0183105  c-0.081604-0.0012207-0.1603394,0.0161133-0.2404785,0.0241699c-0.0258789,0.0014648-0.052063,0.0014648-0.0771484,0.0029297  c-0.0353394,0.0019531-0.069458,0.010498-0.1044922,0.0153809c-0.0170288,0.003418-0.0348511,0.001709-0.0518799,0.0053711  c-0.050293,0.0080566-0.100647,0.0163574-0.151001,0.0246582c-0.1195068,0.0227051-0.2322998,0.0581055-0.3383789,0.1064453  c-0.0977173,0.0344238-0.1864014,0.0805664-0.2659912,0.1384277c-0.0090332,0.0056152-0.0107422,0.0148926-0.019104,0.0205078  c-0.048584,0.0241699-0.1026611,0.0415039-0.1452637,0.0725098c-0.0797729,0.0439453-0.1444092,0.0998535-0.1938477,0.1677246  c-0.0192261,0.0397949-0.0385132,0.079834-0.0577393,0.119873c-0.0075684,0.034668-0.0031128,0.0666504,0.0041504,0.0981445  c-0.0074463,0.0141602-0.0244751,0.0236816-0.0296021,0.0393066C68.9133911,16.2457275,68.9135132,16.2803955,68.9136963,16.3155518  z M26.9112549,56.3769531c-0.0485229-0.0001831-0.0969849-0.0010376-0.1455078-0.0012207  c-0.1733398-0.1860962-0.4717407-0.2940674-0.7564697-0.2940674c-4.4967651,0-8.9935913,0-13.4903564,0  c-0.3310547,0-0.7287598,0.0534058-1.0864868,0.1862183c-0.1680908,0.0012207-0.3361816-0.0043335-0.5042725-0.0015869  c-0.1751099,0.0028687-0.3796387,0.0315552-0.5892944,0.0726929c-0.0422363,0.0028687-0.085083,0.0025024-0.1272583,0.0056152  C9.632019,56.387085,8.803833,56.5418091,8.378479,56.9794312c-0.2617798,0.2692871-0.241333,0.5246582,0.0759277,0.6121826  c0.079895,0.0454102,0.1862183,0.0771484,0.3405762,0.0792236c0.1053467,0.0014038,0.2106323,0.0007935,0.315979,0.0020752  c-0.0003052,0.0002441-0.0006104,0.0004883-0.0009155,0.0007324c0.0371704,0,0.0743408-0.000061,0.1115112-0.000061  c0.5302124,0.0064697,1.0605469,0.0063477,1.5907593,0.0103149c0.1728516,0.1123047,0.3979492,0.1767578,0.6157227,0.1767578  c4.4967651,0,8.9935913,0,13.4903564,0c0.3549194,0,0.7816772-0.0681152,1.15802-0.2233276  c0.5603638-0.0738525,1.2541504-0.2954712,1.5454102-0.6876831C28.0097046,56.4273682,27.2799072,56.3782349,26.9112549,56.3769531z   M23.395874,79.626709c-0.0006104-0.0004883-0.0023193-0.0009766-0.0029297-0.0018921  c0.0090942-0.0645142-0.0793457-0.0891113-0.1550903-0.0963135c-0.0067749-0.0351563-0.0218506-0.0688477-0.0618896-0.0933838  c-0.0360718-0.022644-0.078064-0.0418701-0.1220093-0.0548706c-0.0748901-0.0216675-0.1372681-0.0163574-0.2010498-0.0019531  c-0.0175781-0.0197144-0.036377-0.0394287-0.0543213-0.0592041c0.0038452-0.0221558,0.0162354-0.0462036,0.0025635-0.062561  c-0.0145874-0.017334-0.0430298-0.0106201-0.0684814-0.0091553c-0.0177002-0.0187988-0.0344238-0.0380249-0.0523682-0.0568237  c-0.0294189-0.03125-0.0619507-0.0803833-0.1080322-0.1000977c-0.0421753-0.0178223-0.1063232-0.0183105-0.1505737-0.0144653  c-0.119751,0.0101318-0.2085571,0.0698242-0.2728882,0.1434326c-0.0272827,0.0077515-0.0500488,0.0197754-0.0761108,0.0289307  c-0.0106201-0.0139771-0.0006104-0.0366211-0.0219116-0.0457764c-0.100769-0.0423584-0.203125,0.0298462-0.2678223,0.0905151  c-0.31604,0.0144653-0.5905762,0.1400757-0.7977905,0.3192139c-0.1019897,0.0880737,0.0822754,0.1400757,0.1680298,0.1439209  c-0.0234375,0.0125122-0.0510864,0.0221558-0.0722656,0.0360718c-0.0622559,0.0404663-0.1361694,0.0910034-0.1304932,0.1569824  c0.0029297,0.0336914,0.0126953,0.0683594,0.0308838,0.0986938c0.0308838,0.0524292,0.0806274,0.0794067,0.1401367,0.1005859  c-0.0077515,0.022644-0.0141602,0.0457153-0.0215454,0.0688477c-0.0250244,0.0134888-0.0585327,0.0245361-0.0653076,0.0428467  c-0.0072632,0.0197144,0.0196533,0.0288696,0.0391235,0.0404663c-0.0067139,0.0220947-0.0142822,0.0437622-0.020752,0.065918  c-0.0105591,0.0366211-0.0378418,0.0876465-0.0249634,0.1242065c0.0118408,0.0332031,0.0565796,0.0654907,0.0916138,0.0842285  c0.053833,0.0294189,0.1177979,0.043335,0.1843262,0.0476685c0.0018921,0.0009766,0.0008545,0.0038452,0.0029297,0.0048218  c0.0268555,0.0163574,0.0594482,0.0288696,0.0949707,0.0361328c0.0396118,0.0076904,0.0769043-0.0111084,0.1136475-0.017334  c-0.0002441,0.0076904-0.0075684,0.013916-0.0048218,0.0221558c0.0142212,0.039917,0.071228,0.0480957,0.1255493,0.0567627  c0.0175171,0.022644,0.0342407,0.0452881,0.0522461,0.0674438c0.0195313,0.0240479,0.0380859,0.0640259,0.0742188,0.0765381  c0.0039063,0.0014038,0.0106201-0.0009766,0.0150757,0c0.0684204,0.0577393,0.1837158,0.0144043,0.239624-0.0221558  c0.0713501-0.0462036,0.1427002-0.0928955,0.2140503-0.1396484c0.0050049,0.0039063-0.0026855,0.0130005,0.0041504,0.0154419  c0.092041,0.0317383,0.2139893-0.0698242,0.2771606-0.12854c0.0407715-0.0211792,0.0673828-0.0481567,0.0812378-0.0775146  c0.0042114-0.0038452,0.0083618-0.0081787,0.0126343-0.0120239c0.3331909-0.0033569,0.6241455-0.0943604,0.8400879-0.2310791  c0.0770264-0.048645-0.0100098-0.0823364-0.0941162-0.0967407c0.0177612-0.0241089,0.0471802-0.0438232,0.060791-0.0693359  c0.0390015-0.022644,0.0717163-0.0481567,0.0679932-0.0799561c-0.001709-0.0144043-0.0114746-0.0283813-0.0183105-0.0428467  c0.026001-0.0952759,0.0454712-0.1929932,0.0299683-0.2946167C23.4854736,79.640686,23.4436035,79.6271973,23.395874,79.626709z   M72.9706421,11.1268921c0.1383667,0.0476685,0.2906494,0.0748901,0.4360352,0.0768433  c0.6896973,0.0092163,1.3794556,0.0084229,2.0691528,0.0130615c0.0682983,0.0124512,0.1380005,0.019043,0.2073975,0.019043  c4.4967651,0,8.9935303,0,13.4903564,0c0.1574097,0,0.329895-0.0126343,0.5045776-0.038147  c0.1026611-0.000061,0.2053833-0.000061,0.3080444-0.0001221c0.6221924-0.0001831,1.5718384-0.2007446,1.9116211-0.7950439  c0.329895-0.5769653-0.2814331-0.8652954-0.7894287-0.8670654c-0.1080933-0.0003662-0.2161865-0.0023804-0.3242798-0.0027466  c-0.1586304-0.0863037-0.3474121-0.1376343-0.5361938-0.1376343c-4.4968262,0-8.9935913,0-13.4904175,0  c-0.133667,0-0.281189,0.0144043-0.4285278,0.0324097c-0.4012451-0.0027466-0.8023682-0.0092163-1.2037354-0.0026855  c-0.1952515,0.0031738-0.4213867,0.0325317-0.6508789,0.0771484c-0.0091553,0.0004883-0.0183716,0.0007324-0.0275269,0.0012817  c-0.0126953-0.0001831-0.0253906,0.000061-0.0380859-0.0001221c-0.0003052,0.0006104-0.0005493,0.0012817-0.0008545,0.0018921  c-0.12146,0.0073853-0.2439575,0.0078125-0.3651733,0.0167236c-0.5124512,0.0375366-1.4020386,0.3432007-1.5951538,0.8838501  C72.2981567,10.8240967,72.6081543,11.0453491,72.9706421,11.1268921z M50.9110718,76.5941772  c-5.15979-0.0200195-10.3196411-0.0401001-15.4794922-0.0601196c-0.0106201-0.2379761-0.2389526-0.4180908-0.8287964-0.4207764  c-2.1121216-0.0095215-4.2181396,0.1196899-6.3100586,0.4130249c-0.5028687,0.0705566-1.4154053,0.3198853-1.5951538,0.8839111  c-0.0393066,0.12323-0.038269,0.2278442-0.0130615,0.3189087c-0.2803955,0.2267456-0.4033203,0.4831543-0.0929565,0.722168  c0.2963257,0.2281494,0.6447754,0.3685913,1.0159302,0.4625244c-0.2329712,0.3480225-0.2071533,0.7611694,0.4053955,0.8659058  c0.9918213,0.1696167,1.9506836,0.1622925,2.9213867,0.0141602c0.1555176,0.0647583,0.3433228,0.0963745,0.5222778,0.1069336  c0.7269287,0.0429077,1.4544067,0.0546875,2.1816406,0.0814209c0.1640015,0.1340942,0.4165039,0.2030029,0.6815186,0.1962891  c1.8812866-0.0479126,3.7625732-0.0958252,5.6438599-0.1436768c0.5733032-0.015625,1.5498657-0.1773682,1.8774414-0.744812  c1.7195435-0.0009766,3.4390869-0.0131226,5.1585083-0.0406494c0.3022461-0.0048218,0.7193604-0.0554199,1.0942993-0.184082  c0.1987305,0,0.3974609,0,0.5961914,0c0.6489868,0,1.5718384-0.1882935,1.9017334-0.8321533  c0.015686-0.0306396,0.0197754-0.0587158,0.0309448-0.0884399c0.4542236-0.1088867,0.8988647-0.3121948,1.0778809-0.6834717  C51.9821777,76.8770752,51.4608154,76.5963135,50.9110718,76.5941772z M95.9997559,6v88c0,1.1025391-0.8974609,2-2,2H6.0002441  c-1.1030273,0-2-0.8974609-2-2V6c0-1.1030273,0.8969727-2,2-2h87.9995117C95.1022949,4,95.9997559,4.8969727,95.9997559,6z   M94.001709,94l-0.000061-3.4863281c-0.3889771,0.1744995-0.8417358,0.2501831-1.2141724,0.2501831  c-0.1987305,0-0.3974609,0-0.5961914,0c-0.375,0.1287231-0.7920532,0.1793213-1.0942993,0.1841431  c-1.7194214,0.0275269-3.4389648,0.0396118-5.1585083,0.0405884c-0.3275757,0.5674438-1.3041382,0.729187-1.8774414,0.744812  c-1.8812866,0.0479126-3.7625732,0.0957642-5.6438599,0.1436768c-0.2650757,0.0067749-0.5176392-0.0620728-0.6816406-0.1962891  c-0.7271729-0.0267334-1.4546509-0.0385132-2.1815186-0.0814209c-0.1789551-0.0105591-0.3668213-0.0421753-0.5222778-0.1069336  c-0.9707031,0.1481323-1.9295654,0.1554565-2.9213867-0.0140991c-0.6125488-0.1047363-0.6384277-0.5178223-0.4053955-0.8659668  c-0.3711548-0.0939331-0.7196045-0.234314-1.0159302-0.4625244c-0.3103638-0.2390137-0.1875-0.4953613,0.0929565-0.7221069  c-0.0252075-0.0910645-0.0262451-0.1956787,0.0130615-0.3189697c0.1797485-0.5640259,1.0922852-0.8133545,1.5951538-0.8838501  c2.0919189-0.293396,4.197937-0.4225464,6.3100586-0.4130249c0.5898438,0.0026245,0.8181152,0.1827393,0.8287964,0.4207153  c4.8242188,0.0187378,9.6483765,0.0374756,14.4725342,0.0562744l-0.0004272-20.1333008  c-0.1070557,0.0361328-0.2177124,0.0670166-0.3396606,0.0687866c-0.0037231,0.0048828-0.0073853,0.0103149-0.0111084,0.0151978  c-0.0122681,0.0371094-0.0356445,0.071167-0.0715942,0.0979614c-0.0556641,0.0741577-0.1630859,0.2025146-0.2442017,0.1623535  c-0.0060425-0.0030518,0.0007324-0.0145874-0.0036621-0.0194702c-0.0628662,0.059021-0.1257324,0.118042-0.1886597,0.1763916  c-0.0492554,0.0462646-0.1508179,0.1009521-0.2111206,0.0280151c-0.0039063-0.0012207-0.0098877,0.00177-0.0133057,0  c-0.0318604-0.0158691-0.0481567-0.0663452-0.0653687-0.0967407c-0.0158691-0.0279541-0.0306396-0.0565796-0.0460815-0.085144  c-0.0477905-0.0109253-0.0980835-0.0213013-0.1105957-0.0717773c-0.0024414-0.0103149,0.0040283-0.0182495,0.0042725-0.0279541  c-0.0324097,0.0078735-0.0652466,0.0316162-0.1001587,0.0219116c-0.031311-0.0091553-0.0600586-0.0249634-0.0836792-0.0456543  c-0.0018311-0.0012207-0.0009155-0.0048828-0.0026245-0.0061035c-0.0585938-0.0054321-0.1149292-0.0230713-0.1623535-0.0601807  c-0.0308838-0.0237427-0.0703735-0.0644531-0.0807495-0.1064453c-0.0113525-0.0462036,0.0126953-0.1107178,0.0219727-0.1569214  c0.0056763-0.0279541,0.0123901-0.0553589,0.0183105-0.083313c-0.0172119-0.0145874-0.0408936-0.0261841-0.0345459-0.0510864  c0.0060425-0.0231323,0.0355225-0.0371094,0.0575562-0.0541382c0.0065308-0.0291748,0.012207-0.0584106,0.019043-0.0869751  c-0.0524902-0.0267944-0.0962524-0.0608521-0.1234741-0.1271362c-0.0160522-0.0383301-0.0246582-0.0820923-0.0272217-0.1246948  c-0.0050049-0.083313,0.0601196-0.1471558,0.1149292-0.1982422c0.0187378-0.0176392,0.0430298-0.0298462,0.0637207-0.0456543  c-0.0755615-0.0048218-0.2379761-0.0705566-0.1480713-0.1818237c0.1826172-0.2262573,0.4244995-0.3850098,0.7030029-0.4032593  c0.0570068-0.0766602,0.1472168-0.1678467,0.2359619-0.1143799c0.0187988,0.0115967,0.0100098,0.0401611,0.0193481,0.0578003  c0.0229492-0.0115356,0.0430298-0.0267334,0.0670776-0.036499c0.0567017-0.0930176,0.1349487-0.168457,0.2404175-0.1812134  c0.0390015-0.0048828,0.09552-0.0042725,0.1326904,0.0182495c0.0405884,0.0249023,0.0692749,0.0869751,0.0952148,0.1264648  c0.0158081,0.0237427,0.0305176,0.0480957,0.0461426,0.0717773c0.0223999-0.0018311,0.0474854-0.0103149,0.0603638,0.0115967  c0.0120239,0.0206299,0.0010986,0.0510864-0.0023193,0.0790405c0.0158691,0.0249634,0.0324097,0.0498657,0.0479126,0.0748291  c0.0388794-0.0126343,0.0808105-0.0042114,0.1225586,0.001709L93.9997559,6H6.0002441v55.5508423  c0.7861328-0.2298584,1.6463623-0.331543,2.456604-0.187561c0.0622559-0.0087891,0.1263428-0.0214844,0.1862793-0.027832  c0.2601929-0.0283203,0.5216675-0.0463867,0.7825928-0.0693359c0.4359131-0.2026367,1.0292969-0.2949219,1.4517822-0.2753906  c1.2276611,0.0566406,2.4553833,0.1137695,3.6830444,0.1708984c0.4956665,0.0244141,1.1311646,0.206543,0.7894287,0.6655273  c-0.062439,0.0839844-0.1538086,0.15625-0.2564087,0.2226563c1.3528442-0.0068359,2.7058716,0.0063477,4.0584106,0.0458984  c0.31073,0.0092773,0.6681519,0.0893555,0.8153076,0.2568359c0.0827637,0,0.1655273,0,0.248291,0  c0.5464478,0,1.15448,0.3242188,0.8273926,0.7744141c-0.0412598,0.0566406-0.1096802,0.09375-0.1637573,0.1416016  c0.0310669,0.0024414,0.0619507,0.0063477,0.0930176,0.0083008c0.491272,0.0322266,1.1350708,0.2016602,0.7894287,0.6660156  c-0.3416138,0.4584961-1.2879028,0.605957-1.9116211,0.6103516c-2.9517822,0.0205078-5.9035034,0.0415039-8.8552856,0.0625  c-0.022644,0.0195313-0.0361938,0.0410156-0.0620117,0.0600586C10.49646,64.9980469,9.7887573,65.1196289,9.2077026,65.125  c-1.0949707,0.0097656-2.1594238-0.0962524-3.2074585-0.2904053V94H94.001709z M81.3613892,73.0629272  c0.2828369-0.586731-0.2409058-0.8612061-0.7894287-0.8670654c-0.3494263-0.0037231-0.6988525-0.0112305-1.0482788-0.0153198  c-0.1307373-0.2697144-0.46521-0.4338989-0.8416138-0.4338989c-0.7946777,0-1.5892944,0-2.3839722,0  c-0.1134033-0.0298462-0.2362671-0.046814-0.3618164-0.0474243c-3.6229248-0.0045166-7.2458496-0.0089722-10.8687744-0.0134888  c-0.1150513-0.2515259-0.4611816-0.3762817-0.8240967-0.3793335c-3.1265259-0.0239868-6.2529907-0.0479126-9.3795166-0.0718994  c-0.2217407-0.001709-0.5080566,0.0264282-0.7940674,0.0939941c-1.3214111,0.013916-2.6428833,0.0211792-3.9641724,0.0449219  c-0.2124634,0.0038452-0.4821777,0.0303955-0.7536621,0.0896606c-0.0494385-0.006897-0.098999-0.0137329-0.1489258-0.0172729  c-1.5509644-0.1110229-3.0961304-0.0964966-4.6478271-0.0114746c-0.2419434,0.0132446-0.6494751,0.192688-0.9997559,0.4279785  c-0.3364868,0.052124-0.6682739,0.1156616-0.9907227,0.2009888c-0.7860107,0.2078857-1.6334229,1.1309814-0.9233398,1.4545898  c0.1138916,0.2509766,0.4661865,0.3678589,0.8273926,0.3833618c3.2911377,0.1408691,6.5842285,0.2035522,9.8783569,0.1972656  c0.3197632-0.0006104,0.7695923-0.0610962,1.1621094-0.2102051c8.6467896-0.0101318,17.2936401-0.0202026,25.9404297-0.0303345  C80.0369263,73.8572998,81.071228,73.664917,81.3613892,73.0629272z M25.361084,47.3061523  c0.1878662,0.0824585,0.3847046,0.1240234,0.5905151,0.1246338c0.012146,0.0002441,0.024353,0.0004883,0.036499,0.0007324  c0.137085,0.041687,0.2769775,0.0702515,0.4230347,0.0706787c0.1370239,0.0039063,0.2750854-0.0030518,0.4109497-0.0210571  c0.3190308-0.0423584,0.5054932-0.1017456,0.8051147-0.2148438c0.0083008-0.0031128,0.0166016-0.0059814,0.0247192-0.0095825  c0.0049438-0.0021362,0.0098877-0.0044556,0.0147095-0.007019c0.1087036-0.055603,0.2174683-0.1112671,0.3262329-0.1668701  c0.1115723-0.0623779,0.2089233-0.1488037,0.310791-0.2247314c0.1377563-0.1135864,0.2329712-0.2550659,0.2856445-0.4243774  c0.0195923-0.0653687,0.0172729-0.1248779,0.0028076-0.1811523c0.0001831-0.0363159,0.0084229-0.0708618,0.0010986-0.1088257  c-0.0045166-0.0231934-0.0171509-0.0438843-0.0267944-0.0656128c-0.0018311-0.1021729-0.0280762-0.1978149-0.1044312-0.2800293  c-0.1394653-0.1338501-0.1907959-0.1436768-0.3480835-0.1957397c-0.0455322-0.0203247-0.0924072-0.0355225-0.140686-0.0456543  c-0.0137329-0.0015259-0.0275269-0.0031128-0.0412598-0.0046387c-0.0327148-0.0108032-0.0654297-0.0216675-0.0981445-0.0324707  c-0.0616455-0.0117188-0.1240845,0.0014648-0.1859131-0.0048218c-0.060791-0.0055542-0.1218872-0.0100098-0.1771851-0.0145874  c-0.0209351-0.001709-0.0418701-0.0018311-0.0628662-0.0013428c-0.0410767,0.0009766-0.083252,0.0048218-0.1252441,0.0064697  c-0.0464478,0.0032959-0.0923462-0.0099487-0.138855-0.0036011c-0.0529785,0.0071411-0.1060181,0.0142822-0.1590576,0.0213623  c-0.1196899,0.0125122-0.2318726,0.0532837-0.3465576,0.0844727c-0.0402832,0.006958-0.0819702-0.0001221-0.1219482,0.0096436  c-0.1992798,0.0266724-0.390564,0.083252-0.5737915,0.1697998c-0.1688232,0.0673218-0.3196411,0.161377-0.4524536,0.2822266  c-0.1276245,0.0879517-0.2310181,0.199707-0.3101196,0.3353882c-0.0307617,0.079834-0.0615845,0.159668-0.0923462,0.239563  c-0.0072632,0.041748,0.0026245,0.0789185,0.0039673,0.1184082c-0.0117798,0.0396729-0.036438,0.0765991-0.0279541,0.1206665  c-0.0169067,0.109314,0.0179443,0.2047729,0.1044922,0.286377C25.2323608,47.2150879,25.2967529,47.2606201,25.361084,47.3061523z   M36.7199097,25.6622925c-0.0004272-0.0004883-0.0016479-0.0009766-0.0020752-0.0019531  c0.0064087-0.0654297-0.0561523-0.090332-0.1097412-0.0976563c-0.0047607-0.0356445-0.0154419-0.0698242-0.0437622-0.0947266  c-0.0255127-0.0229492-0.0552368-0.0424805-0.0863037-0.0556641c-0.0529785-0.0219727-0.0971069-0.0166016-0.1422119-0.0019531  c-0.0124512-0.0200195-0.0257568-0.0400391-0.0384521-0.0600586c0.0027466-0.0224609,0.0114746-0.046875,0.0018311-0.0634766  c-0.0103149-0.0175781-0.0304565-0.0107422-0.0484619-0.0092773c-0.0125122-0.019043-0.024353-0.0385742-0.0370483-0.0576172  c-0.020813-0.0317383-0.0438232-0.081543-0.076416-0.1015625c-0.0298462-0.0180664-0.0751953-0.0185547-0.1065063-0.0146484  c-0.0847168,0.0102539-0.147522,0.0708008-0.1930542,0.1455078c-0.0192871,0.0078125-0.0354004,0.0200195-0.053833,0.0292969  c-0.0075073-0.0141602-0.0004272-0.0371094-0.0155029-0.0463867c-0.0712891-0.0429688-0.1436768,0.0302734-0.1894531,0.0917969  c-0.2235718,0.0146484-0.4177856,0.1420898-0.5643921,0.3237305c-0.0721436,0.0893555,0.0582275,0.1420898,0.1188965,0.1459961  c-0.0166016,0.0126953-0.0361328,0.0224609-0.0511475,0.0366211c-0.0440063,0.0410156-0.0963135,0.0922852-0.0922852,0.1591797  c0.0020752,0.0341797,0.0089722,0.0693359,0.0218506,0.1000977c0.0218506,0.0532227,0.0570068,0.0805664,0.0991211,0.1020508  c-0.0054932,0.0229492-0.0100098,0.0463867-0.0152588,0.0698242c-0.0177002,0.0136719-0.0413818,0.0249023-0.0462036,0.043457  c-0.005127,0.0200195,0.013916,0.0292969,0.02771,0.0410156c-0.0047607,0.0224609-0.0101318,0.0444336-0.0147095,0.0668945  c-0.0074463,0.0371094-0.0267334,0.0888672-0.0176392,0.1259766c0.0083618,0.0336914,0.0400391,0.0664063,0.0648193,0.0854492  c0.0380859,0.0297852,0.083313,0.0439453,0.1303711,0.0483398c0.0013428,0.0009766,0.0006104,0.0039063,0.0020752,0.0048828  c0.0189819,0.0166016,0.0420532,0.0292969,0.0671997,0.0366211c0.0280151,0.0078125,0.0543823-0.0112305,0.0803833-0.0175781  c-0.0001831,0.0078125-0.0053711,0.0141602-0.003418,0.0224609c0.0100708,0.0405273,0.050415,0.0488281,0.0888062,0.0576172  c0.0123901,0.0229492,0.024231,0.0458984,0.0369873,0.0683594c0.0137939,0.0244141,0.0269165,0.0649414,0.0524902,0.0776367  c0.0027466,0.0014648,0.0075073-0.0009766,0.0106812,0c0.0484009,0.0585938,0.1299438,0.0146484,0.1694946-0.0224609  c0.0504761-0.046875,0.1009521-0.0942383,0.1514282-0.1416016c0.00354,0.0039063-0.0018921,0.0131836,0.0029297,0.015625  c0.0651245,0.0322266,0.1513672-0.0708008,0.1960449-0.1303711c0.0288696-0.0214844,0.0476685-0.0488281,0.0574951-0.0786133  c0.0029907-0.0039063,0.0059204-0.0083008,0.0089111-0.012207c0.2357178-0.003418,0.4415283-0.0957031,0.5942993-0.234375  c0.0545044-0.0493164-0.0070801-0.0834961-0.0665894-0.0981445c0.0125732-0.0244141,0.0333862-0.0444336,0.0430298-0.0703125  c0.0275879-0.0229492,0.0507202-0.0488281,0.0480957-0.0810547c-0.0012207-0.0146484-0.0081177-0.0288086-0.0129395-0.043457  c0.0183716-0.0966797,0.0321655-0.1958008,0.0211792-0.2988281C36.7832642,25.6764526,36.7536621,25.6627808,36.7199097,25.6622925z   M44.9678955,27.1376343c-0.0397339,0.0195313-0.0784912,0.0415039-0.1171265,0.0639648c0.0749512,0,0.1499023,0,0.2248535,0  c0.1122437,0,0.2371216,0.1044922,0.1699219,0.2490234c-0.0247192,0.0532227-0.0724487,0.0791016-0.1158447,0.109375  c0.0003052,0.0161133,0.0039063,0.0307617-0.0021362,0.0498047c-0.0441284,0.1381836-0.21875,0.2011719-0.3275757,0.2182617  c-0.0246582,0.0039063-0.0493774-0.0014648-0.0740967,0.0019531c-0.0003662,0.0004883-0.0007324,0.0014648-0.0010986,0.0024414  c-0.1918945,0.0078125-0.3837891,0.015625-0.5756836,0.0229492c-0.0335693,0.0415039-0.0666504,0.0830078-0.098999,0.1254883  c0.03125,0.0112305,0.0603027,0.0307617,0.0935669,0.0366211c-0.0222168-0.0039063,0.0298462,0.0029297,0.0353394,0.003418  c0.0049438,0,0.0587158,0.0014648,0.0352173,0.0019531c-0.0247192,0.0004883,0.0506592-0.0063477,0.0498047-0.0063477  c0.0230713-0.003418,0.0386963-0.0092773,0.0067139-0.0004883c0.0839233-0.0209961,0.3039551-0.0673828,0.3380127,0.0854492  c0.0325928,0.1464844-0.168335,0.2543945-0.2570801,0.277832c-0.1414185,0.034668-0.2827759,0.0693359-0.4241943,0.1040039  c-0.0839233,0.0209961-0.3039551,0.0673828-0.3380737-0.0854492c-0.0055542-0.0249023,0.0031738-0.0473633,0.0096436-0.0698242  c-0.0194092-0.0078125-0.0392456-0.0102539-0.0584717-0.019043c-0.1120605,0.0302734-0.2270508,0.027832-0.3154907-0.0493164  c-0.0325928-0.0283203-0.0743408-0.0756836-0.0853271-0.125c-0.0120239-0.0541992,0.0133667-0.1293945,0.0231934-0.1835938  c0.0197754-0.1079102,0.0410767-0.215332,0.0638428-0.3227539c-0.055542-0.03125-0.1016846-0.0712891-0.1305542-0.1489258  c-0.0169067-0.0454102-0.026062-0.0961914-0.0287476-0.1459961c-0.0053711-0.0981445,0.0635376-0.1723633,0.121521-0.2324219  c0.0198364-0.0205078,0.0454712-0.034668,0.0673828-0.0532227c-0.079895-0.0058594-0.2516479-0.0825195-0.1566162-0.2128906  c0.2142944-0.2944336,0.5029907-0.503418,0.8393555-0.4829102c0.1118164,0.0068359,0.2218628,0.0668945,0.1621704,0.2143555  c-0.0117188,0.0288086-0.0181885,0.0639648-0.0293579,0.09375c0.3643799,0.0136719,0.7286377,0.0273438,1.0929565,0.0410156  c0.0738525,0.0029297,0.2032471,0.0400391,0.1824951,0.1611328c-0.0216675,0.1259766-0.1702881,0.1958008-0.2572021,0.2255859  c-0.0279541,0.0097656-0.0571289,0.0185547-0.0843506,0.03125C44.9904785,27.1268921,44.9735718,27.1351929,44.9678955,27.1376343z   M44.3495483,27.0897827c-0.0974731-0.0039063-0.1949463-0.0073242-0.2924194-0.0112305  c-0.0032959,0.0136719-0.0002441,0.0249023-0.0065918,0.0395508c-0.0119629,0.027832-0.0238647,0.0556641-0.0358276,0.0834961  c0.0616455,0,0.1231689,0,0.1848145,0C44.2479858,27.1610718,44.2993164,27.1264038,44.3495483,27.0897827z M22.7409668,15.8861084  c-0.0712891,0.4393921,0.3983154,0.6072998,0.8623657,0.6417847c3.2878418,0.2442017,6.581543,0.3532715,9.8783569,0.3423462  c0.4428711-0.0014648,1.0326538-0.1001587,1.4580078-0.3653564c8.5481567-0.017334,17.0963745-0.034729,25.6445313-0.052063  c0.5874023-0.0011597,1.6213379-0.192749,1.9116821-0.7950439c0.2843018-0.5897217-0.2423096-0.8569336-0.7894287-0.8670654  c-0.3322754-0.0061646-0.6643677-0.0185547-0.9966431-0.0252686c-0.0029297-0.416748-0.4105835-0.6886597-0.8932495-0.6886597  c-0.7136841,0-1.4273071,0-2.1409302,0c-0.1625977-0.0958252-0.3798828-0.1461182-0.6048584-0.1480103  c-3.6110229-0.0307007-7.222229-0.0361938-10.833313-0.0291138c0.0738525-0.4396362-0.3835449-0.6456299-0.8595581-0.6525879  c-3.1265259-0.0415649-6.2530518-0.0831299-9.3795166-0.1247559c-0.2900391-0.0038452-0.6915894,0.0453491-1.0579834,0.1682129  c-1.2334595,0.0235596-2.467041,0.0343628-3.7002563,0.0728149c-0.2531128,0.0079346-0.5847168,0.0455322-0.9053345,0.1304321  c-0.0004883-0.000061-0.0009766-0.000061-0.0014648-0.0001221c0.0014038-0.0015869,0.0028076-0.0031128,0.0042114-0.0046997  c-0.0332031-0.0026245-0.0666504-0.0021362-0.0998535-0.0045776c-1.5164795-0.1599731-3.024292-0.1738892-4.5479736-0.0289307  c-0.4364014,0.0415039-1.3029175,0.4667969-1.5625,0.8944702c-0.276062,0.065918-0.5466919,0.1508179-0.8061523,0.2698975  C22.619812,14.9417725,22.2659302,15.578125,22.7409668,15.8861084z M32.3163452,49.7980347  c-0.0004883-0.0006104-0.0020142-0.0012207-0.0025024-0.0023804c0.0077515-0.0792847-0.0680542-0.1094971-0.1329956-0.1183472  c-0.0057983-0.0432129-0.0187378-0.0846558-0.0530396-0.1148071c-0.0309448-0.027832-0.0669556-0.0515137-0.1046143-0.0674438  c-0.064209-0.0266724-0.1176758-0.0201416-0.1723633-0.0023804c-0.0150757-0.024292-0.031189-0.0485229-0.0465698-0.0728149  c0.0032959-0.0272217,0.013916-0.0567627,0.0021973-0.0769043c-0.0125122-0.0213013-0.0369263-0.0130005-0.0587158-0.0112305  c-0.0151978-0.0230713-0.029541-0.0467529-0.0449219-0.0698242c-0.0252075-0.0385132-0.0531006-0.0988159-0.0925903-0.1231079  c-0.0361938-0.0219116-0.0911255-0.0224609-0.1290894-0.0177612c-0.1026611,0.0124512-0.178772,0.0858154-0.2339478,0.1763306  c-0.0233765,0.0095215-0.0429077,0.024292-0.0652466,0.0355225c-0.0090942-0.0171509-0.0005493-0.0449829-0.0187988-0.0562134  c-0.0864258-0.052063-0.1741333,0.0366821-0.2296143,0.1112671c-0.2709351,0.0177612-0.5063477,0.1721802-0.684021,0.392334  c-0.0874023,0.1082764,0.0705566,0.1721802,0.144104,0.1769409c-0.0201416,0.0153809-0.0437622,0.0272217-0.0620117,0.0443726  c-0.0532837,0.0496826-0.1166992,0.1118164-0.1118164,0.1929321c0.0025024,0.0413818,0.0108643,0.0840454,0.0264893,0.1212769  c0.0264893,0.0645142,0.0690918,0.0976563,0.1201172,0.1237183c-0.0066528,0.027771-0.012146,0.0562134-0.0184937,0.0845947  c-0.0214233,0.0166016-0.0501709,0.0302124-0.0559692,0.0526733c-0.0062256,0.024292,0.0168457,0.0355225,0.0335693,0.0496826  c-0.0057983,0.0272217-0.0122681,0.053894-0.0178223,0.0811157c-0.0090332,0.0449829-0.0324097,0.107666-0.0213623,0.1526489  c0.0101318,0.0408325,0.0485229,0.0805054,0.0785522,0.1035767c0.0461426,0.0360718,0.1009521,0.0532837,0.157959,0.0585938  c0.0016479,0.0011597,0.0007324,0.0046997,0.0025635,0.0059204c0.0229492,0.0200806,0.0509644,0.0354614,0.0814209,0.0443726  c0.0339355,0.0094604,0.065918-0.0136108,0.0974121-0.0213013c-0.0002441,0.0094604-0.0065308,0.0171509-0.0041504,0.0272217  c0.012207,0.0491333,0.0610962,0.0591431,0.107666,0.0698242c0.0150146,0.027832,0.0293579,0.055603,0.0447998,0.0828247  c0.0167236,0.0296021,0.0325928,0.0787354,0.0635986,0.0941162c0.0033569,0.00177,0.0090942-0.0012207,0.0129395,0  c0.0586548,0.0709839,0.1575317,0.0177612,0.2054443-0.0272217c0.0611572-0.0568237,0.1223145-0.1141968,0.1835327-0.1716309  c0.0042725,0.0047607-0.0023193,0.0159912,0.00354,0.0189209c0.0789185,0.0390625,0.1834106-0.0857544,0.2376099-0.157959  c0.0349731-0.026062,0.0577393-0.0592041,0.0696411-0.0952759c0.0036621-0.0047607,0.0072021-0.0100708,0.0108032-0.0148315  c0.2857056-0.0041504,0.5350952-0.1159668,0.7202759-0.2839966c0.06604-0.0598145-0.008606-0.1011963-0.0806885-0.1189575  c0.0151978-0.0296021,0.0404663-0.053894,0.052124-0.0852051c0.0334473-0.027832,0.0614624-0.0592041,0.0582886-0.0982666  c-0.0014648-0.0177612-0.0098267-0.0349121-0.015686-0.0526733c0.0222778-0.1171265,0.0390015-0.2373047,0.0256958-0.3621216  C32.3931274,49.8151855,32.3572388,49.798584,32.3163452,49.7980347z M12.038208,30.373291  c2.475769,0.1613159,4.9539185,0.2339478,7.4348145,0.2280273c0.3581543-0.0009155,0.8036499-0.0783081,1.1894531-0.2434692  c6.4030151-0.0114746,12.8060303-0.0230103,19.2090454-0.0344849c0.5872803-0.0010986,1.6213379-0.1928711,1.9116211-0.7950439  c0.2839355-0.5889893-0.2419434-0.8580933-0.7894287-0.8671265c-0.1865234-0.0030518-0.3729248-0.0093384-0.5593872-0.0126343  c-0.1168213-0.3019409-0.4887695-0.4926758-0.8689575-0.4926758c-0.5435791,0-1.0871582,0-1.6307373,0  c-0.1310425-0.043457-0.2785034-0.0675659-0.4299316-0.0686646c-2.6514893-0.0050659-5.3030396-0.0101318-7.9545288-0.0151978  c-0.0838013-0.2915039-0.4559937-0.4338379-0.8459473-0.4387817c-2.3531494-0.02771-4.7062378-0.0554199-7.0593872-0.0830688  c-0.2400513-0.0028076-0.5557861,0.0327148-0.8652954,0.1135864c-0.9053345,0.0154419-1.81073,0.0221558-2.7159424,0.046936  c-0.2002563,0.0054932-0.4509888,0.0307007-0.7057495,0.0822754c-1.1881104-0.1245728-2.3726196-0.1112671-3.5622559-0.0147705  c-0.3419189,0.027771-0.9769287,0.3217773-1.3502808,0.6609497c-0.2105103,0.0522461-0.4190674,0.1108398-0.6229858,0.1834106  c-0.7127075,0.2536011-1.0187988,0.8717651-0.6481934,1.210144C11.1882935,30.1948853,11.6114502,30.34552,12.038208,30.373291z   M25.0004883,52.2166138c0.005249-0.0152588,0.0108032-0.0303345,0.0131226-0.0460815  c0.0108032-0.0318604,0.0258789-0.0629272,0.0360107-0.0947266c0.0170288-0.0744019-0.0004272-0.1395874-0.0524292-0.1955566  c-0.1342773-0.1288452-0.3139648-0.1686401-0.4951782-0.1690674c-0.1389771-0.0983276-0.376709-0.111084-0.5180054-0.0921021  c-0.1378784,0.0184937-0.2756958,0.0369873-0.4135742,0.055481c-0.1882324,0.0270996-0.3856812,0.0848999-0.5482788,0.1866455  c-0.0559082,0.0349731-0.1275024,0.0961914-0.1873169,0.1647949c-0.0772705,0.0218506-0.1442261,0.0504761-0.2136841,0.0844727  c-0.0287476,0.0101929-0.0584106,0.0134888-0.0869141,0.0263672c-0.1307373,0.05896-0.3138428,0.1719971-0.3812866,0.3087769  c-0.0390015,0.0790405-0.0457764,0.1671143-0.0209351,0.2496948c-0.029541,0.0331421-0.0596313,0.0657959-0.0791016,0.1080933  c-0.1229858,0.2669067,0.2130737,0.3755493,0.4194336,0.3798218c0.2628784,0.0053711,0.5258179,0.0107422,0.7886963,0.0161743  c0.0074463,0.012146,0.0038452,0.0285645,0.0145264,0.0389404c0.1016846,0.098938,0.2561035,0.126709,0.3917847,0.1306152  c0.2682495,0.0076904,0.5253296-0.0480957,0.7755127-0.1408081c0.194519-0.0720215,0.357666-0.1814575,0.522522-0.3042603  c0.1065063-0.0793457,0.1809692-0.2252808,0.1201782-0.3495483c0.0285645-0.0526123,0.0472412-0.109436,0.0341797-0.1769409  C25.1038818,52.3154907,25.0528564,52.2648926,25.0004883,52.2166138z"></path></svg>