<svg height='100px' width='100px'  fill="#000000" xmlns="http://www.w3.org/2000/svg" xmlns:xlink="http://www.w3.org/1999/xlink" version="1.1" x="0px" y="0px" viewBox="0 0 561.693 422.363" style="enable-background:new 0 0 561.693 422.363;" xml:space="preserve"><g><path d="M45.636,128.988V46.715H5.552v82.273H45.636z M25.593,55.375c7.813,0,14.146,6.333,14.146,14.145   c0,7.813-6.333,14.146-14.146,14.146c-7.812,0-14.144-6.333-14.144-14.146C11.449,61.708,17.781,55.375,25.593,55.375z    M25.593,92.037c7.813,0,14.146,6.333,14.146,14.146s-6.333,14.145-14.146,14.145c-7.812,0-14.144-6.333-14.144-14.145   S17.781,92.037,25.593,92.037z"></path><circle cx="25.594" cy="69.521" r="6.64"></circle><circle cx="25.594" cy="106.183" r="6.64"></circle><path d="M556.142,46.715h-40.083v82.273h40.083V46.715z M536.1,120.328c-7.812,0-14.145-6.333-14.145-14.145   s6.333-14.146,14.145-14.146c7.813,0,14.146,6.333,14.146,14.146S543.912,120.328,536.1,120.328z M536.1,83.666   c-7.812,0-14.145-6.333-14.145-14.146c0-7.812,6.333-14.145,14.145-14.145c7.813,0,14.146,6.333,14.146,14.145   C550.245,77.333,543.912,83.666,536.1,83.666z"></path><circle cx="536.101" cy="69.521" r="6.64"></circle><circle cx="536.101" cy="106.183" r="6.64"></circle><path d="M347.597,87.139l-17.01,30.87l2.164,1.423l16.951-30.766l25.335,6.657l-7.114,32.076c-0.266,0.046-0.528,0.096-0.8,0.137   c-0.76,0.116-1.503,0.209-2.246,0.303l32.33,27.679c3.061-2.158,10.415-7.627,10.476-7.672c0.002-0.004,0.008-0.016,0.008-0.016   s0.948-0.3,2.502-0.778c-0.003,0.106-0.017,0.21-0.017,0.317c0,0.706,0.066,1.395,0.161,2.074   c-0.102,0.079-0.203,0.158-0.305,0.236c0.012,0.01,0.023,0.02,0.035,0.029c-0.206,0.139-0.415,0.272-0.615,0.427   c-4.087,3.147-8.701,6.445-12.424,9.04l-38.833-33.245c-4.859-4.163-12.17-3.591-16.329,1.267   c-4.16,4.862-3.595,12.172,1.264,16.332l45.57,39.015c2.157,1.847,4.842,2.785,7.536,2.785c2.223,0,4.452-0.64,6.396-1.928   c0.116-0.08,11.318-7.497,20.956-14.916l-0.003,0.007c0.865-0.667,1.6-1.438,2.222-2.272c0.059,0.133,0.113,0.264,0.164,0.393   c3.446-2.731,6.552-5.368,9.143-8.185c3.018-2.733,4.925-6.669,4.925-11.059c0-8.246-6.686-14.931-14.932-14.931   c-2.543,0-4.936,0.64-7.031,1.761c-2.502,0.557-5.003,1.112-7.505,1.669c-0.182-7.366-1.373-16.774-2.244-22.801   c2.4-3.366,4.188-7.254,5.156-11.539c3.91-17.285-6.936-34.469-24.22-38.376c-13.941-3.154-27.808,3.293-34.706,14.971   c-6.241-1.203-11.655-0.002-12.296,2.826C341.797,83.011,343.993,85.383,347.597,87.139z M378.073,96.121l7.762,2.04   c0.861,3.358,2.62,12.601-1.756,19.802c-2.545,4.188-6.836,7.104-12.78,8.705L378.073,96.121z"></path><polygon points="348.614,113.082 349.516,113.859 356.73,105.516 355.828,104.734  "></polygon><rect x="342.495" y="104.672" transform="matrix(0.654 -0.7565 0.7565 0.654 40.7801 299.6957)" width="11.032" height="1.193"></rect><rect x="334.688" y="106.518" transform="matrix(0.654 -0.7565 0.7565 0.654 40.2314 302.1937)" width="31.596" height="1.193"></rect><path d="M505.636,237.296V0H57.026v237.296h222.732H505.636z M67.421,226.903V10.393h427.822v216.511h-56.472   c5.885-25.952,8.724-46.451,3.628-75.367c-0.365,1.416-0.851,2.487-1.224,3.288c-1.271,2.52-2.522,3.962-3.622,5.231l-0.079,0.091   l-0.02,0.023c-3.45,3.8-7.688,7.186-12.102,10.612c-0.004,0.003-0.009,0.006-0.013,0.009c-8.475,6.523-18.185,13.074-20.96,14.926   l-0.143,0.099c-2.378,1.578-5.144,2.41-7.998,2.41c-3.455,0-6.801-1.235-9.422-3.481l-17.719-15.169l-3.758,6.919l-0.728,1.337   c7.82,14.611,11.585,28.504,7.358,49.072H67.421z"></path><path d="M305.425,143.189l-2.033,0.037l-14.019,0.27l-1.786,0.033l20.638,27.687c2.211,2.963,5.647,4.662,9.272,4.66   c0.544,0,1.087-0.038,1.636-0.114l34.335-4.846l-19.615-20.628l-11.157,1.575l-13.894-18.635l-2.724,8.034L305.425,143.189z"></path><path d="M285.966,141.355l0.628-1.738l5.753-15.94l-8.975-8.589l-1.351-0.629c-0.381,0.221-0.754,0.46-1.115,0.729   c-5.13,3.826-6.184,11.082-2.363,16.21L285.966,141.355z"></path><path d="M341.248,145.732c-5.608-4.802-6.625-12.985-2.648-18.986l-31.847-20.951l-4.656-5.254l-18.526-8.625l-8.285-0.77   l-0.021,0.042l-46.873-26.032l-4.726,10.15l46.874,26.034l-1.755,3.764l16.243,7.561l10.68,10.223l-6.391,17.712l14.019-0.27   l5.784-17.065l12.812,10.285l37.938,39.891l2.927,1.672l4.053-7.464L341.248,145.732z"></path><path d="M362.007,274.427c-2.294-4.59-7.024-7.749-12.504-7.749c-5.48,0-10.212,3.159-12.506,7.749H362.007z"></path><path d="M453.548,274.427c-2.295-4.59-7.026-7.749-12.505-7.749c-5.481,0-10.212,3.159-12.506,7.749H453.548z"></path><path d="M120.65,266.678c-5.48,0-10.211,3.159-12.505,7.749h25.01C130.861,269.837,126.131,266.678,120.65,266.678z"></path><path d="M212.192,266.678c-5.481,0-10.211,3.159-12.505,7.749h25.01C222.402,269.837,217.671,266.678,212.192,266.678z"></path><path d="M94.338,308.734h25.15c4.736,0,8.872,2.583,11.1,6.407c2.228-3.825,6.364-6.41,11.102-6.41h20.852v-25.717   c0-0.198-0.013-0.394-0.029-0.588c-0.299-3.401-3.151-6.069-6.629-6.069H85.42c-3.479,0-6.329,2.668-6.628,6.069   c-0.017,0.194-0.029,0.39-0.029,0.588v13.765C85.605,298.141,91.321,302.653,94.338,308.734z"></path><path d="M247.422,276.357h-70.461c-3.478,0-6.33,2.668-6.629,6.069c-0.017,0.194-0.029,0.39-0.029,0.588v20.639   c4.068-4.482,9.938-7.302,16.454-7.302c8.721,0,16.279,5.052,19.916,12.38h25.151c5.625,0,10.406,3.64,12.142,8.683h3.456   c3.678,0,6.659-2.98,6.659-6.658v-27.741c0-0.198-0.013-0.394-0.029-0.588C253.753,279.025,250.901,276.357,247.422,276.357z"></path><path d="M244.673,357.068c0,1.672-0.331,3.266-0.914,4.731h3.663c3.678,0,6.659-2.981,6.659-6.658v-20.528h7.767   c3.678,0,6.658-2.98,6.658-6.658V327.4c0-3.677-2.98-6.658-6.658-6.658H244.63c0.019,0.278,0.043,0.555,0.043,0.838V357.068z"></path><path d="M307.614,310.756c0,3.678,2.982,6.658,6.658,6.658h3.456c1.735-5.042,6.516-8.68,12.14-8.68h25.15   c3.636-7.33,11.195-12.384,19.917-12.384c6.518,0,12.389,2.821,16.457,7.306v-20.642c0-3.677-2.982-6.657-6.659-6.657h-70.461   c-3.677,0-6.658,2.98-6.658,6.657V310.756z"></path><path d="M307.614,334.613v20.528c0,3.677,2.982,6.658,6.658,6.658h3.663c-0.583-1.467-0.914-3.061-0.914-4.732V321.58   c0-0.283,0.024-0.56,0.042-0.838h-17.217c-3.677,0-6.657,2.982-6.657,6.658v0.555c0,3.678,2.98,6.658,6.657,6.658H307.614z"></path><path d="M405.813,276.357c-3.678,0-6.658,2.98-6.658,6.657v25.72h20.85c4.736,0,8.872,2.583,11.1,6.408   c2.228-3.826,6.364-6.411,11.102-6.411h25.151c3.018-6.08,8.734-10.591,15.576-11.951v-13.766c0-3.677-2.98-6.657-6.658-6.657   H405.813z"></path><path d="M90.666,311.111c-2.831-6.15-9.032-10.43-16.246-10.43c-7.214,0-13.415,4.279-16.246,10.43H90.666z"></path><path d="M119.488,365.585c4.703,0,8.518-3.814,8.518-8.518V321.58c0-4.703-3.814-8.517-8.518-8.517H29.353   c-4.704,0-8.518,3.813-8.518,8.517v35.487c0,4.704,3.814,8.518,8.518,8.518H119.488z"></path><path d="M170.512,311.11h32.49c-2.831-6.149-9.032-10.429-16.246-10.429S173.342,304.961,170.512,311.11z"></path><path d="M231.825,313.064H141.69c-4.703,0-8.518,3.813-8.518,8.517v35.487c0,4.704,3.814,8.518,8.518,8.518h90.136   c4.704,0,8.518-3.814,8.518-8.518V321.58C240.343,316.877,236.529,313.064,231.825,313.064z"></path><path d="M135.56,369.844h-9.942H8.518c-4.705,0-8.518,3.811-8.518,8.516v0.71c0,4.703,3.813,8.516,8.518,8.516h9.936v26.261   c0,4.703,3.813,8.518,8.518,8.518h90.136c4.703,0,8.518-3.814,8.518-8.518v-26.261h9.929v26.261c0,4.703,3.814,8.518,8.518,8.518   h90.137c4.704,0,8.518-3.814,8.518-8.518v-26.261h9.935c4.704,0,8.518-3.813,8.518-8.516v-0.71c0-4.705-3.814-8.516-8.518-8.516   H135.56z"></path><path d="M374.936,300.682c-7.214,0-13.415,4.279-16.245,10.43h32.49C388.351,304.961,382.15,300.682,374.936,300.682z"></path><path d="M428.523,357.067V321.58c0-4.703-3.814-8.517-8.518-8.517h-90.136c-4.704,0-8.517,3.813-8.517,8.517v35.487   c0,4.704,3.813,8.518,8.517,8.518h90.136C424.708,365.585,428.523,361.771,428.523,357.067z"></path><path d="M487.273,300.682c-7.215,0-13.414,4.279-16.244,10.429h32.489C500.687,304.961,494.485,300.682,487.273,300.682z"></path><path d="M540.859,321.58c0-4.703-3.814-8.517-8.518-8.517h-90.136c-4.703,0-8.517,3.813-8.517,8.517v35.487   c0,4.704,3.814,8.518,8.517,8.518h90.136c4.704,0,8.518-3.814,8.518-8.518V321.58z"></path><path d="M553.177,369.844H436.076h-9.942h-117.1c-4.705,0-8.518,3.811-8.518,8.516v0.71c0,4.703,3.813,8.516,8.518,8.516h9.936   v26.261c0,4.703,3.813,8.518,8.517,8.518h90.136c4.704,0,8.519-3.814,8.519-8.518v-26.261h9.93v26.261   c0,4.703,3.813,8.518,8.516,8.518h90.137c4.704,0,8.518-3.814,8.518-8.518v-26.261h9.937c4.704,0,8.517-3.813,8.517-8.516v-0.71   C561.693,373.654,557.881,369.844,553.177,369.844z"></path><polygon points="166.057,32.326 158.035,27.701 151.698,38.694 159.641,43.273  "></polygon><polygon points="162.776,45.081 188.993,60.194 195.331,49.202 169.192,34.134  "></polygon><polygon points="271.685,55.823 206.166,52.745 205.804,54.374 272.408,60.166  "></polygon><polygon points="248.157,42.294 246.762,38.156 206.023,44.168 206.158,45.806  "></polygon><polygon points="245.94,112.403 200.024,63.809 198.972,65.104 242.085,114.534  "></polygon><polygon points="192.162,70.319 212.76,105.98 216.87,104.5 193.531,69.408  "></polygon><rect x="73.758" y="189.324" width="282" height="5"></rect><rect x="450.758" y="189.324" width="38" height="5"></rect></g></svg>