<svg height='100px' width='100px'  fill="#000000" xmlns="http://www.w3.org/2000/svg" viewBox="0 0 512 512" x="0px" y="0px"><title>exporter-export-shipping-factory-logistics</title><g><path d="M488,416H336V168a8,8,0,0,0-8-8H40a8,8,0,0,0-8,8V416H24a8,8,0,0,0-8,8v32a8,8,0,0,0,8,8H48v24a8,8,0,0,0,8,8h48a8,8,0,0,0,8-8V464H224v24a8,8,0,0,0,8,8h48a8,8,0,0,0,8-8V464H400v24a8,8,0,0,0,8,8h48a8,8,0,0,0,8-8V464h24a8,8,0,0,0,8-8V424A8,8,0,0,0,488,416ZM192,304h32v40a8,8,0,0,0,8,8h48a8,8,0,0,0,8-8V304h32V416H192Zm48,0h32v32H240Zm80-16H192V176h32v40a8,8,0,0,0,8,8h48a8,8,0,0,0,8-8V176h32ZM240,176h32v32H240ZM96,176h32v32H96Zm-48,0H80v40a8,8,0,0,0,8,8h48a8,8,0,0,0,8-8V176h32V288H48ZM96,304h32v32H96Zm-48,0H80v40a8,8,0,0,0,8,8h48a8,8,0,0,0,8-8V304h32V416H48ZM96,480H64V464H96Zm176,0H240V464h32Zm176,0H416V464h32Zm32-32H32V432H480Z"></path><rect x="288" y="384" width="16" height="16"></rect><rect x="144" y="384" width="16" height="16"></rect><rect x="288" y="256" width="16" height="16"></rect><rect x="144" y="256" width="16" height="16"></rect><path d="M493.268,73.979l-64-56a8,8,0,0,0-10.536,0l-64,56A8,8,0,0,0,352,80v24a8,8,0,0,0,8,8h24V360h16V104a8,8,0,0,0-8-8H368V83.63l56-49,56,49V96H456a8,8,0,0,0-8,8V360h16V112h24a8,8,0,0,0,8-8V80A8,8,0,0,0,493.268,73.979Z"></path><rect x="384" y="376" width="16" height="16"></rect><rect x="448" y="376" width="16" height="16"></rect><path d="M192,112h24v32h16V104a8,8,0,0,0-8-8H200V83.63l56-49,56,49V96H288a8,8,0,0,0-8,8v40h16V112h24a8,8,0,0,0,8-8V80a8,8,0,0,0-2.732-6.021l-64-56a8,8,0,0,0-10.536,0l-64,56A8,8,0,0,0,184,80v24A8,8,0,0,0,192,112Z"></path><path d="M24,112H48v32H64V104a8,8,0,0,0-8-8H32V83.63l56-49,56,49V96H120a8,8,0,0,0-8,8v40h16V112h24a8,8,0,0,0,8-8V80a8,8,0,0,0-2.732-6.021l-64-56a8,8,0,0,0-10.536,0l-64,56A8,8,0,0,0,16,80v24A8,8,0,0,0,24,112Z"></path></g></svg>