<svg height='100px' width='100px'  fill="#000000" xmlns="http://www.w3.org/2000/svg" xmlns:xlink="http://www.w3.org/1999/xlink" version="1.1" x="0px" y="0px" viewBox="0 0 100 100" enable-background="new 0 0 100 100" xml:space="preserve"><g><path fill="none" d="M50,45c-2.757,0-5,2.243-5,5s2.243,5,5,5s5-2.243,5-5S52.757,45,50,45z"></path><path fill="none" d="M66.216,56.561C67.067,54.458,67.5,52.251,67.5,50c0-9.649-7.851-17.5-17.5-17.5S32.5,40.351,32.5,50   c0,2.25,0.432,4.458,1.284,6.562L35.178,60H20.6l-1.174,1.844l4.393,1.188l-1.694,4.226l4.541,0.358l-0.893,4.469l4.532-0.478   l-0.061,4.556l4.367-1.297l0.775,4.484l4.049-2.078l1.59,4.264l3.594-2.791l2.354,3.9L50,79.234l3.027,3.41l2.354-3.9l3.594,2.791   l1.589-4.262l4.049,2.078l0.777-4.488l4.364,1.3l-0.061-4.556l4.533,0.478l-0.893-4.468l4.541-0.358l-1.694-4.227l4.393-1.188   L79.398,60H64.821L66.216,56.561z M50,60c-5.514,0-10-4.486-10-10c0-5.514,4.486-10,10-10c5.514,0,10,4.486,10,10   C60,55.514,55.514,60,50,60z"></path><path fill="#000000" d="M50,40c-5.514,0-10,4.486-10,10c0,5.514,4.486,10,10,10c5.514,0,10-4.486,10-10C60,44.486,55.514,40,50,40z    M50,55c-2.757,0-5-2.243-5-5s2.243-5,5-5s5,2.243,5,5S52.757,55,50,55z"></path><path fill="#000000" d="M85.561,22.472C89.435,22.183,92.5,18.947,92.5,15c0-4.136-3.364-7.5-7.5-7.5   c-3.946,0-7.184,3.066-7.472,6.94C69.912,8.531,60.363,5,50,5C25.187,5,5,25.187,5,50c0,2.616,0.24,5.287,0.712,7.938L6.08,60   h8.423l0.129,0.063l-3.079,4.832l5.531,1.496l-2.132,5.315l5.707,0.45l-1.12,5.611l5.691-0.599l-0.076,5.722l5.488-1.631   l0.976,5.643l5.098-2.615l2.003,5.369l4.525-3.514l2.958,4.9L50,86.766l3.799,4.277l2.957-4.9l4.525,3.516l2.003-5.369l5.096,2.615   l0.977-5.643l5.485,1.634l-0.074-5.726l5.691,0.601l-1.119-5.612l5.707-0.45l-2.132-5.316l5.529-1.496l-3.077-4.832L85.498,60   h8.423l0.367-2.062C94.761,55.286,95,52.615,95,50C95,39.636,91.47,30.087,85.561,22.472z M50,10   c10.13,0,19.387,3.792,26.441,10.023L64.033,32.432C60.183,29.35,55.305,27.5,50,27.5c-12.407,0-22.5,10.093-22.5,22.5   c0,1.691,0.189,3.363,0.565,5H10.32C10.107,53.322,10,51.648,10,50C10,27.944,27.944,10,50,10z M87.5,15c0,1.378-1.121,2.5-2.5,2.5   s-2.5-1.122-2.5-2.5s1.121-2.5,2.5-2.5S87.5,13.622,87.5,15z M90,50c0,1.647-0.107,3.322-0.32,5H71.936   c0.375-1.637,0.564-3.309,0.564-5c0-5.305-1.85-10.183-4.932-14.033l12.408-12.409C86.207,30.613,90,39.87,90,50z M80.573,61.845   l-4.393,1.188l1.694,4.227l-4.541,0.358l0.893,4.468l-4.533-0.478l0.061,4.556l-4.364-1.3l-0.777,4.488l-4.049-2.078l-1.589,4.262   l-3.594-2.791l-2.354,3.9L50,79.234l-3.027,3.41l-2.354-3.9l-3.594,2.791l-1.59-4.264l-4.049,2.078l-0.775-4.484l-4.367,1.297   l0.061-4.556l-4.532,0.478l0.893-4.469l-4.541-0.358l1.694-4.226l-4.393-1.188L20.6,60h14.578l-1.394-3.438   C32.932,54.458,32.5,52.25,32.5,50c0-9.649,7.851-17.5,17.5-17.5S67.5,40.351,67.5,50c0,2.251-0.433,4.458-1.284,6.561L64.821,60   h14.577L80.573,61.845z"></path></g></svg>