<svg height='100px' width='100px'  fill="#000000" xmlns="http://www.w3.org/2000/svg" viewBox="0 0 512 512" x="0px" y="0px"><title>computer</title><path d="M477,86H200V81a35,35,0,0,0-35-35H35A35,35,0,0,0,0,81V431a35,35,0,0,0,35,35H165a35,35,0,0,0,35-35V396h96v40H241a15,15,0,0,0,0,30H381a15,15,0,0,0,0-30H326V396H477a35,35,0,0,0,35-35V121A35,35,0,0,0,477,86Zm0,30a5,5,0,0,1,5,5V286H200V116ZM35,76H165a5,5,0,0,1,5,5v45H30V81A5,5,0,0,1,35,76ZM165,436H35a5,5,0,0,1-5-5V156H170V431A5,5,0,0,1,165,436Zm312-70H200V316H482v45A5,5,0,0,1,477,366Z"></path><path d="M100,210.89a45,45,0,1,0,45,45A45.05,45.05,0,0,0,100,210.89Zm0,60a15,15,0,1,1,15-15A15,15,0,0,1,100,270.89Z"></path></svg>