<svg height='100px' width='100px'  fill="#000000" xmlns="http://www.w3.org/2000/svg" xmlns:xlink="http://www.w3.org/1999/xlink" version="1.1" x="0px" y="0px" viewBox="0 0 60 60" style="enable-background:new 0 0 60 60;" xml:space="preserve"><path d="M53,6H7C6.45,6,6,6.45,6,7v4c0,0.55,0.45,1,1,1h2v5H7c-0.55,0-1,0.45-1,1s0.45,1,1,1h2v29H7c-0.55,0-1,0.45-1,1s0.45,1,1,1  h2v2H8c-0.55,0-1,0.45-1,1s0.45,1,1,1h4c0.55,0,1-0.45,1-1s-0.45-1-1-1h-1v-2h38v2h-1c-0.55,0-1,0.45-1,1s0.45,1,1,1h4  c0.55,0,1-0.45,1-1s-0.45-1-1-1h-1v-2h2c0.55,0,1-0.45,1-1s-0.45-1-1-1h-2V19h2c0.55,0,1-0.45,1-1s-0.45-1-1-1h-2v-5h2  c0.55,0,1-0.45,1-1V7C54,6.45,53.55,6,53,6z M49,48H11V19h14.16c0.14,0.26,0.39,0.47,0.71,0.52c0.43,0.07,0.83-0.16,1.02-0.52h4.09  c0,1.1-0.9,2-2,2c-0.55,0-1,0.45-1,1c0,0.03,0.02,0.06,0.02,0.1v1.37L25.7,25h-1.04c-0.72,0-1.42,0.23-2.03,0.66L17.9,29  c-0.92,0.65-1.18,1.99-0.57,2.98l2.23,3.64c0.25,0.41,0.66,0.7,1.12,0.78c0.45,0.08,0.91-0.03,1.27-0.31l0.35-0.26l-0.32,7.5  c-0.02,0.45,0.14,0.89,0.44,1.2c0.28,0.3,0.66,0.46,1.06,0.46h11.24c0.37,0,0.72-0.15,0.98-0.42c0.28-0.29,0.42-0.69,0.41-1.1  l-0.33-7.47l0.31,0.25c0.35,0.28,0.8,0.4,1.23,0.32c0.44-0.08,0.84-0.35,1.08-0.75l2.3-3.81c0.54-0.89,0.34-2.08-0.45-2.71  l-4.34-3.51c-0.65-0.53-1.43-0.8-2.24-0.8H32.3L30,23.46v-0.61c1.71-0.45,2.98-2,2.98-3.85H49V48z M34.09,43h-10.1l0.39-9.18  c0.02-0.39-0.19-0.75-0.53-0.93c-0.34-0.18-0.76-0.15-1.07,0.08l-1.71,1.28l-2.03-3.32c-0.07-0.11-0.02-0.27,0.02-0.3l4.73-3.34  C24.05,27.1,24.35,27,24.66,27H25c0,2.21,1.79,4,4,4s4-1.79,4-4h0.67c0.35,0,0.69,0.13,0.98,0.36l4.33,3.5  c0.01,0.02,0.02,0.09,0,0.13l-2.04,3.39l-1.63-1.32c-0.31-0.25-0.73-0.29-1.08-0.12c-0.35,0.18-0.57,0.54-0.55,0.94L34.09,43z   M31,27c0,1.1-0.9,2-2,2s-2-0.9-2-2v-0.46l2-1.33l2,1.33V27z M49,17H32.43c-0.17-0.3-0.38-0.58-0.62-0.83  C31.05,15.42,30.05,15,28.98,15c-1.45,0-2.76,0.8-3.46,2H11v-5h38V17z M52,10h-2H10H8V8h44V10z"></path></svg>