<svg height='100px' width='100px'  fill="#000000" xmlns="http://www.w3.org/2000/svg" viewBox="0 0 64 64" x="0px" y="0px"><g data-name="Layer 13"><path d="M58,41H55.664A27,27,0,1,0,8.336,41H6a5.006,5.006,0,0,0-5,5V58a5.006,5.006,0,0,0,5,5H58a5.006,5.006,0,0,0,5-5V46A5.006,5.006,0,0,0,58,41ZM9.28,38.437l3.683-1.517L12.2,35.071,8.519,36.587A24.966,24.966,0,0,1,7.035,29H11V27H7.025a24.869,24.869,0,0,1,1.533-7.684l3.672,1.53L13,19,9.333,17.472a25.063,25.063,0,0,1,4.307-6.417l2.8,2.8,1.414-1.414-2.8-2.8a25.085,25.085,0,0,1,6.513-4.35l1.512,3.672,1.85-.761L23.413,4.519A24.862,24.862,0,0,1,31,3.025V7h2V3.025a24.869,24.869,0,0,1,7.684,1.533L39.154,8.23,41,9l1.528-3.667A25.086,25.086,0,0,1,48.946,9.64l-2.8,2.8,1.414,1.414,2.8-2.8a25.062,25.062,0,0,1,4.35,6.512L51.037,19.08l.762,1.849,3.682-1.516A24.862,24.862,0,0,1,56.975,27H53v2h3.965a24.965,24.965,0,0,1-1.517,7.687L51.77,35.154,51,37l3.673,1.53A24.792,24.792,0,0,1,53.344,41H39.452a15,15,0,1,0-14.9,0H10.656A24.884,24.884,0,0,1,9.28,38.437Zm18.966,2.005A12.933,12.933,0,0,1,25.761,39.4l2.291-2.863a.45.45,0,0,1,.546-.12.445.445,0,0,1,.24.472Zm1.957.419.608-3.643a2.446,2.446,0,0,0-4.322-1.93l-2.4,3a13.047,13.047,0,0,1-2.377-2.377l3-2.4a2.46,2.46,0,0,0,.659-3,2.428,2.428,0,0,0-2.589-1.318l-3.644.607a11.672,11.672,0,0,1,0-3.592l3.644.607a2.469,2.469,0,0,0,.408.034,2.434,2.434,0,0,0,2.181-1.353,2.459,2.459,0,0,0-.659-3l-3-2.4a13.047,13.047,0,0,1,2.377-2.377l2.4,3a2.455,2.455,0,0,0,1.917.915,2.439,2.439,0,0,0,2.405-2.845L30.2,15.139a11.685,11.685,0,0,1,3.594,0l-.608,3.643a2.439,2.439,0,0,0,2.405,2.845,2.458,2.458,0,0,0,1.917-.915l2.4-3a13.047,13.047,0,0,1,2.377,2.377l-3,2.4a2.46,2.46,0,0,0-.659,3,2.439,2.439,0,0,0,2.589,1.318l3.644-.607a11.672,11.672,0,0,1,0,3.592l-3.644-.607a2.431,2.431,0,0,0-2.589,1.319,2.459,2.459,0,0,0,.659,3l3,2.4a13.047,13.047,0,0,1-2.377,2.377l-2.4-3a2.446,2.446,0,0,0-4.322,1.93l.608,3.643a11.685,11.685,0,0,1-3.594,0Zm-9.6-19.1,2.863,2.29a.446.446,0,0,1-.352.787l-3.553-.592A12.933,12.933,0,0,1,20.6,21.761Zm-1.042,9.993,3.553-.592a.445.445,0,0,1,.352.787L20.6,34.239A12.933,12.933,0,0,1,19.558,31.754Zm8.688-16.2.592,3.553a.444.444,0,0,1-.786.351L25.761,16.6A12.933,12.933,0,0,1,28.246,15.558Zm7.508,0A12.933,12.933,0,0,1,38.239,16.6l-2.291,2.863a.445.445,0,0,1-.786-.352ZM43.4,34.239l-2.863-2.29a.445.445,0,0,1-.12-.546.441.441,0,0,1,.472-.241l3.553.592A12.933,12.933,0,0,1,43.4,34.239Zm1.042-9.993-3.553.592a.445.445,0,0,1-.352-.787l2.863-2.29A12.933,12.933,0,0,1,44.442,24.246Zm-9.28,12.643a.444.444,0,0,1,.786-.351L38.239,39.4a12.933,12.933,0,0,1-2.485,1.042ZM61,58a3,3,0,0,1-3,3H51.414l4.293-4.293-1.414-1.414L48.586,61H41.414l4.293-4.293-1.414-1.414L38.586,61H31.414l4.293-4.293-1.414-1.414L28.586,61H21.414l4.293-4.293-1.414-1.414L18.586,61H11.414l4.293-4.293-1.414-1.414L8.586,61H6a3,3,0,0,1-3-3V46a3,3,0,0,1,3-3H8.586l5.707,5.707,1.414-1.414L11.414,43h7.172l5.707,5.707,1.414-1.414L21.414,43h7.172l5.707,5.707,1.414-1.414L31.414,43h7.172l5.707,5.707,1.414-1.414L41.414,43h7.172l5.707,5.707,1.414-1.414L51.414,43H58a3,3,0,0,1,3,3Z"></path><path d="M37,28a5,5,0,1,0-5,5A5.006,5.006,0,0,0,37,28Zm-5,3a3,3,0,1,1,3-3A3,3,0,0,1,32,31Z"></path><rect x="5" y="51" width="54" height="2"></rect></g></svg>