<svg height='100px' width='100px'  fill="#000000" xmlns="http://www.w3.org/2000/svg" viewBox="0 0 64 64" x="0px" y="0px"><g data-name="17-Flour"><path d="M53,52.42V50a1,1,0,0,0-2,0v3a1,1,0,0,0,.55.89S55,55.68,55,59a1,1,0,0,1-1,1H10a1,1,0,0,1-1-1c0-3.32,3.42-5.09,3.45-5.11A1,1,0,0,0,13,53V24H51V46a1,1,0,0,0,2,0V24a3,3,0,0,0,3-3V19a3,3,0,0,0-3-3h-.43C51,13.4,43.26,2,32,2A18.77,18.77,0,0,0,21.83,5.2a1,1,0,0,0,1.08,1.68A16.8,16.8,0,0,1,32,4c9,0,15.75,8.49,18.17,12H13.83a36.6,36.6,0,0,1,6-6.78,1,1,0,1,0-1.32-1.5,38.55,38.55,0,0,0-7,8.28H11a3,3,0,0,0-3,3v2a3,3,0,0,0,3,3V52.42C9.78,53.2,7,55.36,7,59a3,3,0,0,0,3,3H54a3,3,0,0,0,3-3C57,55.36,54.22,53.2,53,52.42ZM10,21V19a1,1,0,0,1,1-1H53a1,1,0,0,1,1,1v2a1,1,0,0,1-1,1H11A1,1,0,0,1,10,21Z"></path><path d="M41,37a1,1,0,0,0-1-1H37a5.81,5.81,0,0,0-1.39.17A6.12,6.12,0,0,0,36,34a7.1,7.1,0,0,0-3.51-5.87,1,1,0,0,0-1,0A7.1,7.1,0,0,0,28,34a6.12,6.12,0,0,0,.39,2.17A5.81,5.81,0,0,0,27,36H24a1,1,0,0,0-1,1v1a6,6,0,0,0,1.54,4H24a1,1,0,0,0-1,1v1a6,6,0,0,0,6,6h2v5a1,1,0,0,0,2,0V50h2a6,6,0,0,0,6-6V43a1,1,0,0,0-1-1h-.54A6,6,0,0,0,41,38Zm-2,1a4,4,0,0,1-4,4H33a4,4,0,0,1,4-4Zm-7-7.79a4.59,4.59,0,0,1,0,7.58,4.59,4.59,0,0,1,0-7.58ZM27,38a4,4,0,0,1,4,4H29a4,4,0,0,1-4-4Zm-2,6h2a4,4,0,0,1,4,4H29A4,4,0,0,1,25,44Zm10,4H33a4,4,0,0,1,4-4h2A4,4,0,0,1,35,48Z"></path></g></svg>