<svg width="14" height="19" viewBox="0 0 14 19" fill="none" xmlns="http://www.w3.org/2000/svg">
  <path
    d="M7 0.75C5.1773 0.75215 3.42987 1.47717 2.14102 2.76602C0.852173 4.05486 0.127155 5.8023 0.125004 7.625C0.123328 9.11443 0.609821 10.5634 1.51 11.75C1.51 11.75 1.6975 11.9969 1.72813 12.0325L7 18.25L12.2744 12.0294C12.3019 11.9963 12.49 11.75 12.49 11.75L12.4906 11.7481C13.3902 10.5619 13.8764 9.11372 13.875 7.625C13.8729 5.8023 13.1478 4.05486 11.859 2.76602C10.5701 1.47717 8.82271 0.75215 7 0.75ZM7 10.125C6.50555 10.125 6.0222 9.97838 5.61108 9.70367C5.19996 9.42897 4.87952 9.03852 4.6903 8.58171C4.50109 8.12489 4.45158 7.62223 4.54804 7.13727C4.6445 6.65232 4.88261 6.20686 5.23224 5.85723C5.58187 5.5076 6.02733 5.2695 6.51228 5.17304C6.99723 5.07657 7.4999 5.12608 7.95671 5.3153C8.41353 5.50452 8.80397 5.82495 9.07868 6.23607C9.35338 6.6472 9.5 7.13055 9.5 7.625C9.49918 8.28779 9.23552 8.92319 8.76686 9.39185C8.29819 9.86052 7.66279 10.1242 7 10.125Z"
    fill="#F45B21" />
</svg>
